<svg width="54" height="54" viewBox="0 0 54 54" fill="none" xmlns="http://www.w3.org/2000/svg">
<g filter="url(#filter0_dd_1688_149223)">
<path d="M25.306 45.4717L25.3602 45.4999H25.4213H26.319H26.3446L26.3696 45.4948L28.4951 45.0557L28.4972 45.0552L30.4965 44.6601L30.6705 44.6257L30.6956 44.4501L30.8237 43.5517L30.8581 44.9484L30.8641 45.1923H31.108H35.6519H35.6592L35.6664 45.1919L40.9495 44.8846H43.3441H43.5377L43.5861 44.6971L44.2921 41.9623L44.1009 44.6166L44.0503 45.3188L44.5324 44.8058L45.4412 43.8388L45.4896 43.7872L45.5039 43.7179L45.5097 43.6897L45.453 44.6194L45.4369 44.8846H45.7026H47.9745H48.0853L48.1598 44.8025L49.0361 43.8354L49.1008 43.764V43.6676V40.7665V40.7205L49.0845 40.6776L48.3886 38.8481L48.9754 37.7167L49.0022 37.6651L49.0034 37.6069L49.1008 33.0355L49.1014 33.0059L49.0951 32.9769L48.5893 30.6595L48.3652 28.7082V24.3945L48.999 21.0771L49.0075 21.0325L48.9998 20.9877L48.7776 19.6978L49.003 16.0346L49.0046 16.008L49.0006 15.9817L48.5255 12.8505L49.0751 11.734L49.1008 11.6818V11.6236V3.14008V3.09847L49.0874 3.0591L48.4403 1.16896L48.3824 0.999938L48.2037 0.999939L43.0303 0.999969L42.8176 0.99997L42.7836 1.2099L42.3269 4.02202L41.8268 1.20625L41.7901 0.999969L41.5806 0.999969L36.2037 0.999968L36.1716 0.999968L36.1406 1.00806L32.0944 2.063L31.9614 2.09768L31.9194 2.22857L30.8788 5.47312L30.4521 1.72168L30.4279 1.50897L30.214 1.50015L18.0925 1.00018L17.8556 0.990407L17.8333 1.22648L17.5916 3.7886L17.442 3.97315L17.2932 1.2364L17.2798 0.98931L17.0326 1.00021L5.69272 1.50018L5.49185 1.50903L5.45742 1.70712L4.60453 6.61374L4.60083 6.63499V6.65656L4.60083 9.77744L4.60083 9.92857L4.73465 9.9988L6.19029 10.7628L4.79944 11.5842L4.66921 11.6611L4.67688 11.8121L5.02309 18.6253L5.02882 18.7381L5.11721 18.8083L6.24122 19.7017L5.59192 20.0263L5.47234 20.0861L5.45568 20.2188L4.67851 26.4056L4.67538 26.4306L4.67727 26.4557L4.84949 28.7297L4.77397 32.8498L4.7703 33.0499L4.96481 33.0973L7.67663 33.7573L5.13445 34.4145L4.96702 34.4578L4.94847 34.6297L4.60227 37.8385L4.60083 37.8519V37.8653L4.60083 43.7994V43.8987L4.66899 43.971L4.91782 44.2347L5.02422 44.3475L5.17253 44.3023L6.00241 44.0494H8.78887H8.93221L9.00462 43.9257L9.25933 43.4906L9.21329 43.7568L9.16516 44.0351L9.44724 44.0491L21.8111 44.6628L22.9577 45.0474L23.0143 45.0664L23.0734 45.0578L24.1944 44.8936L25.306 45.4717Z" fill="#CBBF98" stroke="#93928F" stroke-width="0.5"/>
<path fill-rule="evenodd" clip-rule="evenodd" d="M24.2381 44.6346L25.4213 45.2499H26.319L28.4466 44.8104L30.4481 44.4148L30.9998 40.5467L31.108 44.9423H35.6519L40.9423 44.6346H43.3441L44.7397 39.228L44.3502 44.6346L45.259 43.6675L45.973 40.195L45.7026 44.6346H47.9745L48.8508 43.6676V40.7665L48.1152 38.8324L48.7535 37.6016L48.8508 33.0302L48.3423 30.7005L48.1152 28.7225V24.3708L48.7535 21.0302L48.5263 19.7115L48.7535 16.0192L48.2666 12.8104L48.8508 11.6236V3.14008L48.2037 1.24994L43.0303 1.24997L42.3379 5.51371L41.5806 1.24997L36.2037 1.24997L32.1574 2.30491L30.7618 6.65656L30.2037 1.74994L18.0822 1.24997L17.8334 3.88733L17.2275 4.63458L17.0436 1.24997L5.70373 1.74994L4.85083 6.65656L4.85083 9.77744L6.70373 10.7499L4.92656 11.7994L5.27276 18.6126L6.70373 19.7499L5.70373 20.2499L4.92656 26.4368L5.09966 28.7225L5.02393 32.8544L8.70373 33.7499L5.19703 34.6566L4.85083 37.8653V43.7994L5.09966 44.0632L5.96516 43.7994H8.78887L9.74092 42.173L9.45963 43.7994L21.858 44.4148L23.0372 44.8104L24.2381 44.6346ZM6.85083 2.74994L5.85083 8.74994L9.35083 10.7499L5.85083 12.7499L6.35083 17.7499L8.35083 19.7499L6.85083 21.2499L6.35083 26.7499L6.85083 31.7499L11.3508 33.7499L6.35083 36.2499L5.85083 41.2499L7.85083 42.2499L10.3508 40.2499L11.8508 42.7499H20.8508L24.3508 43.2499L26.8508 43.7499H28.3508L31.3508 38.2499L32.3508 42.2499L33.8508 43.2499L42.3508 42.7499L44.8508 37.2499L46.8508 39.2499L47.8508 37.2499L46.8508 32.7499V25.7499L47.3508 21.2499L47.8508 18.2499L46.3508 11.7499L47.8508 9.74994L47.3508 4.74994L44.8508 3.24994L42.8508 7.74994L40.3508 3.24994L36.8508 2.74994L33.3508 4.74994L30.8508 8.74994L28.8508 4.24994L23.8508 2.74994H19.8508L17.8508 6.24994L16.8508 6.74994L15.8508 3.24994L11.8508 2.24994L7.35083 2.74994H6.85083Z" fill="#C1B590"/>
</g>
<defs>
<filter id="filter0_dd_1688_149223" x="0.35083" y="0.728638" width="53.0011" height="53.2744" filterUnits="userSpaceOnUse" color-interpolation-filters="sRGB">
<feFlood flood-opacity="0" result="BackgroundImageFix"/>
<feColorMatrix in="SourceAlpha" type="matrix" values="0 0 0 0 0 0 0 0 0 0 0 0 0 0 0 0 0 0 127 0" result="hardAlpha"/>
<feOffset dy="0.5"/>
<feComposite in2="hardAlpha" operator="out"/>
<feColorMatrix type="matrix" values="0 0 0 0 0.518945 0 0 0 0 0.518945 0 0 0 0 0.518945 0 0 0 1 0"/>
<feBlend mode="normal" in2="BackgroundImageFix" result="effect1_dropShadow_1688_149223"/>
<feColorMatrix in="SourceAlpha" type="matrix" values="0 0 0 0 0 0 0 0 0 0 0 0 0 0 0 0 0 0 127 0" result="hardAlpha"/>
<feOffset dy="4"/>
<feGaussianBlur stdDeviation="2"/>
<feComposite in2="hardAlpha" operator="out"/>
<feColorMatrix type="matrix" values="0 0 0 0 0 0 0 0 0 0 0 0 0 0 0 0 0 0 0.25 0"/>
<feBlend mode="normal" in2="effect1_dropShadow_1688_149223" result="effect2_dropShadow_1688_149223"/>
<feBlend mode="normal" in="SourceGraphic" in2="effect2_dropShadow_1688_149223" result="shape"/>
</filter>
</defs>
</svg>
