<svg width="68" height="50" viewBox="0 0 68 50" fill="none" xmlns="http://www.w3.org/2000/svg">
<g filter="url(#filter0_d_1688_147647)">
<path d="M14.5054 2.30385L2.2821 14.9091C2.10118 15.0957 2 15.3453 2 15.6052V32.3948C2 32.6547 2.10118 32.9043 2.2821 33.0909L14.5054 45.6961C14.6937 45.8904 14.9527 46 15.2233 46H52.7767C53.0473 46 53.3063 45.8904 53.4947 45.6961L65.7179 33.0909C65.8988 32.9043 66 32.6547 66 32.3948V15.6052C66 15.3453 65.8988 15.0957 65.7179 14.9091L53.4947 2.30385C53.3063 2.10963 53.0473 2 52.7768 2H15.2233C14.9527 2 14.6937 2.10963 14.5054 2.30385Z" fill="url(#paint0_linear_1688_147647)"/>
<path d="M2.64105 15.2572L14.8643 2.65193C14.9585 2.55481 15.088 2.5 15.2233 2.5H52.7768C52.912 2.5 53.0415 2.55481 53.1357 2.65193L65.359 15.2572C65.4494 15.3504 65.5 15.4753 65.5 15.6052V32.3948C65.5 32.5247 65.4494 32.6496 65.359 32.7428L53.1357 45.3481C53.0415 45.4452 52.912 45.5 52.7767 45.5H15.2233C15.088 45.5 14.9585 45.4452 14.8643 45.3481L2.64105 32.7428L2.2821 33.0909L2.64105 32.7428C2.55059 32.6496 2.5 32.5247 2.5 32.3948V15.6052C2.5 15.4753 2.55059 15.3504 2.64105 15.2572Z" stroke="url(#paint1_linear_1688_147647)"/>
</g>
<g filter="url(#filter1_d_1688_147647)">
<g filter="url(#filter2_dd_1688_147647)">
<path d="M21.2727 12.5455L14.4848 19.0909V28.9091L21.2727 35.4545V12.5455Z" fill="#D6D6D6" shape-rendering="crispEdges"/>
<path d="M46.7273 35.4545L53.5152 28.9091V19.0909L46.7273 12.5455L46.7273 35.4545Z" fill="#D6D6D6" shape-rendering="crispEdges"/>
<path d="M21.2727 12.5455L46.7273 12.5455L46.7273 35.4545H21.2727V12.5455Z" fill="#D6D6D6" shape-rendering="crispEdges"/>
<path d="M6 31.3636L14.4848 28.9091L21.2727 35.4545L17.0303 42L6 31.3636Z" fill="#B9B9B9" shape-rendering="crispEdges"/>
<path d="M6 16.6364L14.4848 19.0909L21.2727 12.5455L17.0303 6L6 16.6364Z" fill="#CDCDCD" shape-rendering="crispEdges"/>
<path d="M46.7273 12.5455L50.9697 6L62 16.6364L53.5152 19.0909L46.7273 12.5455Z" fill="#D3D2D2" shape-rendering="crispEdges"/>
<path d="M62 31.3636L53.5152 28.9091L46.7273 35.4545L50.9697 42L62 31.3636Z" fill="#B9B9B9" shape-rendering="crispEdges"/>
<path d="M50.9697 42L46.7273 35.4545H21.2727L17.0303 42H50.9697Z" fill="#AFAEAE" shape-rendering="crispEdges"/>
<path d="M21.2727 12.5455L17.0303 6L50.9697 6L46.7273 12.5455L21.2727 12.5455Z" fill="#DDDDDD" shape-rendering="crispEdges"/>
<path d="M6 16.6364L14.4848 19.0909V28.9091L6 31.3636V16.6364Z" fill="#C4C4C4" shape-rendering="crispEdges"/>
<path d="M62 16.6364L53.5152 19.0909V28.9091L62 31.3636V16.6364Z" fill="#CACACA" shape-rendering="crispEdges"/>
<path d="M21.697 34.6364L38.2424 35.4545H21.697L19.1515 38.7273L20.8485 35.0455L14.4848 28.9091L21.697 34.6364Z" fill="white" shape-rendering="crispEdges"/>
<path d="M46.303 13.3636L29.7576 12.5455L46.303 12.5455L48.8485 9.27273L47.1515 12.9545L53.5152 19.0909L46.303 13.3636Z" fill="white" shape-rendering="crispEdges"/>
<path d="M49.8667 6H42.3525L32.861 12.5483H43.539L49.8667 6Z" fill="white" fill-opacity="0.3" shape-rendering="crispEdges"/>
<path d="M31.2791 12.5483L37.2113 6H27.7198L26.5333 12.5483H31.2791Z" fill="white" fill-opacity="0.3" shape-rendering="crispEdges"/>
</g>
</g>
<defs>
<filter id="filter0_d_1688_147647" x="2" y="2" width="64" height="46" filterUnits="userSpaceOnUse" color-interpolation-filters="sRGB">
<feFlood flood-opacity="0" result="BackgroundImageFix"/>
<feColorMatrix in="SourceAlpha" type="matrix" values="0 0 0 0 0 0 0 0 0 0 0 0 0 0 0 0 0 0 127 0" result="hardAlpha"/>
<feOffset dy="2"/>
<feComposite in2="hardAlpha" operator="out"/>
<feColorMatrix type="matrix" values="0 0 0 0 0.278431 0 0 0 0 0.156863 0 0 0 0 0.0980392 0 0 0 1 0"/>
<feBlend mode="normal" in2="BackgroundImageFix" result="effect1_dropShadow_1688_147647"/>
<feBlend mode="normal" in="SourceGraphic" in2="effect1_dropShadow_1688_147647" result="shape"/>
</filter>
<filter id="filter1_d_1688_147647" x="2" y="2" width="64" height="46" filterUnits="userSpaceOnUse" color-interpolation-filters="sRGB">
<feFlood flood-opacity="0" result="BackgroundImageFix"/>
<feColorMatrix in="SourceAlpha" type="matrix" values="0 0 0 0 0 0 0 0 0 0 0 0 0 0 0 0 0 0 127 0" result="hardAlpha"/>
<feOffset dy="2"/>
<feComposite in2="hardAlpha" operator="out"/>
<feColorMatrix type="matrix" values="0 0 0 0 0 0 0 0 0 0 0 0 0 0 0 0 0 0 0.25 0"/>
<feBlend mode="normal" in2="BackgroundImageFix" result="effect1_dropShadow_1688_147647"/>
<feBlend mode="normal" in="SourceGraphic" in2="effect1_dropShadow_1688_147647" result="shape"/>
</filter>
<filter id="filter2_dd_1688_147647" x="0" y="0" width="68" height="50" filterUnits="userSpaceOnUse" color-interpolation-filters="sRGB">
<feFlood flood-opacity="0" result="BackgroundImageFix"/>
<feColorMatrix in="SourceAlpha" type="matrix" values="0 0 0 0 0 0 0 0 0 0 0 0 0 0 0 0 0 0 127 0" result="hardAlpha"/>
<feOffset dy="4"/>
<feGaussianBlur stdDeviation="2"/>
<feComposite in2="hardAlpha" operator="out"/>
<feColorMatrix type="matrix" values="0 0 0 0 0 0 0 0 0 0 0 0 0 0 0 0 0 0 0.25 0"/>
<feBlend mode="normal" in2="BackgroundImageFix" result="effect1_dropShadow_1688_147647"/>
<feColorMatrix in="SourceAlpha" type="matrix" values="0 0 0 0 0 0 0 0 0 0 0 0 0 0 0 0 0 0 127 0" result="hardAlpha"/>
<feOffset/>
<feGaussianBlur stdDeviation="3"/>
<feComposite in2="hardAlpha" operator="out"/>
<feColorMatrix type="matrix" values="0 0 0 0 0 0 0 0 0 1 0 0 0 0 0.0400001 0 0 0 1 0"/>
<feBlend mode="normal" in2="effect1_dropShadow_1688_147647" result="effect2_dropShadow_1688_147647"/>
<feBlend mode="normal" in="SourceGraphic" in2="effect2_dropShadow_1688_147647" result="shape"/>
</filter>
<linearGradient id="paint0_linear_1688_147647" x1="34" y1="2" x2="34" y2="46" gradientUnits="userSpaceOnUse">
<stop stop-color="#472819"/>
<stop offset="1" stop-color="#875B3B"/>
</linearGradient>
<linearGradient id="paint1_linear_1688_147647" x1="34" y1="2" x2="34" y2="46" gradientUnits="userSpaceOnUse">
<stop stop-color="#885C3C"/>
<stop offset="1" stop-color="#472819"/>
</linearGradient>
</defs>
</svg>
