<svg width="62" height="32" viewBox="0 0 62 32" fill="none" xmlns="http://www.w3.org/2000/svg">
<mask id="path-1-outside-1_1102_42256" maskUnits="userSpaceOnUse" x="-1.19213e-07" y="-3.91071e-06" width="62" height="32" fill="black">
<rect fill="white" x="-1.19213e-07" y="-3.91071e-06" width="62" height="32"/>
<path fill-rule="evenodd" clip-rule="evenodd" d="M29.0507 31L27.4372 30.5804L25.7996 30.7003L24.1916 30.4306L7.28475 30.011L7.66833 28.9021L6.37008 30.011L2.51957 30.011L1.33934 30.1908L1.00002 30.011L1.00002 25.965L1.47212 23.7772L6.25398 23.1591L1.23607 22.5485L1.33934 19.7313L1.10329 18.1728L2.16306 13.9545L3.5267 13.6136L1.57539 12.8382L1.10329 8.19282L3.5267 7.47727L1.00003 6.8142L1.00003 4.68633L2.16306 1.3409L17.6265 1.00001L17.8773 3.30771L18.7035 2.79822L19.0428 1.00001L35.5721 1.3409L36.3332 4.68633L38.2363 1.71929L43.7539 1.00001L51.0861 1.00001L52.1188 3.90711L53.063 1.00001L60.1176 0.999996L61 2.28873L61 8.07294L60.2033 8.88213L60.8672 11.0699L60.5574 13.5874L60.8672 14.4865L59.9968 16.7643L59.9968 19.7313L60.3066 21.0799L61 22.6683L60.8672 25.7852L59.9968 26.6244L61 27.9431L61 29.9211L59.805 30.5804L56.7069 30.5804L57.0757 27.5535L56.102 29.9211L54.8628 30.5804L55.3939 26.8941L53.4908 30.5804L50.2156 30.5804L43.0015 30.7902L36.8053 30.7902L36.6577 27.7932L35.9053 30.4306L33.1761 30.7003L30.2748 31L29.0507 31Z"/>
</mask>
<path fill-rule="evenodd" clip-rule="evenodd" d="M29.0507 31L27.4372 30.5804L25.7996 30.7003L24.1916 30.4306L7.28475 30.011L7.66833 28.9021L6.37008 30.011L2.51957 30.011L1.33934 30.1908L1.00002 30.011L1.00002 25.965L1.47212 23.7772L6.25398 23.1591L1.23607 22.5485L1.33934 19.7313L1.10329 18.1728L2.16306 13.9545L3.5267 13.6136L1.57539 12.8382L1.10329 8.19282L3.5267 7.47727L1.00003 6.8142L1.00003 4.68633L2.16306 1.3409L17.6265 1.00001L17.8773 3.30771L18.7035 2.79822L19.0428 1.00001L35.5721 1.3409L36.3332 4.68633L38.2363 1.71929L43.7539 1.00001L51.0861 1.00001L52.1188 3.90711L53.063 1.00001L60.1176 0.999996L61 2.28873L61 8.07294L60.2033 8.88213L60.8672 11.0699L60.5574 13.5874L60.8672 14.4865L59.9968 16.7643L59.9968 19.7313L60.3066 21.0799L61 22.6683L60.8672 25.7852L59.9968 26.6244L61 27.9431L61 29.9211L59.805 30.5804L56.7069 30.5804L57.0757 27.5535L56.102 29.9211L54.8628 30.5804L55.3939 26.8941L53.4908 30.5804L50.2156 30.5804L43.0015 30.7902L36.8053 30.7902L36.6577 27.7932L35.9053 30.4306L33.1761 30.7003L30.2748 31L29.0507 31Z" fill="#D4B963"/>
<path d="M27.4372 30.5804L27.563 30.0965L27.4831 30.0757L27.4007 30.0818L27.4372 30.5804ZM29.0507 31L28.9249 31.4839L28.9868 31.5L29.0507 31.5L29.0507 31ZM25.7996 30.7003L25.7169 31.1934L25.7762 31.2034L25.8361 31.199L25.7996 30.7003ZM24.1916 30.4306L24.2743 29.9375L24.2393 29.9316L24.204 29.9307L24.1916 30.4306ZM7.28475 30.011L6.81222 29.8476L6.58865 30.4939L7.27235 30.5109L7.28475 30.011ZM7.66833 28.9021L8.14085 29.0656L8.7421 27.3274L7.34359 28.5219L7.66833 28.9021ZM6.37008 30.011L6.37008 30.511L6.55454 30.511L6.69481 30.3912L6.37008 30.011ZM2.51957 30.011L2.51957 29.511L2.4817 29.511L2.44426 29.5167L2.51957 30.011ZM1.33934 30.1908L1.10521 30.6326L1.25126 30.71L1.41465 30.6851L1.33934 30.1908ZM1.00002 30.011L0.500023 30.011L0.500023 30.3119L0.765892 30.4528L1.00002 30.011ZM1.00002 25.965L0.511273 25.8596L0.500023 25.9117L0.500023 25.965L1.00002 25.965ZM1.47212 23.7772L1.40801 23.2814L1.05784 23.3266L0.983365 23.6718L1.47212 23.7772ZM6.25398 23.1591L6.31808 23.655L6.31437 22.6627L6.25398 23.1591ZM1.23607 22.5485L0.736405 22.5301L0.719571 22.9893L1.17567 23.0448L1.23607 22.5485ZM1.33934 19.7313L1.83901 19.7496L1.84072 19.7028L1.8337 19.6564L1.33934 19.7313ZM1.10329 18.1728L0.61836 18.051L0.593889 18.1484L0.60893 18.2477L1.10329 18.1728ZM2.16306 13.9545L2.04179 13.4695L1.75113 13.5421L1.67813 13.8327L2.16306 13.9545ZM3.5267 13.6136L3.64796 14.0987L5.15385 13.7222L3.71135 13.149L3.5267 13.6136ZM1.57539 12.8382L1.07795 12.8887L1.10864 13.1907L1.39073 13.3028L1.57539 12.8382ZM1.10329 8.19282L0.961703 7.71329L0.563918 7.83074L0.605853 8.24338L1.10329 8.19282ZM3.5267 7.47727L3.66829 7.9568L5.38841 7.4489L3.65361 6.99364L3.5267 7.47727ZM1.00003 6.8142L0.500026 6.8142L0.500026 7.19992L0.873107 7.29782L1.00003 6.8142ZM1.00003 4.68633L0.527751 4.52214L0.500026 4.60189L0.500026 4.68633L1.00003 4.68633ZM2.16306 1.3409L2.15204 0.841024L1.80483 0.848679L1.69079 1.17672L2.16306 1.3409ZM17.6265 1.00001L18.1236 0.945991L18.074 0.490026L17.6155 0.500135L17.6265 1.00001ZM17.8773 3.30771L17.3803 3.36173L17.4658 4.14892L18.1398 3.73329L17.8773 3.30771ZM18.7035 2.79822L18.9659 3.22379L19.1539 3.1079L19.1948 2.89093L18.7035 2.79822ZM19.0428 1.00001L19.0531 0.500119L18.63 0.491391L18.5515 0.9073L19.0428 1.00001ZM35.5721 1.3409L36.0597 1.22999L35.973 0.849064L35.5825 0.841009L35.5721 1.3409ZM36.3332 4.68633L35.8456 4.79724L36.1102 5.9601L36.754 4.95628L36.3332 4.68633ZM38.2363 1.71929L38.1717 1.22349L37.941 1.25356L37.8154 1.44934L38.2363 1.71929ZM43.7539 1.00001L43.7539 0.500014L43.7214 0.500014L43.6892 0.504208L43.7539 1.00001ZM51.0861 1.00001L51.5572 0.832645L51.4391 0.500015L51.0861 0.500015L51.0861 1.00001ZM52.1188 3.90711L51.6476 4.07448L52.14 5.46047L52.5943 4.06156L52.1188 3.90711ZM53.063 1.00001L53.063 0.500015L52.6996 0.500017L52.5874 0.845563L53.063 1.00001ZM60.1176 0.999996L60.5302 0.717514L60.3812 0.499996L60.1176 0.499996L60.1176 0.999996ZM61 2.28873L61.5 2.28873L61.5 2.13395L61.4126 2.00624L61 2.28873ZM61 8.07294L61.3563 8.42373L61.5 8.27777L61.5 8.07294L61 8.07294ZM60.2033 8.88213L59.847 8.53135L59.6386 8.74305L59.7249 9.02732L60.2033 8.88213ZM60.8672 11.0699L61.3635 11.131L61.3764 11.026L61.3457 10.9248L60.8672 11.0699ZM60.5574 13.5874L60.0612 13.5264L60.047 13.6411L60.0847 13.7503L60.5574 13.5874ZM60.8672 14.4865L61.3343 14.665L61.3991 14.4954L61.3399 14.3236L60.8672 14.4865ZM59.9968 16.7643L59.5297 16.5858L59.4968 16.672L59.4968 16.7643L59.9968 16.7643ZM59.9968 19.7313L59.4968 19.7313L59.4968 19.788L59.5095 19.8432L59.9968 19.7313ZM60.3066 21.0799L59.8193 21.1919L59.8297 21.2373L59.8484 21.28L60.3066 21.0799ZM61 22.6683L61.4995 22.6896L61.5045 22.5742L61.4582 22.4683L61 22.6683ZM60.8672 25.7852L61.2143 26.1452L61.3583 26.0064L61.3668 25.8065L60.8672 25.7852ZM59.9968 26.6244L59.6498 26.2644L59.3296 26.5731L59.5989 26.9271L59.9968 26.6244ZM61 27.9431L61.5 27.9431L61.5 27.7745L61.3979 27.6403L61 27.9431ZM61 29.9211L61.2415 30.3589L61.5 30.2163L61.5 29.9211L61 29.9211ZM59.805 30.5804L59.805 31.0804L59.9338 31.0804L60.0466 31.0182L59.805 30.5804ZM56.7069 30.5804L56.2106 30.52L56.1423 31.0804L56.7069 31.0804L56.7069 30.5804ZM57.0757 27.5535L57.5721 27.6139L56.6133 27.3633L57.0757 27.5535ZM56.102 29.9211L56.3369 30.3625L56.4959 30.2779L56.5645 30.1113L56.102 29.9211ZM54.8628 30.5804L54.3679 30.5091L54.2273 31.4849L55.0977 31.0218L54.8628 30.5804ZM55.3939 26.8941L55.8888 26.9654L54.9496 26.6648L55.3939 26.8941ZM53.4908 30.5804L53.4908 31.0804L53.7953 31.0804L53.9351 30.8098L53.4908 30.5804ZM50.2156 30.5804L50.2156 30.0804L50.2084 30.0804L50.2011 30.0806L50.2156 30.5804ZM43.0015 30.7902L43.0015 31.2902L43.0087 31.2902L43.016 31.29L43.0015 30.7902ZM36.8053 30.7902L36.3059 30.8148L36.3293 31.2902L36.8053 31.2902L36.8053 30.7902ZM36.6577 27.7932L37.1571 27.7686L36.1769 27.6561L36.6577 27.7932ZM35.9053 30.4306L35.9545 30.9282L36.2929 30.8947L36.3862 30.5678L35.9053 30.4306ZM33.1761 30.7003L33.1269 30.2027L33.1247 30.203L33.1761 30.7003ZM30.2748 31L30.2748 31.5L30.3006 31.5L30.3262 31.4974L30.2748 31ZM27.3114 31.0643L28.9249 31.4839L29.1765 30.5161L27.563 30.0965L27.3114 31.0643ZM25.8361 31.199L27.4737 31.0791L27.4007 30.0818L25.7631 30.2017L25.8361 31.199ZM24.1088 30.9237L25.7169 31.1934L25.8823 30.2072L24.2743 29.9375L24.1088 30.9237ZM7.27235 30.5109L24.1791 30.9304L24.204 29.9307L7.29716 29.5112L7.27235 30.5109ZM7.1958 28.7387L6.81222 29.8476L7.75728 30.1745L8.14085 29.0656L7.1958 28.7387ZM6.69481 30.3912L7.99307 29.2823L7.34359 28.5219L6.04534 29.6308L6.69481 30.3912ZM2.51957 30.511L6.37008 30.511L6.37008 29.511L2.51957 29.511L2.51957 30.511ZM1.41465 30.6851L2.59488 30.5053L2.44426 29.5167L1.26403 29.6965L1.41465 30.6851ZM0.765892 30.4528L1.10521 30.6326L1.57347 29.749L1.23415 29.5692L0.765892 30.4528ZM0.500023 25.965L0.500023 30.011L1.50002 30.011L1.50002 25.965L0.500023 25.965ZM0.983365 23.6718L0.511273 25.8596L1.48877 26.0705L1.96087 23.8827L0.983365 23.6718ZM6.18987 22.6632L1.40801 23.2814L1.53622 24.2731L6.31808 23.655L6.18987 22.6632ZM1.17567 23.0448L6.19358 23.6554L6.31437 22.6627L1.29647 22.0521L1.17567 23.0448ZM0.839677 19.713L0.736405 22.5301L1.73573 22.5668L1.83901 19.7496L0.839677 19.713ZM0.60893 18.2477L0.84498 19.8062L1.8337 19.6564L1.59765 18.098L0.60893 18.2477ZM1.67813 13.8327L0.61836 18.051L1.58822 18.2947L2.64799 14.0764L1.67813 13.8327ZM3.40543 13.1286L2.04179 13.4695L2.28433 14.4396L3.64796 14.0987L3.40543 13.1286ZM1.39073 13.3028L3.34204 14.0783L3.71135 13.149L1.76004 12.3735L1.39073 13.3028ZM0.605853 8.24338L1.07795 12.8887L2.07282 12.7876L1.60073 8.14227L0.605853 8.24338ZM3.38511 6.99774L0.961703 7.71329L1.24488 8.67236L3.66829 7.9568L3.38511 6.99774ZM0.873107 7.29782L3.39978 7.96089L3.65361 6.99364L1.12694 6.33058L0.873107 7.29782ZM0.500026 4.68633L0.500026 6.8142L1.50003 6.8142L1.50003 4.68633L0.500026 4.68633ZM1.69079 1.17672L0.527751 4.52214L1.4723 4.85051L2.63534 1.50509L1.69079 1.17672ZM17.6155 0.500135L2.15204 0.841024L2.17408 1.84078L17.6375 1.49989L17.6155 0.500135ZM18.3744 3.25368L18.1236 0.945991L17.1295 1.05403L17.3803 3.36173L18.3744 3.25368ZM18.441 2.37264L17.6149 2.88213L18.1398 3.73329L18.9659 3.22379L18.441 2.37264ZM18.5515 0.9073L18.2122 2.7055L19.1948 2.89093L19.5341 1.09273L18.5515 0.9073ZM35.5825 0.841009L19.0531 0.500119L19.0325 1.49991L35.5618 1.8408L35.5825 0.841009ZM36.8207 4.57542L36.0597 1.22999L35.0846 1.45181L35.8456 4.79724L36.8207 4.57542ZM37.8154 1.44934L35.9123 4.41638L36.754 4.95628L38.6572 1.98924L37.8154 1.44934ZM43.6892 0.504208L38.1717 1.22349L38.3009 2.2151L43.8185 1.49582L43.6892 0.504208ZM51.0861 0.500015L43.7539 0.500014L43.7539 1.50001L51.0861 1.50001L51.0861 0.500015ZM52.5899 3.73974L51.5572 0.832645L50.6149 1.16738L51.6476 4.07448L52.5899 3.73974ZM52.5874 0.845563L51.6432 3.75266L52.5943 4.06156L53.5385 1.15447L52.5874 0.845563ZM60.1176 0.499996L53.063 0.500015L53.063 1.50001L60.1176 1.5L60.1176 0.499996ZM61.4126 2.00624L60.5302 0.717514L59.705 1.28248L60.5874 2.57121L61.4126 2.00624ZM61.5 8.07294L61.5 2.28873L60.5 2.28873L60.5 8.07294L61.5 8.07294ZM60.5596 9.23292L61.3563 8.42373L60.6437 7.72216L59.847 8.53135L60.5596 9.23292ZM61.3457 10.9248L60.6818 8.73695L59.7249 9.02732L60.3888 11.2151L61.3457 10.9248ZM61.0537 13.6485L61.3635 11.131L60.371 11.0089L60.0612 13.5264L61.0537 13.6485ZM61.3399 14.3236L61.0301 13.4245L60.0847 13.7503L60.3945 14.6494L61.3399 14.3236ZM60.4639 16.9427L61.3343 14.665L60.4002 14.308L59.5297 16.5858L60.4639 16.9427ZM60.4968 19.7313L60.4968 16.7643L59.4968 16.7643L59.4968 19.7313L60.4968 19.7313ZM60.7939 20.968L60.4841 19.6193L59.5095 19.8432L59.8193 21.1919L60.7939 20.968ZM61.4582 22.4683L60.7649 20.8799L59.8484 21.28L60.5418 22.8684L61.4582 22.4683ZM61.3668 25.8065L61.4995 22.6896L60.5005 22.6471L60.3677 25.764L61.3668 25.8065ZM60.3438 26.9844L61.2143 26.1452L60.5202 25.4253L59.6498 26.2644L60.3438 26.9844ZM61.3979 27.6403L60.3947 26.3217L59.5989 26.9271L60.6021 28.2458L61.3979 27.6403ZM61.5 29.9211L61.5 27.9431L60.5 27.9431L60.5 29.9211L61.5 29.9211ZM60.0466 31.0182L61.2415 30.3589L60.7584 29.4833L59.5635 30.1427L60.0466 31.0182ZM56.7069 31.0804L59.805 31.0804L59.805 30.0804L56.7069 30.0804L56.7069 31.0804ZM56.5794 27.493L56.2106 30.52L57.2032 30.6409L57.5721 27.6139L56.5794 27.493ZM56.5645 30.1113L57.5382 27.7436L56.6133 27.3633L55.6396 29.7309L56.5645 30.1113ZM55.0977 31.0218L56.3369 30.3625L55.8672 29.4797L54.6279 30.139L55.0977 31.0218ZM54.899 26.8228L54.3679 30.5091L55.3577 30.6517L55.8888 26.9654L54.899 26.8228ZM53.9351 30.8098L55.8382 27.1235L54.9496 26.6648L53.0465 30.3511L53.9351 30.8098ZM50.2156 31.0804L53.4908 31.0804L53.4908 30.0804L50.2156 30.0804L50.2156 31.0804ZM43.016 31.29L50.2302 31.0802L50.2011 30.0806L42.9869 30.2904L43.016 31.29ZM36.8053 31.2902L43.0015 31.2902L43.0015 30.2902L36.8053 30.2902L36.8053 31.2902ZM36.1583 27.8178L36.3059 30.8148L37.3047 30.7656L37.1571 27.7686L36.1583 27.8178ZM36.3862 30.5678L37.1386 27.9304L36.1769 27.6561L35.4245 30.2934L36.3862 30.5678ZM33.2252 31.1979L35.9545 30.9282L35.8562 29.933L33.1269 30.2027L33.2252 31.1979ZM30.3262 31.4974L33.2274 31.1977L33.1247 30.203L30.2235 30.5026L30.3262 31.4974ZM30.2748 30.5L29.0507 30.5L29.0507 31.5L30.2748 31.5L30.2748 30.5Z" fill="#C49E3F" mask="url(#path-1-outside-1_1102_42256)"/>
</svg>
