<svg width="109" height="62" viewBox="0 0 109 62" fill="none" xmlns="http://www.w3.org/2000/svg">
<g filter="url(#filter0_d_1688_147855)">
<path d="M34.2344 2.24306L37.602 4.61896L42.102 3.30872L43.9699 2.08502C48.179 2.03378 52.2304 2.00679 56.109 2L62.102 3.30872L63.102 5.00017L64.3037 2.01576C71.2927 2.05534 77.5955 2.15926 83.102 2.29833C83.4446 2.30698 83.6568 3.06011 83.867 3.80642C84.0733 4.53894 84.2779 5.26489 84.602 5.27388C85.125 5.28839 85.7687 4.55104 86.4026 3.82497C87.0183 3.11982 87.6246 2.42531 88.102 2.44047C94.3198 2.63789 99.2473 2.8755 102.672 3.0968C103.196 3.13068 103.602 3.56663 103.602 4.09206V56.001C103.602 56.5639 103.138 57.016 102.575 56.9995C99.9945 56.9238 96.9985 56.818 93.6905 56.6992C93.5118 56.6928 93.8272 55.4803 94.1442 54.2618C94.4644 53.0311 94.7861 51.7942 94.602 51.7876C94.4375 51.7817 93.7765 52.9835 93.1126 54.1905C92.4432 55.4078 91.7708 56.6302 91.602 56.6242C90.1513 56.572 88.6487 56.5182 87.102 56.4641C86.9369 56.4583 86.6469 55.9503 86.3562 55.4407C86.0636 54.9281 85.7702 54.4139 85.602 54.4081C85.4368 54.4024 85.3953 54.8991 85.3538 55.3972C85.312 55.8982 85.2701 56.4005 85.102 56.3947C75.2244 56.0562 63.7587 55.7251 52.602 55.7183C46.7598 55.7148 41.0023 55.7894 35.602 55.9061C35.3497 55.9116 34.9723 54.9261 34.5962 53.9438C34.2223 52.9675 33.8496 51.9942 33.602 52C33.2639 52.0079 33.0535 53.0105 32.8442 54.0084C32.6369 54.9966 32.4305 55.9802 32.102 55.9886C20.6913 56.2796 11.2649 56.733 6.6512 56.9733C6.07877 57.0031 5.60202 56.547 5.60202 55.9738V4.11626C5.60202 3.58096 6.02362 3.14054 6.55842 3.11759C10.6554 2.94171 14.6728 2.78997 18.602 2.66005C18.8531 2.65175 19.2293 3.31132 19.6049 3.96989C19.9793 4.62634 20.3531 5.28181 20.602 5.27388C20.8163 5.26706 20.9049 4.59304 20.9935 3.91991C21.0818 3.24842 21.17 2.57782 21.3827 2.57127C25.7867 2.43565 30.0748 2.32736 34.2344 2.24306Z" fill="url(#paint0_linear_1688_147855)"/>
<g filter="url(#filter1_i_1688_147855)">
<rect x="13.602" y="6" width="82" height="44" rx="4" fill="url(#paint1_linear_1688_147855)"/>
</g>
<rect x="14.102" y="6.5" width="81" height="43" rx="3.5" stroke="#C49E3F"/>
<g filter="url(#filter2_d_1688_147855)">
<path d="M99.602 45.2727C99.319 48.545 98.6888 53.5037 98.6101 54.1185C98.6047 54.1609 98.602 54.2032 98.602 54.246V56.1783C98.602 56.5202 98.7767 56.8384 99.0651 57.022L100.356 57.8437C100.517 57.9458 100.703 58 100.893 58H104.311C104.501 58 104.687 57.9458 104.848 57.8437L106.139 57.022C106.427 56.8384 106.602 56.5202 106.602 56.1783V54.246C106.602 54.2032 106.599 54.1609 106.594 54.1185C106.515 53.5037 105.885 48.545 105.602 45.2727C104.576 33.4156 104.37 26.5525 105.602 14.7273C105.892 11.9468 106.505 7.75285 106.592 7.16122C106.599 7.11266 106.602 7.06627 106.602 7.01719V3.82167C106.602 3.47977 106.427 3.16157 106.139 2.97801L104.848 2.15634C104.687 2.05423 104.501 2 104.311 2H100.893C100.703 2 100.517 2.05423 100.356 2.15634L99.0651 2.97801C98.7767 3.16157 98.602 3.47977 98.602 3.82167V7.01719C98.602 7.06627 98.6052 7.11266 98.6124 7.16122C98.6995 7.75285 99.3123 11.9468 99.602 14.7273C100.834 26.5525 100.628 33.4156 99.602 45.2727Z" fill="#C49E3F"/>
<path d="M100.475 54.8753L99.7914 55.1682C99.3732 55.3474 99.102 55.7586 99.102 56.2136C99.102 56.6686 99.3732 57.0798 99.7914 57.2591L100.475 57.5519C100.724 57.6586 100.992 57.7136 101.263 57.7136H103.942C104.212 57.7136 104.48 57.6586 104.729 57.5519L105.413 57.2591C105.831 57.0798 106.102 56.6686 106.102 56.2136C106.102 55.7586 105.831 55.3474 105.413 55.1682L104.729 54.8753C104.48 54.7686 104.212 54.7136 103.942 54.7136H101.263C100.992 54.7136 100.724 54.7686 100.475 54.8753Z" fill="#8F6803"/>
<path fill-rule="evenodd" clip-rule="evenodd" d="M100.102 56.5C100.102 56.5 100.326 56 100.602 56C100.602 56 101.797 55.5 102.602 55.5C103.407 55.5 104.602 56 104.602 56C104.878 56 105.102 56.5 105.102 56.5C105.102 56.5 104.878 57 104.602 57C104.602 57 103.407 57.5 102.602 57.5C101.797 57.5 100.602 57 100.602 57C100.326 57 100.102 56.5 100.102 56.5Z" fill="#383838"/>
<path fill-rule="evenodd" clip-rule="evenodd" d="M102.244 55.4187C102.657 55.2623 103.127 55.1351 103.554 55.0671L103.617 55.4622C103.219 55.5256 102.775 55.6455 102.385 55.7928C101.99 55.9426 101.674 56.1117 101.513 56.2633C101.43 56.3413 101.419 56.386 101.418 56.3952C101.418 56.3952 101.418 56.3979 101.422 56.4041C101.427 56.4134 101.443 56.4328 101.481 56.4587C101.56 56.5122 101.704 56.5721 101.944 56.6255C102.179 56.6778 102.491 56.7209 102.895 56.7499C103.135 56.7461 103.316 56.7336 103.451 56.7154C103.495 56.7094 103.533 56.7029 103.565 56.6964C103.48 56.6473 103.364 56.594 103.233 56.5437C103.049 56.4732 102.86 56.4178 102.735 56.3928C102.626 56.3711 102.556 56.2658 102.578 56.1575C102.599 56.0491 102.705 55.9789 102.813 56.0006C102.965 56.0309 103.176 56.0936 103.376 56.1701C103.571 56.2446 103.78 56.3418 103.911 56.4491C103.968 56.4962 104.059 56.584 104.071 56.7101C104.085 56.8718 103.968 56.968 103.877 57.0138C103.784 57.0607 103.657 57.091 103.504 57.1118C103.347 57.1331 103.145 57.1462 102.893 57.15L102.884 57.1501L102.875 57.1495C102.455 57.1196 102.119 57.0743 101.857 57.0159C101.598 56.9583 101.397 56.8848 101.256 56.7898C101.112 56.6921 101.008 56.5511 101.019 56.3699C101.029 56.2077 101.131 56.0734 101.239 55.9719C101.46 55.7644 101.837 55.5728 102.244 55.4187ZM103.684 56.7842L103.683 56.7832L103.684 56.7842Z" fill="#8F6803"/>
</g>
<g filter="url(#filter3_d_1688_147855)">
<path d="M3.60202 45.2727C3.31897 48.545 2.6888 53.5037 2.61014 54.1185C2.60471 54.1609 2.60202 54.2032 2.60202 54.246V56.1783C2.60202 56.5202 2.7767 56.8384 3.06514 57.022L4.35635 57.8437C4.5168 57.9458 4.70304 58 4.89322 58H8.31082C8.501 58 8.68724 57.9458 8.84769 57.8437L10.1389 57.022C10.4273 56.8384 10.602 56.5202 10.602 56.1783V54.246C10.602 54.2032 10.5993 54.1609 10.5939 54.1185C10.5152 53.5037 9.88507 48.545 9.60202 45.2727C8.57637 33.4156 8.37003 26.5525 9.60202 14.7273C9.8917 11.9468 10.5046 7.75285 10.5916 7.16122C10.5988 7.11266 10.602 7.06627 10.602 7.01719V3.82167C10.602 3.47977 10.4273 3.16157 10.1389 2.97801L8.84769 2.15634C8.68724 2.05423 8.501 2 8.31082 2H4.89322C4.70304 2 4.5168 2.05423 4.35635 2.15634L3.06514 2.97801C2.7767 3.16157 2.60202 3.47977 2.60202 3.82167V7.01719C2.60202 7.06627 2.60525 7.11266 2.61239 7.16122C2.69946 7.75285 3.31234 11.9468 3.60202 14.7273C4.83401 26.5525 4.62767 33.4156 3.60202 45.2727Z" fill="#C49E3F"/>
<path d="M4.4747 54.8753L3.79138 55.1682C3.37317 55.3474 3.10202 55.7586 3.10202 56.2136C3.10202 56.6686 3.37317 57.0798 3.79138 57.2591L4.4747 57.5519C4.72365 57.6586 4.99168 57.7136 5.26254 57.7136H7.9415C8.21236 57.7136 8.48039 57.6586 8.72934 57.5519L9.41266 57.2591C9.83087 57.0798 10.102 56.6686 10.102 56.2136C10.102 55.7586 9.83087 55.3474 9.41266 55.1682L8.72934 54.8753C8.48039 54.7686 8.21236 54.7136 7.9415 54.7136H5.26254C4.99168 54.7136 4.72365 54.7686 4.4747 54.8753Z" fill="#8F6803"/>
<path fill-rule="evenodd" clip-rule="evenodd" d="M4.10202 56.5C4.10202 56.5 4.32588 56 4.60202 56C4.60202 56 5.79693 55.5 6.60202 55.5C7.40711 55.5 8.60202 56 8.60202 56C8.87816 56 9.10202 56.5 9.10202 56.5C9.10202 56.5 8.87816 57 8.60202 57C8.60202 57 7.40711 57.5 6.60202 57.5C5.79693 57.5 4.60202 57 4.60202 57C4.32588 57 4.10202 56.5 4.10202 56.5Z" fill="#383838"/>
<path fill-rule="evenodd" clip-rule="evenodd" d="M6.24388 55.4187C6.65735 55.2623 7.12742 55.1351 7.55426 55.0671L7.61718 55.4622C7.21866 55.5256 6.7749 55.6455 6.38545 55.7928C5.98971 55.9426 5.67443 56.1117 5.5133 56.2633C5.43036 56.3413 5.41893 56.386 5.41834 56.3952C5.41834 56.3952 5.41792 56.3979 5.42171 56.4041C5.42729 56.4134 5.44274 56.4328 5.48087 56.4587C5.55972 56.5122 5.70431 56.5721 5.94414 56.6255C6.17894 56.6778 6.49115 56.7209 6.89525 56.7499C7.13463 56.7461 7.31625 56.7336 7.45054 56.7154C7.4951 56.7094 7.53294 56.7029 7.56488 56.6964C7.48041 56.6473 7.36449 56.594 7.23305 56.5437C7.04906 56.4732 6.85957 56.4178 6.73467 56.3928C6.62636 56.3711 6.55613 56.2658 6.57779 56.1575C6.59946 56.0491 6.70483 55.9789 6.81314 56.0006C6.96487 56.0309 7.1763 56.0936 7.37608 56.1701C7.57052 56.2446 7.78 56.3418 7.91064 56.4491C7.96805 56.4962 8.05939 56.584 8.07055 56.7101C8.08485 56.8718 7.96756 56.968 7.87709 57.0138C7.78423 57.0607 7.65747 57.091 7.50417 57.1118C7.34689 57.1331 7.14535 57.1462 6.89268 57.15L6.88406 57.1501L6.87547 57.1495C6.4555 57.1196 6.11945 57.0743 5.85721 57.0159C5.59834 56.9583 5.39653 56.8848 5.25637 56.7898C5.11238 56.6921 5.00765 56.5511 5.01914 56.3699C5.02942 56.2077 5.13133 56.0734 5.23928 55.9719C5.45995 55.7644 5.8367 55.5728 6.24388 55.4187ZM7.68371 56.7842L7.683 56.7832L7.68371 56.7842Z" fill="#8F6803"/>
</g>
</g>
<defs>
<filter id="filter0_d_1688_147855" x="0.60202" y="0" width="108" height="62" filterUnits="userSpaceOnUse" color-interpolation-filters="sRGB">
<feFlood flood-opacity="0" result="BackgroundImageFix"/>
<feColorMatrix in="SourceAlpha" type="matrix" values="0 0 0 0 0 0 0 0 0 0 0 0 0 0 0 0 0 0 127 0" result="hardAlpha"/>
<feOffset dy="2"/>
<feGaussianBlur stdDeviation="1"/>
<feComposite in2="hardAlpha" operator="out"/>
<feColorMatrix type="matrix" values="0 0 0 0 0 0 0 0 0 0 0 0 0 0 0 0 0 0 0.25 0"/>
<feBlend mode="normal" in2="BackgroundImageFix" result="effect1_dropShadow_1688_147855"/>
<feBlend mode="normal" in="SourceGraphic" in2="effect1_dropShadow_1688_147855" result="shape"/>
</filter>
<filter id="filter1_i_1688_147855" x="13.602" y="6" width="82" height="45" filterUnits="userSpaceOnUse" color-interpolation-filters="sRGB">
<feFlood flood-opacity="0" result="BackgroundImageFix"/>
<feBlend mode="normal" in="SourceGraphic" in2="BackgroundImageFix" result="shape"/>
<feColorMatrix in="SourceAlpha" type="matrix" values="0 0 0 0 0 0 0 0 0 0 0 0 0 0 0 0 0 0 127 0" result="hardAlpha"/>
<feOffset dy="1"/>
<feGaussianBlur stdDeviation="0.5"/>
<feComposite in2="hardAlpha" operator="arithmetic" k2="-1" k3="1"/>
<feColorMatrix type="matrix" values="0 0 0 0 0.745098 0 0 0 0 0.631373 0 0 0 0 0.286275 0 0 0 1 0"/>
<feBlend mode="normal" in2="shape" result="effect1_innerShadow_1688_147855"/>
</filter>
<filter id="filter2_d_1688_147855" x="94.602" y="0" width="12" height="60" filterUnits="userSpaceOnUse" color-interpolation-filters="sRGB">
<feFlood flood-opacity="0" result="BackgroundImageFix"/>
<feColorMatrix in="SourceAlpha" type="matrix" values="0 0 0 0 0 0 0 0 0 0 0 0 0 0 0 0 0 0 127 0" result="hardAlpha"/>
<feOffset dx="-2"/>
<feGaussianBlur stdDeviation="1"/>
<feComposite in2="hardAlpha" operator="out"/>
<feColorMatrix type="matrix" values="0 0 0 0 0 0 0 0 0 0 0 0 0 0 0 0 0 0 0.25 0"/>
<feBlend mode="normal" in2="BackgroundImageFix" result="effect1_dropShadow_1688_147855"/>
<feBlend mode="normal" in="SourceGraphic" in2="effect1_dropShadow_1688_147855" result="shape"/>
</filter>
<filter id="filter3_d_1688_147855" x="2.60202" y="0" width="12" height="60" filterUnits="userSpaceOnUse" color-interpolation-filters="sRGB">
<feFlood flood-opacity="0" result="BackgroundImageFix"/>
<feColorMatrix in="SourceAlpha" type="matrix" values="0 0 0 0 0 0 0 0 0 0 0 0 0 0 0 0 0 0 127 0" result="hardAlpha"/>
<feOffset dx="2"/>
<feGaussianBlur stdDeviation="1"/>
<feComposite in2="hardAlpha" operator="out"/>
<feColorMatrix type="matrix" values="0 0 0 0 0 0 0 0 0 0 0 0 0 0 0 0 0 0 0.25 0"/>
<feBlend mode="normal" in2="BackgroundImageFix" result="effect1_dropShadow_1688_147855"/>
<feBlend mode="normal" in="SourceGraphic" in2="effect1_dropShadow_1688_147855" result="shape"/>
</filter>
<linearGradient id="paint0_linear_1688_147855" x1="54.602" y1="56.9984" x2="54.602" y2="2.00161" gradientUnits="userSpaceOnUse">
<stop stop-color="#D4B75E"/>
<stop offset="1" stop-color="#D7C383"/>
</linearGradient>
<linearGradient id="paint1_linear_1688_147855" x1="54.602" y1="49.9987" x2="54.602" y2="6.00129" gradientUnits="userSpaceOnUse">
<stop stop-color="#FFEDB4"/>
<stop offset="1" stop-color="#D7C383"/>
</linearGradient>
</defs>
</svg>
