<svg width="42" height="52" viewBox="0 0 42 52" fill="none" xmlns="http://www.w3.org/2000/svg">
<path d="M28.3077 9.46903C28.5356 9.38721 28.3131 9.14069 28.2231 9.01797C27.3321 8.06418 25.0303 6.2481 23.9169 5.00041C23.3211 4.37281 22.7437 3.69137 22.2304 3.00994C21.6802 2.28867 21.1344 1.45222 20.6612 0.780475C20.2412 0.192698 19.6617 -0.523185 19.5521 0.565172C19.4794 1.78917 19.9374 3.24354 20.7675 4.21133C21.4165 5.03271 22.5571 5.76151 23.2299 6.32453C23.4654 6.52584 24.1285 7.10177 23.5034 7.20189C22.6927 7.2837 21.397 7.08347 20.1826 6.54521C19.5141 6.24271 18.9151 5.81318 18.3627 5.33952C17.7919 4.85939 17.2644 4.30821 16.8054 3.91959C16.4722 3.63755 16.1705 3.461 15.9198 3.44593C15.4 3.39856 15.2969 4.00141 15.413 4.44924C15.5031 4.88846 15.7462 5.40088 16.138 5.84871C16.597 6.41603 17.4305 6.91123 17.9112 7.31707C18.8348 8.11585 16.3908 8.17613 15.9057 8.16322C14.9963 8.1546 14.1032 7.95545 13.2187 7.76167C12.1877 7.55821 11.3163 7.38274 10.4883 7.52807C9.92071 7.65079 9.98582 8.10616 10.6163 8.48402C11.5225 9.05672 13.171 9.03089 14.1346 9.42166C15.0419 9.88995 14.2139 10.4454 13.6192 10.6381C12.8052 10.9449 11.8036 11.1344 11.019 11.509C10.0314 12.0645 11.6614 12.5242 12.2214 12.5134C14.6187 12.578 16.8781 11.1452 18.9541 10.1343C20.9835 9.13208 23.3157 8.85434 25.5599 9.12993C26.1514 9.19452 26.6972 9.28602 27.1487 9.36245C27.7152 9.45826 28.1319 9.52285 28.3034 9.47226L28.3088 9.4701L28.3077 9.46903Z" fill="#FC8B31"/>
<path d="M30.3044 11.4595C30.5453 11.4315 30.3868 11.1409 30.3261 11.0009C29.6815 9.86844 27.8648 7.57331 27.0737 6.10387C26.6406 5.35677 26.238 4.56122 25.8973 3.78075C25.5305 2.95291 25.194 2.01311 24.8902 1.25202C24.6189 0.583502 24.2217 -0.246491 23.8614 0.78804C23.5054 1.96144 23.6118 3.48148 24.1935 4.61397C24.6341 5.56238 25.5728 6.53232 26.0959 7.23421C26.2782 7.48504 26.7893 8.19662 26.1577 8.15032C25.3503 8.04483 24.1359 7.55178 23.0789 6.74978C22.4994 6.30195 22.0165 5.74647 21.5889 5.15869C21.1461 4.56015 20.7609 3.90347 20.4049 3.42012C20.1467 3.06917 19.8938 2.82804 19.6529 2.75699C19.158 2.59228 18.9171 3.15422 18.9258 3.61604C18.9106 4.06387 19.0278 4.61828 19.3045 5.14362C19.6192 5.80029 20.3138 6.47419 20.6871 6.97908C21.4001 7.96839 19.0072 7.46566 18.5394 7.34294C17.6561 7.12548 16.8345 6.72717 16.0184 6.3364C15.0634 5.90256 14.256 5.53116 13.4161 5.48272C12.8355 5.47196 12.7921 5.93055 13.3173 6.4419C14.065 7.20622 15.6755 7.56039 16.522 8.16109C17.2947 8.82422 16.3603 9.17517 15.7363 9.22576C14.8724 9.33772 13.8545 9.29251 13.0037 9.47659C11.9141 9.79093 13.3922 10.6123 13.9402 10.7297C16.2583 11.3422 18.789 10.467 21.0452 9.95887C23.2537 9.44968 25.5869 9.7145 27.7053 10.4971C28.2652 10.6952 28.7753 10.9094 29.1964 11.0881C29.7249 11.311 30.1155 11.4703 30.2935 11.4595H30.2989H30.3044Z" fill="#4DA7C9"/>
<path d="M27.385 34.7417C28.5895 35.4027 32.7225 38.1537 33.0302 38.2802C33.096 38.3075 33.3142 38.3109 33.4103 38.3117C34.4959 38.3219 34.1345 37.3921 34.2059 37.375C34.8707 38.4375 36.1129 38.9213 36.2449 37.343C36.3511 37.2655 37.2856 38.723 38.0333 37.5843C38.1387 37.4246 38.2029 36.9405 38.1906 36.7268C38.295 36.6113 38.4633 37.336 39.3252 37.4078C39.4455 37.3343 40.2009 37.1657 40.0159 36.3458C39.9036 35.851 38.8337 34.6165 38.4501 34.1826C38.4404 34.1709 38.4254 34.1632 38.4156 34.1514C38.4443 34.4352 38.5925 35.3865 38.056 35.2633C37.855 35.2172 37.8485 35.0788 37.7297 34.9685C37.6788 34.9984 37.4832 35.1015 37.4729 35.1111C37.4016 35.1793 37.467 35.4933 36.6108 35.332C35.9623 35.2095 36.0142 35.1529 35.5466 34.7452L35.3902 34.9157C34.9631 35.6359 33.7393 34.5611 33.6439 34.5245C33.5337 34.4832 33.4863 34.7332 33.3611 34.7994C32.9601 35.0098 31.7399 33.9776 31.6433 33.9661C31.536 33.9537 31.3335 34.4032 31.1045 34.4164C31.0287 34.4207 29.8161 33.9462 29.6809 33.8794C29.7434 33.9359 29.6114 34.0017 29.5276 34.1154C29.4395 34.2355 29.3931 34.4092 29.231 34.4726C29.1435 34.5072 27.6073 34.1746 27.3874 34.1187L27.3834 34.7403L27.385 34.7417Z" fill="#1A433C"/>
<path d="M19.6869 26.4144C18.9675 27.2713 20.6569 28.7929 21.1645 29.4977C21.4652 29.9165 21.3433 30.2974 22.7963 31.6579C23.0437 31.8902 23.364 32.2028 23.6215 32.4033C24.8141 33.3348 25.9336 33.7558 27.3884 34.1198C27.6076 34.175 29.1438 34.5076 29.2321 34.4737C29.3935 34.4111 29.4399 34.2374 29.5288 34.1165L25.4831 31.711C25.5628 31.3954 25.6427 31.4122 25.9023 31.5272C26.2686 31.6905 28.8149 33.4528 29.6828 33.8797C29.8188 33.9472 31.0307 34.421 31.1065 34.4167C31.3347 34.4028 31.538 33.9539 31.6454 33.9664C31.7419 33.9778 32.9622 35.0101 33.3633 34.7997C33.4892 34.7343 33.5359 34.4835 33.6461 34.5248C33.7407 34.5607 34.9653 35.6347 35.3925 34.916C33.4668 33.1868 31.5333 31.4564 29.4162 29.9551C29.0607 29.1036 30.4076 30.2473 31.2039 30.8835C32.7253 32.0974 34.0876 33.4722 35.5489 34.7454C36.0157 35.1525 35.9638 35.2091 36.6132 35.3323C37.4694 35.4937 37.404 35.1796 37.4753 35.1114C34.7072 32.1375 32.1133 29.4084 28.5386 27.3831L28.6919 27.1471C31.0558 28.4255 33.1119 30.1981 35.0122 32.075C35.8892 32.9414 36.9389 34.2334 37.7313 34.9681C37.8509 35.0791 37.8566 35.2168 38.0577 35.2629C38.5934 35.3869 38.4452 34.4356 38.4173 34.151C37.2498 32.8356 34.662 30.2358 33.3292 29.1806C30.6206 27.0357 26.9668 25.3222 23.4406 25.3692C22.4489 25.3828 20.3395 25.637 19.6877 26.4136L19.6869 26.4144Z" fill="#4BB887"/>
<path d="M37.4729 35.1129C37.4831 35.1018 37.6789 35.0002 37.7297 34.9703C36.9371 34.2355 35.8873 32.9432 35.0102 32.0767C33.1095 30.1995 31.0532 28.4266 28.6889 27.148L28.5355 27.384C32.1101 29.4104 34.7051 32.1392 37.4737 35.1137L37.4729 35.1129Z" fill="#418051"/>
<path d="M35.3912 34.9176L35.5476 34.747C34.0869 33.4743 32.7243 32.0977 31.2019 30.8843C30.4048 30.2488 29.0577 29.1049 29.414 29.9558C31.5306 31.4567 33.4644 33.1874 35.3912 34.9176Z" fill="#418051"/>
<path d="M29.527 34.1152C29.6108 34.0015 29.7436 33.9349 29.6803 33.8792C28.8124 33.4523 26.2659 31.6898 25.8995 31.5265C25.6407 31.4107 25.5592 31.394 25.4803 31.7104L29.5263 34.116L29.527 34.1152Z" fill="#418051"/>
<path d="M25.798 29.3421L25.6769 29.5766C27.7552 31.0342 29.858 32.5051 32.1536 33.6153L32.2487 33.5452C30.0984 32.1442 27.948 30.7429 25.7972 29.3414L25.798 29.3421Z" fill="#418051"/>
<path d="M23.8796 26.3608L23.862 26.6887C25.8505 26.9564 25.8586 26.4086 23.8796 26.3608Z" fill="#418051"/>
<path d="M26.8506 26.5477L26.7984 26.8445C28.7005 27.4639 28.6874 26.9362 26.8506 26.5477Z" fill="#418051"/>
<path d="M24.124 30.1395L24.0749 30.5017C25.7678 31.4872 25.4937 30.8986 24.124 30.1395Z" fill="#418051"/>
<path d="M23.9605 28.0561L23.8493 28.486C25.3165 29.3915 25.0042 28.8414 23.9605 28.0561Z" fill="#418051"/>
<path d="M25.9029 27.3767L25.7542 27.7101C27.0241 28.538 27.1194 28.0791 25.9029 27.3767Z" fill="#418051"/>
<path d="M27.6653 28.469C27.6167 28.602 27.5681 28.7349 27.5196 28.8679C28.837 29.6776 28.6429 29.288 27.6653 28.469Z" fill="#418051"/>
<path d="M22.8354 26.5403L22.7519 26.8713C23.4591 27.5421 23.8141 26.3985 22.8354 26.5403Z" fill="#418051"/>
<path d="M21.7423 45.2319C21.3006 45.7616 20.975 46.5431 20.5757 47.1158C22.1854 47.0261 23.7952 46.9364 25.4049 46.8467C25.3756 47.7607 25.7435 47.1417 26.3002 47.5464C26.8125 47.9189 26.6551 49.8405 26.0289 49.3496C26.0246 48.4518 25.3083 48.441 25.4049 49.3765C24.2036 49.552 25.5058 48.5508 24.1569 48.7306C24.1873 49.4088 23.7445 49.5165 23.4244 49.1612C23.3386 49.0654 23.3072 48.7651 23.1802 48.7306C22.9132 48.6574 18.2902 49.2516 17.6455 49.1074C17.2082 49.0094 16.8251 48.1859 17.1301 47.7079C17.3612 47.3462 18.8219 47.3311 19.2734 47.2235C19.3135 47.2138 19.3005 47.1524 19.3005 47.1158C19.6814 47.1815 20.6636 47.2256 20.6299 46.6852C20.0135 46.7251 18.9771 46.5937 18.7579 46.7929C18.5875 46.6798 18.3726 46.6153 18.2696 46.4161C19.5718 46.161 20.3413 45.8499 21.5252 45.2858C21.5589 45.2696 21.6858 45.2427 21.7423 45.2319Z" fill="#64646F"/>
<path d="M19.3001 47.1159C19.0527 47.0728 18.9463 46.9178 18.7575 46.7929C18.9767 46.5937 20.0131 46.7251 20.6295 46.6852C20.6632 47.2257 19.681 47.1815 19.3001 47.1159Z" fill="#4C5460"/>
<path d="M12.1381 47.2773C12.6275 47.3538 13.3394 47.2289 13.4946 47.7079C13.754 49.4939 12.6481 49.0805 11.4327 48.9998C11.0648 48.975 8.88022 48.7059 8.74674 48.7845L8.66535 49.2689C8.74891 49.4207 8.19002 49.3959 8.14986 49.3765C8.10537 49.355 8.28443 48.8135 8.0956 48.7306C6.99952 48.5993 7.67562 49.1214 7.1189 49.4304C6.38203 49.4465 7.04294 48.7166 6.35924 48.623C6.30824 50.719 4.47746 47.7262 6.92899 47.385C7.02991 47.371 7.31207 47.4184 7.36308 47.3581L7.06464 46.7929C8.05943 46.8288 9.05422 46.8647 10.049 46.9006L10.0219 46.7391C10.2009 47.0039 10.1879 47.1589 10.2118 47.1697C10.342 47.2257 11.3741 47.1169 11.6769 47.1697C11.704 47.174 11.7279 47.4754 12.1381 47.2773Z" fill="#64646F"/>
<path d="M12.5181 46.47L11.8127 47.2235C11.6325 47.0803 12.3075 46.794 12.0568 46.6853C11.342 46.6314 10.6276 46.5776 9.91352 46.5238C9.61074 46.0426 9.3644 45.57 9.0996 45.0705C10.1262 45.6949 11.3308 46.2353 12.5181 46.47Z" fill="#64646F"/>
<path d="M11.8126 47.2235C11.9222 47.3118 12.0275 47.2601 12.1382 47.2774C11.728 47.4754 11.7041 47.174 11.677 47.1697C11.3742 47.117 10.3421 47.2257 10.2119 47.1697C10.188 47.1589 10.2011 47.0039 10.022 46.7391C9.94169 46.6218 9.92541 46.5421 9.91347 46.5238C10.6283 46.5776 11.3427 46.6315 12.0568 46.6853C12.3075 46.794 11.6325 47.0804 11.8126 47.2235Z" fill="#4A4752"/>
<path d="M9.5332 34.5745C9.16206 36.1246 8.30907 41.8269 8.17667 42.1908C8.14845 42.2683 7.98024 42.4578 7.90536 42.5407C7.06214 43.4794 6.53798 42.4395 6.46744 42.4868C6.86897 43.8917 6.31442 45.3353 4.8396 44.2093C4.68984 44.2394 5.22269 46.1857 3.64585 45.9317C3.42447 45.8962 2.95348 45.5711 2.77767 45.3934C2.59535 45.3924 3.09347 46.1061 2.47923 46.9006C2.32188 46.9458 1.58175 47.4614 1.01418 46.6583C0.672331 46.1739 0.440093 44.2868 0.363042 43.6172C0.360871 43.6 0.365212 43.5806 0.363042 43.5634C0.587684 43.811 1.29742 44.6851 1.61105 44.1285C1.72826 43.9197 1.61322 43.8067 1.61105 43.6172C1.67617 43.5967 1.91926 43.5106 1.93662 43.5095C2.05165 43.502 2.27304 43.8056 2.8048 42.9444C3.20742 42.292 3.11735 42.292 3.13037 41.5718H3.40168C4.3621 41.771 4.38923 39.8784 4.43264 39.7686C4.48365 39.6416 4.73759 39.7977 4.89386 39.7417C5.39198 39.563 5.45167 37.7071 5.51787 37.6156C5.59058 37.5133 6.14079 37.6931 6.33179 37.508C6.39582 37.4466 6.93409 36.0353 6.98292 35.8663C6.98292 35.9642 7.14462 35.9018 7.30849 35.9201C7.48213 35.9395 7.66987 36.0353 7.8511 35.947C7.94986 35.8986 8.86579 34.3215 8.99059 34.09L9.5332 34.5745Z" fill="#1A433C"/>
<path d="M8.33961 21.441C9.64947 21.497 9.64405 24.1398 9.85892 25.1281C9.98589 25.7148 10.4124 25.9096 10.4558 28.223C10.4634 28.6181 10.4829 29.137 10.4558 29.5149C10.3288 31.2685 9.81551 32.5582 8.99074 34.09C8.86594 34.3215 7.95001 35.8986 7.85125 35.947C7.67002 36.0353 7.48228 35.9395 7.30864 35.9201L8.39387 30.5645C8.05745 30.3847 8.00861 30.4665 7.90551 30.7798C7.76009 31.2222 7.29345 34.7865 6.98307 35.8663C6.93424 36.0353 6.39597 37.4466 6.33194 37.508C6.14094 37.6931 5.59073 37.5134 5.51802 37.6156C5.45182 37.7071 5.39213 39.563 4.89401 39.7417C4.73774 39.7977 4.4838 39.6416 4.43279 39.7687C4.38938 39.8785 4.36225 41.771 3.40183 41.5718C3.41051 38.564 3.42462 35.5476 3.78166 32.556C3.32152 31.5828 3.25749 33.6357 3.18478 34.8167C3.04479 37.0731 3.17067 39.3208 3.13052 41.5718C3.1175 42.292 3.20757 42.292 2.80495 42.9444C2.27319 43.8056 2.0518 43.502 1.93677 43.5095C1.52547 38.8019 1.19014 34.4378 2.23521 29.784L1.90964 29.7302C1.16517 32.7595 1.09246 35.9126 1.23137 39.0151C1.2954 40.4469 1.59384 42.3609 1.6112 43.6172C1.61337 43.8067 1.72841 43.9197 1.6112 44.1285C1.29757 44.6851 0.587834 43.811 0.363193 43.5634C0.137465 41.5298 -0.0915174 37.2711 0.0376244 35.3011C0.300249 31.2954 1.67849 26.8193 4.48705 23.8362C5.2771 22.9976 7.15345 21.3904 8.33961 21.441Z" fill="#4BB887"/>
<path d="M1.93691 43.5096C1.91955 43.5106 1.67646 43.5968 1.61135 43.6172C1.59398 42.3609 1.29555 40.4469 1.23152 39.0151C1.09261 35.9126 1.16532 32.7595 1.90978 29.7302L2.23535 29.784C1.19028 34.4378 1.52561 38.802 1.93691 43.5096Z" fill="#418051"/>
<path d="M3.40191 41.5718H3.1306C3.17076 39.3208 3.04487 37.0731 3.18486 34.8167C3.25757 33.6358 3.3216 31.5829 3.78174 32.556C3.4247 35.5477 3.41059 38.5641 3.40191 41.5718Z" fill="#418051"/>
<path d="M7.30882 35.9201C7.14495 35.9018 6.98216 35.9642 6.98325 35.8663C7.29362 34.7865 7.76027 31.2222 7.90569 30.7797C8.00879 30.4665 8.05762 30.3847 8.39404 30.5644L7.30882 35.9201Z" fill="#418051"/>
<path d="M6.08779 28.9766L6.38623 29.0574C6.02268 31.9833 5.64936 34.9384 4.81265 37.7771L4.677 37.804L6.08779 28.9766Z" fill="#418051"/>
<path d="M5.00283 24.9935L5.30127 25.2357C3.97404 27.1487 3.49003 26.7267 5.00283 24.9935Z" fill="#418051"/>
<path d="M2.83242 27.6848L3.13086 27.8731C2.17586 29.9896 1.72875 29.5633 2.83242 27.6848Z" fill="#418051"/>
<path d="M8.09554 28.1692L8.44824 28.4114C7.97617 30.6355 7.6799 29.939 8.09554 28.1692Z" fill="#418051"/>
<path d="M6.41329 26.3929L6.87451 26.6352C6.50988 28.603 6.27655 27.9044 6.41329 26.3929Z" fill="#418051"/>
<path d="M4.29714 27.5233L4.7041 27.6579C4.42628 29.3965 3.95312 29.1176 4.29714 27.5233Z" fill="#418051"/>
<path d="M3.863 29.8917L4.32422 30.0801C3.99431 31.8445 3.80765 31.3719 3.863 29.8917Z" fill="#418051"/>
<path d="M5.97939 24.2399L6.33209 24.4283C6.35922 25.5608 5.08734 24.9666 5.97939 24.2399Z" fill="#418051"/>
<path d="M31.6174 13.9592C31.892 14.1142 32.1047 14.3349 32.3771 14.4974C36.1558 17.9843 34.6311 26.3176 30.2338 28.546C29.1149 29.1122 29.7497 28.7204 30.0981 27.8731C30.6309 26.5792 30.7069 25.507 30.6407 24.1322C30.6407 24.1139 30.7167 24.0537 30.695 23.8093C30.6787 23.6274 30.5734 22.961 30.5322 22.7597C30.5224 22.7134 30.4248 22.6854 30.4237 22.6789C30.3803 22.4873 30.3781 22.0707 30.2609 21.737C29.6304 19.9414 27.9005 19.3041 27.7106 18.8035C27.6118 18.5441 27.6216 17.7743 27.6563 17.4579C27.7703 16.4061 28.365 15.3737 29.0671 14.5782C30.1925 13.3036 30.5127 13.338 31.6174 13.9592Z" fill="#F25549"/>
<path d="M27.7103 18.8035C27.9002 19.304 29.63 19.9413 30.2606 21.737C30.3778 22.0707 30.3799 22.4873 30.4233 22.6789C30.4038 22.9297 30.1618 23.0352 30.152 23.0557C28.7868 22.9147 26.2843 21.6218 25.9739 20.2029C26.2658 19.5872 26.4275 19.2782 26.7878 18.6958L27.7103 18.8035Z" fill="#86858B"/>
<path d="M27.7104 18.8035L26.788 18.6958C27.055 18.2652 27.2916 17.8206 27.6562 17.4578C27.6215 17.7743 27.6117 18.544 27.7104 18.8035Z" fill="#4C5460"/>
<path d="M30.1523 23.0557C30.0079 23.3507 30.4149 23.8502 30.6949 23.8093C30.7166 24.0536 30.6395 24.1139 30.6406 24.1322C29.6465 24.8352 27.8668 25.0376 26.7338 24.6705C25.5878 24.2991 25.119 22.8469 25.2687 21.7639C25.3382 21.2633 25.7571 20.6626 25.9741 20.2029C26.2845 21.6218 28.787 22.9147 30.1523 23.0557Z" fill="#64646F"/>
<path d="M30.6948 23.8093C30.4148 23.8502 30.0079 23.3507 30.1522 23.0557C30.162 23.0353 30.404 22.9298 30.4235 22.679C30.4246 22.6854 30.5223 22.7134 30.532 22.7597C30.5733 22.961 30.6785 23.6274 30.6948 23.8093Z" fill="#343941"/>
<path d="M25.7573 34.9513C25.7009 36.9697 25.4502 39.2487 24.7264 41.1412C24.7079 41.1897 24.6949 41.2478 24.6721 41.3027C24.6081 41.4588 24.5245 41.5869 24.4551 41.7333C24.582 41.1326 24.2868 41.1035 23.8039 40.7106C23.7605 40.6751 23.6997 40.5513 23.6683 40.4953C23.0095 42.3986 21.9254 43.9046 20.1955 45.0167C19.6996 45.3353 19.1309 45.5366 18.622 45.8241C17.9469 46.2052 17.8927 46.6454 18.0793 45.8779C16.9225 46.0265 15.757 45.7842 14.6066 45.6626C14.0759 45.6066 13.1665 45.71 12.6532 45.5011C11.8089 45.1577 11.5799 43.9294 10.8897 43.4019C10.6282 42.5106 10.3504 42.2059 10.4556 40.7914C10.4882 40.3521 10.6922 39.8785 10.7269 39.4457C10.8691 37.677 11.0807 34.877 10.8897 33.2019C10.8561 32.908 10.7128 32.5851 10.6727 32.2869C10.6293 31.965 10.7931 31.5764 10.5099 31.3449C10.6564 30.5935 10.6336 30.2652 10.4556 29.5149C10.4828 29.137 10.4632 28.6181 10.4556 28.223C10.6553 28.4868 10.4426 28.0131 10.7269 28.1423C10.6987 28.8969 10.9331 29.1628 10.944 29.2188C11.2435 30.7669 11.0037 31.7519 11.0525 32.2869C11.097 32.781 11.4909 33.3817 11.5409 34.117C11.5973 34.9427 10.7888 39.8516 11.4595 40.0109C13.975 39.3262 12.7748 40.0873 14.0097 41.0336C14.8486 41.6763 15.566 41.5751 15.6376 41.6257C15.668 41.6472 15.7081 42.2608 16.0174 42.1639C16.0945 42.1402 15.8449 41.8593 17.4282 41.6795C17.6192 41.729 17.4564 42.3232 17.6995 42.5407C18.1738 42.9648 19.6019 42.9573 20.1955 42.8098C21.7887 42.4137 23.8191 39.5544 23.5869 37.8848C23.6422 37.7814 24.1013 38.1108 24.2109 38.0732C24.4127 38.0043 25.639 34.5788 25.6488 34.117L25.7573 34.9513Z" fill="#FD9F36"/>
<path d="M24.4549 41.7333C23.2774 44.2211 22.3398 44.515 21.7418 45.2319C21.6854 45.2427 21.5584 45.2696 21.5248 45.2858C22.3702 43.798 23.5596 42.4674 23.8037 40.7106C24.2867 41.1035 24.5819 41.1326 24.4549 41.7333Z" fill="#FC8B31"/>
<path d="M30.5864 10.7835C30.581 10.7932 30.5984 10.8427 30.5322 10.8373C29.1257 9.36786 27.3405 9.60362 26.761 9.49166C26.3389 9.41092 25.5618 8.9717 25.0789 8.84575C21.2426 7.8489 16.2484 10.6242 13.9825 13.6632C13.2098 14.6998 12.5955 15.8722 11.9748 17.0004C10.908 19.2449 11.1479 21.3312 12.7345 23.2441C14.7182 25.6351 19.5334 28.0357 22.61 28.3307C23.2546 28.392 24.2086 28.462 24.7805 28.1154C25.0474 29.4642 25.3198 31.2588 25.7572 32.5291C25.7409 33.3354 25.78 34.1449 25.7572 34.9512L25.6486 34.1169C25.6389 34.5788 24.4126 38.0042 24.2107 38.0731C24.1011 38.1108 23.6421 37.7814 23.5867 37.8847C23.819 39.5544 21.7885 42.4136 20.1954 42.8098C19.6018 42.9573 18.1736 42.9648 17.6994 42.5407C17.4563 42.3232 17.6191 41.729 17.4281 41.6795C15.8447 41.8592 16.0943 42.1402 16.0173 42.1639C15.708 42.2608 15.6678 41.6472 15.6374 41.6256C15.5658 41.575 14.8485 41.6762 14.0096 41.0336C12.7746 40.0873 13.9749 39.3262 11.4593 40.0109C10.7886 39.8515 11.5971 34.9426 11.5407 34.1169C11.4908 33.3817 11.0968 32.781 11.0524 32.2869C11.0035 31.7518 11.2434 30.7668 10.9438 29.2188C10.933 29.1628 10.6986 28.8969 10.7268 28.1423C10.4425 28.0131 10.6552 28.4868 10.4555 28.223C10.4121 25.9096 9.98557 25.7147 9.8586 25.128C9.64373 24.1398 9.64915 21.497 8.33928 21.441C9.00019 15.8248 13.2261 8.95556 19.0559 7.55393C23.0343 6.59691 27.983 7.37739 30.5864 10.7835Z" fill="url(#paint0_linear_1167_18718)"/>
<path d="M13.3584 24.7244L13.7111 24.9128C13.7318 25.2002 13.34 27.6191 12.9243 27.308C12.8842 26.9506 13.0806 24.804 13.3584 24.7244Z" fill="#E7B214"/>
<path d="M21.8232 30.4837C22.9844 30.6495 22.0782 31.6388 21.3349 31.6679C21.1363 31.5785 21.2318 30.6861 21.8232 30.4837Z" fill="#E13839"/>
<path d="M18.4594 29.2457C19.2484 29.1015 18.5082 30.8056 18.3509 30.8067C17.83 30.2846 17.7735 29.6397 18.4594 29.2457Z" fill="#E13839"/>
<path d="M20.4128 28.5998C20.9739 28.4114 21.217 29.9476 20.7384 30.5376C20.6233 30.5505 20.0872 28.7096 20.4128 28.5998Z" fill="#E7B214"/>
<path d="M15.3121 26.7159H15.4749C16.3344 27.8193 14.3636 28.1283 15.3121 26.7159Z" fill="#3D9930"/>
<path d="M16.5056 28.4384C17.7992 28.5772 16.0336 30.0521 16.2615 28.6267L16.5056 28.4384Z" fill="#3D9930"/>
<path d="M23.1801 29.1381C24.3402 29.6128 22.7601 30.6043 22.8816 29.3265L23.1801 29.1381Z" fill="#3D9930"/>
<path d="M12.1104 24.1861C11.9114 24.7602 11.7124 25.3344 11.5135 25.9085C11.5363 25.3778 11.8423 24.6533 12.1104 24.1861Z" fill="#70790E"/>
<path d="M18.8391 28.0615C19.1429 29.0767 18.7045 29.7107 18.7034 28.1423L18.8391 28.0615Z" fill="#F9EE5C"/>
<path d="M24.3737 29.784C24.4507 29.7667 24.5039 30.1349 24.5093 30.1877C24.646 31.5721 24.3541 31.4946 24.3737 29.784Z" fill="#5D6819"/>
<path d="M10.8893 43.4019C11.1444 44.2706 11.267 44.9402 11.866 45.6895C12.2296 46.1438 12.6637 46.2546 12.5714 46.4699C12.5541 46.4667 12.5345 46.4732 12.5172 46.4699C11.3299 46.2353 10.1253 45.6949 9.0987 45.0705C8.6429 44.2125 8.20556 43.6624 7.90495 42.5407C7.97983 42.4578 8.14804 42.2683 8.17626 42.1908C8.30866 41.8269 9.16164 36.1246 9.53279 34.5745C9.81495 33.3967 10.4162 31.824 10.5095 31.3449C10.7927 31.5764 10.6289 31.965 10.6723 32.2869C10.7124 32.5851 10.8557 32.908 10.8893 33.2019C11.0803 34.877 10.8687 37.677 10.7265 39.4457C10.6918 39.8784 10.4878 40.3521 10.4552 40.7913C10.35 42.2059 10.6278 42.5105 10.8893 43.4019Z" fill="#FC8B31"/>
<path d="M10.5097 31.3449C10.4164 31.824 9.81515 33.3967 9.53299 34.5745L8.99038 34.09C9.81515 32.5581 10.3285 31.2685 10.4554 29.5148C10.6334 30.2652 10.6562 30.5935 10.5097 31.3449Z" fill="#F17035"/>
<path d="M23.8037 40.7106C23.5595 42.4675 22.3701 43.798 21.5247 45.2858C20.3408 45.8499 19.5713 46.161 18.2691 46.4161C16.3384 46.794 14.5109 46.8424 12.5716 46.47C12.6639 46.2547 12.2298 46.1438 11.8662 45.6895C11.2672 44.9402 11.1445 44.2706 10.8895 43.4019C11.5797 43.9294 11.8087 45.1577 12.653 45.5011C13.1663 45.7099 14.0757 45.6066 14.6064 45.6626C15.7568 45.7842 16.9223 46.0264 18.0791 45.8779C17.8925 46.6454 17.9467 46.2051 18.6218 45.824C19.1307 45.5366 19.6994 45.3353 20.1953 45.0167C21.9252 43.9046 23.0093 42.3986 23.6681 40.4953C23.6995 40.5513 23.7603 40.6751 23.8037 40.7106Z" fill="#F17035"/>
<path d="M25.2688 21.7639C25.1191 22.8469 25.5879 24.2991 26.7339 24.6705C26.7057 25.4359 25.4566 27.5922 24.9433 28.0077C24.9357 28.0142 24.8 28.1035 24.7805 28.1154C24.2086 28.462 23.2547 28.392 22.61 28.3307L23.4782 28.2499C23.7039 26.1916 24.291 24.1689 24.9975 22.2214C25.0312 22.1289 25.182 21.7402 25.2688 21.7639Z" fill="#3E92B6"/>
<path d="M30.5323 10.8373C31.2973 11.6361 31.6663 12.8687 31.7803 13.9323L31.6175 13.9592C30.5127 13.338 30.1926 13.3036 29.0672 14.5782C28.3651 15.3737 27.7704 16.4061 27.6564 17.4579C27.2918 17.8207 27.0552 18.2653 26.7882 18.6959C26.4279 19.2783 26.2662 19.5872 25.9743 20.203C25.7573 20.6627 25.3384 21.2633 25.2689 21.7639C25.1821 21.7402 25.0313 22.1289 24.9976 22.2214C24.2911 24.1689 23.704 26.1916 23.4783 28.2499L22.6101 28.3307C19.5335 28.0357 14.7183 25.6351 12.7346 23.2441C11.1479 21.3312 10.9081 19.2449 11.9749 17.0003C12.5956 15.8722 13.2099 14.6998 13.9826 13.6632C16.2485 10.6241 21.2427 7.84889 25.079 8.84575C25.5619 8.9717 26.3389 9.41092 26.7611 9.49166C27.3406 9.60361 29.1258 9.36786 30.5323 10.8373Z" fill="#4DA7C9"/>
<path d="M26.5711 14.1207C26.3856 14.182 26.5853 13.4446 26.5169 12.8558C26.1349 9.58425 21.5411 9.23977 20.928 12.3175C20.3485 15.2295 23.1549 17.7442 25.3231 15.9508C26.264 18.6507 21.1515 18.1964 19.9513 14.7397C18.8215 11.4865 20.9117 8.31396 24.5363 9.06107C26.6015 9.48737 27.8235 11.762 27.5478 13.4479C27.4111 14.2865 26.837 14.027 26.5711 14.1207Z" fill="#CFDBE6"/>
<path d="M26.5713 14.1207C26.3391 14.2025 26.1578 15.2607 25.3233 15.9507C23.155 17.7442 20.3486 15.2295 20.9281 12.3175C21.5413 9.23973 26.135 9.58422 26.517 12.8557C26.5854 13.4446 26.3857 14.182 26.5713 14.1207Z" fill="#4DA7C9"/>
<path d="M23.3972 10.4605C26.6984 9.93088 27.1607 15.4523 24.1568 15.7354C20.8284 16.0487 21.0444 10.8384 23.3972 10.4605Z" fill="#343941"/>
<path d="M22.5291 11.537C23.75 11.8406 22.0853 12.9968 22.2849 11.7254L22.5291 11.537Z" fill="#FDFDFD"/>
<path d="M32.4131 37.3953L34.8666 36.8985C35.1675 36.8382 35.4251 36.6272 35.5546 36.3368L36.4974 34.2224C36.7113 33.7428 37.2545 33.5158 37.7105 33.7155L38.5128 34.0669C38.9701 34.2671 39.1665 34.818 38.9526 35.2976L37.9856 37.4664C37.8705 37.7244 37.8704 38.0187 37.9868 38.2665L39.034 40.504C39.1665 40.7883 39.1462 41.1311 38.9787 41.411L37.9108 43.1979L34.4536 48.982L33.5685 50.4616C33.381 50.7762 33.0428 50.9566 32.6948 50.9343C32.2947 50.9063 31.6712 50.7882 30.733 50.4409C30.5514 50.3691 30.382 50.2996 30.223 50.2299C29.1519 49.7609 28.5696 49.3354 28.2529 49.0216C27.9998 48.7698 27.919 48.3827 28.0476 48.0315L28.6203 46.4631L30.8912 40.2369L31.6992 38.0217C31.8158 37.7009 32.0891 37.4611 32.4131 37.3953L32.4131 37.3953Z" fill="#D7F4FF"/>
<path d="M30.7965 48.9708C30.9384 49.0329 31.0889 49.0954 31.244 49.1568C31.8604 49.3837 32.286 49.4868 32.5588 49.533L37.6426 41.0324L36.7054 39.0341C36.4352 38.4581 35.716 38.2545 35.0312 38.3926L32.8505 38.8323L29.43 48.2116C29.6725 48.3978 30.092 48.6623 30.7965 48.9708L30.7965 48.9709L30.7965 48.9708Z" fill="#EEFCFF"/>
<path d="M36.8098 33.3297L39.3472 34.4407L38.6781 35.9409L36.1408 34.8299L36.8098 33.3297Z" fill="#C1E0EA"/>
<path d="M40.161 35.3558L40.7716 34.6182C40.9237 34.4344 40.8477 34.1558 40.6181 34.0552L36.2415 32.1381C36.0118 32.0375 35.7529 32.1693 35.7182 32.4046L35.579 33.3487C35.555 33.5115 35.649 33.6732 35.8078 33.7428L39.7131 35.4535C39.8719 35.5231 40.0559 35.483 40.161 35.3558Z" fill="#D7F4FF"/>
<path d="M30.9648 40.2957L28.6356 46.6376C30.4637 47.6671 32.3936 48.501 34.4009 49.1255L37.9033 43.2182C35.4467 42.6087 33.1097 41.6234 30.9648 40.2957Z" fill="#353738"/>
<path d="M31.7326 43.9026C32.0138 43.2725 32.9546 43.0456 33.6773 43.3619C34.4001 43.6782 34.8746 44.4964 34.5934 45.1265C34.3822 45.5998 33.9716 45.9648 33.3538 45.9525L33.1907 46.318C33.1448 46.4207 33.0258 46.4692 32.9262 46.4256C32.8266 46.382 32.7826 46.2623 32.8285 46.1595L32.9474 45.893C32.8946 45.8797 32.8408 45.8638 32.7857 45.8455L32.6755 46.0925C32.6296 46.1953 32.5106 46.2437 32.411 46.2001C32.3114 46.1566 32.2674 46.0368 32.3133 45.934L32.4214 45.6917C32.3703 45.665 32.3212 45.6375 32.2754 45.6087L32.1602 45.867C32.1143 45.9698 31.9953 46.0182 31.8957 45.9746C31.7961 45.9311 31.7521 45.8113 31.798 45.7085L31.9576 45.3509C31.5409 44.9125 31.5323 44.3519 31.7328 43.9027L31.7326 43.9026Z" fill="white"/>
<path d="M33.4798 45.1505C33.3156 45.0787 33.2597 44.8472 33.355 44.6335C33.4504 44.4198 33.6609 44.3048 33.8251 44.3767C33.9894 44.4486 34.0453 44.6801 33.9499 44.8938C33.8546 45.1075 33.6441 45.2224 33.4798 45.1505Z" fill="#353738"/>
<path d="M32.4618 44.7041C32.2975 44.6322 32.2416 44.4007 32.337 44.1871C32.4323 43.9734 32.6428 43.8584 32.8071 43.9303C32.9713 44.0022 33.0272 44.2337 32.9319 44.4474C32.8365 44.6611 32.626 44.776 32.4618 44.7041Z" fill="#353738"/>
<path d="M32.7827 45.0473C32.7473 45.1267 32.781 45.2183 32.8579 45.2519C32.9348 45.2856 33.0258 45.2485 33.0612 45.1692C33.0966 45.0898 33.0336 44.8581 33.0336 44.8581C33.0336 44.8581 32.8181 44.968 32.7827 45.0473Z" fill="#353738"/>
<defs>
<linearGradient id="paint0_linear_1167_18718" x1="18.7607" y1="7.91887" x2="21.6443" y2="42.1398" gradientUnits="userSpaceOnUse">
<stop offset="0.38" stop-color="#F7D037"/>
<stop offset="1" stop-color="#FBAF37"/>
</linearGradient>
</defs>
</svg>
