<svg width="106" height="109" viewBox="0 0 106 109" fill="none" xmlns="http://www.w3.org/2000/svg">
<g filter="url(#filter0_d_1193_19130)">
<rect x="9.6001" y="9.9986" width="86.4013" height="86.4013" rx="7.20011" fill="#EDD195" fill-opacity="0.2"/>
<rect x="10.8001" y="11.1986" width="84.0012" height="84.0012" rx="6.00009" stroke="url(#paint0_linear_1193_19130)" stroke-opacity="0.2" stroke-width="2.40004"/>
<path d="M11.5596 15.8896C11.5596 15.8896 23.7262 49.6566 40.0327 65.9631C56.3393 82.2697 90.1062 94.4363 90.1062 94.4363H18.7597C14.7832 94.4363 11.5596 91.2127 11.5596 87.2362V15.8896Z" fill="#E1C088" fill-opacity="0.2"/>
<path d="M11.5857 13.9258C11.5857 13.9258 10.2168 61.6437 27.2998 78.7268C44.3829 95.8099 90.1367 94.4361 90.1367 94.4361H16.3899C13.739 94.4361 11.5899 92.2872 11.5898 89.6363L11.5857 13.9258Z" fill="#B69C75" fill-opacity="0.2"/>
<path d="M80.2881 94.4358C80.2881 94.4358 85.9653 92.247 88.8819 89.3191C91.7986 86.3912 94.0337 70.8718 94.0337 70.8718L94.0337 89.6352C94.0337 92.2861 91.8848 94.4352 89.2339 94.4353L80.2881 94.4358Z" fill="#644433" fill-opacity="0.2"/>
<path d="M94.0407 35.5259C94.0407 35.5259 94.2575 21.747 89.1328 16.7471C84.0082 11.7472 70.4767 11.9619 70.4767 11.9619L89.2396 11.9619C91.8905 11.9619 94.0395 14.1108 94.0397 16.7617L94.0407 35.5259Z" fill="#B69C75" fill-opacity="0.2"/>
<path d="M35.1289 11.9616C35.1289 11.9616 21.35 11.7449 16.3501 16.8695C11.3502 21.9941 11.5649 35.5256 11.5649 35.5256L11.5649 16.7627C11.5649 14.1118 13.7138 11.9628 16.3647 11.9627L35.1289 11.9616Z" fill="#B69C75" fill-opacity="0.2"/>
<path d="M11.5596 71.8546C11.5596 71.8546 15.7429 86.9179 17.4506 88.584C19.1582 90.2501 48.8688 94.4341 48.8688 94.4341H16.3596C13.7086 94.4341 11.5596 92.2851 11.5596 89.6341V71.8546Z" fill="#644433" fill-opacity="0.2"/>
</g>
<g filter="url(#filter1_d_1193_19130)">
<path d="M52.8402 98.7999C77.9499 98.7999 98.3054 78.3837 98.3054 53.1992C98.3054 28.0146 77.9499 7.59851 52.8402 7.59851C27.7305 7.59851 7.375 28.0146 7.375 53.1992C7.375 78.3837 27.7305 98.7999 52.8402 98.7999Z" fill="#373636"/>
<mask id="mask0_1193_19130" style="mask-type:luminance" maskUnits="userSpaceOnUse" x="23" y="17" width="56" height="74">
<path d="M78.2322 17.6649H23.4331V90.5455H78.2322V17.6649Z" fill="white"/>
</mask>
<g mask="url(#mask0_1193_19130)">
<g opacity="0.05">
<path d="M76.9257 50.1373C77.3968 48.8381 77.8144 47.0207 78.1323 45.0662C78.435 43.2185 77.776 39.7208 77.1365 36.6652C77.1365 36.3719 77.1287 36.1128 77.1134 35.8994C77.01 34.3373 76.6728 32.8742 76.1329 31.5179C72.3483 21.9512 58.7385 17.4136 49.2811 17.6764C40.877 17.9089 27.9604 22.8084 24.3675 31.0265C23.9653 31.9485 23.7163 32.9582 23.586 34.0212L23.4635 34.0287C23.475 34.383 23.4788 34.8289 23.4788 35.3319C23.4596 35.7661 23.4596 36.208 23.4711 36.6538C23.429 41.1039 23.2605 48.3426 24.1798 50.7964C24.4939 51.6422 25.4822 53.1852 25.4975 53.3261C25.6086 54.2901 22.1649 58.8316 24.9306 63.3502C26.5202 65.9447 28.7878 65.2817 29.4045 65.4571C30.2319 65.6971 31.2394 68.8631 34.6333 65.7846C36.2803 70.7451 34.9741 74.6694 34.4456 78.8528C34.2234 80.613 34.1276 82.4189 34.07 84.1944C34.1276 84.2021 33.7942 84.3887 35.0584 84.4763C36.6289 87.6347 37.8164 86.5109 39.1071 86.9109C40.061 87.2081 41.4822 89.833 46.9253 90.378C57.689 91.4523 60.6231 87.0557 61.8068 86.8193C62.8869 86.6023 63.7717 87.4062 65.1507 85.7412C65.3194 85.5355 65.664 84.6325 65.7636 84.5715C66.0854 84.3619 66.7251 84.6555 66.8477 84.1983C66.9742 83.7181 66.388 79.4091 66.2809 78.4832C65.8095 74.3038 64.8252 69.9984 66.2809 65.8837C69.8163 68.8289 70.5403 65.6705 71.6014 65.3695C72.31 65.1676 74.3056 65.9447 75.8876 63.354C78.7911 58.5914 75.2978 54.1034 75.4164 53.1433C75.4357 52.9756 76.4087 51.5659 76.9219 50.1449L76.9257 50.1373Z" fill="#CEBD9D"/>
<path opacity="0.35" d="M76.1602 31.5141C76.3555 33.8002 78.6805 41.8811 78.1596 45.0661C77.8417 47.0205 77.4242 48.8379 76.953 50.1371C76.436 51.5583 75.4668 52.968 75.4478 53.1357C75.3289 54.0956 78.8224 58.5838 75.9189 63.3462C74.3408 65.9371 72.3449 65.1597 71.6325 65.3617C70.5715 65.6627 69.8474 68.8211 66.312 65.8761C64.8563 69.9908 65.8409 74.296 66.312 78.4755C66.4154 79.4015 67.0053 83.7105 66.8788 84.1904C66.7562 84.6515 66.1167 84.3543 65.7949 84.5639C65.6951 84.6287 65.3505 85.5317 65.1819 85.7336C63.8029 87.3984 62.9181 86.5945 61.8379 86.8117C60.6504 87.0479 57.7202 91.4485 46.9565 90.3702C41.5133 89.8254 40.0921 87.2003 39.1385 86.9031C37.8438 86.5031 36.6601 87.6271 35.0895 84.4687C33.8217 84.3809 34.1588 84.1981 34.1014 84.1866C34.1626 82.4113 34.2545 80.6092 34.4767 78.8452C35.0052 74.658 36.3114 70.7375 34.6644 65.777C31.2705 68.8555 30.2632 65.6856 29.4358 65.4493C28.819 65.2703 26.5514 65.9371 24.9617 63.3424C22.1923 58.8238 25.6359 54.2824 25.5286 53.3185C25.5133 53.1775 24.525 51.6344 24.2109 50.7886C23.0656 47.7445 23.5981 37.3319 23.487 34.0249" fill="#080808"/>
<path d="M38.3763 68.5239C38.3763 68.5239 37.679 71.6563 38.3763 72.8986C39.0736 74.1408 39.6405 74.5904 40.0965 72.8986C40.5524 71.2067 40.6636 70.0748 40.6636 70.0748L38.3763 68.5239Z" fill="#080808"/>
<path d="M63.6044 67.32C63.6044 67.32 63.9912 70.7915 63.294 72.0338C62.5967 73.2762 62.0297 73.7258 61.5738 72.0338C61.1179 70.3419 61.0068 69.2102 61.0068 69.2102L63.6044 67.32Z" fill="#080808"/>
<path d="M43.0304 68.1086C43.0304 68.1086 39.3646 72.113 39.0274 74.0065C38.6904 75.9 38.2345 78.3918 39.2534 80.3616C40.2723 82.3312 41.659 84.1143 42.2718 84.1828C42.8848 84.2514 46.6156 84.9297 46.6156 84.9297C46.6156 84.9297 48.0827 85.0288 48.4466 84.1828C48.8106 83.337 53.4799 84.9372 53.9703 84.9335C54.4605 84.9297 57.0882 85.7183 57.364 85.6078C57.6398 85.4973 60.7809 84.1828 60.7809 84.1828C60.7809 84.1828 62.2939 83.0095 62.6348 80.0757C62.9758 77.1422 63.1902 73.6445 61.8917 71.6673C60.5932 69.6898 58.3024 67.32 58.3024 67.32L52.5837 67.9983L45.2597 67.7734L43.0342 68.1124L43.0304 68.1086Z" fill="#080808"/>
<path d="M64.5194 83.7677C63.4431 85.3145 63.0332 84.8879 61.7883 85.3489C60.505 85.8212 60.1258 85.8212 60.0453 85.8595C59.8386 85.9585 57.7432 88.0958 56.2953 87.0938C46.9795 80.636 46.087 89.1169 42.9996 87.5701C41.6782 86.9072 41.0883 86.0193 40.9732 85.947C40.3413 85.547 38.1961 85.4022 37.6293 85.0936C37.545 85.0479 36.2848 83.8591 36.2617 83.7715L39.9353 81.5502C40.7856 79.2263 40.2954 82.7886 42.291 82.7886C42.609 82.7886 43.3445 82.4305 43.4669 82.1065C44.1488 84.9716 46.5774 84.3696 47.1404 81.5959C47.7418 83.6916 49.6608 84.0572 50.5304 81.8512C51.354 84.362 53.3075 85.1774 54.2997 82.1943C54.6788 85.1508 57.5479 85.5355 57.927 83.0896C58.0688 82.179 57.5171 81.3978 58.5401 81.0818C59.0035 81.1083 59.1145 83.4858 60.8458 82.8762C61.8495 82.5219 61.7844 80.7083 61.8802 80.6131L64.5194 83.7715V83.7677Z" fill="#CEBD9D"/>
<path d="M40.4595 73.0733C40.7544 73.1838 41.08 73.7439 41.1107 73.7516C41.2217 73.7743 41.6202 72.6314 43.0528 72.9477C43.4855 73.0429 44.2517 73.9267 44.3129 73.9344C44.6731 73.9839 45.0024 72.9781 46.4581 73.4047C46.5615 73.4353 47.1974 74.3002 47.2317 74.304C47.4463 74.3382 48.2009 73.4695 48.8597 73.4047C50.3039 73.2638 50.5107 74.3878 50.6219 74.3954C50.8286 74.4105 52.7133 71.2332 54.1995 74.7649C56.0727 71.1492 57.6125 74.506 57.7773 74.3954C57.9342 74.2925 58.754 70.7341 60.6961 73.2867L62.7224 70.513C60.3896 68.3604 57.8883 65.0991 59.8034 61.9177C60.3934 60.9349 61.2858 60.7406 62.4426 60.7176C62.9713 60.7062 69.4487 61.2282 69.7895 61.3653C71.1763 59.8032 72.7276 58.3935 74.4512 57.2087C75.0719 57.1477 75.1484 58.5765 75.5354 58.8737C75.6695 55.9285 73.7081 54.2407 73.8384 51.25C73.846 51.0594 74.1142 50.3126 74.1218 50.0497C74.2674 44.7159 72.084 44.6282 72.1453 44.1367C72.1531 44.0872 72.4251 43.9044 72.4289 43.8587C72.4632 43.0967 72.1798 36.9664 73.8882 37.6218C74.8957 38.7989 72.8962 41.2946 73.9342 43.9501C74.6084 44.3121 73.8346 40.746 75.0183 39.8392C76.4585 39.4085 75.815 43.5766 75.7231 45.6608C75.6885 46.4304 75.5699 47.2533 75.7231 48.0153C76.1635 46.7008 76.4738 45.3636 76.6653 43.9958C76.922 42.1595 77.2514 37.5608 77.1364 35.8158C76.3206 23.4297 60.1061 17.5471 49.3041 17.8443C40.8999 18.0767 27.9836 22.9077 24.3905 31.0114C22.3566 35.6024 24.2641 42.3308 25.1451 47.1848C25.375 47.8476 25.3826 46.6171 25.3328 45.4282C25.2984 44.6092 24.5667 40.1591 25.2869 39.9306C26.4629 39.5571 26.551 42.2279 26.6544 42.9328C27.9643 40.9783 25.5397 37.5074 27.4549 37.7132C28.9756 39.4657 28.3742 42.8832 28.4433 43.5804C28.4471 43.6338 28.7994 43.8814 28.8187 43.9501C28.9794 44.5482 28.0372 45.0435 27.6885 45.6151C25.9649 48.4419 27.1638 51.3642 26.934 53.2844C26.8076 54.3436 25.9304 55.8866 25.7082 57.0259C27.1677 56.8886 30.4925 61.1177 31.1246 61.2777C31.3314 61.3311 34.6296 61.0224 35.4108 60.9995C37.2954 60.95 38.2684 60.7215 40.0266 61.6474C43.8647 63.6665 41.4439 67.7546 39.272 70.1472C39.1341 70.2996 38.9886 70.536 38.8009 70.5168L40.4557 73.0733H40.4595Z" fill="#CEBD9D"/>
<path d="M47.8945 78.3281C47.5534 78.248 47.3159 77.8935 47.339 77.4972C47.404 76.4608 47.607 74.5935 48.2085 74.3077C49.0516 73.9038 49.7986 73.7207 50.1588 74.9593C50.3771 75.7024 50.247 76.7236 50.3694 77.4173C50.4461 77.844 50.201 78.2594 49.8293 78.347L49.1549 78.5071C48.9901 78.5452 48.8178 78.5452 48.6492 78.5071L47.8907 78.3281H47.8945Z" fill="#CEBD9D"/>
<path d="M53.6833 78.3281C54.0244 78.248 54.262 77.8935 54.2389 77.4972C54.1738 76.4608 53.9708 74.5935 53.3693 74.3077C52.5263 73.9038 51.7792 73.7207 51.419 74.9593C51.2008 75.7024 51.3311 76.7236 51.2084 77.4173C51.1317 77.844 51.377 78.2594 51.7487 78.347L52.4229 78.5071C52.5877 78.5452 52.76 78.5452 52.9286 78.5071L53.6873 78.3281H53.6833Z" fill="#CEBD9D"/>
<path d="M44.5626 77.7079C44.2483 77.6392 44.03 77.3496 44.0529 77.0218C44.1144 76.1641 44.2981 74.624 44.854 74.3839C45.628 74.0485 46.3141 73.8999 46.6475 74.9213C46.8469 75.5389 46.728 76.3813 46.839 76.9531C46.9081 77.3077 46.6858 77.6507 46.341 77.7232L45.7238 77.8566C45.5706 77.8908 45.4135 77.8908 45.2601 77.8566L44.5626 77.7079Z" fill="#CEBD9D"/>
<path d="M41.4531 77.2925C41.1617 77.2238 40.9625 76.9342 40.9818 76.6065C41.0392 75.7488 41.2077 74.2086 41.7214 73.9685C42.4342 73.6331 43.0704 73.4845 43.3769 74.5059C43.5608 75.1235 43.4498 75.9659 43.557 76.5378C43.6223 76.8923 43.4152 77.2353 43.0971 77.3078L42.5261 77.4412C42.3844 77.4754 42.2388 77.4754 42.097 77.4412L41.4531 77.2925Z" fill="#CEBD9D"/>
<path d="M60.4817 77.2764C60.7805 77.2041 60.9875 76.8877 60.9682 76.5371C60.9108 75.6112 60.7345 73.9419 60.2058 73.6866C59.4702 73.3245 58.8112 73.1644 58.497 74.2696C58.3054 74.9366 58.4203 75.8474 58.3131 76.4687C58.248 76.8497 58.4586 77.2232 58.7881 77.2993L59.3782 77.4403C59.5238 77.4745 59.6731 77.4745 59.8189 77.4403L60.4855 77.2802L60.4817 77.2764Z" fill="#CEBD9D"/>
<path d="M48.1826 79.0016C47.9065 79.0666 47.7186 79.3411 47.7377 79.6501C47.7913 80.4588 47.9525 81.9198 48.4395 82.1486C49.1145 82.4652 49.7166 82.6063 50.008 81.6414C50.1845 81.0577 50.0772 80.2604 50.1768 79.7188C50.2381 79.383 50.0426 79.0589 49.7395 78.9902L49.1989 78.8644C49.0647 78.8337 48.9266 78.8337 48.7924 78.8644L48.1826 79.0055V79.0016Z" fill="#CEBD9D"/>
<path d="M53.4668 79.3978C53.7775 79.4627 53.9961 79.7375 53.973 80.0463C53.9117 80.855 53.7276 82.316 53.1792 82.5449C52.4121 82.8614 51.7255 83.0027 51.3996 82.0376C51.2002 81.4538 51.3192 80.6566 51.2078 80.115C51.1389 79.7794 51.3614 79.4551 51.7026 79.3865L52.3162 79.2606C52.4697 79.2301 52.6231 79.2301 52.7764 79.2606L53.4706 79.4017L53.4668 79.3978Z" fill="#CEBD9D"/>
<path d="M56.9115 79.3977C57.1911 79.4702 57.3865 79.7825 57.3634 80.1331C57.3098 81.0516 57.1452 82.7132 56.6508 82.9685C55.9612 83.3268 55.3482 83.4869 55.053 82.3894C54.8767 81.7262 54.9803 80.8192 54.8807 80.2056C54.8193 79.8284 55.0187 79.4587 55.3251 79.3786L55.8768 79.2376C56.0109 79.2034 56.1527 79.2034 56.2906 79.2376L56.9115 79.3977Z" fill="#CEBD9D"/>
<path d="M41.3451 78.3882C41.115 78.4492 40.9538 78.7238 40.9693 79.0328C41.0153 79.8377 41.1494 81.291 41.5597 81.5161C42.1313 81.829 42.6375 81.9701 42.8829 81.0088C43.0286 80.4289 42.9404 79.6355 43.0248 79.0939C43.0747 78.7621 42.9137 78.4378 42.6566 78.369L42.2002 78.2471C42.0891 78.2164 41.9701 78.2164 41.859 78.2471L41.3451 78.3882Z" fill="#CEBD9D"/>
<path d="M59.9548 78.4032C60.1888 78.3956 60.4189 78.5977 60.4918 78.8837C60.6759 79.6315 60.9596 80.9932 60.6375 81.3173C60.1888 81.7674 59.7517 82.0421 59.2531 81.2373C58.9501 80.7528 58.8082 80.0014 58.5781 79.5323C58.4362 79.2461 58.4977 78.9029 58.72 78.7656L59.1151 78.5215C59.2109 78.4605 59.322 78.4262 59.4372 78.4224L59.9587 78.4032H59.9548Z" fill="#CEBD9D"/>
<path opacity="0.81" d="M56.4859 43.6488C59.7702 42.5727 68.0099 43.1167 70.5871 45.7166C73.0247 48.1803 73.471 56.052 69.6489 57.6074C64.9924 59.4965 55.4517 56.9263 54.5324 48.8575C54.2981 46.8022 54.1719 44.4102 56.4859 43.6488Z" fill="#080808"/>
<path opacity="0.81" d="M43.2051 43.266C45.1084 43.6807 46.4101 44.1355 46.6263 46.2563C46.9252 49.2078 45.9627 52.2043 43.8827 54.31C40.0725 58.1656 30.1344 59.8959 28.5888 54.8516C27.9804 52.8625 28.8835 48.6984 29.7616 46.8587C31.6015 43.0005 39.5681 42.4702 43.2025 43.2614L43.2051 43.266Z" fill="#080808"/>
<path opacity="0.81" d="M50.3024 57.4822C51.795 57.2243 53.8696 61.6267 54.1035 62.8939C54.5711 65.4209 53.3607 67.2696 51.3202 66.7515C50.8868 66.6419 50.4168 66.2138 50.3632 66.2138C50.1903 66.2138 48.5662 67.7681 47.339 65.9438C45.6367 63.4168 49.0922 57.6914 50.3024 57.4822Z" fill="#080808"/>
<path opacity="0.33" d="M47.7371 20.0766C47.7371 20.0766 42.746 18.8918 36.261 22.957C29.7759 27.0222 27.9029 29.2357 27.221 31.5141C26.5392 33.7925 26.7116 35.8231 28.2437 36.6727C29.7759 37.5225 30.4577 37.5187 30.2853 40.3989C30.1131 43.2793 33.66 40.0598 37.4216 39.7208C41.1831 39.3816 44.2743 39.7208 45.4542 40.7381C46.6339 41.7552 48.3997 43.424 48.963 41.9952C49.526 40.5666 49.526 39.0425 47.7409 37.8577C45.9561 36.6727 43.673 36.6727 42.0029 34.4706C40.3328 32.2685 38.9729 30.5769 39.992 28.0356C41.0109 25.4944 43.0065 22.7855 44.0521 22.2788C45.0979 21.7721 47.7371 20.0766 47.7371 20.0766Z" fill="#F6F6F6"/>
<g opacity="0.33">
<path d="M27.8036 47.2531C27.9108 50.0838 28.6694 52.846 28.5544 55.7036C28.6348 57.2124 29.9908 58.2333 31.3086 58.9382C32.7871 59.6164 34.5339 59.2353 36.1349 59.2925C36.7172 59.3078 37.219 59.0678 37.8128 58.7934C39.2414 58.0658 40.6818 57.1856 42.2714 56.8236C40.8235 57.6124 39.636 58.664 38.2877 59.5973C37.7285 59.9859 36.9816 60.405 36.2039 60.4584L35.8093 60.5079C34.3998 60.6831 32.9939 60.946 31.5537 60.6223C30.37 60.3175 29.3396 59.6126 28.4779 58.7324C27.6007 57.8486 27.1103 56.4999 27.3401 55.2502C27.6657 52.6175 27.2252 49.8706 27.8074 47.2531H27.8036Z" fill="#F6F6F6"/>
</g>
<g opacity="0.33">
<path d="M42.9247 76.466C42.9247 76.0693 42.9247 75.6765 42.9247 75.2799C42.9247 75.0969 42.8441 74.9022 42.7139 74.7726C42.5835 74.643 42.3841 74.5551 42.2039 74.5628C42.0237 74.5704 41.8241 74.6315 41.6939 74.7726C41.5635 74.9137 41.4829 75.0854 41.4829 75.2799C41.4829 75.6765 41.4829 76.0693 41.4829 76.466C41.4829 76.6492 41.5635 76.8436 41.6939 76.9732C41.8241 77.103 42.0237 77.1907 42.2039 77.183C42.3841 77.1754 42.5835 77.1143 42.7139 76.9732C42.8441 76.8322 42.9247 76.6604 42.9247 76.466Z" fill="#F6F6F6"/>
</g>
<g opacity="0.33">
<path d="M42.9247 81.0379V79.8518C42.9247 79.6688 42.8441 79.4741 42.7139 79.3445C42.5835 79.2149 42.3841 79.1271 42.2039 79.1347C42.0237 79.1424 41.8241 79.2034 41.6939 79.3445C41.5635 79.4856 41.4829 79.6573 41.4829 79.8518V81.0379C41.4829 81.2211 41.5635 81.4156 41.6939 81.5452C41.8241 81.675 42.0237 81.7626 42.2039 81.755C42.3841 81.7473 42.5835 81.6863 42.7139 81.5452C42.8441 81.4041 42.9247 81.2324 42.9247 81.0379Z" fill="#F6F6F6"/>
</g>
<g opacity="0.33">
<path d="M46.3299 76.2936V75.9541C46.3299 75.855 46.3144 75.7635 46.2684 75.6796C46.2379 75.5917 46.1919 75.5155 46.1189 75.4506C46.0538 75.3821 45.977 75.3325 45.8888 75.3019C45.8044 75.2561 45.7123 75.237 45.6127 75.2408L45.4209 75.2676C45.2982 75.3019 45.1947 75.363 45.1026 75.4506L44.9915 75.5956C44.9262 75.7062 44.8956 75.8284 44.8916 75.958V76.2974C44.8916 76.3966 44.9071 76.4883 44.9531 76.5721C44.9836 76.6598 45.0297 76.7362 45.1026 76.8009C45.1677 76.8697 45.2445 76.9192 45.3327 76.9497C45.4171 76.9954 45.5092 77.0146 45.6089 77.0108L45.8006 76.9841C45.9234 76.9497 46.0269 76.8888 46.1189 76.8009L46.23 76.656C46.2954 76.5453 46.3259 76.4234 46.3299 76.2936Z" fill="#F6F6F6"/>
</g>
<g opacity="0.33">
<path d="M48.125 75.6189V76.2979C48.125 76.3971 48.1403 76.4886 48.1863 76.5724C48.217 76.6601 48.263 76.7365 48.3358 76.8014C48.4011 76.8699 48.4779 76.9195 48.5659 76.9501C48.6503 76.9959 48.7423 77.0148 48.842 77.011L49.0339 76.9844C49.1564 76.9501 49.2599 76.8891 49.352 76.8014L49.4633 76.6563C49.5284 76.5458 49.5591 76.4237 49.563 76.2941V75.6151C49.563 75.5159 49.5477 75.4244 49.5017 75.3406C49.4709 75.2527 49.4249 75.1766 49.352 75.1117C49.2869 75.0429 49.2101 74.9933 49.1219 74.9629C49.0377 74.9172 48.9457 74.898 48.8458 74.9018L48.6541 74.9286C48.5315 74.9629 48.4278 75.024 48.3358 75.1117L48.2247 75.2566C48.1596 75.3672 48.1288 75.4893 48.125 75.6189Z" fill="#F6F6F6"/>
</g>
<g opacity="0.33">
<path d="M48.125 80.5297V80.6976C48.125 80.7967 48.1403 80.8882 48.1863 80.9721C48.217 81.0599 48.263 81.1361 48.3358 81.201C48.401 81.2695 48.4778 81.3191 48.5658 81.3497C48.6502 81.3954 48.7422 81.4144 48.8418 81.4107L49.0337 81.3839C49.1563 81.3497 49.2597 81.2886 49.3517 81.201L49.463 81.0561C49.5281 80.9455 49.5589 80.8233 49.5627 80.6938V80.5259C49.5627 80.4268 49.5474 80.3353 49.5014 80.2515C49.4707 80.1636 49.4247 80.0874 49.3517 80.0226C49.2866 79.954 49.2099 79.9045 49.1217 79.8739C49.0375 79.8281 48.9455 79.809 48.8457 79.8128L48.654 79.8396C48.5314 79.8738 48.4278 79.9349 48.3358 80.0226L48.2247 80.1674C48.1596 80.2781 48.1288 80.4002 48.125 80.5297Z" fill="#F6F6F6"/>
</g>
<g opacity="0.33">
<path d="M51.7943 40.0524C52.074 40.6698 52.2771 41.3061 52.4648 41.9502L51.5606 41.9311C51.5339 40.8488 51.6985 39.0809 51.7638 37.9871L52.89 40.0067C53.1314 40.4374 53.3536 40.8794 53.5682 41.3214L52.3155 41.1309C53.9053 39.218 56.9817 38.4293 59.1385 39.8124C57.0239 39.862 54.8936 40.6011 53.4455 42.1216L52.6218 42.9828C52.3193 42.2321 51.9246 41.3061 51.668 40.5478L52.9436 40.3803C52.6909 41.5348 51.7638 44.1831 51.396 45.3415C51.4956 43.9849 51.5108 41.3595 51.8021 40.0524H51.7943Z" fill="#F6F6F6"/>
</g>
</g>
</g>
<path d="M17.6428 27.7253C14.3799 32.6342 14.8729 31.638 12.8484 37.1429C10.8238 42.6476 9.88383 48.4817 10.0821 54.3121C10.2803 60.1424 11.6129 65.8547 14.0038 71.123C16.3946 76.3911 19.7969 81.1121 24.0164 85.0162C28.2359 88.9203 33.1899 91.931 38.5955 93.8766C44.0014 95.8223 49.7529 96.6646 55.5218 96.3556C61.2908 96.0463 66.9642 94.5919 72.2183 92.0753C77.4722 89.5586 79.0098 89.3574 82.9489 85.0162C62.1903 89.6373 46.2618 87.8044 33.6231 76.1103C23.4479 66.6956 16.5852 47.8236 17.6428 27.7253Z" fill="#303030"/>
<path d="M87.5548 79.8401C91.4785 75.0829 91.8689 73.8939 93.8935 68.389C95.918 62.8843 96.5162 56.983 96.3181 51.1528C96.1198 45.3223 94.7871 39.61 92.3962 34.3419C90.0056 29.0736 86.6032 24.3527 82.3837 20.4486C78.1643 16.5445 73.2103 13.5337 67.8045 11.5881C62.3989 9.64249 56.6472 8.8002 50.8782 9.10928C45.1092 9.41837 39.4358 10.8728 34.1817 13.3895C28.9279 15.9063 27.8859 17.0336 23.3613 20.8957C43.2561 16.0788 59.0057 18.7962 71.6446 30.4903C81.8198 39.905 92.3962 59.9395 87.5548 79.8401Z" fill="#424242"/>
<path d="M86.2967 20.9753C88.6553 23.3409 93.485 24.7915 93.0304 27.3913C92.163 28.4518 88.477 31.3549 87.6059 32.2287C84.8691 34.9736 79.8459 34.3855 76.3861 30.9154C72.9261 27.4453 72.34 22.4071 75.0768 19.6622C76.4325 18.3025 80.6781 16.445 82.585 15.8411C84.6327 16.0662 84.5506 19.224 86.2967 20.9753Z" fill="#373636"/>
<path d="M90.3298 18.7146C93.4654 21.8596 94.3091 26.1123 92.2142 28.2134C90.1192 30.3147 85.8792 29.4685 82.7436 26.3235C79.608 23.1786 78.7644 18.9258 80.8592 16.8247C82.9542 14.7235 87.1942 15.5697 90.3298 18.7146Z" fill="#424242"/>
<path d="M85.5638 21.0868C84.9746 21.7517 85.0343 22.7697 85.6973 23.3607C86.3601 23.9516 87.3752 23.8917 87.9643 23.2268L85.5638 21.0868ZM87.9643 23.2268C88.8662 22.209 90.8048 21.1459 92.7312 20.91C93.6664 20.7954 94.4816 20.8916 95.1165 21.1781C95.7153 21.4484 96.2464 21.9263 96.6115 22.7873L99.5669 21.5263C98.8912 19.9332 97.783 18.8492 96.4343 18.2405C95.1215 17.6481 93.6807 17.5485 92.3418 17.7125C89.7197 18.0336 87.0367 19.4245 85.5638 21.0868L87.9643 23.2268ZM96.6115 22.7873C97.906 25.8389 97.5718 28.2421 96.4016 30.3959C95.1679 32.6665 92.9691 34.7229 90.3626 36.8517L92.3906 39.3496C95.0095 37.2107 97.6593 34.8131 99.2216 31.9375C100.848 28.9454 101.257 25.5106 99.5669 21.5263L96.6115 22.7873ZM90.3626 36.8517C87.3926 39.2775 84.4066 39.2956 80.3476 38.6425C76.3358 37.9971 71.2528 36.6584 65.0771 37.1394L65.3256 40.351C71.0013 39.9091 75.4862 41.1229 79.839 41.8231C84.1452 42.5159 88.3212 42.6731 92.3906 39.3496L90.3626 36.8517Z" fill="black"/>
<path d="M69.1032 36.0645L66.5957 37.6121L69.5855 38.7244L66.5957 39.7884L68.6212 41.3843H66.5957L68.6212 47.2476L65.1008 44.1411L59.3818 56.4205L59.8453 42.2066L46.1991 45.3984L55.6503 38.2408L45.4707 34.0333L57.4823 34.5169L49.5624 23.6395L61.3881 31.9054L63.0891 21.4187L65.1008 34.0333L67.7581 31.5088L66.5957 36.4031L69.1032 36.0645Z" fill="#FF0000"/>
<path d="M66.232 34.1171L65.4873 37.786L68.1676 38.6391L65.6688 39.2505L66.0375 43.1257L64.1914 41.1494L61.1206 47.6122L61.653 40.3127L52.7422 42.2L60.5702 38.2296L54.1975 35.9864L60.2149 36.111L57.0731 31.3395L62.5229 35.4523L63.0906 28.7581L64.4038 36.2356L66.232 34.1171Z" fill="#FF9900"/>
<path d="M62.8308 39.174L61.7474 45.2595L64.1108 39.3413L65.2829 41.5899V38.9821L67.0784 38.633L65.1729 38.2197V36.1108L64.1108 37.6388L63.0911 31.5517V37.1814L58.7487 33.2269L62.0515 37.4156L55.9046 36.364L62.5526 38.3644L55.459 41.3364L62.8308 39.174Z" fill="#FFE500"/>
<path d="M49.1079 50.5159L54.3748 47.4573L49.1079 53.2963V50.5159Z" fill="#FF0000"/>
<path d="M65.3691 46.8087V50.516L67.7717 51.8136L65.3691 46.8087Z" fill="#FF0000"/>
<path d="M38.9453 35.7816L46.0604 37.5425H40.7931L38.9453 35.7816Z" fill="#FF0000"/>
<path d="M45.0439 25.2176L51.1425 29.5735L41.2554 26.0517L45.0439 25.2176Z" fill="#FF0000"/>
<path d="M54.9282 20.1215L58.994 26.053L55.8521 16.507L54.9282 20.1215Z" fill="#FF0000"/>
<path d="M32.939 29.5729L37.5596 30.3143L34.1402 30.9631L32.939 29.5729Z" fill="#FF0000"/>
<path d="M37.5591 45.8822L42.5489 44.5847L39.9615 46.8091L37.5591 45.8822Z" fill="#FF0000"/>
<path d="M72.5771 45.327L69.7114 43.5653L72.5771 47.4593V45.327Z" fill="#FF0000"/>
<path d="M71.282 29.5734L69.1567 31.8905L69.7111 26.7002L71.282 29.5734Z" fill="#FF0000"/>
<path d="M49.3447 50.5159L54.6118 47.4573L49.3447 53.2963V50.5159Z" fill="#FF9900"/>
<path d="M65.606 46.8087V50.516L68.0087 51.8136L65.606 46.8087Z" fill="#FF9900"/>
<path d="M39.1821 35.7816L46.2972 37.5425H41.0299L39.1821 35.7816Z" fill="#FF9900"/>
<path d="M45.2802 25.2176L51.3789 29.5735L41.4917 26.0517L45.2802 25.2176Z" fill="#FF9900"/>
<path d="M55.1655 20.1215L59.2313 26.053L56.0896 16.507L55.1655 20.1215Z" fill="#FF9900"/>
<path d="M33.1758 29.5729L37.7964 30.3143L34.377 30.9631L33.1758 29.5729Z" fill="#FF9900"/>
<path d="M37.7959 45.8822L42.7857 44.5847L40.1983 46.8091L37.7959 45.8822Z" fill="#FF9900"/>
<path d="M72.8129 45.327L69.9473 43.5653L72.8129 47.4593V45.327Z" fill="#FF9900"/>
<path d="M71.5191 29.5734L69.3936 31.8905L69.9481 26.7002L71.5191 29.5734Z" fill="#FF9900"/>
</g>
<defs>
<filter id="filter0_d_1193_19130" x="-4.48227e-05" y="2.79849" width="105.602" height="105.602" filterUnits="userSpaceOnUse" color-interpolation-filters="sRGB">
<feFlood flood-opacity="0" result="BackgroundImageFix"/>
<feColorMatrix in="SourceAlpha" type="matrix" values="0 0 0 0 0 0 0 0 0 0 0 0 0 0 0 0 0 0 127 0" result="hardAlpha"/>
<feOffset dy="2.40004"/>
<feGaussianBlur stdDeviation="4.80007"/>
<feComposite in2="hardAlpha" operator="out"/>
<feColorMatrix type="matrix" values="0 0 0 0 0.00908203 0 0 0 0 0.00908203 0 0 0 0 0.00908203 0 0 0 1 0"/>
<feBlend mode="normal" in2="BackgroundImageFix" result="effect1_dropShadow_1193_19130"/>
<feBlend mode="normal" in="SourceGraphic" in2="effect1_dropShadow_1193_19130" result="shape"/>
</filter>
<filter id="filter1_d_1193_19130" x="7.2002" y="7.59851" width="93.54" height="96.0014" filterUnits="userSpaceOnUse" color-interpolation-filters="sRGB">
<feFlood flood-opacity="0" result="BackgroundImageFix"/>
<feColorMatrix in="SourceAlpha" type="matrix" values="0 0 0 0 0 0 0 0 0 0 0 0 0 0 0 0 0 0 127 0" result="hardAlpha"/>
<feOffset dy="4.80007"/>
<feComposite in2="hardAlpha" operator="out"/>
<feColorMatrix type="matrix" values="0 0 0 0 0 0 0 0 0 0 0 0 0 0 0 0 0 0 0.25 0"/>
<feBlend mode="normal" in2="BackgroundImageFix" result="effect1_dropShadow_1193_19130"/>
<feBlend mode="normal" in="SourceGraphic" in2="effect1_dropShadow_1193_19130" result="shape"/>
</filter>
<linearGradient id="paint0_linear_1193_19130" x1="52.8007" y1="9.9986" x2="52.8007" y2="96.3999" gradientUnits="userSpaceOnUse">
<stop stop-color="#FFC64D"/>
<stop offset="0.485" stop-color="#EDD195"/>
<stop offset="1" stop-color="#E4B44D"/>
</linearGradient>
</defs>
</svg>
