<svg width="126" height="125" viewBox="0 0 126 125" fill="none" xmlns="http://www.w3.org/2000/svg">
<g filter="url(#filter0_d_1193_19206)">
<rect x="11.2" y="8.59846" width="103.202" height="103.202" rx="6.00009" fill="#EDD195" stroke="url(#paint0_linear_1193_19206)" stroke-width="2.40004"/>
<path d="M12.4004 14.5986C12.4004 14.5986 27.2707 55.8692 47.2009 75.7995C67.1311 95.7297 108.402 110.6 108.402 110.6H19.6005C15.624 110.6 12.4004 107.376 12.4004 103.4V14.5986Z" fill="#E1C088"/>
<path d="M12.4323 12.1984C12.4323 12.1984 10.7592 70.5202 31.6385 91.3995C52.5178 112.279 108.439 110.6 108.439 110.6H17.2375C14.5866 110.6 12.4375 108.451 12.4374 105.8L12.4323 12.1984Z" fill="#B69C75"/>
<path d="M96.4019 110.6C96.4019 110.6 103.341 107.925 106.905 104.346C110.47 100.768 113.202 81.7996 113.202 81.7996L113.202 105.799C113.202 108.45 111.053 110.599 108.402 110.599L96.4019 110.6Z" fill="#644433"/>
<path d="M113.2 38.5989C113.2 38.5989 113.465 21.758 107.201 15.647C100.938 9.53599 84.3992 9.79845 84.3992 9.79845L108.398 9.79845C111.049 9.79845 113.198 11.9474 113.198 14.5983L113.2 38.5989Z" fill="#B69C75"/>
<path d="M41.2007 9.79834C41.2007 9.79834 24.3598 9.5334 18.2488 15.7968C12.1378 22.0603 12.4003 38.5988 12.4003 38.5988L12.4003 14.5997C12.4003 11.9488 14.5492 9.79982 17.2001 9.79967L41.2007 9.79834Z" fill="#B69C75"/>
<path d="M12.4004 82.9996C12.4004 82.9996 17.5134 101.41 19.6005 103.447C21.6876 105.483 58.0005 110.597 58.0005 110.597H17.2005C14.5495 110.597 12.4004 108.448 12.4004 105.797V82.9996Z" fill="#644433"/>
<path d="M82.2456 92.6049L31.5657 76.9266L26.5933 51.4564L84.8408 67.8442L82.2456 92.6049Z" fill="#73462E"/>
<path d="M82.4062 92.8734L82.1692 92.7996L31.3722 77.0858L31.349 76.9655L26.3125 51.1685L85.0464 67.6916L85.0287 67.8639L82.4076 92.8734H82.4062ZM31.7264 76.7673L82.052 92.3362L84.6023 67.9951L26.8411 51.744L31.7264 76.7673Z" fill="black"/>
<path d="M97.2764 74.666L81.3931 92.7653L83.9937 67.9881L101.306 54.6843L97.2764 74.666Z" fill="#382217"/>
<path d="M44.6259 29.458C43.9379 29.7628 43.2759 30.1264 42.6601 30.5584C41.6806 31.246 40.7964 31.9664 39.9804 32.7333C39.8414 32.8646 39.8878 33.1817 39.7529 33.3157C39.618 33.4497 39.287 33.41 39.1507 33.5522C37.1549 35.6177 35.5542 38.01 33.8854 40.9136C33.7355 41.176 33.5775 41.4317 33.4153 41.6818C33.2859 41.88 33.4698 42.3448 33.335 42.5348C33.1851 42.7467 32.7151 42.6866 32.5584 42.8889C29.7997 46.4718 26.2345 48.506 26.2345 48.506L26.0874 51.2386L26.8707 51.7267L84.4617 67.7112L102.214 54.2912L102.19 51.7704L101.319 51.6269C101.319 51.6269 101.549 50.9146 100.667 49.5094C99.7824 48.1027 99.9281 46.7617 99.5113 44.4815C99.0944 42.2013 98.2811 40.0045 97.5618 39.4577C96.8425 38.9109 95.724 38.4447 95.724 38.4447L57.677 29.5195C57.5762 29.5003 56.143 29.1203 54.6567 28.7293C52.4743 28.1566 50.1965 28.0499 47.9704 28.4149C46.9269 28.5858 45.9092 28.8893 44.9433 29.3185L44.6273 29.4593L44.6259 29.458Z" fill="#73462E"/>
<path d="M84.5271 67.9369L84.4303 67.9095L26.8108 51.9182L25.8994 51.3495L26.0588 48.3831L26.1555 48.327C26.191 48.3065 29.718 46.2696 32.4181 42.7619C32.5394 42.6047 32.7396 42.5582 32.9154 42.5158C33.0176 42.4912 33.1565 42.4584 33.1892 42.4147C33.2137 42.375 33.2015 42.2096 33.1947 42.1208C33.1797 41.9266 33.1633 41.7243 33.2655 41.5671C33.4276 41.3169 33.5843 41.0613 33.7287 40.8084C35.6373 37.4866 37.2217 35.272 39.0254 33.406C39.1385 33.2885 39.2952 33.257 39.4341 33.2283C39.5063 33.2133 39.6044 33.1928 39.6317 33.1668C39.6534 33.1449 39.6739 33.0438 39.6861 32.9836C39.7134 32.8469 39.7447 32.6911 39.8632 32.5803C40.7052 31.7902 41.5893 31.0725 42.5661 30.3876C43.1655 29.968 43.8385 29.5907 44.566 29.2681L44.8821 29.1273C45.8643 28.6912 46.8997 28.3822 47.9595 28.2086C50.2292 27.8368 52.507 27.9434 54.7317 28.5271L56.0395 28.8703C56.9141 29.0999 57.6702 29.2995 57.7397 29.3132L95.8126 38.2453L95.8276 38.2521C95.8739 38.2712 96.9774 38.7347 97.7089 39.291C98.574 39.9486 99.3655 42.4215 99.7361 44.4406C99.8641 45.1405 99.9404 45.7584 100.007 46.3025C100.161 47.5533 100.273 48.4569 100.863 49.396C101.514 50.4322 101.592 51.1185 101.574 51.4534L102.417 51.5928L102.444 54.3897L84.5284 67.9328L84.5271 67.9369ZM26.977 51.5381L84.4426 67.4885L102.033 54.1915L102.011 51.9469L101.075 51.7924L101.149 51.5655C101.149 51.5655 101.325 50.9038 100.518 49.6202C99.8791 48.6031 99.7565 47.6121 99.6026 46.3585C99.5358 45.8199 99.4609 45.2088 99.3356 44.5199C98.9146 42.2192 98.1095 40.114 97.4637 39.6232C96.818 39.1325 95.8208 38.6991 95.6859 38.6431L57.6538 29.7192C57.5885 29.7069 57.019 29.5565 55.936 29.2722L54.6295 28.929C52.4607 28.3604 50.2401 28.2565 48.0277 28.6187C47.0018 28.7869 46.0005 29.0862 45.0496 29.5073L44.7336 29.6481C44.0292 29.9611 43.3794 30.3248 42.8018 30.7294C41.8413 31.4033 40.9722 32.1087 40.1439 32.8852C40.1207 32.9071 40.1003 33.0082 40.088 33.0697C40.0608 33.2037 40.0308 33.3541 39.9191 33.4648C39.806 33.5755 39.6521 33.6083 39.5172 33.6357C39.4491 33.6493 39.3456 33.6712 39.3197 33.6972C37.5405 35.5386 35.9752 37.7272 34.0843 41.0189C33.9358 41.2773 33.775 41.5398 33.6088 41.7968C33.5829 41.8364 33.5966 42.0046 33.6034 42.0934C33.6197 42.293 33.6361 42.4994 33.5243 42.6566C33.4031 42.8275 33.1947 42.8767 33.0108 42.9205C32.9113 42.9437 32.7751 42.9751 32.7437 43.0175C30.2452 46.2628 27.0506 48.2723 26.4566 48.6305L26.3217 51.1321L26.977 51.5409V51.5381Z" fill="black"/>
<path d="M56.1929 60.5115L43.7957 57.366L37.198 55.6873C36.7729 54.7851 36.2975 54.0059 36.2975 54.0059L28.396 52.4529L31.6029 67.404L32.0824 73.7798L33.8453 77.6306L39.672 79.4337V77.4529L42.1759 79.2219L64.9608 86.1376L76.9806 89.7069L81.3986 91.1873L83.5879 80.88L83.8576 73.3697L84.9734 69.1592L84.8344 67.8414L56.1874 60.5115H56.1929ZM36.5291 58.2737L48.0789 61.6133L47.9849 65.9577L48.2846 66.5045C49.0557 67.9125 50.3621 68.9474 51.9056 69.3752C54.0063 69.959 56.9244 70.4114 58.6628 69.151C59.9175 68.242 59.9611 65.9563 59.9611 65.9563L73.8799 69.5543C74.6633 69.7566 75.3622 70.205 75.8758 70.8325C77.0882 72.3171 77.5787 74.2869 77.1236 76.1502C76.5351 78.5575 74.8159 78.5575 74.8145 78.5575L34.818 67.1538C34.1763 63.2619 33.6805 58.8889 33.6805 58.8889C33.6805 58.8889 35.3261 58.7084 36.5291 58.2723V58.2737ZM72.2561 85.7658C69.2984 84.9579 39.6747 75.7619 39.6747 75.7619C39.6747 75.7619 37.4473 74.1707 36.2975 73.0033C35.9119 72.611 35.491 70.8926 35.1 68.7833L76.4534 80.4768C76.7 80.8664 76.8989 81.2806 76.9833 81.6784C77.2898 83.137 75.2137 86.575 72.2547 85.7671L72.2561 85.7658Z" fill="#382217"/>
<path d="M95.5012 38.6122L92.8681 38.0013L90.5388 37.1868L85.57 39.5996L81.0117 50.9308L78.802 57.1138L73.5857 59.3134L60.4406 56.0886C60.4406 56.0886 60.5496 55.1576 59.4897 54.0066C57.6465 52.0053 52.4465 51.5214 52.4465 51.5214C52.4465 51.5214 49.7545 50.9089 48.4508 52.2678C47.1456 53.6266 47.9658 55.7796 47.9658 55.7796L54.4355 57.2314L64.0262 60.7282L77.1263 62.6092H77.8593L81.0131 63.6044C81.0131 63.6044 82.6043 61.7179 83.844 57.5731C85.0823 53.427 86.2607 47.0649 87.4882 45.0513C88.7156 43.0377 90.7196 40.4936 92.1119 40.2859C93.5029 40.0781 94.6363 40.0658 94.6363 40.0658C94.6363 40.0658 95.4687 39.236 96.7615 39.56C98.0544 39.884 96.0076 38.6122 96.0076 38.6122H95.5012Z" fill="#382217"/>
<path d="M42.148 45.7272C43.5348 41.7616 47.2688 35.8454 49.1556 34.3691C51.0423 32.8927 52.9604 31.2032 54.9071 30.6495C56.8538 30.0973 58.6316 29.7446 58.6316 29.7446L53.2696 28.3038L48.9213 30.6495L43.2583 36.7038L39.6946 42.266L36.5859 47.4701L33.6515 50.1534L32.5576 51.0447L36.5859 52.2667C36.5859 52.2667 49.0561 55.5816 50.413 54.2379C50.7045 53.9495 37.925 50.9189 38.2942 50.6688C39.685 49.7255 41.6835 47.06 42.1494 45.7258L42.148 45.7272Z" fill="#382217"/>
<path d="M32.5576 42.888L87.2659 56.7359L87.7481 55.2308L33.4132 41.681L33.6516 42.4889L32.5576 42.888Z" fill="#382217"/>
<path d="M38.2783 34.5289L92.6201 47.4732L92.8299 46.5149L39.6693 33.4695L38.2783 34.5289Z" fill="#382217"/>
<path d="M44.8765 63.6369C42.7173 63.1694 39.5854 62.4394 37.4003 61.9282C36.1566 61.6357 34.9006 61.3937 33.6759 61.0246C32.4621 60.6569 31.2115 60.2578 30.0454 59.7574L30.0631 59.6918C31.0249 59.793 31.9662 59.9693 32.9116 60.1607C34.4728 60.4642 36.019 60.9481 37.5393 61.4005C39.7026 62.0266 42.7704 62.9179 44.8942 63.5726L44.8765 63.6383V63.6369Z" fill="#382217"/>
<path d="M64.7537 44.8988C61.4161 44.203 56.5678 43.1381 53.1866 42.3945C49.3736 41.6085 45.4094 40.679 41.7285 39.4241L41.7449 39.3571C42.7271 39.4897 43.6997 39.6592 44.671 39.841C46.5796 40.2005 48.5726 40.6216 50.4498 41.115C52.2725 41.5976 57.159 42.8497 59.0458 43.3309C60.9543 43.8326 62.8642 44.3233 64.77 44.8332L64.7537 44.9002V44.8988Z" fill="#382217"/>
<path d="M62.7316 71.5503C65.5964 72.2024 69.7555 73.2003 72.6571 73.9002C75.9307 74.6356 79.3309 75.5118 82.4614 76.712L82.4437 76.7776C81.5964 76.6573 80.7599 76.5015 79.9262 76.332C78.286 75.9971 76.575 75.6034 74.9689 75.1359C73.4104 74.678 69.2269 73.4942 67.6126 73.0376C65.9806 72.5633 64.3445 72.0985 62.7139 71.6146L62.7316 71.549V71.5503Z" fill="#382217"/>
<path d="M60.8375 53.0906C63.7283 53.7536 67.9227 54.7665 70.8503 55.4759C74.1538 56.2237 77.5826 57.1122 80.7417 58.3247L80.724 58.3903C79.8699 58.2673 79.0253 58.1073 78.1834 57.9351C76.5282 57.5947 74.8036 57.1942 73.1825 56.7212C71.609 56.2578 67.3901 55.059 65.7608 54.597C64.1138 54.1158 62.4641 53.6456 60.8198 53.1562L60.8375 53.0906Z" fill="#382217"/>
<path d="M69.7231 34.5983C72.6111 35.1806 76.8042 36.0801 79.7304 36.7089C83.0298 37.365 86.46 38.1606 89.6287 39.2856L89.6137 39.3526C88.7622 39.2528 87.919 39.1161 87.0785 38.9671C85.426 38.6718 83.7014 38.3192 82.0803 37.8899C80.5069 37.4689 76.2838 36.3863 74.6545 35.9694C73.0062 35.5333 71.3565 35.1082 69.7095 34.6639L69.7245 34.5969L69.7231 34.5983Z" fill="#382217"/>
<path d="M44.8979 74.4319C47.8772 75.0429 50.9396 75.8617 53.8781 76.6737C56.8097 77.5116 59.8476 78.407 62.7111 79.4418C59.7318 78.8321 56.6694 78.0133 53.7309 77.2C50.7993 76.3606 47.7628 75.4653 44.8979 74.4319Z" fill="#382217"/>
<path d="M98.9796 66.1258L84.1675 80.2304L84.355 80.4287L99.1671 66.3241L98.9796 66.1258Z" fill="black"/>
<path d="M84.4562 67.7121L101.052 55.2395L101.258 53.9326L101.792 51.8493C101.792 51.8493 101.409 51.0126 100.82 49.4611C100.134 47.6498 100.082 46.7134 99.6652 44.4346C99.2484 42.1557 99.0304 40.6835 98.0386 39.8824C96.6531 38.7642 94.6205 40.0642 94.6205 40.0642C94.6205 40.0642 91.9122 40.9774 90.2652 45.725C90.1371 46.0955 90.7556 46.8842 90.6385 47.2465C90.5213 47.6088 89.5663 47.5773 89.4546 47.956C88.8715 49.9149 88.1904 52.7775 87.264 56.735C86.0815 61.7861 84.2056 64.7252 84.2056 64.7252L84.4603 67.7107L84.4562 67.7121Z" fill="#382217"/>
<path d="M84.353 67.9674L84.0737 64.6893L84.0983 64.6496C84.1173 64.6209 85.9769 61.6695 87.139 56.7018C88.049 52.8126 88.7397 49.905 89.3323 47.9146C89.41 47.6535 89.7206 47.5565 90.0203 47.4621C90.2355 47.3938 90.4807 47.3172 90.5175 47.2024C90.5598 47.0725 90.4412 46.7964 90.3363 46.5517C90.196 46.2236 90.0625 45.9147 90.1456 45.6768C91.7477 41.0563 94.3198 40.0269 94.5704 39.9367C94.7707 39.8123 96.7338 38.6421 98.1343 39.7727C99.1111 40.5614 99.3617 41.9408 99.7418 44.0309L99.81 44.4069C99.9026 44.9099 99.9762 45.3487 100.044 45.7452C100.284 47.1587 100.428 48.0117 100.96 49.4101C101.539 50.9398 101.924 51.7819 101.928 51.7901L101.949 51.8339L101.403 53.9637L101.19 55.3115L101.146 55.3444L84.3544 67.9646L84.353 67.9674ZM84.353 64.7576L84.5819 67.4534L100.937 55.1625L101.134 53.9117L101.659 51.8626C101.571 51.6684 101.212 50.851 100.704 49.5099C100.164 48.0855 100.009 47.1737 99.7745 45.7944C99.7078 45.3993 99.6328 44.9619 99.5416 44.4602L99.4735 44.0829C99.1043 42.0542 98.8604 40.7132 97.964 39.9887C96.6712 38.9456 94.7244 40.1664 94.704 40.1787L94.674 40.1923C94.6481 40.2019 92.0052 41.1506 90.4031 45.7684C90.3554 45.9065 90.478 46.1922 90.587 46.4451C90.7232 46.7609 90.8513 47.0602 90.7777 47.2885C90.6974 47.5373 90.3949 47.6316 90.1034 47.7246C89.8813 47.7943 89.6307 47.8736 89.5952 47.9953C89.0053 49.9788 88.316 52.8824 87.406 56.7661C86.3052 61.4686 84.5819 64.3872 84.3544 64.7576H84.353Z" fill="black"/>
<path d="M84.3346 63.3554C83.1007 63.1312 81.8654 62.9057 80.6314 62.6815C78.6715 62.3247 76.7116 61.968 74.7517 61.6112C74.3023 61.5292 73.8528 61.4472 73.4047 61.3665C73.0833 61.3078 72.9458 61.8026 73.2686 61.8614C74.5025 62.0855 75.7378 62.3111 76.9718 62.5352C78.9317 62.892 80.8916 63.2488 82.8514 63.6055C83.3009 63.6876 83.7504 63.7696 84.1984 63.8502C84.5199 63.909 84.6574 63.4142 84.3346 63.3554Z" fill="black"/>
<path d="M88.2435 64.4463L85.1429 66.5707C84.9249 66.7197 84.6538 66.7675 84.4018 66.6992L78.71 65.1831C78.3094 65.0765 77.9103 65.257 77.7059 65.5755L34.1824 53.6565L33.9535 53.651C33.8241 53.3803 33.5652 53.1766 33.2424 53.1206L27.0669 50.6162C26.3286 50.4877 25.6964 51.1493 25.9021 51.8342L26.4566 54.031C26.4716 54.0789 26.4893 54.1267 26.5125 54.1718L27.5301 55.476C27.5642 55.5443 27.5887 55.6168 27.6051 55.6919L30.8896 74.6374C30.9387 74.8739 30.8923 75.1227 30.7575 75.3346C30.6131 75.5615 30.5695 75.8322 30.6376 76.0837L31.0259 77.5095C31.0994 77.7775 31.3133 77.9866 31.5912 78.0604L36.0065 79.4644C36.309 79.545 36.6073 79.4808 36.843 79.3277L75.845 91.1893C75.8722 91.5419 76.1106 91.84 76.458 91.9397L81.1894 93.5515C81.5872 93.6649 82.0259 93.5378 82.3106 93.2234L86.5924 88.9651C86.7232 88.8216 86.8049 88.6411 86.8253 88.4511L87.0133 86.6713C87.0746 86.0862 86.5515 85.6255 85.9698 85.7513C85.3813 85.8798 84.854 85.4081 84.9263 84.8176L85.5897 79.3509L85.5965 79.303L86.8281 72.3682C86.9575 71.6382 87.2735 70.9492 87.7463 70.3682L88.4015 69.5617C88.9778 68.8522 89.3334 67.9937 89.426 67.0956L89.6154 65.231C89.6903 64.4955 88.8661 64.0225 88.2476 64.4463H88.2435ZM81.2602 76.4966C81.2739 78.4801 81.124 80.4677 80.812 82.439L80.1172 86.1422C80.06 86.5072 79.7794 86.8066 79.4129 86.8927L76.8381 87.501C76.4853 87.5844 76.2183 87.8647 76.1433 88.2023L37.0759 76.4815L37.0541 76.3612C37.0146 76.1384 36.8934 75.9388 36.7122 75.7994L34.8186 74.2054C34.6524 74.0769 34.5352 73.8992 34.4875 73.6983L33.8036 70.807C33.8036 70.807 32.5258 64.0184 32.2737 60.7731L32.0926 58.8169C32.053 58.3016 32.049 57.6604 32.5884 57.5989L33.2001 57.5142C33.6742 57.4609 34.0407 57.0972 34.0924 56.6571L76.9757 68.505L76.9784 69.1762C76.9798 69.4605 77.1229 69.7244 77.3585 69.8816L79.3639 71.1871C80.5355 71.9649 81.2371 73.2622 81.2466 74.6689L81.2589 76.4993L81.2602 76.4966Z" fill="#878787"/>
<path d="M81.4608 93.7966C81.3436 93.7966 81.2265 93.7802 81.112 93.7487L76.3711 92.1329C75.9992 92.0263 75.7213 91.7255 75.6409 91.3469L36.8501 79.5495C36.5694 79.7026 36.2411 79.7436 35.9346 79.663L31.5098 78.2563C31.1719 78.1661 30.8994 77.9009 30.8082 77.5646L30.4199 76.1388C30.3368 75.8326 30.3899 75.5004 30.5643 75.2256C30.6706 75.0602 30.7074 74.8661 30.6679 74.6816L27.3819 55.7293C27.3724 55.6841 27.356 55.6349 27.3342 55.5871L26.3084 54.2652C26.2812 54.2105 26.258 54.1517 26.2403 54.0929L25.6831 51.8866C25.5728 51.5216 25.664 51.1183 25.9283 50.8176C26.2158 50.4908 26.6463 50.3418 27.0809 50.417L27.1231 50.4293L33.2781 52.9255C33.6023 52.987 33.8829 53.1798 34.0546 53.4518L34.2153 53.4614L77.604 65.3435C77.8806 65.0168 78.3193 64.8746 78.7402 64.9867L84.432 66.5027C84.6282 66.5547 84.8366 66.5177 85.0056 66.4029L88.1076 64.2786C88.4659 64.0339 88.9168 64.0175 89.2846 64.2376C89.6416 64.4508 89.8364 64.8404 89.7941 65.2546L89.6048 67.1192C89.5094 68.0597 89.1402 68.951 88.5367 69.6933L87.8814 70.4999C87.4319 71.0535 87.1294 71.7124 87.0068 72.4069L85.7698 79.3841L85.1064 84.844C85.0805 85.0545 85.1541 85.2568 85.308 85.3976C85.4674 85.5439 85.684 85.5999 85.9033 85.5521C86.2494 85.4769 86.5954 85.5671 86.8529 85.7981C87.1049 86.0251 87.2289 86.3518 87.1935 86.6935L87.0055 88.4734C86.9809 88.7058 86.8801 88.93 86.7207 89.105L82.4321 93.3714C82.1828 93.6462 81.8232 93.7993 81.4594 93.7993L81.4608 93.7966ZM36.7915 79.1039L76.0183 91.0338L76.0292 91.1733C76.051 91.4439 76.2336 91.6667 76.4938 91.7419L81.2346 93.3577C81.5466 93.4466 81.9063 93.3413 82.1392 93.0857L86.4278 88.8193C86.5218 88.7154 86.5859 88.5746 86.6008 88.4296L86.7888 86.6498C86.8106 86.4406 86.7357 86.2411 86.5818 86.103C86.4224 85.9595 86.2085 85.9048 85.9919 85.9526C85.6431 86.0292 85.293 85.9362 85.0342 85.6997C84.7808 85.4687 84.6595 85.1379 84.7018 84.7934L85.3734 79.2734L86.6063 72.333C86.7425 71.5702 87.0736 70.8457 87.5667 70.2388L88.222 69.4322C88.7751 68.7514 89.113 67.9367 89.2015 67.0755L89.3909 65.2109C89.4168 64.9539 89.2996 64.7201 89.0789 64.5889C88.8487 64.4522 88.5667 64.4618 88.3419 64.6162L85.2399 66.7406C84.9729 66.9237 84.6418 66.9812 84.3312 66.8991L78.6394 65.3831C78.3411 65.3038 78.0277 65.4255 77.8602 65.688L77.7798 65.8151L34.1336 53.8605L33.8039 53.8523L33.7494 53.7389C33.6445 53.5202 33.4347 53.3643 33.1882 53.3219L33.1459 53.3096L26.9923 50.8148C26.7062 50.7724 26.4242 50.8722 26.2362 51.0869C26.0632 51.2823 26.006 51.5339 26.0782 51.7745L26.6354 53.9808C26.6422 54.0041 26.6544 54.0341 26.6681 54.0629L27.6939 55.3848C27.7361 55.4695 27.7661 55.5584 27.7852 55.65L31.0711 74.6023C31.131 74.8853 31.0738 75.1874 30.9103 75.4444C30.7973 75.6221 30.7632 75.834 30.8163 76.0294L31.2046 77.4552C31.2591 77.6535 31.4158 77.8066 31.6256 77.8612L36.0504 79.2679C36.2711 79.3267 36.5095 79.287 36.7125 79.1544L36.7929 79.1025L36.7915 79.1039ZM76.2771 88.4611L36.8787 76.6405L36.8351 76.3944C36.8051 76.2222 36.7098 76.0677 36.5694 75.9597L34.669 74.3603C34.4742 74.2099 34.3298 73.9885 34.2698 73.7438L33.586 70.8512C33.571 70.7746 32.3013 64.0052 32.0506 60.7858L31.8694 58.8324C31.8381 58.4264 31.7645 57.4804 32.5465 57.3915L33.1527 57.3082C33.5287 57.2658 33.8284 56.9801 33.8707 56.6301L33.8993 56.3936L77.1613 68.3454L77.164 69.1725C77.164 69.3885 77.273 69.5881 77.4528 69.707L79.4568 71.0111C80.6843 71.8259 81.4226 73.1915 81.4335 74.6638L81.4458 76.4942C81.4594 78.4832 81.3068 80.4941 80.9949 82.4708L80.2987 86.1809C80.2292 86.6197 79.8846 86.9888 79.4418 87.0927L76.867 87.701C76.5973 87.7653 76.3848 87.9785 76.3248 88.2465L76.2771 88.4611ZM37.237 76.3206L75.9938 87.9485C76.1355 87.6286 76.4243 87.3839 76.773 87.3019L79.3478 86.6935C79.6312 86.6266 79.8519 86.3928 79.8968 86.1098L80.593 82.3997C80.9009 80.4504 81.0521 78.4627 81.0385 76.4956L81.0262 74.6652C81.0167 73.3296 80.3478 72.0924 79.2348 71.3529L77.2308 70.0487C76.9351 69.8533 76.7594 69.5252 76.7567 69.1725V68.6571L34.2235 56.9076C34.0764 57.3355 33.6786 57.6608 33.2031 57.7142L32.5969 57.7975C32.3149 57.829 32.2236 58.1188 32.2768 58.7955L32.4579 60.7489C32.7073 63.9505 33.9729 70.6967 33.9851 70.7637L34.6676 73.6454C34.7044 73.7985 34.7957 73.9393 34.9251 74.0377L36.8256 75.6371C37.0394 75.8025 37.1879 76.0458 37.237 76.3165V76.3206Z" fill="black"/>
<path d="M84.9546 69.1597L84.738 70.7181L84.0446 71.444L81.7954 93.5528C81.9752 93.5241 82.1578 93.4161 82.3472 93.2192L86.6289 88.961C86.7597 88.8174 86.8415 88.637 86.8619 88.447L87.1289 87.4791L96.5766 76.8137C96.7824 76.9394 97.1529 76.9654 97.4499 76.7016L98.6256 75.3632C98.6474 75.3386 98.6624 75.3086 98.6719 75.2771L99.2168 72.7604C99.2427 72.662 99.1991 72.5609 99.1092 72.5158L99.0847 72.5034C98.9989 72.4597 98.9539 72.364 98.9743 72.2697L100.343 64.546L101.512 58.6405C101.519 58.6091 101.531 58.579 101.552 58.553L102.001 57.9488C102.093 57.8258 102.157 57.6836 102.185 57.5333L102.832 54.2647C102.871 54.0692 102.644 53.9325 102.488 54.0569L99.3817 56.5299L99.4144 56.3043L87.8469 64.6253V64.7415M99.0997 62.7867L98.458 66.6649C98.458 66.6731 98.4553 66.6813 98.4539 66.6895L97.6025 71.2704C97.6025 71.2704 97.5575 71.4235 97.4989 71.6163C97.3137 72.2341 97.0085 72.811 96.5998 73.3155L96.0603 73.9798C95.9486 74.2245 95.7361 74.934 95.7048 75.2717L85.8211 85.7676C85.3116 85.7731 84.8974 85.3425 84.9615 84.8134L85.6249 79.3481C85.6263 79.3317 85.629 79.3167 85.6317 79.3003L86.8633 72.3654C86.9927 71.6354 87.3087 70.9464 87.7815 70.3654L88.4367 69.5589C88.8563 69.0422 89.1574 68.4461 89.3263 67.8146L95.8941 62.3479L98.3558 60.2427L99.1119 60.4942C99.2046 60.5257 99.2645 60.6145 99.2577 60.7129L99.101 62.7867H99.0997Z" fill="#3C3C3B"/>
<path d="M81.5708 93.7968L83.8541 71.3518L84.5516 70.6232L84.7586 69.1304L85.1633 69.1864L84.9371 70.8105L84.2464 71.5322L82.0394 93.2227C82.0939 93.183 82.1498 93.1325 82.2056 93.075L86.4902 88.8127C86.5842 88.7088 86.6482 88.568 86.6632 88.4231L86.67 88.3903L86.9493 87.3773L86.9806 87.3418L96.5428 76.5478L96.6885 76.6367C96.8125 76.7132 97.0795 76.7515 97.3111 76.5533L98.4773 75.2245L99.0222 72.7133L99.1148 72.511L99.0222 72.6942L98.9977 72.6819C98.8301 72.5958 98.7415 72.4071 98.7811 72.2226L100.149 64.5071L101.318 58.5975C101.33 58.536 101.356 58.4772 101.394 58.4267L101.844 57.8224C101.917 57.724 101.968 57.6092 101.991 57.4902L102.636 54.2217L102.492 54.0536L102.619 54.2135L99.1107 57.0077L99.1475 56.748L88.0555 64.7272V64.7368H88.0418L87.9696 64.7887L87.9329 64.7382H87.6468L87.6454 64.5181L99.6884 55.8539L99.6611 56.0453L102.364 53.8923C102.504 53.7802 102.692 53.7692 102.845 53.8622C102.996 53.9538 103.071 54.126 103.037 54.301L102.39 57.5695C102.354 57.7486 102.278 57.9209 102.169 58.0671L101.72 58.6713L100.549 64.5823L99.1816 72.3019L99.0903 72.5001L99.1829 72.3169L99.2075 72.3292C99.3818 72.4181 99.4704 72.6204 99.4186 72.8104L98.8751 75.3175C98.856 75.3886 98.826 75.446 98.7851 75.4938L97.5904 76.8527C97.2811 77.1274 96.9092 77.1548 96.634 77.0605L87.3171 87.5783L87.0678 88.4846C87.0405 88.7102 86.9397 88.9275 86.7858 89.097L82.4972 93.3635C82.2806 93.589 82.0626 93.7175 81.8337 93.7531L81.5722 93.7941L81.5708 93.7968ZM85.8172 85.972C85.512 85.972 85.2232 85.8435 85.0216 85.618C84.8186 85.391 84.7273 85.0958 84.7641 84.7882L85.4275 79.3229C85.4303 79.3024 85.433 79.2819 85.4371 79.2627L86.6686 72.3306C86.8035 71.5678 87.1359 70.8433 87.6291 70.2363L88.2843 69.4298C88.6849 68.9363 88.971 68.3758 89.1358 67.762L89.1521 67.6991L95.7703 62.19L98.3179 60.011L99.1829 60.2981C99.3655 60.3582 99.4827 60.5346 99.4677 60.726L99.3083 62.8189L98.6666 66.6916C98.6653 66.7053 98.6625 66.7176 98.6598 66.7313L97.8097 71.308C97.807 71.3244 97.8056 71.3272 97.7021 71.6758C97.5086 72.3224 97.1926 72.9184 96.7648 73.4461L96.2431 74.0886C96.1368 74.3346 95.9433 74.9908 95.9147 75.2915L95.9079 75.3612L85.9166 85.972H85.8294C85.8294 85.972 85.8213 85.972 85.8172 85.972ZM89.5118 67.9302C89.3306 68.5754 89.0241 69.1659 88.6004 69.6881L87.9451 70.4947C87.4956 71.0483 87.1931 71.7072 87.0705 72.4017L85.839 79.3365C85.8362 79.3502 85.8349 79.3625 85.8335 79.3734L85.1701 84.8388C85.1469 85.0274 85.2028 85.2065 85.3254 85.3446C85.433 85.4649 85.5815 85.54 85.7422 85.5578L95.5156 75.1794C95.5687 74.7939 95.769 74.1378 95.8807 73.8931L95.9079 73.8493L96.4474 73.185C96.8411 72.6997 97.1313 72.1515 97.3097 71.5555C97.3602 71.3887 97.3997 71.2561 97.4092 71.2219L98.262 66.6287L98.9023 62.7587L99.0576 60.6932L98.4051 60.4717L96.0305 62.5017L89.5104 67.9288L89.5118 67.9302Z" fill="black"/>
<path d="M25.5127 47.9573L27.6175 47.2478L26.281 48.459L84.5491 63.6616C85.0545 63.7764 85.5885 63.6657 86.0095 63.3581L101.815 51.8492L101.496 51.5785C101.524 51.1055 101.477 50.9114 101.477 50.9114L102.924 50.9743C103.217 50.9866 103.438 51.2436 103.405 51.5348L103.148 53.8273C103.119 54.0856 102.985 54.3207 102.78 54.4807L85.9046 67.5138C85.47 67.8501 84.9046 67.9718 84.3747 67.8433L26.2429 51.8642C25.8356 51.7658 25.5195 51.465 25.4146 51.0782L24.6626 48.3059L25.5127 47.9573Z" fill="#878787"/>
<path d="M84.7836 68.0996C84.6256 68.0996 84.4675 68.0805 84.3109 68.0422L26.1723 52.0604C25.6996 51.9456 25.3249 51.5888 25.1996 51.1309L24.3999 48.1836L25.4298 47.7612L28.4651 46.7386L26.6832 48.3545L84.5847 63.4627C85.0261 63.5625 85.4988 63.4655 85.8735 63.1921L101.468 51.8376L101.27 51.6695L101.276 51.5669C101.3 51.1418 101.262 50.96 101.261 50.9573L101.204 50.6975L101.468 50.7071L102.915 50.77C103.111 50.7782 103.298 50.8684 103.424 51.0188C103.551 51.1678 103.611 51.3646 103.589 51.5587L103.332 53.8512C103.296 54.1629 103.134 54.4514 102.885 54.6441L86.0097 67.6772C85.65 67.9547 85.2196 68.0996 84.7809 68.0996H84.7836ZM24.889 48.4269L25.5933 51.0242C25.6791 51.3373 25.9393 51.5834 26.2731 51.664L84.4117 67.6472C84.8722 67.7593 85.3789 67.6499 85.7631 67.3533L102.638 54.3201C102.8 54.1957 102.905 54.0084 102.928 53.8061L103.186 51.5136C103.195 51.4302 103.171 51.3496 103.116 51.2867C103.062 51.2225 102.984 51.1856 102.9 51.1814L101.689 51.1295C101.693 51.2225 101.694 51.3414 101.689 51.4904L102.13 51.865L86.1132 63.527C85.6432 63.8687 85.0506 63.9918 84.488 63.8633L25.8467 48.5622L26.7363 47.7557L25.5661 48.1494L24.889 48.4269Z" fill="black"/>
<path d="M39.6728 33.3385L39.6089 33.6043L90.2335 45.8563L90.2974 45.5905L39.6728 33.3385Z" fill="black"/>
<path d="M87.7786 55.3787L87.7173 55.3636L33.3823 41.8138L33.4477 41.5486L87.7228 55.0834L99.7507 46.5942L99.9074 46.8184L87.7786 55.3787Z" fill="black"/>
<path d="M33.1008 66.5305L33.0264 66.7935L80.9737 80.4624L81.0481 80.1994L33.1008 66.5305Z" fill="black"/>
<path d="M95.7202 75.2705C95.7202 75.2705 96.4576 75.2076 96.7691 76.2526L95.7202 75.2705Z" fill="#3C3C3B"/>
<path d="M96.5743 76.3122C96.3185 75.4516 95.7593 75.4734 95.7348 75.4748L95.7021 75.0663C95.7389 75.0622 96.6097 75.0035 96.9648 76.1947L96.573 76.3122H96.5743Z" fill="black"/>
<path d="M98.3833 60.2404L98.631 60.0928C99.0421 59.8482 99.3185 59.4245 99.377 58.9489C99.4205 58.599 99.3443 58.245 99.1605 57.9457L98.9142 57.5425" fill="#3C3C3B"/>
<path d="M98.4788 60.4155L98.2705 60.0629L98.5182 59.9153C98.8735 59.7035 99.1144 59.3331 99.1661 58.9218C99.2029 58.6198 99.1362 58.3095 98.9783 58.0512L98.7319 57.6481L99.0804 57.4335L99.3267 57.8367C99.5336 58.1756 99.6207 58.5788 99.5717 58.9723C99.5064 59.508 99.1906 59.9918 98.7278 60.2679L98.4801 60.4155H98.4788Z" fill="black"/>
<path d="M76.8163 65.6447L76.7607 68.4962L77.169 68.5043L77.2246 65.6527L76.8163 65.6447Z" fill="black"/>
<path d="M89.3752 64.6361L89.1001 67.7977L89.5069 67.8334L89.782 64.6718L89.3752 64.6361Z" fill="black"/>
<path d="M34.0351 56.7811C33.6432 56.6609 33.2363 56.471 33.1914 55.9763L33.1016 54.9926L33.3724 54.968L33.4622 55.9517C33.4867 56.2264 33.6636 56.3808 34.1154 56.5201L34.0351 56.7811Z" fill="black"/>
<g style="mix-blend-mode:multiply" opacity="0.7">
<path d="M36.9691 76.3044C36.8915 75.8055 36.7798 75.6988 36.0496 75.2983L35.7676 75.055C35.3602 74.6831 35.2185 74.7255 34.7063 74.2771C34.4911 74.0885 34.4257 73.6962 34.3657 73.42L33.0375 66.6629L31.8999 58.6111C31.8999 58.6111 32.1629 57.7649 32.5389 57.3548C32.5389 57.3548 30.4014 56.6522 30.4014 58.592C30.4014 59.5844 31.5566 67.4038 31.5566 67.4038L32.9462 74.422C33.002 74.6872 33.1437 74.9265 33.3508 75.1055L35.4597 76.5395L36.1613 77.4103L76.0202 89.5071L76.1047 88.2002L36.9705 76.3058L36.9691 76.3044Z" fill="#3C3C3B"/>
</g>
<g style="mix-blend-mode:multiply" opacity="0.7">
<path d="M84.9499 69.1598L26.0879 52.6531L26.2241 51.8657L84.8109 67.842L86.2414 67.1366L84.9499 69.1598Z" fill="#3C3C3B"/>
</g>
<path d="M87.1368 87.4776C87.1368 87.4776 87.2988 86.6344 85.8301 85.7651L87.1368 87.4776Z" fill="#3C3C3B"/>
<path d="M87.3285 87.5174L86.9271 87.4395L87.1271 87.4777L86.9257 87.4422C86.9257 87.4354 87.021 86.7126 85.7173 85.9419L85.9241 85.5894C87.4987 86.5199 87.334 87.4764 87.3272 87.516L87.3285 87.5174Z" fill="black"/>
<path d="M75.923 88.2049L75.6172 91.1641L76.0233 91.2064L76.3291 88.2472L75.923 88.2049Z" fill="black"/>
<path d="M36.4285 78.8031L36.1604 78.7566C36.1604 78.7566 36.1985 78.5051 36.1604 77.6933C36.1154 76.7598 36.9893 76.3676 37.0261 76.3525L37.135 76.6026C37.105 76.6163 36.3972 76.9375 36.4326 77.681C36.4734 78.5365 36.4312 78.7935 36.4299 78.8044L36.4285 78.8031Z" fill="black"/>
<path d="M55.708 28.8859L55.9533 28.2366C56.1453 27.7294 55.8919 27.2578 55.3661 27.1402C54.6904 26.9899 53.2504 26.752 52.6714 26.8122C51.7314 26.9092 45.5928 28.5824 40.811 35.5761C37.7349 40.0763 36.9461 41.5664 35.5838 43.6456C34.8263 44.8007 31.2666 48.5819 28.6155 49.9147C28.1605 50.143 27.7804 50.4861 27.7954 50.996C27.8308 52.2346 28.4806 54.4915 28.7898 55.175L31.9164 55.8312L33.573 54.7854L33.4313 52.0199C33.4313 52.0199 37.4284 49.4062 41.6856 41.565C48.079 29.7923 55.708 28.8859 55.708 28.8859Z" fill="#878787"/>
<path d="M31.9519 56.0494L28.6429 55.3549L28.6006 55.2606C28.275 54.5402 27.6238 52.2463 27.5884 51.0024C27.5775 50.6415 27.7315 50.1288 28.5216 49.7324C31.1032 48.4351 34.618 44.7455 35.4109 43.5343C35.8618 42.8454 36.2419 42.2357 36.6806 41.5289C37.5279 40.166 38.5824 38.4695 40.6395 35.4607C45.285 28.6639 51.2915 26.7501 52.6457 26.6093C53.2914 26.5423 54.8118 26.8089 55.4057 26.9401C55.7191 27.0099 55.967 27.1889 56.1032 27.4432C56.2408 27.6988 56.2531 28.0064 56.1387 28.3085L55.8499 29.0727L55.7272 29.0877C55.7082 29.0905 53.8145 29.3351 51.173 30.9988C48.7317 32.5367 45.1338 35.6344 41.8615 41.6615C37.9448 48.8766 34.2911 51.6626 33.6371 52.1233L33.7788 54.8929L31.9506 56.0466L31.9519 56.0494ZM28.9317 54.9968L31.8743 55.6133L33.3592 54.6755L33.2175 51.9128L33.3156 51.8485C33.3551 51.8226 37.325 49.161 41.5032 41.466C44.8259 35.3459 48.4919 32.1977 50.9823 30.6352C53.3377 29.1561 55.0842 28.7788 55.5556 28.6995L55.7586 28.1622C55.8308 27.9736 55.8253 27.7863 55.745 27.6373C55.6646 27.4883 55.5134 27.383 55.3185 27.3393C54.5693 27.1725 53.2029 26.962 52.6893 27.0153C52.6266 27.0222 46.1446 28.1335 40.9773 35.6918C38.9257 38.6924 37.874 40.3847 37.028 41.7449C36.6056 42.4243 36.2065 43.0655 35.7528 43.7585C34.9422 44.997 31.3471 48.77 28.7055 50.0974C28.226 50.338 27.9876 50.6387 27.9971 50.9887C28.0298 52.1356 28.6088 54.2121 28.933 54.994L28.9317 54.9968Z" fill="black"/>
<path d="M31.7699 54.8858L31.4906 51.6733C31.4729 51.337 31.6255 51.024 31.8953 50.8326C33.4701 49.7171 37.5135 46.398 41.031 39.6722C43.8142 34.3491 47.4326 31.3663 49.9774 29.801C52.7402 28.1018 54.8777 27.6575 54.8981 27.6534L54.9526 27.9214C54.9322 27.9255 52.8315 28.3643 50.1082 30.0416C47.5961 31.5891 44.0227 34.5377 41.2721 39.7994C37.7274 46.577 33.6431 49.9303 32.0519 51.0568C31.8585 51.1935 31.7495 51.4177 31.7617 51.6555L32.041 54.8625L31.7699 54.8858Z" fill="black"/>
<path d="M92.6268 37.3329L92.684 36.618C92.7289 36.0589 92.3393 35.5585 91.7821 35.456C91.0655 35.3234 89.582 34.9406 89.0384 35.0828C88.0739 35.3343 83.5973 39.8387 81.7894 43.8714C79.5225 48.9266 78.4422 52.9921 77.9872 54.3728C77.7965 54.951 76.4341 59.7957 73.0924 60.8565C72.67 60.9905 72.3731 61.3651 72.3458 61.8011C72.2641 63.0602 72.1864 65.488 72.7232 66.285L76.0731 67.0382L78.1016 66.0676L78.2501 63.3992C78.2501 63.3992 80.6832 62.0144 83.709 51.0523C86.6965 40.2296 92.6281 37.3343 92.6281 37.3343L92.6268 37.3329Z" fill="#878787"/>
<path d="M76.0784 67.2541L72.58 66.4667L72.535 66.3997C71.9983 65.6027 72.0146 63.4524 72.1236 61.7888C72.1577 61.2652 72.5064 60.8223 73.0132 60.6623C74.9927 60.0349 76.671 57.8217 77.7364 54.4328C77.7527 54.3809 77.765 54.3399 77.7759 54.3098C77.8563 54.0651 77.9557 53.7411 78.081 53.3297C78.6532 51.4514 79.7172 47.9546 81.5863 43.7893C83.4064 39.7306 87.9238 35.1579 88.9701 34.8859C89.4442 34.7615 90.4537 34.9761 91.2656 35.147C91.4686 35.1894 91.6525 35.229 91.8024 35.2563C92.4645 35.3794 92.9236 35.9727 92.8704 36.637L92.8037 37.4682L92.6988 37.5201C92.6402 37.5488 86.8108 40.5166 83.8873 51.1083C81.1722 60.9439 78.9243 63.1312 78.4298 63.5112L78.2799 66.2015L76.0784 67.2555V67.2541ZM72.8334 66.1044L76.0307 66.8235L77.8862 65.9349L78.0334 63.2761L78.1301 63.2214C78.1519 63.2077 80.5482 61.663 83.4936 50.9975C85.048 45.3695 87.4103 41.9096 89.1186 39.9985C90.7207 38.205 92.0394 37.4108 92.4154 37.2057L92.4631 36.6042C92.4999 36.1504 92.1825 35.7444 91.7275 35.6596C91.5749 35.6309 91.3869 35.5913 91.1798 35.5475C90.4918 35.4026 89.4537 35.1825 89.0723 35.2823C88.2304 35.5024 83.7837 39.8851 81.9582 43.9574C80.1014 48.0995 79.0415 51.5799 78.472 53.45C78.3467 53.8642 78.2459 54.1909 78.1641 54.4397C78.1546 54.4684 78.1423 54.508 78.1274 54.5572C77.0198 58.0773 75.2488 60.3848 73.1372 61.0547C72.7925 61.164 72.5555 61.4634 72.5323 61.8175C72.3933 63.961 72.5023 65.5125 72.8334 66.1058V66.1044Z" fill="black"/>
<path d="M49.2933 52.4515C48.6109 52.7139 48.0756 53.2334 47.8454 53.8813C47.5744 54.6468 47.366 56.2639 47.366 56.2639C47.366 56.2639 46.7394 60.8365 47.1644 65.0891C47.2475 65.9202 47.6493 66.7035 48.3194 67.2639C48.4747 67.3938 48.6204 67.4908 48.7335 67.5209L49.8694 67.9228C51.245 68.2809 52.4627 68.6664 53.8234 68.8701L55.959 69.19C56.8593 69.1025 57.5935 68.2358 57.5948 67.2694L57.603 63.7057C57.6071 62.0968 57.6657 60.507 57.7801 58.9418L57.9885 56.6631C58.0443 56.0493 58.0729 55.4328 58.0729 54.815C58.0729 54.2654 57.6425 53.7952 57.0541 53.7036L50.8255 52.3216C50.3121 52.2205 49.7781 52.2656 49.2946 52.4529L49.2933 52.4515Z" fill="#A2A2A2"/>
<path d="M55.9436 69.4629L53.7752 69.1376C52.7251 68.9804 51.7703 68.7193 50.757 68.4431C50.441 68.357 50.1209 68.2695 49.7926 68.1834L49.7708 68.1766L48.6431 67.7788C48.5001 67.7378 48.3393 67.6407 48.1364 67.4712C47.4213 66.8739 46.976 66.0373 46.8833 65.1146C46.4597 60.8784 47.0795 56.2717 47.0863 56.2252C47.0945 56.1596 47.3015 54.5725 47.5793 53.7893C47.834 53.0716 48.4197 52.4907 49.1865 52.1954C49.7204 51.9903 50.302 51.9398 50.8686 52.0519L57.0945 53.4339C57.8136 53.5501 58.3353 54.1296 58.3353 54.8145C58.3353 55.4365 58.3067 56.0666 58.2495 56.6872L58.0411 58.966C57.928 60.5188 57.8695 62.1155 57.8654 63.7052L57.8572 67.2689C57.8545 68.3775 57.01 69.3604 55.9749 69.4602L55.9422 69.4629H55.9436ZM49.9411 67.6571C50.268 67.7419 50.5867 67.8294 50.9 67.9155C51.8956 68.1875 52.8368 68.4445 53.8556 68.5962L55.9558 68.912C56.694 68.8218 57.3124 68.0768 57.3138 67.2676L57.3219 63.7039C57.3247 62.1018 57.3846 60.4929 57.499 58.9209L57.7074 56.6367C57.7619 56.0325 57.7905 55.4201 57.7905 54.8145C57.7905 54.3976 57.4595 54.0449 57.0019 53.9724L56.9855 53.9697L50.757 52.5877C50.2979 52.4975 49.8199 52.5385 49.3813 52.7066C48.7629 52.9445 48.293 53.4065 48.0928 53.9724C47.834 54.7024 47.6284 56.2826 47.627 56.2977C47.6202 56.3455 47.01 60.8907 47.4268 65.0599C47.5044 65.8391 47.8803 66.5458 48.4851 67.0516C48.6826 67.2156 48.7711 67.2484 48.7929 67.2539L48.8147 67.2607L49.9397 67.6585L49.9411 67.6571Z" fill="black"/>
<g style="mix-blend-mode:multiply" opacity="0.7">
<path d="M31.8804 55.8315L31.6011 51.6621L31.9498 50.9444L34.2631 49.0224L37.0477 45.9999L39.6865 42.2666L41.8158 38.4936L43.7094 35.6748L47.152 32.0221L50.502 29.6326L53.2634 28.3025L55.6788 27.5315L55.9159 28.2355L55.6706 28.8848L53.2021 29.6654L50.6873 31.0488L48.0416 33.1212L45.8769 35.3549L43.7094 38.1833L41.6496 41.5653L39.9984 44.3827L38.7151 46.2952L36.6539 49.0224L34.6472 50.9991L33.3953 52.0202L33.4974 54.0051L33.5369 54.7857L31.8804 55.8315Z" fill="#3C3C3B"/>
</g>
<g style="mix-blend-mode:multiply" opacity="0.7">
<path d="M55.505 69.1161C55.648 69.339 54.9548 66.6693 54.9575 62.0298C54.9602 57.8291 55.7652 56.3487 56.0063 55.2305C56.2473 54.1123 56.5197 54.5238 56.5197 54.5238L49.1743 52.8588L50.0828 52.2656L52.5603 52.7003L56.0744 53.5696L57.386 53.7925L58.0874 54.8122L57.7946 58.9391L57.6543 61.6115V64.2388L57.6107 66.6597L57.2375 68.4149L56.4544 69.0615L55.5023 69.1161H55.505Z" fill="#3C3C3B"/>
</g>
<path d="M55.6711 55.1859C55.4641 56.0184 55.3239 56.8713 55.2 57.7188C54.9073 59.7213 54.763 61.7485 54.8093 63.7715C54.8406 65.1412 54.9631 66.5081 55.1959 67.8572C55.2327 68.0732 55.5608 67.9816 55.524 67.767C55.1279 65.4733 55.0652 63.1263 55.215 60.8067C55.3157 59.2347 55.5118 57.6655 55.8181 56.1195C55.8739 55.8379 55.9311 55.5564 56.0005 55.2789C56.0536 55.0656 55.7255 54.974 55.6724 55.1887L55.6711 55.1859Z" fill="black"/>
<g style="mix-blend-mode:multiply" opacity="0.7">
<path d="M76.032 67.1705L75.8413 63.1638L76.2146 62.2055L76.8304 61.66L78.5946 59.3935L80.0577 56.4668L81.3696 52.9248L82.7483 48.4806L83.8559 45.6824L86.3816 41.1808L88.7807 38.3374L90.8105 36.7011L92.2968 35.8672L92.6102 36.3908L92.5856 37.4652L89.9291 39.5445L88.2521 41.4747L86.7113 43.7836L85.1964 46.7965L83.9676 50.1539L82.5113 55.0218L80.8601 59.3621L79.2253 62.39L78.2077 63.5315L78.1491 64.606L78.0605 66.1999L76.032 67.1705Z" fill="#3C3C3B"/>
</g>
<path d="M75.7949 66.4369L75.7104 63.0358C75.7404 62.4958 75.9965 62.0146 76.412 61.7029C77.5155 60.8759 79.7007 58.3196 81.9335 50.4934C83.6296 44.5483 86.0709 40.9694 87.8215 39.0146C89.7261 36.8875 91.2096 36.1807 91.2723 36.152L91.3867 36.3995C91.3268 36.4268 85.4061 39.3112 82.1965 50.5686C80.0549 58.0762 77.9583 60.8868 76.5769 61.9217C76.2254 62.1841 76.0102 62.5915 75.9843 63.0399L76.0687 66.4301L75.7963 66.4369H75.7949Z" fill="black"/>
<path d="M73.0083 61.6729L72.9526 61.9419L75.0508 62.3794L75.1065 62.1105L73.0083 61.6729Z" fill="black"/>
<path d="M29.0552 50.7952L28.9951 51.0632L31.0926 51.5367L31.1527 51.2687L29.0552 50.7952Z" fill="black"/>
<path d="M85.2649 64.6814C85.1424 65.3975 85.0212 66.115 84.8987 66.8311C84.881 66.935 84.8633 67.0374 84.8456 67.1413C84.8089 67.3559 85.1369 67.4488 85.1737 67.2315C85.2962 66.5154 85.4173 65.7979 85.5398 65.0818C85.5575 64.978 85.5752 64.8755 85.5929 64.7716C85.6296 64.557 85.3016 64.4641 85.2649 64.6814Z" fill="black"/>
<g style="mix-blend-mode:multiply" opacity="0.89">
<path d="M37.326 77.6144L37.2471 77.8761L75.507 89.4891L75.5859 89.2274L37.326 77.6144Z" fill="black"/>
</g>
<g style="mix-blend-mode:multiply" opacity="0.89">
<path d="M35.4054 76.6516L33.2856 75.2081C33.0542 75.0085 32.899 74.7461 32.8364 74.4494L31.4463 67.4301C31.3987 67.1034 30.2904 59.5837 30.2891 58.5926C30.2891 58.0349 30.4579 57.6399 30.7928 57.4211C31.4749 56.9728 32.579 57.4499 32.6253 57.469L32.5164 57.7191C32.5069 57.715 31.4994 57.2817 30.9412 57.6494C30.6893 57.8148 30.5614 58.132 30.5614 58.5926C30.5614 59.5632 31.7023 67.3057 31.7145 67.3836L33.1018 74.3948C33.1509 74.6285 33.2734 74.8363 33.4558 74.9962L35.5566 76.4247L35.4041 76.6516H35.4054Z" fill="black"/>
</g>
<path d="M52.8421 60.3107C52.838 59.2663 52.0157 58.2233 51.0041 57.9813C49.9912 57.738 49.1716 58.3901 49.1743 59.4358C49.177 60.1316 49.5433 60.8246 50.0851 61.2826L49.4561 63.3631L52.5862 64.1013L51.8945 61.7432C52.4609 61.5573 52.8448 61.0256 52.8421 60.3093V60.3107Z" fill="black"/>
<path d="M52.8417 64.3824L49.1589 63.513L49.8124 61.3491C49.2597 60.8364 48.9329 60.1297 48.9302 59.4353C48.9288 58.8653 49.1453 58.3773 49.5415 58.0629C49.9377 57.7485 50.4591 57.6473 51.0119 57.7799C52.1078 58.0424 53.0023 59.1769 53.0064 60.3088C53.0091 61.0183 52.6674 61.5965 52.1038 61.8644L52.8417 64.381V64.3824ZM49.6763 63.2136L52.2522 63.8219L51.6041 61.6115L51.792 61.55C52.2916 61.386 52.6007 60.9116 52.5993 60.3115C52.5966 59.3574 51.8424 58.4019 50.9179 58.1804C50.4904 58.0779 50.0915 58.1504 49.7961 58.3855C49.5006 58.6206 49.3386 58.9938 49.34 59.4353C49.3413 60.0436 49.6626 60.6915 50.1786 61.1262L50.2821 61.2137L49.6776 63.215L49.6763 63.2136Z" fill="black"/>
<g style="mix-blend-mode:overlay" opacity="0.51">
<path d="M25.7804 49.457C26.2895 49.6019 26.7973 49.7454 27.3064 49.8902C27.4384 49.9285 27.5718 49.9654 27.7038 50.0037C28.021 50.0939 28.1558 49.5991 27.84 49.5089C27.3309 49.364 26.8231 49.2205 26.314 49.0757C26.182 49.0374 26.0486 49.0005 25.9166 48.9622C25.5994 48.872 25.4646 49.3668 25.7804 49.457Z" fill="white"/>
</g>
<g style="mix-blend-mode:overlay" opacity="0.51">
<path d="M29.7561 54.3439C29.6064 53.9052 29.4553 53.4692 29.3505 53.0168C29.2361 52.5235 29.1803 52.0246 29.1327 51.5217C29.1191 51.3836 29.0251 51.2647 28.8768 51.2647C28.7488 51.2647 28.6086 51.3822 28.6209 51.5217C28.6712 52.0519 28.727 52.5795 28.8441 53.1002C28.9503 53.5704 29.1055 54.0241 29.262 54.4792C29.3682 54.7895 29.8623 54.6555 29.7548 54.3425L29.7561 54.3439Z" fill="white"/>
</g>
<g style="mix-blend-mode:overlay" opacity="0.51">
<path d="M73.7227 65.565C73.6274 65.1181 73.5308 64.6725 73.4845 64.2174C73.4328 63.7076 73.4396 63.1992 73.4546 62.6881C73.4641 62.3587 72.9536 62.3587 72.9441 62.6881C72.9291 63.2184 72.9237 63.7459 72.9809 64.2748C73.0326 64.7573 73.1306 65.2288 73.2313 65.7017C73.2994 66.0242 73.7921 65.8875 73.7241 65.565H73.7227Z" fill="white"/>
</g>
<g style="mix-blend-mode:overlay" opacity="0.51">
<path d="M29.8688 50.3996C30.2161 50.2779 30.5513 50.1043 30.8727 49.9266C31.6997 49.4701 32.4693 48.9055 33.1764 48.2781C34.2171 47.354 35.0699 46.2782 35.8696 45.1436C36.6692 44.009 37.5016 42.7569 38.289 41.543C38.9946 40.4563 39.6894 39.3627 40.395 38.2773C40.8923 37.5132 41.3909 36.7463 41.9412 36.0191C42.3853 35.4327 42.9166 34.7957 43.4302 34.2175C44.144 33.4137 44.8933 32.6427 45.6807 31.9114C47.3931 30.323 49.3384 28.8371 51.5494 28.0306C51.8095 27.9363 52.0725 27.8515 52.3395 27.7777C52.6555 27.6902 52.522 27.1954 52.2032 27.2828C49.916 27.913 47.8903 29.3101 46.1084 30.8424C44.5772 32.1602 43.1755 33.6406 41.9167 35.2222C40.658 36.8038 39.6472 38.4906 38.5737 40.1597C37.8081 41.3489 37.037 42.5368 36.2428 43.7069C35.4486 44.8771 34.6285 46.0937 33.63 47.1312C32.8848 47.9063 32.0552 48.5993 31.1452 49.1693C30.8537 49.3525 30.554 49.522 30.2461 49.6751C30.1467 49.7243 30.0458 49.7722 29.945 49.8173C29.9246 49.8268 29.9042 49.835 29.8837 49.8432C29.8456 49.8596 29.941 49.82 29.8851 49.8432C29.8565 49.8555 29.8279 49.8665 29.7979 49.8788C29.7761 49.887 29.7543 49.8952 29.7325 49.9034C29.4247 50.0114 29.5568 50.5076 29.8688 50.3982V50.3996Z" fill="white"/>
</g>
<g style="mix-blend-mode:overlay" opacity="0.51">
<path d="M26.7871 53.1243C26.7708 53.2774 26.7912 53.4386 26.817 53.5889C26.8715 53.9155 27.0171 54.223 27.2308 54.4758C27.3832 54.6561 27.5805 54.801 27.7901 54.9062C27.9099 54.9663 28.0718 54.9417 28.1399 54.8146C28.2011 54.6985 28.1753 54.5277 28.0487 54.4635C27.9589 54.4184 27.8759 54.3651 27.7928 54.3077C27.7684 54.2913 27.801 54.3145 27.8037 54.3159C27.7956 54.3091 27.7874 54.3036 27.7806 54.2968C27.7629 54.2817 27.7452 54.2667 27.7275 54.2503C27.6962 54.2216 27.6663 54.1929 27.6377 54.1615C27.6091 54.13 27.5846 54.1014 27.5588 54.0699C27.5901 54.1082 27.5656 54.0795 27.5506 54.0563C27.5383 54.0399 27.5275 54.0221 27.5166 54.0057C27.4757 53.9415 27.4417 53.8759 27.4091 53.8062C27.4063 53.8007 27.4036 53.7884 27.3995 53.7843C27.3995 53.7843 27.4186 53.8349 27.4104 53.8089C27.405 53.7925 27.3968 53.7748 27.3914 53.7584C27.3805 53.7283 27.3696 53.6969 27.3614 53.6655C27.3437 53.6053 27.3288 53.5452 27.3179 53.4837C27.3152 53.4714 27.3138 53.4591 27.3111 53.4455C27.3083 53.4318 27.3015 53.3812 27.3083 53.4304C27.3152 53.4796 27.3083 53.4345 27.3083 53.4236C27.307 53.4086 27.3056 53.3935 27.3043 53.3799C27.3002 53.3389 27.2988 53.2979 27.2975 53.2569C27.2975 53.2132 27.2975 53.1681 27.3015 53.123C27.3165 52.9891 27.1736 52.8606 27.0457 52.8661C26.8946 52.8729 26.8062 52.9795 26.7898 53.123L26.7871 53.1243Z" fill="white"/>
</g>
<g style="mix-blend-mode:overlay" opacity="0.51">
<path d="M28.2868 56.4816C28.4625 57.4589 28.6381 58.4362 28.8137 59.4136C29.0914 60.9582 29.3692 62.5042 29.6455 64.0488C29.7095 64.4056 29.7735 64.7637 29.8375 65.1205C29.896 65.4444 30.3875 65.3077 30.3303 64.9838C30.1547 64.0064 29.9791 63.0291 29.8035 62.0517C29.5257 60.5071 29.248 58.9611 28.9716 57.4165C28.9077 57.0598 28.8437 56.7016 28.7797 56.3449C28.7211 56.0209 28.2297 56.1576 28.2868 56.4816Z" fill="white"/>
</g>
<g style="mix-blend-mode:overlay" opacity="0.51">
<path d="M30.2939 67.8219C30.445 68.6434 30.5975 69.4649 30.7486 70.285L31.4701 74.1929C31.5259 74.4936 31.5804 74.7943 31.6362 75.0936C31.6961 75.4176 32.1876 75.2809 32.129 74.9569C31.9779 74.1355 31.8254 73.314 31.6743 72.4938C31.4334 71.1912 31.1938 69.8886 30.9528 68.586C30.897 68.2853 30.8425 67.9846 30.7867 67.6852C30.7268 67.3613 30.2354 67.498 30.2939 67.8219Z" fill="white"/>
</g>
<g style="mix-blend-mode:overlay" opacity="0.51">
<path d="M74.096 61.6475C74.6382 61.5026 75.164 61.1937 75.6068 60.8588C76.0727 60.5075 76.4786 60.0933 76.8192 59.6189C77.1952 59.0954 77.4731 58.5007 77.7401 57.9171C78.3136 56.6622 78.7945 55.3636 79.2345 54.0554C79.5465 53.1286 79.8135 52.1867 80.1227 51.2599C80.7262 49.4501 81.4128 47.6648 82.128 45.8973C82.4686 45.0553 82.8187 44.2146 83.2042 43.3917C83.3404 43.1019 83.4794 42.8134 83.636 42.5332C83.809 42.2257 84.0188 41.94 84.2245 41.6543C84.8989 40.7179 85.6181 39.8116 86.3728 38.9395C87.0322 38.1767 87.7297 37.3811 88.5239 36.7701C88.6533 36.6703 88.7895 36.576 88.9326 36.4967C89.22 36.3368 88.9625 35.8939 88.6751 36.0538C88.3345 36.2438 88.0307 36.5035 87.7433 36.7633C87.3578 37.1118 86.9954 37.4864 86.6426 37.8691C85.8402 38.7399 85.0909 39.6585 84.373 40.6003C83.8962 41.2264 83.4031 41.8538 83.0434 42.5565C82.6838 43.2591 82.3419 44.0574 82.0231 44.8188C81.2548 46.6519 80.5409 48.5096 79.883 50.3851C79.616 51.1451 79.3844 51.9133 79.1446 52.6816C78.7427 53.9611 78.3068 55.231 77.8055 56.4749C77.5603 57.0832 77.2987 57.6847 77.0058 58.2711C76.7129 58.8575 76.4119 59.3783 75.9773 59.8417C75.6408 60.2013 75.2553 60.5102 74.8303 60.759C74.5551 60.9203 74.3344 61.0255 74.0742 61.1144C74.0361 61.1267 73.9979 61.1404 73.9598 61.1499C73.6424 61.2347 73.7772 61.7295 74.096 61.6448V61.6475Z" fill="white"/>
</g>
<g style="mix-blend-mode:overlay" opacity="0.51">
<path d="M34.8401 51.9286C35.2351 52.0339 35.6301 52.1378 36.025 52.243C36.973 52.4945 37.9209 52.7474 38.8689 52.9989C40.0156 53.3037 41.1624 53.6086 42.3106 53.9134C43.3021 54.1772 44.2936 54.4396 45.2851 54.7035C45.7659 54.8306 46.2453 54.9796 46.7302 55.0876C46.737 55.0889 46.7438 55.0917 46.7506 55.093C47.0693 55.1778 47.2042 54.683 46.8868 54.5982C46.4919 54.493 46.0969 54.3891 45.7019 54.2838C44.754 54.0323 43.806 53.7794 42.8581 53.5279C41.7113 53.2231 40.5645 52.9183 39.4164 52.6134C38.4249 52.3496 37.4333 52.0872 36.4418 51.8234C35.961 51.6962 35.4816 51.5473 34.9967 51.4393C34.9899 51.4379 34.9831 51.4352 34.9763 51.4338C34.6576 51.349 34.5228 51.8439 34.8401 51.9286Z" fill="white"/>
</g>
<g style="mix-blend-mode:overlay" opacity="0.51">
<path d="M58.7685 58.1947C59.1962 58.3096 59.624 58.423 60.0517 58.5378C61.0843 58.8139 62.1168 59.0887 63.1494 59.3648C64.3931 59.697 65.6382 60.0291 66.8819 60.3613C67.958 60.6483 69.0342 60.9354 70.1104 61.2224C70.6335 61.3619 71.1552 61.5232 71.6837 61.6421C71.6919 61.6435 71.6987 61.6462 71.7069 61.6489C72.0243 61.7337 72.1605 61.2389 71.8431 61.1541C71.4154 61.0393 70.9876 60.9258 70.5599 60.811C69.5273 60.5349 68.4948 60.2601 67.4622 59.984C66.2185 59.6519 64.9734 59.3197 63.7297 58.9875C62.6535 58.7005 61.5774 58.4134 60.5012 58.1264C59.9781 57.987 59.4564 57.8257 58.9279 57.7067C58.9197 57.7054 58.9129 57.7026 58.9047 57.6999C58.5873 57.6152 58.4511 58.11 58.7685 58.1947Z" fill="white"/>
</g>
<g style="mix-blend-mode:overlay" opacity="0.51">
<path d="M79.9413 63.8237C80.5144 64.0779 81.1025 64.302 81.696 64.5002C82.1711 64.6588 82.6543 64.8023 83.1457 64.8952C83.3717 64.939 83.6018 64.9731 83.8318 64.9868C83.923 64.9923 84.0142 64.9936 84.1041 64.9895C84.1517 64.9868 84.1994 64.9813 84.247 64.9786C84.2701 64.9786 84.2947 64.9772 84.3178 64.9786C84.3123 64.9786 84.345 64.9663 84.3246 64.9759C84.3682 64.9554 84.3328 65.01 84.3287 64.9759C84.3287 64.969 84.3137 64.9567 84.3164 64.9554C84.326 64.9526 84.3192 64.9977 84.3192 64.9554C84.3192 64.9813 84.3205 65.0073 84.3192 65.0333C84.3192 65.0169 84.3028 65.1098 84.296 65.1385C84.2824 65.1904 84.2633 65.2424 84.2443 65.293C84.1749 65.4775 84.0755 65.6497 83.9884 65.826C83.8414 66.1198 84.2824 66.3795 84.4294 66.0843C84.6023 65.7371 84.8664 65.3353 84.8283 64.9308C84.8065 64.6957 84.6513 64.5194 84.4185 64.4784C84.2075 64.4401 83.9802 64.4866 83.7651 64.4702C83.2642 64.4319 82.7673 64.2952 82.2868 64.1517C81.8063 64.0082 81.357 63.8469 80.901 63.6692C80.7186 63.5982 80.5389 63.5244 80.3579 63.4506C80.2885 63.4219 80.3824 63.4615 80.3225 63.4355C80.2993 63.426 80.2762 63.415 80.2531 63.4055C80.2354 63.3973 80.2177 63.3904 80.2 63.3822C80.0734 63.3262 79.9277 63.3467 79.8501 63.4738C79.7848 63.5818 79.8161 63.769 79.9413 63.825V63.8237Z" fill="white"/>
</g>
<g style="mix-blend-mode:overlay" opacity="0.51">
<path d="M77.6224 67.6837C77.3869 68.0063 77.4264 68.4847 77.5748 68.8292C77.9437 69.6862 78.9171 70.1346 79.6564 70.6157C80.3956 71.0969 81.1539 71.6054 81.659 72.3299C81.8986 72.6743 82.0688 73.0584 82.1355 73.474C82.2199 74.0112 82.1736 74.5921 82.145 75.1334C82.1055 75.8456 82.0361 76.5687 81.8823 77.2658C81.8115 77.587 82.3043 77.7251 82.3751 77.4025C82.499 76.8407 82.5657 76.2611 82.6161 75.6884C82.6678 75.1088 82.6896 74.5265 82.6773 73.9442C82.6678 73.474 82.5916 73.0311 82.401 72.5991C82.0429 71.7886 81.3486 71.1817 80.6488 70.6718C80.2731 70.3984 79.8823 70.1483 79.4916 69.8981C79.1009 69.648 78.6489 69.3896 78.3154 69.0288C78.1942 68.8962 78.0785 68.7335 78.0199 68.5722C77.9655 68.4218 77.9587 68.3576 77.9696 68.2004C77.9736 68.1375 77.9614 68.2277 77.975 68.169C77.9805 68.1457 77.9845 68.1225 77.9913 68.0993C78.0022 68.061 78.0458 67.9694 78.0104 68.0364C78.0267 68.0049 78.0417 67.9708 78.0635 67.9421C78.1452 67.83 78.0812 67.6577 77.9723 67.5908C77.8443 67.5128 77.7041 67.5716 77.6224 67.6823V67.6837Z" fill="white"/>
</g>
<g style="mix-blend-mode:overlay" opacity="0.51">
<path d="M81.5252 81.495C81.3945 82.6541 81.242 83.7928 81.0541 84.9437C80.9411 85.6354 80.8322 86.3434 80.6226 87.0146C80.6062 87.0652 80.5899 87.1144 80.5722 87.165C80.564 87.1868 80.5558 87.2087 80.5477 87.2306C80.5763 87.1595 80.545 87.236 80.5354 87.2538C80.4742 87.37 80.3884 87.452 80.2645 87.508C80.0617 87.5996 79.8261 87.6147 79.6069 87.6324C79.3442 87.6529 79.0801 87.668 78.8214 87.7213C78.1693 87.8566 77.6887 88.361 77.3007 88.875C76.9127 89.3889 76.6064 89.9945 76.703 90.6356C76.7235 90.7722 76.8964 90.8488 77.0175 90.8146C77.1632 90.7736 77.2163 90.6369 77.1959 90.4989C77.1224 90.0013 77.4927 89.4436 77.7854 89.08C77.9732 88.8463 78.187 88.618 78.4266 88.4376C78.6199 88.2913 78.8541 88.227 79.0896 88.1915C79.577 88.1191 80.1066 88.1724 80.5558 87.9332C80.839 87.7814 80.982 87.5395 81.0827 87.2483C81.2992 86.6209 81.3999 85.9457 81.5102 85.2937C81.6463 84.4872 81.7607 83.6752 81.8669 82.8646C81.9268 82.4095 81.984 81.9529 82.0357 81.4964C82.0507 81.3583 81.9077 81.2394 81.7798 81.2394C81.6286 81.2394 81.5401 81.3569 81.5238 81.4964L81.5252 81.495Z" fill="white"/>
</g>
<g style="mix-blend-mode:overlay" opacity="0.94">
<path d="M85.7441 87.35C86.1146 86.9577 86.4837 86.5654 86.8541 86.1717C87.7462 85.2245 88.6397 84.2772 89.5318 83.3313C90.6078 82.1899 91.6837 81.0485 92.7597 79.9058C93.6899 78.9189 94.6202 77.932 95.5504 76.9451C96.0026 76.4653 96.4725 75.9964 96.911 75.5016C96.9165 75.4948 96.9233 75.4879 96.9301 75.4825C97.1562 75.2433 96.7952 74.8797 96.5692 75.1202C96.1987 75.5125 95.8296 75.9049 95.4591 76.2985C94.567 77.2458 93.6736 78.1931 92.7815 79.139C91.7055 80.2803 90.6296 81.4217 89.5536 82.5645C88.6234 83.5514 87.6931 84.5383 86.7629 85.5252C86.3107 86.005 85.8408 86.4738 85.4023 86.9687C85.3968 86.9755 85.39 86.9823 85.3832 86.9878C85.1571 87.227 85.518 87.5906 85.7441 87.35Z" fill="white"/>
</g>
<g style="mix-blend-mode:overlay" opacity="0.51">
<path d="M53.3726 54.3556C52.5744 54.2052 51.7776 54.0549 50.9795 53.9031C50.6962 53.8498 50.4129 53.791 50.1296 53.7418C49.7087 53.6694 49.2987 53.7569 48.961 54.0262C48.6967 54.238 48.566 54.5224 48.4529 54.8327C48.1111 55.769 47.889 56.7191 47.8427 57.7183C47.8223 58.1585 48.5033 58.1571 48.5238 57.7183C48.5633 56.8489 48.7471 56.0069 49.0454 55.1908C49.1149 55.0008 49.1666 54.7876 49.3056 54.6331C49.4704 54.4499 49.7128 54.3693 49.9552 54.4021C50.2372 54.4417 50.5191 54.5087 50.7983 54.562C51.2928 54.655 51.7858 54.7493 52.2802 54.8422C52.584 54.8997 52.8877 54.9571 53.1914 55.0145C53.3726 55.0487 53.5592 54.9639 53.6109 54.7753C53.6572 54.6085 53.5551 54.3898 53.3726 54.3542V54.3556Z" fill="white"/>
</g>
<g style="mix-blend-mode:overlay" opacity="0.51">
<path d="M47.6819 64.0686C47.5567 64.9652 47.8684 65.9602 48.5544 66.5629C48.9124 66.8772 49.3398 67.0863 49.7972 67.2148C50.2192 67.3323 50.4002 66.6736 49.9783 66.5561C49.8789 66.5287 49.7809 66.4973 49.6856 66.4617C49.6135 66.4344 49.5713 66.4166 49.4746 66.3688C49.4011 66.3319 49.329 66.2909 49.2595 66.2472C49.2241 66.2253 49.1888 66.2021 49.1547 66.1775C49.1425 66.1679 49.1302 66.1597 49.118 66.1501C49.0377 66.0927 49.1643 66.1925 49.0921 66.1296C48.9764 66.0299 48.8743 65.9246 48.7736 65.8085C48.7341 65.7634 48.8022 65.8508 48.7545 65.7825C48.7368 65.7579 48.7191 65.7333 48.7028 65.7073C48.6633 65.6472 48.6266 65.5857 48.5925 65.5215C48.564 65.4681 48.5381 65.4121 48.5122 65.3561C48.5503 65.4394 48.5109 65.3506 48.5013 65.3287C48.4891 65.2959 48.4768 65.2631 48.4659 65.2303C48.4306 65.1237 48.402 65.0158 48.3802 64.9051C48.3693 64.8531 48.3625 64.8012 48.353 64.7479C48.3639 64.8135 48.3584 64.7944 48.353 64.7465C48.3502 64.7233 48.3475 64.6987 48.3462 64.6755C48.3394 64.5935 48.3353 64.5101 48.3353 64.4281C48.3353 64.3638 48.3366 64.2996 48.3421 64.2354C48.3448 64.1916 48.3625 64.07 48.338 64.2504C48.3639 64.0673 48.2931 63.8841 48.0998 63.8295C47.9405 63.7857 47.7064 63.8841 47.6805 64.0686H47.6819Z" fill="white"/>
</g>
</g>
<defs>
<filter id="filter0_d_1193_19206" x="0.399858" y="0.198331" width="124.802" height="124.802" filterUnits="userSpaceOnUse" color-interpolation-filters="sRGB">
<feFlood flood-opacity="0" result="BackgroundImageFix"/>
<feColorMatrix in="SourceAlpha" type="matrix" values="0 0 0 0 0 0 0 0 0 0 0 0 0 0 0 0 0 0 127 0" result="hardAlpha"/>
<feOffset dy="2.40004"/>
<feGaussianBlur stdDeviation="4.80007"/>
<feComposite in2="hardAlpha" operator="out"/>
<feColorMatrix type="matrix" values="0 0 0 0 0.00908203 0 0 0 0 0.00908203 0 0 0 0 0.00908203 0 0 0 1 0"/>
<feBlend mode="normal" in2="BackgroundImageFix" result="effect1_dropShadow_1193_19206"/>
<feBlend mode="normal" in="SourceGraphic" in2="effect1_dropShadow_1193_19206" result="shape"/>
</filter>
<linearGradient id="paint0_linear_1193_19206" x1="62.8008" y1="7.39844" x2="62.8008" y2="113" gradientUnits="userSpaceOnUse">
<stop stop-color="#FFC64D"/>
<stop offset="0.485" stop-color="#EDD195"/>
<stop offset="1" stop-color="#E4B44D"/>
</linearGradient>
</defs>
</svg>
