<svg width="106" height="109" viewBox="0 0 106 109" fill="none" xmlns="http://www.w3.org/2000/svg">
<g filter="url(#filter0_d_1193_19037)">
<rect x="9.6001" y="9.9986" width="86.4013" height="86.4013" rx="7.20011" fill="#EDD195" fill-opacity="0.2"/>
<rect x="10.8001" y="11.1986" width="84.0012" height="84.0012" rx="6.00009" stroke="url(#paint0_linear_1193_19037)" stroke-opacity="0.2" stroke-width="2.40004"/>
<path d="M11.5596 15.8895C11.5596 15.8895 23.7262 49.6564 40.0327 65.963C56.3393 82.2696 90.1062 94.4361 90.1062 94.4361H18.7597C14.7832 94.4361 11.5596 91.2125 11.5596 87.236V15.8895Z" fill="#E1C088" fill-opacity="0.2"/>
<path d="M11.5857 13.9255C11.5857 13.9255 10.2168 61.6434 27.2998 78.7264C44.3829 95.8095 90.1367 94.4358 90.1367 94.4358H16.3899C13.739 94.4358 11.5899 92.2869 11.5898 89.6359L11.5857 13.9255Z" fill="#B69C75" fill-opacity="0.2"/>
<path d="M80.2886 94.4358C80.2886 94.4358 85.9656 92.247 88.8821 89.3192C91.7986 86.3915 94.0337 70.8726 94.0337 70.8726L94.0337 89.6352C94.0337 92.2861 91.8848 94.4351 89.2339 94.4353L80.2886 94.4358Z" fill="#644433" fill-opacity="0.2"/>
<path d="M94.0407 35.5259C94.0407 35.5259 94.2575 21.7475 89.133 16.7478C84.0086 11.748 70.4776 11.9628 70.4776 11.9628L89.2396 11.9628C91.8905 11.9628 94.0395 14.1117 94.0397 16.7626L94.0407 35.5259Z" fill="#B69C75" fill-opacity="0.2"/>
<path d="M35.1289 11.9616C35.1289 11.9616 21.3505 11.7449 16.3508 16.8693C11.3511 21.9937 11.5658 35.5247 11.5658 35.5247L11.5658 16.7627C11.5658 14.1118 13.7147 11.9628 16.3656 11.9627L35.1289 11.9616Z" fill="#B69C75" fill-opacity="0.2"/>
<path d="M11.5596 71.8546C11.5596 71.8546 15.7429 86.9179 17.4506 88.584C19.1582 90.2501 48.8688 94.4342 48.8688 94.4342H16.3596C13.7086 94.4342 11.5596 92.2851 11.5596 89.6341V71.8546Z" fill="#644433" fill-opacity="0.2"/>
</g>
<g filter="url(#filter1_d_1193_19037)">
<path d="M52.8007 100.992C78.6497 100.992 99.6014 79.5774 99.6014 53.2041C99.6014 26.8308 78.6497 5.37897 52.8007 5.37897C26.9517 5.37897 6 26.7932 6 53.1665C6 79.5399 26.9517 100.992 52.8007 100.992Z" fill="#D37311"/>
<path d="M52.7332 99.6496C77.6744 99.6496 97.8903 78.971 97.8903 53.5037C97.8903 28.0364 77.6744 7.32159 52.7332 7.32159C27.792 7.32159 7.57617 28.0002 7.57617 53.4674C7.57617 78.9347 27.792 99.6496 52.7332 99.6496Z" fill="#FCEA1C"/>
<path d="M52.7335 7.32168C68.0464 7.10401 83.004 15.6657 91.2822 28.7621C102.9 47.1188 100.378 71.4615 85.3133 87.0248C84.3896 88.0044 83.004 89.2741 82.0092 90.181L80.2327 91.5959C79.7353 91.995 78.9182 92.5754 78.3852 92.9382L77.4615 93.5912C76.9641 93.8814 76.0048 94.4982 75.5074 94.7884C74.5481 95.3688 73.5178 95.8767 72.4874 96.4209L70.4268 97.3641C56.7482 103.241 40.476 101.863 28.0054 93.5912C12.8346 83.6147 4.55644 65.004 7.39874 46.8286C10.774 24.445 30.528 7.06774 52.7335 7.32168ZM52.7335 7.32168C40.8313 7.17657 29.0713 12.4006 20.722 21.0348C7.9672 34.0224 4.13009 54.4108 11.3424 71.2438C18.5548 88.222 34.5783 99.2506 52.7335 99.2506C70.8887 99.2506 86.9477 88.1857 94.1245 71.2076C101.337 54.3745 97.5352 33.9499 84.7449 20.9986C76.3956 12.4006 64.6711 7.17657 52.7335 7.32168Z" fill="#D37311"/>
<path d="M52.7326 7.32159C70.6746 7.10393 87.8706 18.7855 94.7276 35.6911C107.447 66.3099 85.348 100.52 52.7326 100.484C20.1172 100.484 -1.98172 66.3099 10.7376 35.6911C17.6302 18.7855 34.8261 7.10393 52.7326 7.32159ZM52.7326 7.32159C34.8972 7.1402 17.7368 18.9306 11.2705 35.9088C-0.5961 65.8746 21.1475 98.8152 52.7326 98.7426C84.3177 98.7789 106.097 65.8383 94.2302 35.9088C87.7285 18.9306 70.6036 7.1402 52.7326 7.32159Z" fill="#D37311"/>
<path d="M52.7337 7.32166C70.6402 7.06772 87.8361 18.8218 94.6221 35.7638C107.164 66.2737 85.1359 100.121 52.7337 100.158C20.3314 100.121 -1.69643 66.2737 10.8452 35.7638C17.6668 18.8218 34.8272 7.06772 52.7337 7.32166ZM52.7337 7.32166C34.8627 7.17655 17.7023 18.8944 11.165 35.8726C-0.914795 65.8746 21.0065 99.2506 52.7692 99.1417C84.5319 99.2868 106.453 65.8746 94.3734 35.8726C87.765 18.8944 70.6046 7.17655 52.7337 7.32166Z" fill="#D37311"/>
<path d="M52.7346 7.32157C37.9902 7.21273 23.601 15.2665 15.5005 27.8187C-3.75614 58.111 17.419 98.1621 52.7346 98.2347C88.0502 98.1621 109.225 58.0747 89.9688 27.8187C81.9037 15.2665 67.4791 7.21273 52.7346 7.32157ZM52.7346 7.32157C63.038 7.21273 73.2702 11.0945 81.2642 17.6971C102.155 34.6753 103.718 66.8178 84.9592 86.1903C76.5034 95.0785 64.8144 100.012 52.6991 100.012C40.5482 100.012 28.9303 95.1148 20.439 86.1903C1.75082 66.8541 3.31409 34.7116 24.205 17.6971C32.199 11.0945 42.4313 7.21273 52.7346 7.32157Z" fill="#D37311"/>
<g opacity="0.6">
<path d="M88.4755 27.7098C62.4329 -6.13772 10.2056 11.3484 9.81483 54.6282C9.81483 63.335 12.3729 71.8966 16.9916 79.2611C13.4743 74.6538 10.8807 69.2121 9.45954 63.4801C4.94739 45.8852 12.1597 26.2587 26.7621 15.9557C46.5516 1.44442 75.3654 6.6322 88.4755 27.7098Z" fill="white"/>
</g>
<path opacity="0.6" d="M24.2192 31.8418C23.5797 31.9143 21.8034 32.7849 22.3718 33.1477C23.2245 33.6919 25.7114 34.5262 26.493 35.5783C28.1628 37.7912 30.4721 39.9315 32.355 40.5845C32.355 40.5845 35.7301 40.5845 39.0342 37.6823C39.0342 37.6823 36.5473 35.9773 34.5577 33.4742C32.5682 30.9711 30.9695 29.1935 30.9695 29.1935L29.7615 30.0642C28.1273 31.225 27.0259 31.4427 25.0364 31.6966C24.7522 31.7329 24.4679 31.7692 24.2192 31.8418Z" fill="#D37311"/>
<path opacity="0.6" d="M47.2059 31.9506C43.6176 32.4948 41.7346 36.0136 40.278 35.542C38.8214 35.0704 37.2227 32.785 37.2227 32.785C37.2227 32.785 41.6281 29.121 44.4347 30.5358L47.2059 31.9506Z" fill="#D37311"/>
<path d="M34.9467 14.1164C28.0798 17.138 19.9455 24.1525 16.2475 30.7353C12.8526 36.7786 10.4375 43.4693 10.1205 49.9442C9.06407 56.527 10.7773 65.4236 12.9729 71.0956C14.452 76.923 19.8029 83.3186 23.96 87.3907C28.1171 91.4628 33.6015 94.1716 39.0871 96.0239C44.5727 97.8763 51.3648 98.6158 57.3438 97.9664C63.3228 97.317 69.7042 95.7002 74.9865 92.3548C80.5486 89.3025 86.2905 83.29 89.9881 77.5705C70.7607 81.0238 49.4999 81.0797 39.0871 70.8797C29.0624 61.0598 26.9181 34.944 34.9467 14.1164Z" fill="#D37311" fill-opacity="0.2"/>
<path d="M51.5759 19.5434C64.8281 18.8903 77.8672 27.0529 83.4452 39.3875C93.7841 61.8437 78.2225 87.9277 53.9208 88.7984C29.5481 89.6691 12.2811 64.7097 21.0922 41.6005C25.8531 28.9031 38.2881 19.8336 51.5759 19.5434ZM51.5759 19.5434C38.3592 19.8699 25.9952 29.0482 21.6962 41.8182C15.5497 59.0503 24.4674 78.4954 41.3081 84.7352C68.5942 94.7843 94.3526 66.8864 82.8412 39.6415C77.7251 27.2343 64.7571 18.9266 51.5759 19.5434Z" fill="#D37311"/>
<path d="M52.6777 89.7055C41.4151 89.7055 30.8986 84.1549 24.3613 74.7226C17.5398 64.9275 16.012 52.4115 20.2755 41.2378C24.9297 28.7581 36.974 19.6523 49.942 18.6728C50.4749 18.6365 51.0079 18.6002 51.5408 18.6002C65.0773 17.9472 78.5071 26.3275 84.2273 38.9523C89.2013 49.7632 88.5262 62.3517 82.4153 72.6184C76.3043 82.8851 65.6457 89.2338 53.9212 89.6692C53.4949 89.7055 53.1041 89.7055 52.6777 89.7055ZM35.1265 82.7038C40.6335 86.259 47.1352 88.1092 53.8502 87.8915C61.4533 87.6376 68.5591 84.6991 74.1726 79.8015C64.9707 87.6376 52.6067 89.8868 41.0243 85.606C38.9281 84.8079 36.974 83.8647 35.1265 82.7038ZM50.0841 20.523C37.7556 21.4662 26.5641 30.1367 22.5493 42.1085C19.6359 50.2348 20.0623 59.0504 23.6862 66.9953C27.3102 74.9402 33.7053 80.9624 41.6283 83.9009C45.3233 85.2432 49.0893 85.9325 52.8198 85.9325C61.4533 85.9325 69.7671 82.341 76.0201 75.5932C84.9378 65.9432 87.2472 52.3026 82.0955 40.0406C77.1926 28.2139 65.1128 20.269 52.5001 20.4504L51.4342 20.4867C50.9368 20.4504 50.5105 20.4867 50.0841 20.523Z" fill="#D37311"/>
<path d="M17.5742 44.5028L17.219 45.1557C16.5084 46.3529 16.5795 47.7677 17.3611 48.4932L16.615 49.7629C15.8334 51.1414 16.011 52.7739 17.0413 53.3906L21.7665 56.2564C22.7968 56.8732 24.2889 56.2927 25.1061 54.9142L25.8521 53.6445C26.8469 53.971 28.0904 53.3906 28.8009 52.1572L29.1562 51.5042C29.9378 50.1619 29.7602 48.5658 28.7299 47.9491L24.9639 46.4617C24.5021 46.2803 24.0758 45.9901 23.685 45.6636L20.8783 43.1968C19.8125 42.5801 18.3558 43.1605 17.5742 44.5028ZM17.894 50.2708L18.4979 49.255L20.2033 49.7266C21.0915 49.9806 21.9086 50.4522 22.5836 51.0689L24.6797 52.9915L24.0758 54.0073C23.6494 54.7328 22.8678 55.0593 22.2994 54.7328L18.1071 52.1934C17.5742 51.867 17.4677 50.9963 17.894 50.2708Z" fill="#D37311"/>
<path d="M22.69 56.6918C22.3348 56.6918 21.9795 56.583 21.6953 56.4016L16.9701 53.5357C15.8332 52.8465 15.6201 51.1052 16.4727 49.6541L17.1478 48.5295C16.4017 47.6952 16.3662 46.2804 17.0767 45.047L17.2899 44.6842L17.432 44.394C18.2491 42.9792 19.8478 42.3262 20.9492 43.0155L23.7914 45.4823C24.1467 45.8088 24.573 46.0627 25.0349 46.2441L28.8008 47.7677C29.9376 48.457 30.1508 50.162 29.3337 51.6131L28.9784 52.2661C28.2679 53.4995 27.0244 54.1162 25.9586 53.8622L25.2835 54.9868C24.8927 55.6761 24.2888 56.2202 23.6138 56.4742C23.294 56.6556 23.0098 56.6918 22.69 56.6918ZM17.7873 44.5028L17.3609 45.2284C16.7214 46.3529 16.757 47.6589 17.4675 48.3482L17.5741 48.457L16.757 49.8355C16.0109 51.1052 16.1885 52.6288 17.1478 53.2093L21.8729 56.0751C22.3348 56.3653 22.9032 56.3653 23.4716 56.1477C24.0756 55.8937 24.6085 55.4221 24.9638 54.8054L25.7809 53.4269L25.923 53.4632C26.8468 53.7897 28.0192 53.173 28.6587 52.0847L29.0139 51.4317C29.76 50.162 29.5824 48.6747 28.6587 48.0942L24.8927 46.5706C24.3954 46.3529 23.9335 46.099 23.5427 45.7362L20.736 43.2694C19.8478 42.7978 18.5333 43.3057 17.7873 44.5028ZM22.7966 55.0594C22.5835 55.0594 22.4058 55.0231 22.2282 54.9143L18.0359 52.3749C17.3964 51.9758 17.2543 50.9964 17.7517 50.1983L17.8583 50.0169L18.4267 49.0737L20.2386 49.5816C21.1624 49.8355 21.9795 50.3071 22.69 50.9601L24.8927 52.9916L24.2533 54.1162C23.898 54.6966 23.3295 55.0594 22.7966 55.0594ZM17.9649 50.4522C17.6807 51.0689 17.7517 51.7582 18.2136 52.0121L22.4058 54.5515C22.8677 54.8417 23.5782 54.5515 23.9335 53.8985L24.4664 52.9916L22.4769 51.1415C21.8019 50.5248 21.0203 50.0894 20.1676 49.8355L18.6044 49.4002L17.9649 50.4522Z" fill="#FCEA1C"/>
<path d="M30.5507 53.0141C31.6911 50.8194 31.7725 48.5835 30.7325 48.0201C29.6924 47.4567 27.9249 48.7791 26.7845 50.9737C25.6442 53.1684 25.5628 55.4043 26.6028 55.9677C27.6428 56.5312 29.4104 55.2088 30.5507 53.0141Z" fill="#D37311"/>
<path d="M27.0958 56.4743C26.8471 56.4743 26.5984 56.4018 26.3852 56.293C25.1418 55.6037 25.1418 53.2094 26.4208 50.7789C26.9892 49.6543 27.7353 48.7474 28.5524 48.1307C29.4051 47.4777 30.2577 47.3326 30.8617 47.6591C31.4657 47.9856 31.8209 48.7837 31.7854 49.872C31.7499 50.8877 31.4301 52.0486 30.8262 53.1369C29.8314 55.2047 28.3037 56.4743 27.0958 56.4743ZM30.1867 48.2395C29.8314 48.2395 29.4406 48.4209 28.9787 48.7474C28.2682 49.2915 27.5932 50.1259 27.0603 51.1417C25.9234 53.3183 25.9944 55.2409 26.7405 55.6763C27.4866 56.0753 29.1208 55.0233 30.2222 52.8829C30.7551 51.8672 31.0749 50.8152 31.0749 49.9082C31.1104 49.1102 30.8972 48.566 30.5419 48.3483C30.4354 48.2758 30.3288 48.2395 30.1867 48.2395Z" fill="#FCEA1C"/>
<path d="M68.7358 70.5869C66.7106 70.5869 64.6144 70.3692 62.5182 69.9702C52.2504 67.9023 32.2477 56.6561 32.0701 56.5472L28.9435 54.7333C28.0198 54.1892 27.5579 53.1734 27.7711 52.085C27.9843 51.033 28.7659 50.2711 29.8318 50.126C29.9383 50.126 30.0805 50.0897 30.187 50.0897H30.2581L30.3292 50.126C30.5779 50.2348 54.2045 62.1704 66.8527 64.8187L80.6379 67.7209L79.7852 68.1925C79.6431 68.3014 75.5218 70.5869 68.7358 70.5869Z" fill="#FCEA1C"/>
<path d="M30.1871 50.4524C30.2582 50.4887 53.9559 62.4968 66.7817 65.1814L79.6076 67.866C79.6076 67.866 75.4863 70.1878 68.7003 70.1878C66.8528 70.1878 64.7921 70.0064 62.5538 69.571C52.2149 67.4669 32.1767 56.2207 32.1767 56.2207L29.0857 54.4068C27.3803 53.391 27.8777 50.7427 29.8318 50.4887C29.9739 50.4887 30.0805 50.4887 30.1871 50.4524ZM30.3292 49.7269H30.1516C30.0095 49.7269 29.9029 49.7269 29.7608 49.7631C28.5883 49.9083 27.629 50.8152 27.4159 52.0124C27.1672 53.2458 27.7001 54.4068 28.766 55.0235L31.857 56.8374C32.6741 57.309 52.1084 68.1925 62.4472 70.2966C64.5434 70.7319 66.6752 70.9496 68.7003 70.9496C75.5929 70.9496 79.7853 68.6278 79.9629 68.519L81.6328 67.5757L79.7497 67.1767L66.9239 64.4921C54.3111 61.8438 30.72 49.9445 30.5069 49.8357L30.3292 49.7269Z" fill="#D37311"/>
<path d="M27.7356 51.831C27.4159 52.7742 28.0554 53.2459 28.9081 53.7538L36.5823 58.0346C36.5823 58.0346 54.3822 67.0679 64.9698 68.8092C75.5218 70.5506 80.2116 67.7571 80.2116 67.7571C80.2116 67.7571 78.8615 68.1199 72.9993 68.0111C67.1371 67.9023 63.0868 66.8865 54.0269 64.093C45.0026 61.2996 28.3396 51.0329 28.3396 51.0329L27.7356 51.831Z" fill="#D37311"/>
<path d="M27.9478 52.2301C27.6281 53.1733 28.0189 54.1891 28.8716 54.697L35.9063 58.6513C35.9063 58.6513 53.2799 68.4827 63.8319 70.2241C74.384 71.9654 79.5356 68.3739 79.5356 68.3739C79.5356 68.3739 78.1855 68.7367 72.3233 68.6278C66.461 68.519 62.4108 67.5032 53.3509 64.7098C44.3266 61.9164 27.9478 52.2301 27.9478 52.2301Z" fill="#D37311"/>
<path d="M85.2557 43.1968L82.449 45.6636C82.0582 45.9901 81.6319 46.2803 81.17 46.4617L77.4041 47.9853C76.3738 48.6021 76.1962 50.1982 76.9778 51.5405L77.3331 52.1935C78.0436 53.3906 79.2871 54.0073 80.2818 53.6808L81.0279 54.9505C81.8095 56.329 83.3372 56.9095 84.3675 56.2927L89.0927 53.4269C90.1229 52.8102 90.3361 51.1777 89.519 49.7992L88.7729 48.5295C89.519 47.804 89.6256 46.3892 88.915 45.192L88.5597 44.539C87.7426 43.1605 86.286 42.5801 85.2557 43.1968ZM87.9913 52.1935L83.7991 54.7328C83.2306 55.0593 82.449 54.7691 82.0227 54.0073L81.4187 52.9916L83.5148 51.0689C84.1899 50.4522 85.007 49.9806 85.8952 49.7266L87.6005 49.255L88.2045 50.2708C88.6663 50.9963 88.5597 51.867 87.9913 52.1935Z" fill="#D37311"/>
<path d="M83.4084 56.6918C83.2308 56.6918 83.0176 56.6555 82.84 56.6193C82.0584 56.4016 81.3123 55.8212 80.8504 55.0231L80.1754 53.8985C79.1096 54.1887 77.8661 53.5357 77.1556 52.3023L76.8003 51.6856C76.4095 50.9964 76.2319 50.2345 76.3029 49.509C76.374 48.7835 76.7293 48.203 77.2977 47.8765L81.0991 46.3166C81.561 46.1353 81.9873 45.8813 82.3426 45.5548L84.794 43.4145H84.6164L85.1848 43.088C85.6467 42.7978 86.1796 42.7252 86.748 42.8703C87.5296 43.088 88.2402 43.6322 88.702 44.4665L89.0573 45.1195C89.7678 46.3529 89.7323 47.7677 88.9862 48.6021L89.6613 49.7267C90.5139 51.1777 90.3007 52.919 89.1639 53.6083L84.4387 56.4742C84.119 56.6193 83.7637 56.6918 83.4084 56.6918ZM80.3531 53.4632L81.1702 54.8417C81.5965 55.5672 82.236 56.1114 82.9466 56.2928C83.4439 56.4016 83.8703 56.3653 84.2611 56.1477L88.9862 53.2818C89.9455 52.7014 90.1231 51.1777 89.377 49.9081L88.5599 48.5295L88.6665 48.4207C89.377 47.7314 89.4481 46.4255 88.7731 45.3009L88.4178 44.6842C87.9915 43.9586 87.352 43.4508 86.6769 43.2694C86.2151 43.1606 85.7888 43.1968 85.398 43.4145L82.5913 45.8813C82.2005 46.2441 81.7386 46.498 81.2412 46.7157L77.4753 48.2393C77.049 48.4933 76.7648 49.0011 76.6937 49.6178C76.6227 50.2708 76.7648 50.9601 77.1201 51.5768L77.4753 52.2298C78.1148 53.3181 79.2872 53.9348 80.2109 53.6083L80.3531 53.4632ZM83.3374 55.0594C83.2308 55.0594 83.1242 55.0594 83.0176 55.0231C82.5913 54.9143 82.165 54.5878 81.9163 54.1162L81.2412 52.9553L83.444 50.9238C84.1545 50.2708 84.9716 49.7992 85.8953 49.5453L87.7072 49.0374L88.3823 50.1983C88.631 50.6699 88.7375 51.1777 88.631 51.6131L89.4481 51.1415L88.4178 52.0847C88.3467 52.1935 88.2402 52.3023 88.098 52.3749L83.9058 54.9143C83.7282 54.9868 83.5505 55.0594 83.3374 55.0594ZM81.6676 53.0279L82.2005 53.9348C82.4137 54.2975 82.7334 54.5878 83.0887 54.6603C83.3374 54.7329 83.5505 54.6966 83.7282 54.5878L87.9559 52.0121C88.1336 51.9033 88.2402 51.7219 88.3112 51.5042C88.4178 51.1415 88.3112 50.7424 88.098 50.3434L87.5651 49.4365L86.0019 49.8718C85.1493 50.1257 84.3677 50.561 83.6926 51.1777L81.6676 53.0279Z" fill="#FCEA1C"/>
<path d="M79.5376 55.9538C80.5776 55.3904 80.4963 53.1545 79.3559 50.9598C78.2155 48.7652 76.448 47.4428 75.408 48.0062C74.368 48.5696 74.4494 50.8055 75.5897 53.0002C76.7301 55.1949 78.4976 56.5173 79.5376 55.9538Z" fill="#D37311"/>
<path d="M79.0037 56.4744C78.5063 56.4744 77.9734 56.2567 77.405 55.8214C76.6233 55.2409 75.8773 54.2977 75.2733 53.1732C74.0298 50.7426 73.9943 48.3483 75.2378 47.6591C76.4812 46.9698 78.4352 48.3483 79.6787 50.7789C80.9222 53.2094 80.9577 55.6037 79.7142 56.293C79.5011 56.4018 79.2524 56.4744 79.0037 56.4744ZM75.5575 48.3121C74.8114 48.7111 74.7404 50.6701 75.8773 52.8467C76.4102 53.8624 77.0852 54.6968 77.7958 55.2409C78.4352 55.7125 79.0037 55.8576 79.359 55.64C80.105 55.2409 80.1761 53.282 79.0392 51.1054C77.9379 48.965 76.3036 47.913 75.5575 48.3121Z" fill="#FCEA1C"/>
<path d="M37.3996 70.5869C30.6136 70.5869 26.4922 68.3014 26.3146 68.1925L25.4619 67.7209L39.2471 64.8187C51.8953 62.1704 75.522 50.2348 75.7707 50.126L75.8417 50.0897H75.9128C76.0549 50.0897 76.1615 50.126 76.2681 50.126C77.2984 50.2711 78.1156 51.033 78.3287 52.085C78.5419 53.1371 78.08 54.1892 77.1563 54.7333L74.0653 56.5472C73.8521 56.6561 53.8494 67.866 43.5816 69.9339C41.5209 70.3692 39.4247 70.5869 37.3996 70.5869Z" fill="#FCEA1C"/>
<path d="M75.948 50.4524C76.0546 50.4524 76.1612 50.4524 76.2678 50.4887C78.2218 50.7427 78.7192 53.4272 77.0139 54.4068L73.9229 56.2207C73.9229 56.2207 53.8846 67.5032 43.5458 69.571C41.343 70.0064 39.2823 70.1878 37.3993 70.1878C30.6133 70.1878 26.4919 67.866 26.4919 67.866L39.3178 65.1814C52.1437 62.4968 75.8769 50.4887 75.948 50.4524ZM75.7704 49.7269L75.5927 49.7994C75.344 49.9083 51.7529 61.8075 39.1757 64.4558L26.3498 67.1767L24.4668 67.5757L26.1366 68.519C26.3143 68.6278 30.5067 70.9496 37.3993 70.9496C39.4599 70.9496 41.5917 70.7319 43.6879 70.2966C53.9912 68.1925 73.4255 57.309 74.2426 56.8374L77.3691 55.0235C78.435 54.4068 78.9324 53.2096 78.7192 52.0124C78.4705 50.8152 77.5823 49.9083 76.3743 49.7631C76.2322 49.7269 76.1256 49.7269 75.9835 49.7269H75.7704Z" fill="#D37311"/>
<path d="M77.7954 50.9966C77.7954 50.9966 61.1324 61.2996 52.108 64.0568C43.0837 66.8502 39.0335 67.866 33.1357 67.9748C27.2734 68.0837 25.9233 67.7209 25.9233 67.7209C25.9233 67.7209 30.6131 70.478 41.2007 68.7729C51.7528 67.0316 69.5882 57.9983 69.5882 57.9983L77.2624 53.7175C78.1151 53.2459 78.7546 52.738 78.4349 51.7948L77.7954 50.9966Z" fill="#D37311"/>
<path d="M78.1508 52.1577C78.1508 52.1577 61.8075 61.8802 52.7477 64.6373C43.7234 67.4308 39.6731 68.4466 33.7753 68.5554C27.9131 68.6642 26.563 68.3014 26.563 68.3014C26.563 68.3014 31.7147 71.8567 42.2667 70.1516C52.8188 68.4103 70.1923 58.5789 70.1923 58.5789L77.227 54.6246C78.0797 54.153 78.4705 53.1009 78.1508 52.1577Z" fill="#D37311"/>
<path d="M46.2451 50.9603C45.8899 50.3073 41.7331 49.5455 41.1647 50.0171C40.8094 50.3073 43.6872 51.3231 43.474 51.577C43.0832 52.1574 43.2964 54.1164 43.474 55.3135C43.6516 56.5106 44.824 57.6715 45.8899 57.8529C46.9557 58.0706 47.1333 57.1636 47.6307 57.0548C48.0926 56.946 49.1939 57.4538 49.8689 56.5469C50.5084 55.6763 51.6808 54.5517 50.8992 53.6448C50.1176 52.7379 49.5492 52.5565 48.6965 52.4839C47.8083 52.4839 46.7425 51.8672 46.2451 50.9603C46.2807 50.9966 46.2807 50.9603 46.2451 50.9603Z" fill="#D37311"/>
<path d="M46.2106 58.7961C46.0685 58.7961 45.9264 58.7961 45.7487 58.7598C44.3276 58.4696 42.9065 56.9823 42.6578 55.4949C42.4802 54.334 42.3381 52.9192 42.5157 51.9398C42.3736 51.8672 42.196 51.7584 42.0183 51.6858C40.9525 51.178 40.3841 50.8877 40.313 50.1985C40.2775 49.872 40.4196 49.5455 40.6683 49.3278C40.8459 49.1827 41.4144 48.7111 44.0789 49.219C46.6014 49.6906 46.9211 50.3073 47.0277 50.525L47.0632 50.5613C47.4185 51.178 48.2001 51.6133 48.7686 51.6496C49.8344 51.7221 50.6515 51.976 51.5752 53.1006C52.6766 54.4429 51.5397 55.8577 50.8647 56.7283C50.7581 56.8734 50.6515 57.0185 50.5449 57.1274C49.7989 58.1431 48.662 58.0343 48.058 57.998C47.987 57.998 47.9159 57.998 47.8448 57.9617C47.8093 57.998 47.7738 57.998 47.7738 58.0343C47.4896 58.3245 47.0277 58.7961 46.2106 58.7961ZM44.221 52.0849C44.1145 52.3388 44.0789 53.4997 44.3632 55.1684C44.5053 55.9665 45.3579 56.8734 46.0685 57.0185C46.3172 57.0548 46.3527 57.0185 46.6014 56.8009C46.8145 56.6195 47.0632 56.3293 47.4896 56.2567C47.7383 56.2204 48.0225 56.2204 48.2712 56.2567C48.8396 56.3293 49.0528 56.293 49.1949 56.1116C49.3015 55.9665 49.408 55.8214 49.5502 55.6763C50.012 55.0959 50.4383 54.5154 50.2607 54.334C49.6567 53.6085 49.337 53.536 48.6264 53.4997C47.4185 53.4271 46.1751 52.629 45.5711 51.577C45.3579 51.4319 44.825 51.2868 44.221 51.1417C44.2921 51.2142 44.2921 51.3231 44.3276 51.4319C44.3987 51.577 44.3632 51.8672 44.221 52.0849ZM44.1855 52.0849C44.1855 52.1212 44.1855 52.1212 44.1855 52.0849V52.0849ZM46.2816 50.9603L45.5356 51.3956C45.5356 51.3956 45.5356 51.3956 45.5356 51.4319L46.2816 50.9603Z" fill="#FCEA1C"/>
<path d="M62.4108 62.7508L62.2332 68.3012L60.6344 63.694C60.6344 63.694 60.2792 72.3642 59.2133 73.1985C58.1475 74.0329 53.5289 73.9603 53.5289 73.9603C53.5289 73.9603 48.9104 74.0329 47.8446 73.1985C46.7787 72.3642 46.4235 63.694 46.4235 63.694L44.8247 68.3012L44.6471 62.7508L42.1602 65.798L43.297 70.6954C43.297 70.6954 44.4339 72.219 44.6116 73.5613C44.7892 74.9035 44.6116 77.4429 44.6116 77.4429L48.0222 80.5264C49.088 81.5059 50.6512 81.7236 51.9302 81.0706C52.925 80.5627 54.0619 80.5627 55.0566 81.0706C56.3356 81.7236 57.8988 81.5059 58.9646 80.5264L60.8831 78.7852C61.8068 77.9508 62.3042 76.7536 62.3042 75.484C62.3042 74.7947 62.3042 74.0692 62.3753 73.525C62.5529 72.1828 63.6898 70.6591 63.6898 70.6591L64.4003 67.6119C64.6846 66.451 64.4003 65.2539 63.6543 64.347L62.4108 62.7508Z" fill="#D37311"/>
<path d="M61.6289 61.6262L64.1158 64.6734L62.9789 69.5708C62.9789 69.5708 61.842 71.0944 61.6644 72.4367C61.5933 72.9808 61.5933 73.7063 61.5933 74.3956C61.5933 75.629 61.0959 76.8262 60.1722 77.6605L58.2537 79.4018C57.1879 80.3813 55.6247 80.5989 54.3457 79.946C53.351 79.4381 52.2141 79.4381 51.2193 79.946C49.9048 80.5989 48.3771 80.3813 47.3113 79.4018L45.3928 77.6605C44.4691 76.8262 43.9717 75.629 43.9717 74.3956C43.9717 73.7063 43.9717 72.9808 43.9006 72.4367C43.723 71.0944 42.5861 69.5708 42.5861 69.5708L41.9466 66.9226C41.6269 65.5078 41.9466 64.0567 42.8704 62.9684L43.9006 61.6987" fill="#FCEA1C"/>
<path d="M45.6416 62.5694C45.6416 62.5694 45.9969 71.2395 47.0627 72.0739C48.1285 72.9083 52.7471 72.8357 52.7471 72.8357C52.7471 72.8357 57.3657 72.9083 58.4315 72.0739C59.4973 71.2395 59.8526 62.5694 59.8526 62.5694" fill="#FCEA1C"/>
<path d="M60.6693 61.5899L60.7049 59.776C60.7049 59.4858 61.0957 59.3407 61.2733 59.5584L62.4102 60.9369C62.5523 61.1183 64.6129 63.6576 65.0748 64.2381C65.1458 64.3106 65.1458 64.4194 65.1458 64.5283L65.0748 64.8548L63.9024 69.7159L63.8668 69.9335L63.7247 70.1149C62.9786 71.1307 62.4812 72.2552 62.5168 73.5612C62.5168 74.3593 62.5168 75.2299 62.2681 75.9918C61.9839 76.8261 61.522 77.5879 60.8825 78.2046L59.2483 79.6557C57.9693 80.9254 56.2639 81.5058 54.5586 80.9254C53.9902 80.7077 53.4217 80.345 52.7823 80.345C52.2493 80.3087 51.752 80.4901 51.2901 80.744C50.4019 81.1068 49.3716 81.1431 48.4834 80.8529C47.7018 80.6352 47.0268 80.091 46.4584 79.5106L44.8952 78.0233C43.9004 77.0075 43.3675 75.5564 43.4741 74.1416C43.5096 73.6338 43.5096 73.0533 43.4741 72.5455C43.3675 71.566 42.8701 70.6228 42.3372 69.7884L42.2661 69.7159V69.6433L41.8398 67.5393L41.7332 66.9951C41.449 65.7254 41.7332 64.3106 42.5148 63.2586C42.9411 62.6782 43.4741 62.1703 43.9359 61.6261M45.286 62.4242L45.3925 62.0615C45.4991 61.735 45.9965 61.7712 46.032 62.134C46.1386 63.5851 46.2807 65.0724 46.4584 66.4147C46.6005 67.6844 46.7781 68.9903 47.0623 70.1875C47.1689 70.5865 47.2755 71.0944 47.4887 71.4209C47.5242 71.4934 47.5597 71.5297 47.6308 71.566C47.8084 71.6385 48.0216 71.7111 48.2347 71.7474C49.7269 72.0376 51.2546 72.0376 52.8178 72.0013C54.381 71.965 55.8731 71.9288 57.3653 71.566C57.5785 71.4934 57.7916 71.4572 57.9693 71.3483L57.9337 71.3846C58.1469 70.9856 58.218 70.5502 58.289 70.1149C58.8574 66.8137 58.964 62.8233 59.1061 59.2681C59.1417 58.9054 59.6035 58.8328 59.7456 59.1593L60.8115 62.2066M59.1061 63.2586C59.0351 63.0772 59.1772 62.8595 59.3548 62.8233L60.4207 62.6782C60.6338 62.6419 60.8115 62.8233 60.7759 63.0047C60.6338 65.544 60.4207 67.9746 59.9233 70.4777C59.7101 71.3846 59.568 75.5927 58.6088 75.9918C58.0048 76.2457 57.3653 76.3908 56.7258 76.4634C55.3758 76.6085 54.0968 76.6447 52.8178 76.6085C51.0414 76.5722 49.1229 76.5359 47.3821 75.9555C46.6005 75.0486 46.8136 72.6906 46.636 72.5817C46.4584 72.4366 46.3163 72.219 46.2097 72.0013C45.5346 70.26 45.4991 68.3374 45.357 66.4872C45.286 65.3264 45.2504 64.1292 45.2149 62.9684C45.2149 62.7507 45.3925 62.6056 45.6057 62.6419C45.8189 62.6782 45.9255 62.8958 45.8544 63.0772M43.8649 61.6261C42.5859 63.2586 41.5556 64.6734 42.1595 66.85L42.3016 67.3579L42.8701 69.4257L42.799 69.2805C43.2609 69.8973 43.6517 70.514 43.9714 71.2395C44.2912 71.9288 44.3622 72.7631 44.3978 73.5249C44.3978 73.7789 44.4333 74.1054 44.4333 74.3593C44.4688 75.3751 44.8952 76.3908 45.6412 77.0801L47.24 78.4949C47.7018 78.8939 48.1992 79.3292 48.7676 79.4743C49.4782 79.692 50.2243 79.5832 50.8282 79.2567C52.0006 78.6762 53.4217 78.64 54.5941 79.2204C55.2336 79.5106 55.9442 79.5832 56.5837 79.3655C57.1521 79.2204 57.614 78.7851 58.0403 78.386L59.6035 76.935C60.2785 76.282 60.6338 75.3751 60.5983 74.4319C60.5983 73.7426 60.5983 73.0896 60.6338 72.4004C60.7759 71.1307 61.4154 70.0061 62.126 68.9903L61.9483 69.3531L63.0852 64.4557L63.2984 65.3264L61.1312 62.6782C60.9891 62.4968 61.0602 62.2428 61.2733 62.1703L62.126 61.8801C62.3391 61.8075 62.5523 61.9526 62.5523 62.2066" fill="#D37311"/>
<path d="M69.7663 49.0014C70.7967 46.8972 70.1216 44.2126 69.7663 41.782C69.411 39.3514 64.2949 35.7961 61.3815 34.3087C59.5696 33.4017 56.8339 32.7487 54.9864 32.386C53.7073 32.132 52.3572 32.132 51.0782 32.386C49.2307 32.7487 46.495 33.3655 44.683 34.3087C41.7341 35.7961 36.5825 39.3514 36.2627 41.782C35.9074 44.2126 34.8771 46.7521 36.2627 49.0014C36.8667 50.2348 38.5721 51.6497 39.2116 52.4478C39.0339 53.4636 38.9629 53.7175 38.6076 54.1529C38.2878 54.697 38.3234 54.5156 38.1457 54.951C37.6128 56.257 38.1457 57.0188 37.9325 57.8532C37.7904 58.7602 38.5721 59.3406 39.2471 59.776C39.5669 59.9574 39.78 60.2839 39.8156 60.6829C39.9577 61.9164 40.2774 64.6373 40.6683 64.8187C40.988 64.9638 41.6986 65.5079 42.196 65.907C42.5158 66.1609 42.9421 66.1972 43.2974 66.0158L45.8555 66.4149C46.7082 65.9796 47.3832 65.254 47.1345 66.2335C46.8858 67.2856 46.6371 68.3014 46.6371 68.7004V71.3124C46.6371 71.9655 47.1345 72.5096 47.7385 72.5096H58.1129C58.7169 72.5096 59.2143 71.9655 59.2143 71.3124V68.7004C59.2143 68.3376 58.9656 67.2856 58.7169 66.2335C58.4682 65.254 59.3919 64.3833 60.2446 64.8187L62.554 65.9796C62.9093 66.1609 63.3356 66.1247 63.6554 65.8707C64.1528 65.4717 64.8634 64.9275 65.1831 64.7824C65.5739 64.601 65.9292 61.8801 66.0358 60.6467C66.0713 60.2476 66.2845 59.9211 66.6043 59.7397C67.2793 59.3406 69.7308 57.6718 69.5887 56.8012C69.411 55.5314 68.5939 56.1119 68.0609 54.8059C67.8833 54.3705 67.6701 54.044 67.4925 53.7901C67.1372 53.3547 67.1372 52.6655 67.4925 52.2301C68.2741 51.4683 69.1623 50.2348 69.7663 49.0014Z" fill="#D37311"/>
<path d="M37.0089 51.2507C37.7194 51.1781 38.0392 50.6339 38.0747 49.0014C38.1102 47.6228 35.9785 47.6228 36.2272 46.4619C36.5825 44.8294 41.6987 42.4351 44.6475 41.4193C46.1753 40.9114 48.3425 40.5123 50.119 40.2584C52.0375 39.9682 53.9916 39.9682 55.8746 40.2584C57.6155 40.5123 59.8183 40.9114 61.3461 41.4193C64.2594 42.4351 69.4111 44.8294 69.7309 46.4619C70.0861 48.0945 69.5177 48.3484 68.4874 49.7633C67.8834 50.5977 67.5991 50.9967 67.5991 52.2665C67.5991 52.7381 67.2438 54.3343 67.5636 54.6245C67.7768 54.8059 67.9544 55.0236 68.1321 55.3138C68.665 56.1845 69.3045 55.5315 69.4822 56.3659C69.6243 56.9826 67.3504 58.3612 66.6754 58.6514C66.3556 58.7965 66.1425 59.0142 66.1069 59.2681C65.9648 60.1025 65.645 61.9527 65.2542 62.0616C64.9345 62.1704 64.2239 62.5332 63.7265 62.8234C63.4067 63.0048 62.9804 63.0411 62.6251 62.896L60.3157 62.0978C59.463 61.8076 58.5393 62.3881 58.788 63.0411C59.0367 63.6941 59.2854 64.4559 59.2854 64.7099V66.4875C59.2854 66.9228 58.788 67.2856 58.184 67.2856C55.5904 67.2856 50.4032 67.2856 47.8096 67.2856C47.2056 67.2856 46.7082 66.9228 46.7082 66.4875V64.7099C46.7082 64.4559 46.9569 63.7666 47.2056 63.0411C47.4543 62.3881 46.5306 61.8076 45.6779 62.0978L43.3685 62.896C43.0132 63.0048 42.5869 63.0048 42.2671 62.8234C41.7697 62.5695 41.0591 62.1704 40.7394 62.0616C40.3486 61.9164 39.9933 60.1025 39.8867 59.2681C39.8512 59.0142 39.638 58.7965 39.3182 58.6514C38.6432 58.3612 36.7246 57.4905 36.7246 56.8738C36.7602 55.8217 38.9629 51.6497 39.1051 53.3185C39.1406 53.7539 37.4352 56.5473 38.3234 57.3091C39.2116 58.071 40.6683 58.6877 40.9881 58.1798C41.0947 58.0347 40.2064 57.3454 39.7446 56.0757C39.3538 55.0236 40.2064 53.2822 40.0999 53.2097C39.6735 52.992 39.3182 53.0646 39.0695 53.2822C39.0695 53.2822 36.8667 52.1576 36.2628 51.3232L37.0089 51.2507Z" fill="#FCEA1C"/>
<path d="M35.9067 48.8563C34.8408 46.7158 35.5158 44.2489 35.7645 41.9997C36.0843 40.1495 37.7542 38.8435 39.0332 37.6463C41.1649 35.9049 43.4743 34.1999 46.0679 33.2929C48.7326 32.386 51.5038 31.733 54.3106 32.0595C56.7265 32.386 59.107 33.039 61.3097 34.091C63.7968 35.4333 69.6235 39.17 69.9788 42.1448C70.7604 46.8247 70.8314 48.4209 67.7404 52.1213C67.5273 52.3752 67.4917 52.7743 67.7404 53.0282C67.8826 53.2096 68.0602 53.391 68.1668 53.6087C68.3444 53.8626 68.451 54.1892 68.6287 54.4068C68.7353 54.5519 68.9129 54.5157 69.055 54.5882C69.5879 54.7333 69.8722 55.35 69.9077 55.8942C69.8722 56.511 69.4814 57.0551 69.1616 57.4542C68.6997 58.0346 68.2023 58.5063 67.6694 59.0141C67.4562 59.2318 67.0654 59.522 66.8167 59.6672C66.7812 59.7034 66.7456 59.7397 66.7101 59.8123C66.568 60.9369 66.5325 61.989 66.2838 63.1136C66.1772 63.6578 65.964 64.347 65.3955 64.601C64.2586 65.3265 63.3349 66.5237 61.8782 65.7982C61.5229 65.6531 59.9241 64.9275 59.6044 64.7824C59.6399 64.7824 59.6044 64.8187 59.6399 64.7461C59.8531 65.5442 60.1373 66.4512 60.2083 67.2856C60.2439 68.0474 61.3097 66.7051 61.3097 67.5032C61.3453 68.773 59.1425 72.2557 57.899 72.2194C54.5593 72.2557 51.0419 72.292 47.6667 72.292C46.2811 72.3645 44.1493 68.7004 44.1849 67.2856C44.6823 66.7051 45.6771 68.3376 45.6771 68.0837C45.7481 67.1767 45.4994 65.6168 45.7126 64.7461C45.7126 64.7461 45.7126 64.7824 45.7481 64.8187C45.7837 64.8549 45.7837 64.8549 45.8192 64.8549C45.8547 64.8549 45.8903 64.8549 45.8903 64.8187H45.8547L45.7837 64.8549L44.8599 65.254C44.5757 65.3628 43.723 65.7256 43.4388 65.8344C42.7282 66.1247 41.8755 65.9796 41.2715 65.4717C40.8807 65.1452 40.4899 64.8187 40.0635 64.5647L40.028 64.5284C39.8504 64.4559 39.6017 64.1656 39.5661 64.0931C39.2464 63.5852 39.1753 62.9322 39.1043 62.4243C38.9977 61.5536 38.9266 60.7192 38.8911 59.8848C38.9266 59.522 38.5003 59.3769 38.2516 59.1955C37.6831 58.7965 37.1146 58.3611 36.6172 57.817C36.333 57.4905 36.0488 57.164 36.0133 56.7286C36.0133 55.8217 36.4751 55.3501 37.0081 54.7333C37.3278 54.2254 37.541 53.645 37.9673 53.2096C38.2516 52.9194 38.2516 52.3752 38.0029 52.0487C37.7897 51.7948 37.7186 51.686 37.541 51.4683C36.9725 50.5976 36.3685 49.7632 35.9067 48.8563ZM68.0957 56.6561C68.3089 56.4021 68.5221 56.1482 68.6642 55.8942C68.6997 55.8579 68.6997 55.8217 68.6997 55.8217C68.6997 55.8217 68.6997 55.8217 68.6997 55.7854C68.6997 55.7128 68.6642 55.6403 68.6642 55.5677H68.6997C68.6287 55.5314 68.5576 55.5314 68.4866 55.4952C67.6339 55.2775 67.5273 54.298 67.1009 53.7175C66.6035 53.1371 66.5325 52.2301 66.9943 51.6134C67.9181 50.5251 68.8774 49.4004 69.4103 48.0944C70.0498 46.208 69.4458 44.1764 69.1261 42.2536C68.8418 40.5486 66.2838 38.916 64.8981 38.0091C63.5125 37.1747 62.0558 36.3766 60.5992 35.7598C57.0818 34.5264 53.2092 33.7283 49.5142 34.5627C47.3114 34.9617 45.1441 35.5059 43.1545 36.5942C40.8807 37.7551 38.4292 39.0612 36.7949 41.0565C36.5462 41.383 36.3685 41.7095 36.2975 42.0722C36.262 42.2174 36.1909 42.689 36.1554 42.8341C35.7645 44.7568 35.2671 46.8972 36.1554 48.7111C36.7238 49.7269 37.4344 50.6702 38.1805 51.5408C38.6779 52.0125 38.82 52.8469 38.3937 53.391C38.0029 53.8626 37.8607 54.4068 37.5765 54.9147C37.3989 55.2412 37.1502 55.5314 37.0436 55.7491C36.937 55.9305 36.8659 56.3658 36.9015 56.511C37.2923 57.2365 38.216 57.7081 38.9621 58.1072C39.5661 58.3611 40.1701 58.7965 40.3122 59.522C40.5609 60.6467 40.703 61.9164 41.1649 62.9685C41.1294 62.9322 41.1294 62.8959 40.9873 62.7871C40.9518 62.7508 40.8807 62.7145 40.9162 62.7508L40.9518 62.7871C41.4136 63.0047 41.911 63.295 42.3374 63.5852C42.4084 63.6215 42.5861 63.7303 42.6571 63.8029C42.6927 63.8029 42.7282 63.8029 42.7282 63.7666C43.4032 63.4038 44.3625 62.8959 45.0376 62.5694C46.2455 61.989 47.7733 62.6782 48.1641 63.9843C48.3062 64.4559 48.3062 64.9638 48.1641 65.4354C48.022 66.0158 47.8443 66.6688 47.7733 67.2493C47.7733 67.2856 47.7733 67.2856 47.7733 67.2856C47.7733 67.6121 47.8088 69.4623 47.8088 69.7525C47.8088 69.6437 47.7377 69.5711 47.6312 69.5348C50.8998 69.4985 54.7369 69.5348 58.0056 69.6074C57.9345 69.6074 57.899 69.6799 57.8635 69.7162C57.8635 69.2083 57.899 67.7209 57.899 67.2856C57.8634 66.7414 57.6147 65.7982 57.4726 65.254C57.1173 63.8754 58.2187 62.4243 59.6399 62.4243C60.1373 62.4243 60.5992 62.642 61.0255 62.8596L62.8019 63.7666L62.8375 63.8029C62.8375 63.8029 62.873 63.8391 62.9085 63.8391H62.9441C63.5125 63.4764 64.0455 63.0773 64.6494 62.7871C64.685 62.7508 64.5784 62.8234 64.5784 62.8234C64.5429 62.8596 64.5073 62.8959 64.4718 62.8959C64.4363 62.9322 64.4007 62.9685 64.3652 63.0047C64.7916 61.9527 64.9337 60.6467 65.1468 59.4858C65.2534 58.9779 65.5732 58.5425 65.9995 58.2886C66.2482 58.1435 66.2127 58.1798 66.3904 58.0346C66.9943 57.7081 67.5983 57.2365 68.0957 56.6561Z" fill="#D37311"/>
<path d="M50.19 62.8594L52.0019 56.91C52.3217 55.8942 53.3875 55.8942 53.7072 56.8737L55.6968 62.7505C56.0521 63.8026 55.2349 64.8546 54.4533 64.3467L52.9967 63.4398L51.398 64.4193C50.6874 64.8909 49.8703 63.8751 50.19 62.8594Z" fill="#D37311"/>
<path d="M51.0425 64.9272C50.7938 64.9272 50.5451 64.8547 50.3319 64.6733C49.799 64.2742 49.6214 63.4761 49.8345 62.7506L51.6464 56.8012C51.8241 56.1845 52.2859 55.7855 52.8544 55.7855H52.8899C53.4228 55.7855 53.8847 56.1482 54.0978 56.7649L56.0874 62.6418C56.336 63.3673 56.1229 64.1654 55.6255 64.6007C55.2347 64.9272 54.7373 64.9635 54.311 64.7096L53.032 63.9115L51.6464 64.7821C51.4333 64.8547 51.2556 64.9272 51.0425 64.9272ZM50.5451 62.9683C50.403 63.4399 50.5806 63.8752 50.7938 64.0566C50.9359 64.1654 51.078 64.2017 51.2556 64.0929L53.032 63.0045L54.6663 64.0203C54.7373 64.0566 54.9149 64.1654 55.1281 63.984C55.3768 63.8026 55.5189 63.331 55.3768 62.8594L53.3873 56.9826C53.2807 56.6924 53.103 56.511 52.8899 56.511C52.6767 56.511 52.4991 56.6924 52.3925 57.0189L50.5451 62.9683Z" fill="#FCEA1C"/>
<path d="M43.5813 51.6495C43.5813 52.5201 43.7589 53.3543 43.901 54.1886L43.9721 54.5151C44.0431 55.1317 44.5404 55.7483 45.1088 55.966L44.7891 56.0385C44.9667 55.8572 45.1443 55.6395 45.393 55.4582C45.9614 54.9866 46.7429 54.9141 47.4534 55.0229L47.7731 55.0592L47.4889 55.2043L47.9862 54.5513C48.1283 54.3337 48.3059 54.1161 48.4125 53.8984L48.448 54.2974C48.1283 53.8984 47.9152 53.9347 47.4178 53.8622C46.9205 53.7896 46.4232 53.6083 45.9969 53.3543C45.1799 52.9191 44.2563 51.976 44.0076 51.2868L43.7944 51.178L43.8655 51.1417C43.7589 51.3231 43.6879 51.5044 43.5813 51.6495ZM43.5813 51.6495C43.6524 51.4682 43.6879 51.2505 43.6879 51.0692L43.7589 51.1054L44.0076 51.178C44.576 51.9397 45.322 52.5563 46.139 52.9191C46.8495 53.2455 47.3823 53.2092 48.1638 53.3543C48.5546 53.4632 48.8033 53.7896 49.0519 54.0798C48.8743 54.4062 48.6612 54.769 48.448 55.0229C48.377 55.168 47.9507 55.7483 47.8441 55.8572C47.7376 55.8572 47.3468 55.8209 47.2402 55.8209L46.8495 55.7846C46.139 55.7121 45.5706 56.0385 45.1088 56.5463L44.9667 56.6914L44.7891 56.6189C44.0786 56.2924 43.6168 55.6758 43.4392 54.9503C43.4037 54.7327 43.4037 54.4788 43.3682 54.2612C43.4392 53.3906 43.4037 52.4838 43.5813 51.6495Z" fill="#D37311"/>
<path d="M43.5101 51.7948C43.5811 51.8674 43.7232 51.9399 43.8298 51.9399L43.1548 51.6134C43.2969 51.6497 43.4035 51.686 43.5101 51.7948ZM43.5101 51.7948C43.5811 51.8674 43.7232 51.9399 43.8298 51.9399L43.1548 51.6134C43.2969 51.6497 43.4035 51.686 43.5101 51.7948Z" fill="#D37311"/>
<path d="M45.18 50.0897C44.6826 50.3799 44.3629 50.8515 44.0432 51.2505L44.1853 50.779L43.6524 50.6339C44.1497 50.525 44.7182 50.4162 45.18 50.0897ZM45.18 50.0897C44.7537 50.3799 44.4695 50.9241 44.0432 51.2505L43.7234 51.577C43.6524 51.3594 43.4747 50.9603 43.3682 50.7427L43.6524 50.6339C44.1497 50.3799 44.7537 50.3437 45.18 50.0897Z" fill="#D37311"/>
<path d="M45.2161 49.0013C44.7187 48.0218 41.4502 47.4051 40.6686 48.1307C40.1712 48.566 41.4146 50.8152 41.3436 51.577C41.2725 52.5927 41.0949 53.7899 41.3436 55.6037C41.6278 57.3813 43.2265 59.1588 44.6832 59.4853C46.1753 59.7755 46.424 58.4333 47.099 58.2882C47.774 58.1431 49.3017 58.8686 50.2254 57.5264C51.1492 56.1841 52.7479 54.5154 51.6821 53.1006C50.6162 51.6858 49.7991 51.4319 48.5912 51.3593C47.3477 51.2505 45.8556 50.3436 45.2161 49.0013Z" fill="#D37311"/>
<path d="M43.8653 35.5421L43.7231 35.6509C47.4891 39.9679 51.2194 44.2848 54.9498 48.6018C58.5736 52.9913 61.5935 57.4533 66.1054 60.9359M66.141 60.9722C63.2632 56.3287 59.6039 52.3383 55.8025 48.4204C52.4629 44.9015 47.6312 39.6777 44.2561 36.0137" fill="#D37311"/>
<path d="M43.8656 35.5421L43.7235 35.6509C47.6315 39.7139 51.3619 43.9583 55.0568 48.2027C58.645 52.5559 61.7715 57.2719 66.1058 60.9359C61.4517 57.7435 58.1121 52.955 54.5239 48.6743C50.829 44.3937 47.2052 40.113 43.688 35.6509L43.8656 35.5421Z" fill="#D37311"/>
<path d="M66.1413 60.9722C62.9793 56.4014 59.1779 52.4109 55.3054 48.4567C51.5395 44.3937 47.8091 40.2944 44.2563 36.05C48.2354 39.8954 52.0369 43.8858 55.8028 47.9489C59.6753 51.903 63.4412 56.0749 66.1413 60.9722Z" fill="#D37311"/>
<path d="M65.289 51.2505L65.0403 54.5517C64.9692 55.4223 63.5481 55.2409 62.9797 55.8576C62.2691 56.5832 62.3047 57.9617 61.2388 57.8891L56.7269 57.5264C54.8084 57.3813 53.3162 55.64 53.4939 53.6448L53.7425 50.3436C53.8136 49.4366 55.4834 49.872 56.0518 49.2915C56.7624 48.566 56.4782 46.9698 57.544 47.0424L62.056 47.4051C63.9745 47.514 65.4311 49.2915 65.289 51.2505Z" fill="#FCEA1C"/>
<path d="M65.2898 55.3135C64.9701 55.64 64.4727 55.8213 64.1174 55.8939C63.8332 55.9665 63.5135 56.0753 63.3714 56.2204C63.1937 56.4018 63.0516 56.7283 62.9095 57.0185C62.6608 57.5989 62.27 58.5058 61.2042 58.397L56.6922 58.0342C54.454 57.8529 52.7487 55.8576 52.9263 53.5359L53.175 50.2347C53.246 49.2552 54.2053 49.1464 54.8092 49.0376C55.0935 49.0013 55.5198 48.9288 55.6264 48.8199C55.804 48.6385 55.9106 48.2758 56.0172 47.913C56.1948 47.2963 56.479 46.3168 57.5449 46.3894L62.0568 46.7521C63.1582 46.8247 64.1174 47.3688 64.828 48.2032C65.5385 49.0376 65.8938 50.1259 65.7872 51.2505L65.5385 54.5517C65.5385 54.9144 65.432 55.1321 65.2898 55.3135ZM62.5187 55.4949L62.5542 55.4223C62.874 55.0958 63.3714 54.9507 63.7622 54.8419C64.153 54.733 64.4372 54.6242 64.4372 54.5154L64.6859 51.2142C64.7569 50.4161 64.5082 49.618 63.9753 49.0013C63.4424 48.3846 62.7319 47.9856 61.9503 47.9493L57.4383 47.5865C57.3317 47.5865 57.2606 47.5865 57.0475 48.2758C56.9054 48.7474 56.7633 49.2552 56.3725 49.6543C55.9816 50.0533 55.4132 50.1259 54.9158 50.1984C54.6671 50.2347 54.2763 50.3073 54.2053 50.3798L53.9566 53.681C53.8145 55.3498 55.0579 56.8008 56.6922 56.9459L61.2042 57.3087C61.4174 57.345 61.5239 57.2724 61.8082 56.5832C62.0213 56.2204 62.199 55.8214 62.5187 55.4949Z" fill="#D37311"/>
<path d="M63.1574 56.0753C63.1574 56.0753 59.4981 47.4052 56.6559 47.2963C53.7781 47.1875 63.4416 47.6228 63.4416 47.6228C63.4416 47.6228 65.1469 50.1259 65.1825 50.5613C65.218 50.9966 65.3246 53.7173 65.3246 53.7173L63.1574 56.0753Z" fill="#D37311"/>
<path d="M49.6572 70.9495H48.769C48.3782 70.9495 48.0229 70.6593 48.0229 70.3328V69.4621C48.0229 68.918 48.5559 67.4669 49.1954 67.4669C49.8348 67.4669 50.3678 68.918 50.3678 69.4621V70.3328C50.3678 70.6593 50.048 70.9495 49.6572 70.9495Z" fill="#FCEA1C"/>
<path d="M49.6563 70.9495H49.0523C48.6615 70.9858 48.1641 70.9495 47.9865 70.4779C47.9154 70.2965 47.9509 70.0426 47.9154 69.8612C47.9154 69.6435 47.8799 69.4621 47.8799 69.2445C47.9865 68.5189 48.2352 67.612 48.9812 67.2855C49.8694 67.0679 50.2602 68.3013 50.4023 68.9543C50.4734 69.317 50.4023 69.8249 50.4023 70.1877C50.4379 70.623 50.0471 70.9858 49.6563 70.9495ZM49.6563 70.9495C50.0471 70.9495 50.4379 70.623 50.3313 70.1877L50.2958 69.571C50.2602 68.9905 49.976 68.4464 49.6207 68.0111C49.4786 67.8297 49.3365 67.6846 49.1233 67.7208C48.626 68.0111 48.3773 68.7366 48.1996 69.2807C48.1286 69.571 48.1286 70.0063 48.093 70.2965C48.0575 70.5142 48.2352 70.7318 48.4483 70.8407C48.8036 70.9858 49.301 70.9132 49.6563 70.9495Z" fill="#D37311"/>
<path d="M51.9661 71.421H51.0424C50.6161 71.421 50.2964 71.0582 50.2964 70.6592V69.5347C50.2964 68.8454 50.8293 66.9954 51.5043 66.9954C52.1793 66.9954 52.7122 68.8454 52.7122 69.5347V70.6592C52.7477 71.0945 52.3924 71.421 51.9661 71.421Z" fill="#FCEA1C"/>
<path d="M51.9657 71.4213C51.717 71.4213 51.1485 71.4576 50.8998 71.4213C50.509 71.3487 50.2248 71.0222 50.2248 70.6232C50.2248 70.1878 50.1182 69.5711 50.1537 69.1358C50.2248 68.3739 50.7577 66.2335 51.8591 66.8502C52.1433 67.0316 52.2499 67.2856 52.3565 67.5032C52.6763 68.1925 52.8184 68.9544 52.7829 69.6799C52.7473 69.9339 52.7473 70.5143 52.7118 70.7683C52.6763 71.1673 52.321 71.4576 51.9657 71.4213ZM51.9657 71.4213C52.4986 71.4213 52.7829 70.9134 52.7118 70.4055C52.6763 70.0064 52.6763 69.3897 52.5697 68.9907C52.4631 68.5916 51.8236 66.7414 51.3262 67.3581C50.8643 67.9386 50.5801 68.773 50.4735 69.5348C50.438 69.7525 50.4024 70.3692 50.4024 70.6232C50.3669 70.9497 50.6156 71.3125 50.9354 71.385C51.1485 71.4576 51.717 71.4213 51.9657 71.4213Z" fill="#D37311"/>
<path d="M54.7728 71.421H53.8491C53.4228 71.421 53.103 71.0582 53.103 70.6592V69.5347C53.103 68.8454 53.6359 66.9954 54.3109 66.9954C54.9859 66.9954 55.5188 68.8454 55.5188 69.5347V70.6592C55.5543 71.0945 55.1991 71.421 54.7728 71.421Z" fill="#FCEA1C"/>
<path d="M54.7733 71.4213C54.5246 71.4213 53.9562 71.4576 53.7075 71.4213C53.3166 71.3487 53.0324 71.0222 53.0324 70.6232C53.0324 70.1878 52.9258 69.5711 52.9614 69.1358C53.0324 68.3739 53.5653 66.2335 54.6667 66.8502C54.951 67.0316 55.0575 67.2856 55.1641 67.5032C55.4839 68.1925 55.626 68.9544 55.5905 69.6799C55.555 69.9339 55.555 70.5143 55.5194 70.7683C55.4839 71.1673 55.1286 71.4576 54.7733 71.4213ZM54.7733 71.4213C55.3062 71.4213 55.5905 70.9134 55.5194 70.4055C55.4839 70.0064 55.4839 69.3897 55.3773 68.9907C55.2707 68.5916 54.6312 66.7414 54.1338 67.3581C53.6719 67.9386 53.3877 68.773 53.2811 69.5348C53.2456 69.7525 53.2101 70.3692 53.2101 70.6232C53.1745 70.9497 53.4232 71.3125 53.743 71.385C53.9562 71.4576 54.5246 71.4213 54.7733 71.4213Z" fill="#D37311"/>
<path d="M57.2954 70.9496H56.4072C56.0164 70.9496 55.6611 70.6593 55.6611 70.3328V69.4622C55.6611 68.9181 56.194 67.467 56.8335 67.467C57.473 67.467 58.0059 68.9181 58.0059 69.4622V70.3328C58.0059 70.6593 57.6862 70.9496 57.2954 70.9496Z" fill="#FCEA1C"/>
<path d="M57.2959 70.9495H56.6919C56.3011 70.9858 55.8038 70.9495 55.6261 70.4779C55.5906 70.2965 55.5906 70.0426 55.5551 69.8612C55.5551 69.6435 55.5195 69.4621 55.5195 69.2445C55.6261 68.5189 55.8748 67.612 56.6209 67.2855C57.5091 67.0679 57.8999 68.3013 58.042 68.9543C58.113 69.317 58.042 69.8249 58.042 70.1877C58.0775 70.623 57.6867 70.9858 57.2959 70.9495ZM57.2959 70.9495C57.6867 70.9495 58.0775 70.623 57.9709 70.1877L57.9354 69.571C57.8999 68.9905 57.6156 68.4464 57.2604 68.0111C57.1183 67.8297 56.9762 67.6846 56.763 67.7208C56.2656 68.0111 56.0169 68.7366 55.8393 69.2807C55.7682 69.571 55.7682 70.0063 55.7327 70.2965C55.6972 70.5142 55.8748 70.7318 56.088 70.8407C56.4432 70.9858 56.9762 70.9132 57.2959 70.9495Z" fill="#D37311"/>
<path d="M49.1235 71.7478H48.2356C47.8449 71.7478 47.4897 71.9654 47.4897 72.2555V72.9808C47.4897 73.416 48.0225 74.6128 48.6618 74.6128C49.3011 74.6128 49.8339 73.416 49.8339 72.9808V72.2555C49.8339 71.9654 49.5142 71.7478 49.1235 71.7478Z" fill="#FCEA1C"/>
<path d="M49.1239 71.7478C48.6621 71.7841 47.6675 71.6027 47.632 72.2556L47.6675 72.5095L47.703 72.7634C47.7385 73.3075 48.0938 73.8878 48.449 74.2142C48.9818 74.6132 49.4436 73.7427 49.6567 73.3437C49.7988 73.0898 49.7988 72.6183 49.8344 72.3281C49.8699 71.9291 49.4436 71.7478 49.1239 71.7478ZM49.1239 71.7478C49.4436 71.7478 49.9054 71.9291 49.8699 72.3281C49.9054 72.6546 49.9764 73.1261 49.8699 73.4525C49.7278 74.2142 48.9818 75.3024 48.1293 74.6495C47.5965 74.178 47.3123 73.4888 47.3833 72.7997C47.3833 72.6546 47.4188 72.4007 47.4188 72.2556C47.5965 71.4576 48.5556 71.7841 49.1239 71.7478Z" fill="#D37311"/>
<path d="M51.8949 72.1106H50.9712C50.5448 72.1106 50.2251 72.4008 50.2251 72.7636V73.6705C50.2251 74.251 50.758 75.7746 51.433 75.7746C52.1081 75.7746 52.641 74.251 52.641 73.6705V72.7636C52.641 72.4008 52.3212 72.1106 51.8949 72.1106Z" fill="#FCEA1C"/>
<path d="M51.8956 72.1105C51.3627 72.1468 50.4745 71.9654 50.2968 72.6184C50.2613 72.7998 50.3324 73.0537 50.3324 73.2351C50.3679 73.6704 50.4034 74.0332 50.5811 74.396C50.7587 74.795 51.0074 75.3755 51.4337 75.4843C51.6114 75.4843 51.7535 75.3392 51.8956 75.1578C52.2509 74.6862 52.5351 74.1058 52.5706 73.4891L52.6061 72.8361C52.7127 72.437 52.3219 72.0743 51.8956 72.1105ZM51.8956 72.1105C52.3219 72.0743 52.7482 72.437 52.6772 72.9086C52.6772 73.3077 52.7838 73.8156 52.6772 74.2146C52.5351 74.9039 52.1443 76.2098 51.2206 75.9922C50.439 75.6657 50.1903 74.6862 50.0837 73.9244C50.0482 73.6705 50.1192 73.4891 50.1192 73.2714C50.1547 73.09 50.1547 72.7998 50.1903 72.6184C50.3679 72.1468 50.8653 72.0743 51.2916 72.1105H51.8956Z" fill="#D37311"/>
<path d="M55.0214 72.1106H54.0976C53.6713 72.1106 53.3516 72.4008 53.3516 72.7635V73.6705C53.3516 74.2509 53.8845 75.7745 54.5595 75.7745C55.2345 75.7745 55.7674 74.2509 55.7674 73.6705V72.7635C55.803 72.4008 55.4477 72.1106 55.0214 72.1106Z" fill="#FCEA1C"/>
<path d="M55.022 72.1105C54.4891 72.1468 53.6009 71.9654 53.4233 72.6184C53.3878 72.7998 53.4588 73.0537 53.4588 73.2351C53.4944 73.6704 53.5299 74.0332 53.7075 74.396C53.8852 74.795 54.0983 75.3755 54.5602 75.4843C54.7378 75.4843 54.8799 75.3392 55.022 75.1578C55.3773 74.6862 55.6615 74.1058 55.6971 73.4891L55.7326 72.8361C55.8392 72.437 55.4484 72.0743 55.022 72.1105ZM55.022 72.1105C55.4484 72.0743 55.8747 72.437 55.8036 72.9086C55.8036 73.3077 55.9102 73.8156 55.8036 74.2146C55.6615 74.9039 55.2707 76.2098 54.347 75.9922C53.5654 75.6657 53.3167 74.6862 53.2101 73.9244C53.1746 73.6705 53.2457 73.4891 53.2457 73.2714C53.2812 73.09 53.2812 72.7998 53.3167 72.6184C53.4944 72.1468 53.9917 72.0743 54.4181 72.1105H55.022Z" fill="#D37311"/>
<path d="M57.6865 71.7478H56.7986C56.4079 71.7478 56.0527 71.9654 56.0527 72.2555V72.9808C56.0527 73.416 56.5855 74.6128 57.2248 74.6128C57.8641 74.6128 58.3969 73.416 58.3969 72.9808V72.2555C58.4324 71.9654 58.0772 71.7478 57.6865 71.7478Z" fill="#FCEA1C"/>
<path d="M57.6859 71.7478C57.2241 71.7841 56.2295 71.6027 56.194 72.2556L56.2295 72.5095L56.265 72.7634C56.3006 73.3075 56.6558 73.8878 57.011 74.2142C57.5438 74.6132 58.0056 73.7427 58.2188 73.3437C58.3608 73.0898 58.3608 72.6183 58.3964 72.3281C58.4674 71.9291 58.0411 71.7478 57.6859 71.7478ZM57.6859 71.7478C58.0056 71.7478 58.4674 71.9291 58.4319 72.3281C58.4674 72.6546 58.5385 73.1261 58.4319 73.4525C58.2898 74.2142 57.5438 75.3024 56.6913 74.6495C56.1585 74.178 55.8743 73.4888 55.9453 72.7997C55.9453 72.6546 55.9809 72.4007 55.9809 72.2556C56.1585 71.4576 57.1531 71.7841 57.6859 71.7478Z" fill="#D37311"/>
<path d="M37.187 20.0152C31.7866 17.4757 31.1115 28.0689 25.9243 28.1052C23.615 28.3954 17.0066 31.334 18.5344 34.0185L21.4122 35.0706L21.4832 35.1432C23.082 36.6669 24.3611 37.3561 25.7112 39.17C26.8836 41.3105 30.9339 43.5234 35.8369 43.5234C35.5526 43.0155 32.1064 43.5234 35.5526 42.689C42.0544 40.8751 45.1454 32.6763 53.1749 33.3655V33.3293C61.2044 32.64 63.8335 41.4556 70.3353 43.2695C73.7816 44.1039 70.6551 44.249 70.3708 44.249C75.2738 44.2853 79.4307 41.3105 80.6031 39.1338C81.9532 37.3199 83.2323 36.6669 84.8311 35.1069L84.9021 35.0343L87.78 33.9823C89.3077 31.2977 82.6993 28.3592 80.39 28.0689C75.2383 28.0689 74.5632 17.4757 69.1629 20.0152C69.5892 17.7296 66.3561 14.5009 63.2296 12.9772C62.2348 12.5056 60.9557 13.0135 60.707 13.993C60.2807 15.6255 58.6108 18.4915 56.941 21.1398C55.129 24.042 50.9721 24.0058 49.1957 21.0672C47.5969 18.4189 46.0336 15.5892 45.5718 13.9567C45.3231 12.9772 44.0796 12.5056 43.0492 12.9409C40.0648 14.2832 37.0093 17.0766 37.187 20.0152Z" fill="#FCEA1C"/>
<path fill-rule="evenodd" clip-rule="evenodd" d="M36.6621 19.3435C36.7863 17.5111 37.9447 15.8823 39.2832 14.6823C40.0648 13.9567 40.953 13.34 41.9123 12.8321C42.765 12.3968 43.6177 11.9977 44.5769 12.3242C45.323 12.5781 45.7849 13.1223 45.9981 13.8479C46.2468 14.646 46.6021 15.4078 46.9929 16.1697C47.4903 17.1129 47.9877 18.0561 48.5206 18.9631C48.6461 19.1736 48.7671 19.3911 48.8887 19.6097C49.249 20.2573 49.6147 20.9147 50.1194 21.43C51.0787 22.4458 52.5354 22.8811 53.921 22.5909C54.5961 22.4458 55.2356 22.1193 55.7685 21.6477C56.287 21.1461 56.6588 20.5161 57.0287 19.8892C57.1404 19.7 57.252 19.511 57.3673 19.3259C57.4774 19.1385 57.5889 18.9502 57.701 18.7609C58.5656 17.3006 59.4658 15.7801 60.032 14.1744C60.0442 14.1386 60.0563 14.103 60.0683 14.0678C60.2996 13.3886 60.4951 12.8142 61.2044 12.4693C61.9505 12.1065 62.7322 12.1428 63.4783 12.5056C65.1481 13.34 66.7114 14.5372 67.9193 15.952C68.6843 16.8833 69.4248 18.0135 69.5157 19.2398C69.634 19.2016 69.7537 19.1689 69.8734 19.1445C72.5886 18.5554 74.2014 21.1774 75.4552 23.2157C75.5139 23.3112 75.5719 23.4054 75.6291 23.4979C75.6628 23.553 75.6966 23.6083 75.7305 23.6638C76.4113 24.7783 77.138 25.9681 78.1872 26.7629C78.6846 27.162 79.182 27.4159 79.8215 27.5248C80.025 27.5594 80.2248 27.5867 80.4222 27.6136C80.8453 27.6714 81.2572 27.7276 81.669 27.8513C83.2678 28.3229 84.8666 29.0847 86.2522 30.0642C87.3181 30.8261 88.6326 32.0595 88.3129 33.5469C88.2418 33.8372 88.1352 34.1999 87.8155 34.345C87.7348 34.3862 87.6426 34.4157 87.5455 34.4468C87.4716 34.4705 87.3949 34.4951 87.3181 34.5264C87.0534 34.626 86.7942 34.72 86.5383 34.8128C86.1416 34.9566 85.7528 35.0976 85.364 35.252L85.0719 35.3514C85.0768 35.3527 85.0798 35.3556 85.0798 35.3608C85.0798 35.4092 84.9534 35.5059 84.8482 35.5866C84.7955 35.6269 84.7482 35.6632 84.7245 35.6873L84.7243 35.6875C84.5823 35.8325 84.4757 35.9413 84.3336 36.0501L83.6941 36.5943L83.6376 36.6409C82.7342 37.3859 81.8669 38.101 81.1361 39.0249C80.9836 39.2221 80.8399 39.4192 80.6974 39.6147C80.3418 40.1026 79.9939 40.5799 79.5373 41.0202C78.8267 41.6732 78.0095 42.29 77.1568 42.7616C75.0962 43.9588 72.7157 44.6118 70.3353 44.6118C69.7668 44.6118 69.7668 43.7048 70.3353 43.7048V43.6679C70.0837 43.6015 69.8328 43.5338 69.5892 43.4509C67.7896 42.8172 66.2911 41.6917 64.8903 40.4251L63.5772 39.6923C63.5772 39.6923 63.6913 39.732 63.9435 39.5395C63.6672 39.2741 63.393 39.0062 63.1192 38.7387C62.7304 38.3589 62.3424 37.98 61.9505 37.6101C60.7781 36.5217 59.5346 35.4697 58.1134 34.7078C56.6183 33.9445 54.9932 33.6126 53.3313 33.712C53.2669 33.7551 53.1896 33.7771 53.1039 33.7646C51.3629 33.6195 49.6576 33.8734 48.0943 34.599C46.0679 35.5607 44.3625 37.0609 42.665 38.5541C42.2493 38.9197 41.8342 39.2849 41.4149 39.6417C40.3135 40.5486 39.2121 41.4556 37.9686 42.1086C37.3646 42.4351 36.6896 42.7253 36.05 42.943C35.9975 42.9608 35.945 42.9782 35.8925 42.995C36.0076 43.0607 36.1097 43.1491 36.1922 43.2695C36.3698 43.5597 36.1211 43.9588 35.8013 43.9588C35.1618 43.9588 34.4868 43.9225 33.8473 43.8499C31.6089 43.596 29.3351 42.9067 27.4521 41.6007C26.7415 41.0928 26.0665 40.5123 25.569 39.8231C24.9295 38.8798 24.219 38.0817 23.3663 37.3561C23.1531 37.1747 22.931 36.9934 22.709 36.812C22.4869 36.6306 22.2649 36.4492 22.0517 36.2678L21.3056 35.6148C21.2885 35.5973 21.2219 35.5209 21.1733 35.4626C20.8717 35.378 20.5591 35.2485 20.2484 35.1197C20.0177 35.0241 19.7881 34.929 19.5647 34.8529C19.4048 34.7985 19.2538 34.7441 19.1028 34.6897C18.9518 34.6353 18.8008 34.5809 18.6409 34.5264C18.4633 34.4902 18.2856 34.4176 18.1435 34.2725C17.7527 33.8009 17.7527 32.9665 17.9659 32.4223C18.4988 30.9712 20.0266 29.9917 21.3411 29.3024C22.6557 28.6131 24.1479 27.9601 25.6401 27.7061C25.7081 27.698 25.7757 27.6903 25.8428 27.6826C26.3721 27.6222 26.8766 27.5646 27.381 27.3071C27.9495 27.0169 28.4114 26.5815 28.8377 26.1099C29.4731 25.3863 29.9908 24.5597 30.5065 23.7363C30.7405 23.3626 30.9741 22.9896 31.2181 22.6272C31.9287 21.5389 32.6393 20.4868 33.7762 19.7249C34.6838 19.1168 35.6819 19.0635 36.6621 19.3435ZM21.2485 35.4901C21.2494 35.4963 21.235 35.4958 21.2028 35.4697C21.2315 35.4708 21.2476 35.4838 21.2485 35.4901ZM34.2711 42.7274C34.0056 42.2403 34.1041 42.7923 34.2025 42.7253C34.2025 42.7273 34.2024 42.729 34.2022 42.7305C34.2089 42.7276 34.22 42.7253 34.2381 42.7253C34.2484 42.7253 34.2595 42.7261 34.2711 42.7274ZM33.5161 42.7726C33.6463 42.5802 33.9254 42.4952 34.1315 42.4351C34.4276 42.3383 34.7276 42.2537 35.0276 42.169C35.6276 41.9997 36.2277 41.8304 36.7961 41.5644C37.6133 41.2016 38.3594 40.73 39.07 40.2221C40.14 39.4759 41.1142 38.6123 42.0911 37.7462C42.4441 37.4333 42.7975 37.1201 43.1558 36.812C44.5059 35.6511 45.927 34.5264 47.5614 33.7646C49.2655 32.9834 51.1057 32.654 52.9489 32.7765C52.9863 32.7642 53.0263 32.7549 53.0683 32.7488C55.2001 32.5674 57.2962 33.0753 59.1437 34.1999C60.8452 35.2184 62.256 36.5995 63.6665 37.9804C63.9667 38.2744 64.267 38.5683 64.57 38.8588C65.1517 38.0751 66.0118 36.5638 67.2092 33.6558C69.8383 27.2708 65.2907 23.4253 65.2907 23.4253C66.8539 18.4915 61.2759 13.8479 61.2759 13.8479C61.2759 13.8479 61.2759 13.7311 61.2782 13.5889C61.1009 13.8443 61.0001 14.1723 60.9034 14.4869C60.8424 14.6856 60.783 14.8789 60.707 15.0451C60.3517 15.8432 59.9609 16.6413 59.5346 17.4031C59.0372 18.2738 58.5398 19.1445 58.0068 20.0152C57.9259 20.1487 57.8471 20.2823 57.7688 20.415C57.4003 21.0396 57.042 21.647 56.5146 22.1556C54.4895 24.0783 51.1853 23.9695 49.3378 21.8654C48.8485 21.2775 48.4757 20.6183 48.1062 19.9647C48.0197 19.8116 47.9333 19.6588 47.8456 19.5073C47.7135 19.2665 47.5815 19.0283 47.4501 18.7913C47.0866 18.1355 46.7282 17.4889 46.3889 16.8227C45.9981 16.0971 45.6428 15.3353 45.3586 14.5734C45.3202 14.4726 45.286 14.3735 45.2528 14.2771C45.071 13.7498 44.9181 13.3064 44.2572 13.1223C43.55 12.9339 42.8694 13.3162 42.2614 13.6576C42.1669 13.7107 42.0742 13.7628 41.9833 13.8116C41.2017 14.2469 40.4201 14.7911 39.745 15.4441C38.5645 16.5786 37.5197 18.025 37.5392 19.7154C37.8325 20.0302 37.4136 20.6408 36.9383 20.4142C36.2277 20.0877 35.4105 19.9426 34.6644 20.2691C33.9538 20.5593 33.4209 21.1398 32.959 21.7202C32.4032 22.4248 31.9301 23.1822 31.456 23.9411C31.0513 24.5889 30.6459 25.2378 30.1878 25.856C29.264 27.1257 28.0916 28.3229 26.4928 28.5405C25.7112 28.6494 25.0006 28.7582 24.2545 29.0122C23.2952 29.3387 22.3715 29.774 21.4832 30.2819C20.5344 30.8355 18.3251 32.1482 18.8319 33.5904C19.1235 33.6988 19.4152 33.8042 19.7068 33.9097C20.1331 34.0639 20.5595 34.2181 20.9858 34.3813L21.3056 34.4902C21.4836 34.5681 21.6253 34.7018 21.7696 34.838C21.8268 34.8921 21.8845 34.9465 21.9451 34.9981C22.3478 35.385 22.782 35.7397 23.2163 36.0945C23.4334 36.2718 23.6505 36.4492 23.8637 36.6306C24.5032 37.1747 25.1072 37.7915 25.6401 38.4445C25.7458 38.5848 25.8452 38.7251 25.9439 38.8644C26.1771 39.1935 26.4064 39.5172 26.706 39.8231C28.4943 41.5648 31.0283 42.4582 33.5161 42.7726Z" fill="#D37311"/>
<path d="M22.8352 31.1058C22.0985 31.1894 20.0522 32.1923 20.707 32.6102C21.6892 33.2371 24.5541 34.1982 25.4545 35.4101C27.378 37.9593 30.0382 40.4249 32.2074 41.1771C32.2074 41.1771 36.0954 41.1771 39.9016 37.8339C39.9016 37.8339 37.0367 35.8698 34.7448 32.9863C32.4529 30.1028 30.6112 28.0551 30.6112 28.0551L29.2197 29.0581C27.3371 30.3953 26.0684 30.6461 23.7765 30.9386C23.4491 30.9804 23.1216 31.0222 22.8352 31.1058Z" fill="white"/>
<path d="M49.3153 31.2311C45.1817 31.858 43.0126 35.9116 41.3346 35.3683C39.6566 34.8251 37.8149 32.1923 37.8149 32.1923C37.8149 32.1923 42.8898 27.9715 46.123 29.6013L49.3153 31.2311Z" fill="white"/>
</g>
<defs>
<filter id="filter0_d_1193_19037" x="-4.3869e-05" y="2.79849" width="105.602" height="105.602" filterUnits="userSpaceOnUse" color-interpolation-filters="sRGB">
<feFlood flood-opacity="0" result="BackgroundImageFix"/>
<feColorMatrix in="SourceAlpha" type="matrix" values="0 0 0 0 0 0 0 0 0 0 0 0 0 0 0 0 0 0 127 0" result="hardAlpha"/>
<feOffset dy="2.40004"/>
<feGaussianBlur stdDeviation="4.80007"/>
<feComposite in2="hardAlpha" operator="out"/>
<feColorMatrix type="matrix" values="0 0 0 0 0.00908203 0 0 0 0 0.00908203 0 0 0 0 0.00908203 0 0 0 1 0"/>
<feBlend mode="normal" in2="BackgroundImageFix" result="effect1_dropShadow_1193_19037"/>
<feBlend mode="normal" in="SourceGraphic" in2="effect1_dropShadow_1193_19037" result="shape"/>
</filter>
<filter id="filter1_d_1193_19037" x="6" y="5.1983" width="93.6016" height="100.801" filterUnits="userSpaceOnUse" color-interpolation-filters="sRGB">
<feFlood flood-opacity="0" result="BackgroundImageFix"/>
<feColorMatrix in="SourceAlpha" type="matrix" values="0 0 0 0 0 0 0 0 0 0 0 0 0 0 0 0 0 0 127 0" result="hardAlpha"/>
<feOffset dy="4.80007"/>
<feComposite in2="hardAlpha" operator="out"/>
<feColorMatrix type="matrix" values="0 0 0 0 0 0 0 0 0 0 0 0 0 0 0 0 0 0 0.25 0"/>
<feBlend mode="normal" in2="BackgroundImageFix" result="effect1_dropShadow_1193_19037"/>
<feBlend mode="normal" in="SourceGraphic" in2="effect1_dropShadow_1193_19037" result="shape"/>
</filter>
<linearGradient id="paint0_linear_1193_19037" x1="52.8007" y1="9.9986" x2="52.8007" y2="96.3999" gradientUnits="userSpaceOnUse">
<stop stop-color="#FFC64D"/>
<stop offset="0.485" stop-color="#EDD195"/>
<stop offset="1" stop-color="#E4B44D"/>
</linearGradient>
</defs>
</svg>
