<svg width="17" height="12" viewBox="0 0 17 12" fill="none" xmlns="http://www.w3.org/2000/svg">
<g filter="url(#filter0_d_1846_22676)">
<path d="M6.03513 1.55023C6.56038 1.55023 7.05196 1.63317 7.50988 1.79904C7.98126 1.97767 8.49641 3.45136 8.87351 3.75758C9.25062 3.42584 9.59069 1.93301 10.0755 1.74162C10.5604 1.55023 11.0856 1.45454 11.6513 1.45454C12.2304 1.45454 12.7759 1.55661 13.2877 1.76076C13.7994 1.97767 14.2439 2.26475 14.621 2.622C15.0116 2.99202 15.3146 3.41945 15.5301 3.9043C15.759 4.38915 15.8735 4.9059 15.8735 5.45454C15.8735 6.00319 15.759 6.51993 15.5301 7.00478C15.3146 7.48963 15.0116 7.91068 14.621 8.26794C14.2439 8.63795 13.7994 8.92503 13.2877 9.12918C12.7759 9.34609 12.2304 9.45454 11.6513 9.45454C11.0991 9.45454 10.5806 9.35885 10.0957 9.16746C9.62435 8.98883 9.25062 7.15151 8.87351 6.83253C8.50988 7.15151 8.03513 8.98883 7.55028 9.16746C7.0789 9.35885 6.57385 9.45454 6.03513 9.45454C5.45601 9.45454 4.91055 9.34609 4.39877 9.12918C3.90045 8.92503 3.46274 8.64433 3.08564 8.28708C2.70853 7.92982 2.41223 7.50877 2.19675 7.02392C1.98126 6.55183 1.87351 6.04146 1.87351 5.49282C1.87351 4.94417 1.98126 4.42743 2.19675 3.94258C2.41224 3.47049 2.70853 3.05582 3.08564 2.69856C3.46274 2.3413 3.90045 2.0606 4.39877 1.85645C4.91055 1.65231 5.45601 1.55023 6.03513 1.55023ZM7.67149 7.23444C8.06015 6.66799 8.29018 6.42425 8.60762 5.49282C8.29018 4.42425 8.29018 4.42425 7.65129 3.21531C7.28765 2.92184 6.93749 2.73684 6.60079 2.66028C6.26409 2.59649 5.94759 2.60287 5.65129 2.67942C5.355 2.76873 4.995 2.72408 4.75257 2.92823C4.51015 3.14513 4.22436 3.3257 4.03581 3.59364C3.86073 3.87434 3.63052 4.20622 3.53625 4.49968C3.44197 4.79314 3.21045 5.1866 3.21045 5.45454C3.21045 5.70972 3.48968 6.15004 3.65129 6.36694C3.82638 6.58385 4.05211 7.06858 4.29454 7.23444C4.55043 7.40031 5.11742 7.70015 5.41372 7.82775C5.90063 8.03742 6.18056 7.97762 6.7826 7.82775C7.29335 7.62022 7.38886 7.68071 7.67149 7.23444ZM12.9038 2.92822C12.8769 2.91547 12.7691 2.88357 12.5806 2.83253C12.4055 2.79425 12.1967 2.75598 11.9543 2.7177C11.7119 2.69218 11.0312 2.9585 10.8067 3.21531C9.73599 4.44019 9.59147 4.75885 9.45685 5.45454C9.32223 6.15023 9.74557 6.59649 10.0957 7.23444C10.3908 7.7536 10.6849 8.1204 11.3696 8.26794C11.5581 8.25518 12.9459 8.45932 13.0806 8.34449C13.318 8.16045 14.2085 7.52908 14.2826 7.33014C14.4712 6.81977 14.9523 6.20733 15.0466 5.49282C15.0601 5.03349 14.5253 4.41509 14.3969 4.09501C14.1814 3.55836 13.3664 3.14735 12.9038 2.92822Z" fill="#432A0C"/>
<path d="M7.61724 1.51572L7.61725 1.51569L7.61307 1.51417C7.11956 1.33541 6.5928 1.24725 6.03513 1.24725C5.41955 1.24725 4.83581 1.35592 4.28651 1.57504L4.28651 1.57502L4.28391 1.57609C3.75225 1.79389 3.28253 2.09467 2.87726 2.47861C2.47193 2.86261 2.15279 3.30923 1.92111 3.81676L1.91988 3.81953C1.68658 4.34444 1.57053 4.90326 1.57053 5.49282C1.57053 6.0818 1.68637 6.63489 1.92048 7.14832C2.15178 7.6683 2.47088 8.12204 2.87726 8.50703C3.2821 8.89056 3.75125 9.1911 4.28222 9.40885C4.83248 9.6418 5.41775 9.75752 6.03513 9.75752C6.60917 9.75752 7.15189 9.65563 7.66048 9.44972C7.78565 9.40212 7.88411 9.31365 7.9584 9.22963C8.03649 9.14133 8.10751 9.0353 8.17197 8.92511C8.30065 8.70512 8.42316 8.43345 8.5356 8.17253C8.56982 8.09311 8.60302 8.01493 8.63541 7.93866C8.71252 7.75707 8.78502 7.58635 8.8558 7.43556C8.86053 7.42547 8.86523 7.41554 8.86989 7.40577C8.87303 7.4129 8.87618 7.42013 8.87935 7.42744C8.95005 7.59033 9.02117 7.77818 9.09685 7.9781C9.11955 8.03806 9.14266 8.0991 9.16629 8.16087C9.26577 8.42095 9.37429 8.69332 9.49121 8.91398C9.54979 9.02454 9.61549 9.13187 9.68964 9.22175C9.76077 9.30795 9.85797 9.40071 9.9861 9.44992C10.508 9.65567 11.0639 9.75752 11.6513 9.75752C12.2682 9.75752 12.853 9.64198 13.4029 9.4094C13.9474 9.19177 14.424 8.88473 14.8294 8.48791C15.2481 8.10397 15.574 7.65094 15.8055 7.131C16.0531 6.60565 16.1765 6.04567 16.1765 5.45454C16.1765 4.86341 16.0531 4.30343 15.8055 3.77808C15.5737 3.25752 15.2477 2.79834 14.8294 2.40205C14.4242 2.0182 13.9487 1.71184 13.4059 1.4818L13.4059 1.48174L13.3999 1.47934C12.8506 1.26023 12.2669 1.15156 11.6513 1.15156C11.0508 1.15156 10.4875 1.25328 9.96429 1.4598C9.74411 1.54671 9.58793 1.75369 9.47822 1.93183C9.36022 2.12343 9.25326 2.35547 9.15674 2.57507C9.12898 2.63825 9.10215 2.70019 9.07599 2.76061C9.00787 2.91793 8.94421 3.06493 8.87993 3.19671C8.87231 3.21234 8.86484 3.22738 8.85754 3.24184C8.84812 3.22636 8.83845 3.21022 8.82851 3.1934C8.75379 3.0669 8.67729 2.9254 8.5958 2.77467C8.56239 2.71286 8.52813 2.6495 8.49282 2.58498C8.37516 2.37005 8.2472 2.14522 8.11503 1.96084C7.99282 1.79036 7.82714 1.59526 7.61724 1.51572ZM7.42166 7.06303L7.42149 7.06292L7.41553 7.07233C7.2855 7.27764 7.22488 7.32358 7.16837 7.35417C7.12976 7.37507 7.08154 7.39406 6.99514 7.42498C6.98365 7.42909 6.97165 7.43336 6.95913 7.43781C6.88633 7.46371 6.79616 7.49578 6.68887 7.53885C6.39301 7.61232 6.20894 7.65381 6.04401 7.65979C5.89023 7.66537 5.7432 7.63975 5.53355 7.54947C5.25293 7.42863 4.70541 7.13902 4.4631 6.98264C4.40003 6.93817 4.31357 6.82879 4.20255 6.65603C4.17747 6.61701 4.15035 6.57332 4.12213 6.52786C4.04697 6.40678 3.96404 6.27317 3.89114 6.18174C3.8176 6.08261 3.7179 5.93336 3.63771 5.78273C3.54821 5.61459 3.51343 5.49982 3.51343 5.45454C3.51343 5.38865 3.54641 5.27562 3.618 5.10242C3.63491 5.0615 3.65451 5.01614 3.67511 4.96847C3.72792 4.84623 3.78729 4.70882 3.82471 4.59235C3.88999 4.38913 4.03547 4.16016 4.19171 3.91422C4.22359 3.86405 4.25591 3.81317 4.28809 3.76166C4.35962 3.66176 4.45358 3.57107 4.56938 3.47335C4.60779 3.44095 4.65415 3.40347 4.70347 3.3636C4.78529 3.29745 4.87524 3.22473 4.95046 3.15771C5.00626 3.11198 5.08776 3.08294 5.23024 3.05983C5.2602 3.05498 5.29666 3.05011 5.33724 3.04471C5.45395 3.02915 5.60464 3.00906 5.7322 2.97146C5.97744 2.90894 6.24495 2.90195 6.53888 2.95693C6.80297 3.01802 7.09427 3.16386 7.41309 3.41302C7.71508 3.98456 7.8611 4.26311 7.97065 4.524C8.07581 4.77445 8.14802 5.0102 8.28944 5.48576C8.04876 6.16983 7.86562 6.43006 7.58691 6.82608C7.53541 6.89925 7.48065 6.97706 7.42166 7.06303ZM13.1011 7.94994C13.0396 7.99572 12.9842 8.0369 12.9366 8.0731C12.9035 8.07609 12.8543 8.07746 12.7885 8.07625C12.648 8.07367 12.4651 8.06018 12.2726 8.04275C12.1442 8.03111 12.0166 8.01822 11.8976 8.00619C11.8383 8.0002 11.7811 7.99442 11.7271 7.98913C11.6473 7.98131 11.5741 7.97453 11.5139 7.97011C11.4783 7.96748 11.438 7.96491 11.4009 7.96447C11.1224 7.8999 10.9356 7.79603 10.7884 7.66457C10.6304 7.52347 10.5029 7.33745 10.3602 7.08663C10.2828 6.94568 10.2017 6.81317 10.1275 6.69196C10.114 6.67003 10.1009 6.64848 10.0879 6.62731C10.0013 6.48512 9.92701 6.35945 9.86794 6.23567C9.75396 5.9968 9.7028 5.77828 9.75431 5.5121C9.81828 5.18151 9.87954 4.96488 10.0423 4.6862C10.2131 4.3939 10.4995 4.02714 11.0348 3.41471L10.8067 3.21531L11.0348 3.41471C11.0994 3.3408 11.2715 3.23174 11.4906 3.14019C11.5933 3.09728 11.6936 3.06358 11.7779 3.04248C11.82 3.03195 11.8551 3.02528 11.8826 3.02181C11.9027 3.01927 11.9146 3.01896 11.9197 3.01897C12.1494 3.05542 12.3454 3.09146 12.5087 3.12695C12.5985 3.1513 12.6676 3.17068 12.7168 3.18525C12.7422 3.19276 12.7606 3.19851 12.7731 3.20265C12.7768 3.20387 12.7794 3.20479 12.7812 3.20542C13.0096 3.3137 13.3072 3.46163 13.572 3.64267C13.8488 3.83184 14.0428 4.02624 14.1157 4.20787C14.1588 4.31539 14.2299 4.43484 14.2967 4.54298C14.3202 4.58108 14.3437 4.61864 14.3672 4.65619C14.4162 4.73432 14.4651 4.8124 14.5137 4.89517C14.5845 5.01558 14.6451 5.13041 14.6869 5.23668C14.7264 5.3369 14.7429 5.41408 14.7439 5.47062C14.7013 5.76935 14.5785 6.05829 14.4299 6.35075C14.3903 6.42851 14.3472 6.50956 14.3032 6.59204C14.1936 6.79775 14.0792 7.01234 14.0052 7.20699C14.0023 7.21078 13.9977 7.21654 13.9909 7.2244C13.9691 7.24943 13.9361 7.28279 13.8915 7.32398C13.8026 7.40598 13.6842 7.50357 13.5555 7.60476C13.3864 7.73778 13.2302 7.85397 13.1011 7.94994Z" stroke="white" stroke-width="0.605963"/>
</g>
<defs>
<filter id="filter0_d_1846_22676" x="1.26758" y="0.848572" width="15.2119" height="10.4239" filterUnits="userSpaceOnUse" color-interpolation-filters="sRGB">
<feFlood flood-opacity="0" result="BackgroundImageFix"/>
<feColorMatrix in="SourceAlpha" type="matrix" values="0 0 0 0 0 0 0 0 0 0 0 0 0 0 0 0 0 0 127 0" result="hardAlpha"/>
<feOffset dy="1.21193"/>
<feComposite in2="hardAlpha" operator="out"/>
<feColorMatrix type="matrix" values="0 0 0 0 0 0 0 0 0 0 0 0 0 0 0 0 0 0 0.25 0"/>
<feBlend mode="normal" in2="BackgroundImageFix" result="effect1_dropShadow_1846_22676"/>
<feBlend mode="normal" in="SourceGraphic" in2="effect1_dropShadow_1846_22676" result="shape"/>
</filter>
</defs>
</svg>
