<svg width="52" height="102" viewBox="0 0 52 102" fill="none" xmlns="http://www.w3.org/2000/svg">
<g clip-path="url(#clip0_1102_39549)">
<g style="mix-blend-mode:multiply" opacity="0.5">
<path d="M45.4603 89.605C44.3946 88.678 42.8595 89.0432 42.0035 89.3803C42.0035 89.3803 41.6197 91.9677 42.8595 92.1391C44.1023 92.3076 47.0573 92.8133 47.0573 92.1391C47.0573 91.4648 46.526 90.5349 45.4603 89.6079V89.605Z" fill="url(#paint0_linear_1102_39549)"/>
<path d="M12.8582 89.2117C11.2316 89.3522 10.4641 89.7736 9.34229 91.4704C8.22052 93.1673 7.35263 94.4315 7.2434 94.659C6.47292 96.2519 11.884 94.6394 14.8094 93.7966C17.7349 92.9538 15.7275 89.2117 15.7275 89.2117C15.2847 89.015 14.4847 89.0712 12.8611 89.2117H12.8582Z" fill="url(#paint1_linear_1102_39549)"/>
</g>
<path d="M26.3699 0.174805C26.3699 0.174805 26.4053 0.219754 26.4614 0.298416C26.488 0.337747 26.5204 0.385506 26.5529 0.438884C26.5677 0.466978 26.5883 0.495071 26.6061 0.525974C26.6238 0.556877 26.6001 0.58778 26.6061 0.621492V2.60209C26.5972 2.6358 26.6238 2.66951 26.6002 2.69761C26.5824 2.72851 26.5647 2.7566 26.547 2.7847C26.5145 2.83807 26.4821 2.88864 26.4555 2.92516C26.4024 3.00383 26.3669 3.04878 26.3669 3.04878C26.3669 3.04878 26.3315 3.00383 26.2784 2.92516C26.2518 2.88583 26.2193 2.83807 26.1869 2.7847C26.1692 2.7566 26.1514 2.72851 26.1337 2.69761C26.1131 2.6667 26.1367 2.6358 26.1278 2.60209V0.624302C26.1367 0.590589 26.1101 0.556877 26.1278 0.528784C26.1455 0.497881 26.1633 0.469787 26.181 0.441693C26.2134 0.388316 26.2459 0.337747 26.2725 0.301226C26.3256 0.222564 26.364 0.177614 26.364 0.177614L26.3699 0.174805Z" fill="#570000"/>
<path d="M28.6486 4.05168C28.6161 2.92513 27.5799 2.03176 26.3253 2.05704C25.1032 2.07952 24.129 2.96727 24.0936 4.05449C24.7549 4.05449 27.6065 4.05449 28.6456 4.05449L28.6486 4.05168Z" fill="#CE1111"/>
<path d="M28.6492 4.05166C28.6492 4.23145 27.6278 4.38035 26.3702 4.38035C25.1126 4.38035 24.0912 4.23426 24.0912 4.05166C24.0912 3.86905 25.1097 3.72296 26.3702 3.72296C27.6307 3.72296 28.6492 3.86905 28.6492 4.05166Z" fill="#81191F"/>
<path d="M28.4309 4.10503C28.4309 4.25673 27.5128 4.38035 26.3822 4.38035C25.2515 4.38035 24.3364 4.25673 24.3364 4.10503C24.3364 3.95332 25.2545 3.82971 26.3822 3.82971C27.5098 3.82971 28.4309 3.95332 28.4309 4.10503Z" fill="#6A0D12"/>
<mask id="mask0_1102_39549" style="mask-type:luminance" maskUnits="userSpaceOnUse" x="24" y="3" width="5" height="2">
<path d="M26.3849 3.89154C25.455 3.89154 24.7023 4.03763 24.7023 4.22024V4.87201H28.0646V4.22024C28.0646 4.03763 27.3118 3.89154 26.3849 3.89154Z" fill="white"/>
</mask>
<g mask="url(#mask0_1102_39549)">
<path d="M26.3849 3.8916C25.455 3.8916 24.7022 4.03769 24.7022 4.2203V4.87207H28.0646V4.2203C28.0646 4.03769 27.3118 3.8916 26.3849 3.8916Z" fill="white"/>
<path d="M24.9885 3.62189H24.7966V5.43954H24.9885V3.62189Z" fill="#C9CACC"/>
<path d="M26.5059 3.62189H26.314V5.43954H26.5059V3.62189Z" fill="#C9CACC"/>
<path d="M28.0207 3.62189H27.8288V5.43954H28.0207V3.62189Z" fill="#C9CACC"/>
<path opacity="0.8" d="M24.8762 3.68652H24.8083V5.46485H24.8762V3.68652Z" fill="white"/>
<path opacity="0.8" d="M26.3967 3.68652H26.3288V5.46485H26.3967V3.68652Z" fill="white"/>
<path opacity="0.8" d="M27.9198 3.68652H27.849V5.46485H27.9198V3.68652Z" fill="white"/>
</g>
<path d="M35.7247 12.6821C35.6066 8.04662 31.335 4.36918 26.1867 4.4675C21.0384 4.56583 16.9321 8.40341 17.0148 13.036C17.0177 13.2524 17.0354 13.4687 17.0561 13.6794H35.6804C35.7159 13.3507 35.7306 13.0192 35.7218 12.6821H35.7247Z" fill="#CE1111"/>
<path d="M36.4777 12.9068C36.46 12.1286 32.4393 10.5694 26.8364 10.6818C21.2364 10.7942 16.5072 12.5388 16.525 13.3142V14.1345C16.525 14.1345 16.9294 14.0165 17.1892 13.9547C18.494 14.6121 21.7117 15.2442 26.7272 14.9773C31.4504 14.7273 34.0393 14.303 35.3382 13.8339C36.0467 13.8311 36.4659 13.8283 36.4659 13.8283L36.4777 12.9068Z" fill="url(#paint2_linear_1102_39549)"/>
<path d="M36.4777 13.73C36.4954 14.5082 34.4969 15.3875 26.7272 15.8005C20.032 16.1544 16.5427 14.9155 16.525 14.1373C16.5072 13.3591 21.2364 11.6145 26.8364 11.5022C32.4393 11.3898 36.46 12.9518 36.4777 13.73Z" fill="#81191F"/>
<path d="M35.9019 13.8901C35.9196 14.6065 34.0775 15.4184 26.9247 15.7976C20.758 16.1235 17.5432 14.9829 17.5284 14.2666C17.5137 13.5502 21.865 11.9432 27.0251 11.8393C32.1853 11.7353 35.8871 13.1737 35.9048 13.8901H35.9019Z" fill="#670B10"/>
<path d="M35.4356 22.6468L34.978 14.3002C34.978 13.994 32.5219 12.2185 26.978 12.2185C22.4408 12.2185 18.5205 13.6204 18.5205 13.9266C18.5205 13.9519 18.547 13.9772 18.5943 13.9996L18.2194 24.0262L18.2076 24.3296C19.0814 24.6331 22.5411 24.8578 26.6828 24.8578C30.8245 24.8578 34.057 24.6471 35.0636 24.3577L35.4386 22.644L35.4356 22.6468Z" fill="#F0ECD5"/>
<path style="mix-blend-mode:multiply" opacity="0.5" d="M18.5944 13.9996L18.4733 17.2164C19.1051 16.9158 19.7427 16.6348 20.4246 16.4663C21.384 16.2275 22.4054 16.1628 23.3944 16.1207C24.4305 16.0758 25.4696 16.0814 26.5058 16.1038C28.6165 16.1516 30.7331 16.2022 32.8261 16.5C33.5848 16.6067 34.3671 16.7247 35.1198 16.8989L34.9781 14.2946C34.9781 13.9884 32.522 12.2129 26.9781 12.2129C22.4409 12.2129 18.5206 13.6148 18.5206 13.921C18.5206 13.9463 18.5471 13.9715 18.5944 13.994V13.9996Z" fill="url(#paint3_linear_1102_39549)"/>
<path d="M21.2208 14.3256C20.5891 14.3733 20.0754 14.7048 20.0754 15.0672V17.2782L22.3662 17.1096V14.8959C22.3662 14.5335 21.8526 14.2778 21.2208 14.3228V14.3256Z" fill="#570000"/>
<path d="M21.7557 14.5756C21.924 14.5644 22.0834 14.5756 22.228 14.6009C22.0361 14.4071 21.6583 14.2919 21.2184 14.3256C20.5867 14.3734 20.073 14.7049 20.073 15.0673V17.2782L20.6074 17.2389V15.3173C20.6074 14.9549 21.121 14.6234 21.7527 14.5756H21.7557Z" fill="#81191F"/>
<g style="mix-blend-mode:multiply">
<mask id="mask1_1102_39549" style="mask-type:luminance" maskUnits="userSpaceOnUse" x="18" y="17" width="18" height="7">
<path d="M35.5713 18.8907C35.5565 18.1125 31.7366 17.5731 27.0399 17.6855C22.3432 17.7979 18.5617 18.5929 18.5617 18.5929V23.0739L35.5713 22.6693V18.8935V18.8907Z" fill="white"/>
</mask>
<g mask="url(#mask1_1102_39549)">
<path d="M19.3118 16.7472H18.8336V23.6751H19.3118V16.7472Z" fill="#B6B8BA"/>
<path d="M20.5369 16.7472H20.0587V23.6751H20.5369V16.7472Z" fill="#B6B8BA"/>
<path d="M21.7615 16.7472H21.2833V23.6751H21.7615V16.7472Z" fill="#B6B8BA"/>
<path d="M22.9871 16.7472H22.5089V23.6751H22.9871V16.7472Z" fill="#B6B8BA"/>
<path d="M24.2117 16.7472H23.7334V23.6751H24.2117V16.7472Z" fill="#B6B8BA"/>
<path d="M25.4369 16.7472H24.9587V23.6751H25.4369V16.7472Z" fill="#B6B8BA"/>
<path d="M26.6622 16.7472H26.184V23.6751H26.6622V16.7472Z" fill="#B6B8BA"/>
<path d="M27.8843 16.7472H27.406V23.6751H27.8843V16.7472Z" fill="#B6B8BA"/>
<path d="M29.1092 16.7472H28.6309V23.6751H29.1092V16.7472Z" fill="#B6B8BA"/>
<path d="M30.3373 16.7472H29.859V23.6751H30.3373V16.7472Z" fill="#B6B8BA"/>
<path d="M31.5593 16.7472H31.0811V23.6751H31.5593V16.7472Z" fill="#B6B8BA"/>
<path d="M32.7846 16.7472H32.3064V23.6751H32.7846V16.7472Z" fill="#B6B8BA"/>
<path d="M34.0099 16.7472H33.5316V23.6751H34.0099V16.7472Z" fill="#B6B8BA"/>
<path d="M35.2348 16.7472H34.7565V23.6751H35.2348V16.7472Z" fill="#B6B8BA"/>
</g>
</g>
<mask id="mask2_1102_39549" style="mask-type:luminance" maskUnits="userSpaceOnUse" x="16" y="17" width="21" height="7">
<path d="M36.7113 19.0003C36.6936 18.2221 32.177 17.6827 26.6242 17.7951C21.0715 17.9075 16.5814 18.6295 16.5991 19.4048V23.1806L36.7142 22.7761V19.0003H36.7113Z" fill="white"/>
</mask>
<g mask="url(#mask2_1102_39549)">
<path d="M17.1042 16.8568H16.5639V23.7874H17.1042V16.8568Z" fill="url(#paint4_linear_1102_39549)"/>
<path d="M18.61 16.8568H18.0698V23.7874H18.61V16.8568Z" fill="url(#paint5_linear_1102_39549)"/>
<path d="M20.1181 16.8568H19.5779V23.7874H20.1181V16.8568Z" fill="url(#paint6_linear_1102_39549)"/>
<path d="M21.6237 16.8568H21.0835V23.7874H21.6237V16.8568Z" fill="url(#paint7_linear_1102_39549)"/>
<path d="M23.1324 16.8568H22.5922V23.7874H23.1324V16.8568Z" fill="url(#paint8_linear_1102_39549)"/>
<path d="M24.6377 16.8568H24.0975V23.7874H24.6377V16.8568Z" fill="url(#paint9_linear_1102_39549)"/>
<path d="M26.1461 16.8568H25.6059V23.7874H26.1461V16.8568Z" fill="url(#paint10_linear_1102_39549)"/>
<path d="M27.6545 16.8568H27.1143V23.7874H27.6545V16.8568Z" fill="url(#paint11_linear_1102_39549)"/>
<path d="M29.1605 16.8568H28.6202V23.7874H29.1605V16.8568Z" fill="url(#paint12_linear_1102_39549)"/>
<path d="M30.6685 16.8568H30.1283V23.7874H30.6685V16.8568Z" fill="url(#paint13_linear_1102_39549)"/>
<path d="M32.1741 16.8568H31.6339V23.7874H32.1741V16.8568Z" fill="url(#paint14_linear_1102_39549)"/>
<path d="M33.6794 16.8568H33.1391V23.7874H33.6794V16.8568Z" fill="url(#paint15_linear_1102_39549)"/>
<path d="M35.1881 16.8568H34.6479V23.7874H35.1881V16.8568Z" fill="url(#paint16_linear_1102_39549)"/>
<path d="M36.6937 16.8568H36.1535V23.7874H36.6937V16.8568Z" fill="url(#paint17_linear_1102_39549)"/>
<path opacity="0.2" d="M17.2164 17.1039H17.0305V23.8773H17.2164V17.1039Z" fill="white"/>
<path opacity="0.2" d="M18.6571 17.1039H18.4711V23.8773H18.6571V17.1039Z" fill="white"/>
<path opacity="0.2" d="M20.1183 17.1039H19.9324V23.8773H20.1183V17.1039Z" fill="white"/>
<path opacity="0.2" d="M21.5675 17.1039H21.3815V23.8773H21.5675V17.1039Z" fill="white"/>
<path opacity="0.2" d="M22.9964 17.1039H22.8105V23.8773H22.9964V17.1039Z" fill="white"/>
<path opacity="0.2" d="M24.4339 17.1039H24.2479V23.8773H24.4339V17.1039Z" fill="white"/>
<path opacity="0.2" d="M25.898 17.1039H25.712V23.8773H25.898V17.1039Z" fill="white"/>
<path opacity="0.2" d="M27.345 17.1039H27.159V23.8773H27.345V17.1039Z" fill="white"/>
<path opacity="0.2" d="M28.803 17.1039H28.6171V23.8773H28.803V17.1039Z" fill="white"/>
<path opacity="0.2" d="M30.2405 17.1039H30.0545V23.8773H30.2405V17.1039Z" fill="white"/>
<path opacity="0.2" d="M31.7049 17.1039H31.5189V23.8773H31.7049V17.1039Z" fill="white"/>
<path opacity="0.2" d="M34.6008 17.1039H34.4148V23.8773H34.6008V17.1039Z" fill="white"/>
<path opacity="0.2" d="M36.089 17.1039H35.903V23.8773H36.089V17.1039Z" fill="white"/>
<path opacity="0.2" d="M33.1541 17.1039H32.9681V23.8773H33.1541V17.1039Z" fill="white"/>
</g>
<path d="M36.7078 22.4727C36.7225 23.175 36.9321 23.7481 26.6797 23.9448C15.9285 24.1527 16.6104 23.5767 16.5956 22.8744C16.5809 22.1721 21.0709 21.5119 26.6237 21.3995C32.1764 21.2899 36.693 21.7675 36.7078 22.4699V22.4727Z" fill="url(#paint18_linear_1102_39549)"/>
<path d="M16.5992 19.4049C16.5992 19.4049 16.5814 19.3206 16.6848 19.1998C16.7822 19.0818 16.9741 18.9582 17.2368 18.8486C17.7623 18.6267 18.5475 18.4019 19.5069 18.2221C20.4663 18.0395 21.594 17.8878 22.8073 17.7782C23.4154 17.7249 24.0412 17.6743 24.6818 17.6434C25.3195 17.6097 25.9718 17.5872 26.6213 17.5703C27.2678 17.5591 27.9202 17.5591 28.5608 17.5647C29.2014 17.5675 29.8301 17.5956 30.4383 17.6237C31.6575 17.6855 32.791 17.7895 33.7563 17.9328C34.7217 18.0732 35.5187 18.2643 36.053 18.4665C36.3187 18.5649 36.5165 18.6828 36.6198 18.7952C36.729 18.9076 36.7084 19.0003 36.7143 18.9975C36.7084 19.0003 36.7143 18.9104 36.6021 18.8121C36.4929 18.7138 36.2892 18.6267 36.0235 18.548C35.4892 18.3851 34.6862 18.2783 33.7268 18.1884C32.7645 18.1041 31.6338 18.0479 30.4265 18.017C29.8213 18.0002 29.1955 18.0002 28.5608 17.9946C27.9231 17.9946 27.2825 18.0002 26.6331 18.0142C25.9896 18.0255 25.3431 18.0423 24.7084 18.0704C24.0737 18.0985 23.4479 18.1266 22.8457 18.1659C21.6383 18.2446 20.5135 18.3457 19.5541 18.4693C18.5977 18.5958 17.8036 18.739 17.2752 18.9216C17.0124 19.0115 16.8117 19.1071 16.7084 19.2082C16.5992 19.3093 16.608 19.402 16.6051 19.3964L16.5992 19.4049Z" fill="#81191F"/>
<path d="M42.0009 89.9899C42.857 89.6528 44.395 89.2876 45.4577 90.2147C46.5234 91.1417 47.0548 92.0716 47.0548 92.7459C47.0548 93.4201 44.0969 92.9145 42.857 92.7459C41.6172 92.5773 42.0009 89.9871 42.0009 89.9871V89.9899Z" fill="#7A7A7A"/>
<path d="M7.24381 95.2715C7.35303 95.044 8.21798 93.777 9.3427 92.0801C10.4645 90.3861 11.2349 89.9647 12.8586 89.8214C14.4851 89.6809 15.2822 89.6247 15.725 89.8214C15.725 89.8214 17.7353 93.5634 14.8069 94.4062C11.8814 95.2491 6.47038 96.8616 7.24085 95.2687L7.24381 95.2715Z" fill="#7A7A7A"/>
<path d="M10.494 91.0884C9.91248 91.6671 8.98554 92.5549 9.63794 92.8218C10.2874 93.0858 11.8549 93.2825 12.8291 92.8751C13.8033 92.4678 13.8652 91.7935 13.9509 90.9198C14.0394 90.0489 11.9464 89.6444 10.494 91.0884Z" fill="#919191"/>
<path d="M43.3087 91.1165C44.2179 92.0801 44.6312 91.802 45.5493 91.9368C46.4644 92.0717 46.7626 92.0155 46.1102 91.1165C45.4607 90.2175 44.9471 90.0068 43.7485 89.9085C42.5471 89.8073 42.184 89.9225 43.3087 91.1165Z" fill="#919191"/>
<path d="M36.7107 22.776C36.7284 23.5542 32.2384 24.2734 26.6856 24.3858C21.1328 24.4982 16.6133 23.956 16.5956 23.1806C16.5779 22.4024 21.0679 21.6832 26.6207 21.5708C32.1734 21.4585 36.69 21.9979 36.7077 22.776H36.7107Z" fill="#81191F"/>
<path d="M35.9965 22.7395C36.0083 23.3014 31.8637 23.8408 26.736 23.9448C21.6083 24.0487 17.443 23.6751 17.4312 23.1132C17.4194 22.5513 21.564 22.0119 26.6888 21.908C31.8164 21.8068 35.9817 22.1777 35.9935 22.7423L35.9965 22.7395Z" fill="#670B10"/>
<path d="M42.3997 97.3841L40.8263 80.1487C39.3886 80.8875 34.1193 81.514 27.796 81.6348C21.151 81.7612 15.6425 81.2837 14.503 80.5392L13.4285 97.5526L42.3997 97.3869V97.3841Z" fill="#CE1111"/>
<path d="M37.7414 47.3635L36.3805 32.9066C35.4979 33.2324 31.6101 33.5387 26.9252 33.6286C22.4558 33.7128 18.6979 33.5724 17.5791 33.3055L16.6344 47.8046L16.599 48.3468C17.9363 48.7232 22.2167 48.9339 27.3031 48.8384C32.1916 48.7457 36.3245 48.3945 37.8005 47.9928L37.7414 47.3663V47.3635Z" fill="#F0ECD5"/>
<path d="M39.1435 62.2531L37.8004 47.99C36.3244 48.3945 32.1915 48.7429 27.303 48.8356C22.2166 48.9311 17.9362 48.7204 16.5989 48.344L15.6572 62.8037L15.6306 63.2336C16.5281 63.8488 21.517 64.2393 27.5509 64.1241C33.2188 64.0174 37.9391 63.5004 39.2055 62.8992L39.1435 62.2503V62.2531Z" fill="#CE1111"/>
<path d="M40.7492 79.3255L39.2023 62.8992C37.9359 63.5004 33.2156 64.0174 27.5477 64.1241C21.5138 64.2393 16.5249 63.8488 15.6274 63.2335L14.5411 79.9183L14.4998 80.5364C15.6392 81.2808 21.1477 81.7584 27.7927 81.632C34.116 81.5112 39.3854 80.8875 40.823 80.1459L40.7462 79.3227L40.7492 79.3255Z" fill="#F0ECD5"/>
<path d="M36.3539 32.6285L35.4181 22.6833C35.4181 22.6833 35.4358 22.6581 35.4358 22.6468C35.4122 22.3378 31.545 22.1608 26.7982 22.2507C22.0513 22.3406 18.1989 22.6637 18.196 22.9727C18.196 22.9924 18.2137 23.0148 18.2491 23.0345L17.6056 32.9403L17.5819 33.3027C18.7008 33.5696 22.4557 33.7101 26.9281 33.6258C31.6129 33.5359 35.5007 33.2297 36.3834 32.9038L36.3568 32.6285H36.3539Z" fill="#CE1111"/>
<path d="M35.5715 71.4454C34.615 71.4173 33.8386 71.8387 33.8386 72.3865V75.7268L37.3014 75.8308V72.4876C37.3014 71.9398 36.5279 71.4706 35.5715 71.4454Z" fill="#570000"/>
<path d="M36.3803 71.9089C36.6371 71.9173 36.8763 71.9567 37.0947 72.0213C36.8025 71.6982 36.2357 71.465 35.5715 71.4454C34.615 71.4173 33.8386 71.8387 33.8386 72.3865V75.7268L34.6475 75.7521V72.85C34.6475 72.3022 35.4209 71.8808 36.3774 71.9089H36.3803Z" fill="#81191F"/>
<path d="M34.795 43.3125C34.795 42.7338 34.0658 42.2393 33.1625 42.2112C32.2621 42.1803 31.53 42.627 31.53 43.2057V46.5208L34.795 46.4983V43.3125Z" fill="#570000"/>
<path d="M34.7953 43.3212C34.7953 42.7425 34.0662 42.248 33.1629 42.2171C32.9001 42.2087 32.6581 42.2452 32.4367 42.307C33.1009 42.484 33.5791 42.9054 33.5791 43.3858V46.5155L34.7953 46.507V43.3212Z" fill="#81191F"/>
<g style="mix-blend-mode:multiply" opacity="0.3">
<path d="M32.0084 96.0581C31.8608 96.0581 31.7162 96.0047 31.6069 95.9092C31.483 95.8025 31.4151 95.6507 31.4151 95.4906L31.4564 87.026C31.4652 85.3264 33.2837 83.8515 35.5981 83.6632C36.959 83.5537 38.2461 83.9385 39.0313 84.6886C39.5479 85.1803 39.8165 85.7899 39.8136 86.4473L39.7723 94.9091C39.7723 95.1984 39.5361 95.4429 39.2291 95.4681L32.0586 96.0525C32.0409 96.0525 32.0232 96.0525 32.0084 96.0525V96.0581ZM36.0645 84.7729C35.9435 84.7729 35.8195 84.7785 35.6985 84.7898C34.0483 84.9246 32.649 85.95 32.6431 87.0316L32.6047 94.8782L38.5885 94.3893L38.6269 86.4445C38.6269 86.0877 38.4822 85.7674 38.19 85.4865C37.7147 85.0314 36.9413 84.7729 36.0616 84.7729H36.0645Z" fill="#4F4F4F"/>
</g>
<path d="M35.6481 84.2251C37.6289 84.065 39.226 85.0595 39.2201 86.4473L39.1787 94.9091L32.0083 95.4934L32.0496 87.026C32.0584 85.6382 33.6673 84.3852 35.6481 84.2223V84.2251Z" fill="url(#paint19_linear_1102_39549)"/>
<path d="M34.8508 84.3543C35.1077 84.2925 35.3733 84.2476 35.6479 84.2251C37.6287 84.065 39.2257 85.0595 39.2198 86.4473L39.1785 94.9091L38.1837 94.9906L38.225 86.585C38.2309 85.2449 36.7372 84.2729 34.8508 84.3515V84.3543Z" fill="#77141A"/>
<path d="M37.2478 84.9387C37.2478 84.9387 37.2537 85.1269 37.2655 85.4528C37.2714 85.7815 37.2921 86.2478 37.295 86.8097C37.295 87.3716 37.3098 88.0261 37.3068 88.7285C37.3068 89.4308 37.295 90.1781 37.2832 90.9254C37.2655 91.6727 37.2508 92.42 37.2242 93.1195C37.2006 93.8218 37.1651 94.4764 37.1415 95.0355C37.1179 95.5974 37.0795 96.0637 37.0618 96.3896C37.0382 96.7155 37.0234 96.9037 37.0234 96.9037C37.0234 96.9037 37.0175 96.7155 37.0028 96.3896C36.9969 96.0637 36.9762 95.5945 36.9733 95.0327C36.9733 94.4708 36.9585 93.8162 36.9615 93.1167C36.9615 92.4144 36.9733 91.6671 36.9851 90.9198C37.0028 90.1725 37.0175 89.4252 37.0441 88.7229C37.0648 88.0233 37.1032 87.3688 37.1268 86.8069C37.1504 86.245 37.1888 85.7787 37.2065 85.4528C37.2301 85.1269 37.2449 84.9387 37.2449 84.9387H37.2478Z" fill="#703719"/>
<path d="M36.1823 84.4836C36.1823 84.4836 36.1912 84.6718 36.203 84.9977C36.2089 85.3236 36.2296 85.7927 36.2325 86.3546C36.2325 86.9165 36.2473 87.5711 36.2443 88.2706C36.2443 88.9729 36.2325 89.7202 36.2207 90.4675C36.203 91.2148 36.1882 91.9649 36.1617 92.6644C36.141 93.3668 36.1026 94.0213 36.079 94.5804C36.0554 95.1423 36.017 95.6058 35.9993 95.9345C35.9757 96.2604 35.9609 96.4486 35.9609 96.4486C35.9609 96.4486 35.9521 96.2604 35.9432 95.9345C35.9373 95.6058 35.9167 95.1395 35.9137 94.5776C35.9137 94.0157 35.899 93.3611 35.9019 92.6616C35.9019 91.9593 35.9137 91.212 35.9255 90.4647C35.9432 89.7174 35.958 88.9673 35.9846 88.2678C36.0082 87.5683 36.0436 86.9137 36.0672 86.3518C36.0908 85.7899 36.1292 85.3236 36.1469 84.9977C36.1705 84.669 36.1853 84.4836 36.1853 84.4836H36.1823Z" fill="#703719"/>
<path d="M35.0134 84.4133C35.0134 84.4133 35.0193 84.6016 35.0311 84.9274C35.037 85.2561 35.0577 85.7253 35.0606 86.2844C35.0606 86.8462 35.0754 87.5008 35.0724 88.2003C35.0724 88.9027 35.0606 89.65 35.0488 90.3973C35.0311 91.1445 35.0163 91.8946 34.9898 92.5942C34.9691 93.2937 34.9307 93.9483 34.9071 94.5102C34.8835 95.072 34.8451 95.5384 34.8274 95.8643C34.8038 96.1901 34.789 96.3784 34.789 96.3784C34.789 96.3784 34.7802 96.1901 34.7684 95.8643C34.7625 95.5384 34.7418 95.0692 34.7388 94.5073C34.7388 93.9455 34.7241 93.2909 34.727 92.5886C34.727 91.889 34.7388 91.1389 34.7506 90.3916C34.7684 89.6444 34.7831 88.8943 34.8097 88.1947C34.8303 87.4924 34.8687 86.8406 34.8923 86.2787C34.916 85.7169 34.9543 85.2505 34.972 84.9246C34.9957 84.5959 35.0104 84.4105 35.0104 84.4105L35.0134 84.4133Z" fill="#703719"/>
<path d="M33.9534 84.7364C33.9534 84.7364 33.9622 84.9246 33.9711 85.2505C33.977 85.5764 33.9976 86.0455 34.0006 86.6074C34.0006 87.1693 34.0153 87.8239 34.0124 88.5262C34.0124 89.2257 34.0006 89.9758 33.9888 90.7231C33.974 91.4732 33.9563 92.2205 33.9297 92.92C33.9091 93.6196 33.8707 94.2742 33.8471 94.836C33.8235 95.3979 33.7851 95.8642 33.7674 96.1901C33.7438 96.516 33.729 96.7042 33.729 96.7042C33.729 96.7042 33.7231 96.516 33.7113 96.1901C33.7054 95.8614 33.6847 95.3951 33.6818 94.8332C33.6818 94.2713 33.667 93.6168 33.67 92.9144C33.67 92.2121 33.6818 91.4648 33.6936 90.7175C33.7113 89.9674 33.7261 89.2201 33.7526 88.5206C33.7762 87.8183 33.8117 87.1637 33.8353 86.6046C33.8589 86.0427 33.8973 85.5764 33.915 85.2505C33.9386 84.9246 33.9534 84.7364 33.9534 84.7364Z" fill="#703719"/>
<path d="M32.77 85.523C32.77 85.523 32.7759 85.7112 32.7877 86.0371C32.7936 86.363 32.8142 86.8322 32.8172 87.394C32.8172 87.9559 32.832 88.6105 32.829 89.31C32.829 90.0124 32.8172 90.7597 32.8054 91.5069C32.7877 92.2542 32.7729 93.0015 32.7464 93.7039C32.7257 94.4062 32.6873 95.058 32.6637 95.6198C32.6401 96.1817 32.6017 96.6481 32.584 96.9739C32.5604 97.2998 32.5456 97.4881 32.5456 97.4881C32.5456 97.4881 32.5368 97.2998 32.5279 96.9739C32.522 96.6453 32.5013 96.1789 32.4984 95.617C32.4984 95.0552 32.4836 94.4006 32.4866 93.701C32.4866 92.9987 32.4984 92.2514 32.5102 91.5041C32.5249 90.7568 32.5427 90.0067 32.5692 89.3072C32.5928 88.6049 32.6283 87.9531 32.6519 87.3912C32.6755 86.8322 32.7139 86.363 32.7316 86.0371C32.7552 85.7112 32.77 85.523 32.77 85.523Z" fill="#703719"/>
<path opacity="0.3" d="M35.0339 94.1478C35.0339 94.2489 35.1461 94.3416 35.2908 94.35C35.4354 94.3585 35.5535 94.2826 35.5535 94.1787L35.7277 84.8263C35.7277 84.7252 35.6125 84.6325 35.4708 84.6241C35.3262 84.6128 35.2081 84.6915 35.2081 84.7954L35.0339 94.1478Z" fill="#A24F20"/>
<path opacity="0.3" d="M36.256 94.4989C36.256 94.6029 36.3682 94.6928 36.5128 94.7012C36.6575 94.7096 36.7756 94.6338 36.7785 94.5298L36.9527 85.1803C36.9527 85.0763 36.8375 84.9864 36.6958 84.978C36.5512 84.9696 36.4331 85.0454 36.4331 85.1494L36.2619 94.5017L36.256 94.4989Z" fill="#A24F20"/>
<path opacity="0.3" d="M34.0038 94.3612C34.0038 94.4624 34.116 94.5551 34.2607 94.5635C34.4053 94.5719 34.5234 94.4961 34.5234 94.3921L34.6976 85.0398C34.6976 84.9358 34.5854 84.8459 34.4407 84.8375C34.2961 84.8291 34.178 84.9049 34.178 85.0089L34.0038 94.3612Z" fill="#A24F20"/>
<path opacity="0.3" d="M37.3187 95.6142C37.3187 95.7181 37.4309 95.808 37.5756 95.8165C37.7202 95.8249 37.8383 95.7462 37.8383 95.6451L38.0095 86.2928C38.0095 86.1916 37.8973 86.0989 37.7527 86.0905C37.608 86.0821 37.49 86.1579 37.49 86.2618L37.3187 95.6142Z" fill="#A24F20"/>
<path opacity="0.3" d="M32.8525 94.954C32.8525 95.0551 32.9647 95.1478 33.1093 95.1563C33.254 95.1675 33.372 95.0888 33.372 94.9849L33.5462 85.6325C33.5462 85.5314 33.4311 85.4387 33.2894 85.4303C33.1447 85.4218 33.0267 85.4977 33.0237 85.6016L32.8495 94.954H32.8525Z" fill="#A24F20"/>
<g style="mix-blend-mode:multiply" opacity="0.2">
<path d="M32.888 25.341C32.8674 25.3972 32.7699 26.4114 32.888 26.4282C33.0061 26.4479 33.6762 26.3159 33.6762 26.3159L33.7766 25.1331L32.891 25.341H32.888Z" fill="#231F20"/>
<path d="M33.1628 26.8412C33.1421 26.9536 33.1628 27.4424 33.1628 27.4424L32.6698 27.6306C32.6698 27.6306 32.6285 27.0491 32.6698 27.0491C32.7111 27.0491 33.1628 26.8412 33.1628 26.8412Z" fill="#231F20"/>
<path d="M33.4991 28.1925C33.5581 28.1728 33.7766 28.0408 33.7766 28.0408V28.5099L33.4991 28.8077C33.4991 28.8077 33.0445 28.4509 33.1655 28.4228C33.2836 28.3948 33.4991 28.1897 33.4991 28.1897V28.1925Z" fill="#231F20"/>
<path d="M32.1383 27.7233L32.2564 28.9033L31.6276 29.1477C31.6276 29.1477 31.0549 28.4538 31.1139 28.4257C31.173 28.3976 32.1383 27.7233 32.1383 27.7233Z" fill="#231F20"/>
<path d="M20.3356 32.2436C20.3356 32.2436 20.2471 32.8644 20.3356 32.9066C20.4242 32.9459 20.8965 32.9066 20.8965 32.9066C20.8965 32.9066 21.0441 32.2717 20.8965 32.2436C20.7489 32.2155 20.3356 32.2436 20.3356 32.2436Z" fill="#231F20"/>
<path d="M18.916 32.9235C19.0636 33.0021 19.8901 32.9235 19.8901 32.9235C19.8901 32.9235 19.8016 34.3534 19.713 34.3534C19.6245 34.3534 18.8569 34.4096 18.916 34.3534C18.975 34.2972 18.916 32.9235 18.916 32.9235Z" fill="#231F20"/>
<path d="M32.6516 60.3344C32.6516 60.3344 32.5808 61.5339 32.814 61.5339C33.0472 61.5339 33.676 61.8317 33.7557 61.5339C33.8354 61.2333 33.7941 60.4467 33.7557 60.4832C33.7173 60.5198 32.6516 60.3315 32.6516 60.3315V60.3344Z" fill="#231F20"/>
<path d="M34.0981 61.4974C34.228 61.5339 34.5823 61.4974 34.5823 61.4974C34.5823 61.4974 34.8184 62.4357 34.5823 62.4357H34.0981V61.4974Z" fill="#231F20"/>
<path d="M35.2144 60.5956C35.2144 60.5956 35.1347 61.725 35.2144 61.666C35.2941 61.607 35.9642 61.4946 35.9642 61.4946V60.4832L35.2144 60.5956Z" fill="#231F20"/>
<path d="M18.8956 53.0216C18.8956 53.0216 19.0934 53.9964 18.8956 53.9964H17.7945C17.7945 53.9964 17.6351 52.9851 17.7945 53.0216C17.951 53.0581 18.8956 53.0216 18.8956 53.0216Z" fill="#231F20"/>
<path d="M18.11 86.0905C18.0687 86.3658 18.11 87.1524 18.11 87.1524C18.11 87.1524 18.9012 87.3771 18.9779 87.1524C19.0547 86.9276 18.9779 86.1775 18.9779 86.1775L18.11 86.0905Z" fill="#231F20"/>
<path d="M19.1349 87.394C19.1349 87.4727 19.0168 88.088 19.2323 88.1807C19.4507 88.2734 20.0205 88.3324 20.0116 88.2734C20.0028 88.2172 20.2006 87.4109 20.0116 87.394C19.8256 87.3744 19.1408 87.2789 19.1349 87.394Z" fill="#231F20"/>
<path d="M17.5578 87.8183C17.5578 87.866 17.5578 88.5571 17.5578 88.5571H16.5718L16.3976 87.6385C16.3976 87.6385 17.5666 87.5486 17.5578 87.8183Z" fill="#231F20"/>
<path d="M15.0549 88.9308C15.0549 89.0431 14.8777 89.4617 15.0549 89.487C15.232 89.5123 15.8047 89.487 15.8047 89.487L15.7073 88.8521L15.0578 88.9308H15.0549Z" fill="#231F20"/>
<path d="M15.7044 90.1331C15.7251 90.1331 15.7841 90.6332 15.8018 90.7203C15.8225 90.8074 16.4542 91.108 16.4719 90.9198C16.4896 90.7315 16.5487 90.018 16.4719 90.0376C16.3922 90.0573 15.7014 90.1303 15.7014 90.1303L15.7044 90.1331Z" fill="#231F20"/>
</g>
<path style="mix-blend-mode:multiply" opacity="0.5" d="M49.6291 92.9875C48.3567 92.0239 46.984 91.594 45.1361 91.3889C44.5752 91.3271 44.0497 91.4002 43.5745 91.5491C43.0697 91.3328 42.3021 91.1445 41.0268 91.2372C38.6032 91.417 38.0128 91.6306 37.3929 91.9901C37.2217 92.0913 37.0888 92.1615 36.9737 92.2205C36.1501 92.2486 35.3324 92.4396 34.5914 92.7178C33.5877 92.2486 31.6984 92.7121 29.6173 92.7487C27.4888 92.7852 26.5826 92.9116 25.3221 93.3892C24.6756 93.6336 23.9553 94.0719 23.359 94.4989C22.5973 93.5212 21.2807 93.1027 19.9612 93.5943C19.4032 93.8022 18.8719 94.0887 18.4173 94.3753C18.4055 94.3697 18.3966 94.3641 18.3848 94.3584C16.4128 93.3134 14.5826 93.0942 12.7878 92.8301C9.75012 92.3863 6.91617 93.7938 4.03794 95.2827C1.15972 96.7717 -0.180505 97.4515 0.0556574 98.9798C0.29182 100.508 3.40621 100.427 5.0623 100.629C6.71838 100.828 9.39587 100.789 10.8955 101.073C11.7398 101.23 12.9973 101.351 14.1663 101.345C15.0844 101.345 15.9494 101.267 16.525 101.073C17.4579 100.755 18.9782 100.458 20.2121 100.123C20.6165 100.592 21.5287 100.483 22.0365 100.34C22.9988 100.067 24.2948 100.82 27.7545 100.219C30.3523 99.7664 31.1169 98.6652 31.1346 97.6594C31.1346 97.578 31.1346 97.4937 31.1257 97.415C31.1435 97.4487 31.1582 97.4824 31.173 97.519C31.5567 98.3 31.9051 99.0641 32.4807 99.4743C32.4807 99.685 32.5929 99.7103 32.5929 99.7103C35.3324 100.432 37.7029 100.199 39.3471 99.8058C39.6394 99.744 39.9346 99.6709 40.2416 99.5838C40.8852 99.3984 41.3752 99.1905 41.7471 98.9658C41.7471 98.9798 41.7412 98.9911 41.7412 99.0051C41.7412 99.0192 41.7412 99.0332 41.7412 99.0501C41.7412 99.0641 41.7412 99.081 41.7412 99.095C41.7412 99.1091 41.7412 99.1203 41.7471 99.1343C41.7471 99.1484 41.753 99.1596 41.756 99.1737C41.759 99.1877 41.7649 99.199 41.7708 99.2102C41.7767 99.2214 41.7826 99.2327 41.7885 99.2439C41.7944 99.2551 41.8003 99.2692 41.8091 99.2776C41.818 99.286 41.8269 99.2973 41.8357 99.3085C41.8446 99.3169 41.8534 99.3282 41.8652 99.3394C41.8741 99.3507 41.8859 99.3563 41.8977 99.3647C41.9095 99.3759 41.9213 99.3844 41.9331 99.3956C41.9449 99.4012 41.9567 99.4097 41.9715 99.4181C41.9863 99.4265 42.001 99.4349 42.0158 99.4434C42.0276 99.449 42.0394 99.4546 42.0512 99.4602C42.0866 99.4743 42.128 99.4911 42.1693 99.5052C42.184 99.508 42.1959 99.5136 42.2106 99.5192C42.2313 99.5248 42.2549 99.5305 42.2756 99.5361C42.2933 99.5389 42.308 99.5445 42.3257 99.5501C42.3494 99.5529 42.37 99.5586 42.3936 99.5642C42.4114 99.567 42.432 99.5726 42.4497 99.5726C42.4733 99.5782 42.497 99.581 42.5206 99.5838C42.5412 99.5838 42.5619 99.5895 42.5826 99.5923C42.6062 99.5923 42.6328 99.5979 42.6564 99.6007C42.68 99.6007 42.7006 99.6063 42.7243 99.6063C42.7508 99.6063 42.7745 99.6119 42.801 99.6119C42.8246 99.6119 42.8483 99.6147 42.8748 99.6175C42.9014 99.6175 42.925 99.6176 42.9516 99.6204C42.9781 99.6204 43.0047 99.6204 43.0313 99.6204C43.0578 99.6204 43.0815 99.6204 43.108 99.6232C43.1376 99.6232 43.1671 99.6232 43.1936 99.6232H43.2674C43.2999 99.6232 43.3324 99.6232 43.3649 99.6232H43.4298C43.4741 99.6232 43.5184 99.6232 43.5626 99.6204C43.5715 99.6204 43.5833 99.6204 43.5951 99.6204C43.6512 99.6204 43.7073 99.6204 43.7663 99.6147C43.7752 99.6147 43.7811 99.6147 43.7899 99.6147C43.8372 99.6147 43.8874 99.6119 43.9375 99.6091C43.9494 99.6091 43.9612 99.6091 43.973 99.6091C44.0202 99.6091 44.0645 99.6063 44.1088 99.6035C44.1206 99.6035 44.1324 99.6035 44.1442 99.6035C44.1914 99.6035 44.2387 99.5979 44.2829 99.5951C44.2888 99.5951 44.2977 99.5951 44.3036 99.5951C44.6962 99.5698 45.0623 99.5389 45.3427 99.5276C45.3427 99.5276 45.3604 99.5276 45.3722 99.5276C45.4401 99.5248 45.5051 99.5164 45.5671 99.508C45.6438 99.4967 45.7147 99.4799 45.7796 99.4602C45.8032 99.4518 45.8446 99.4406 45.9007 99.4153C46.1811 99.2973 46.3375 99.1006 46.3789 98.8787C46.4615 98.8955 46.5383 98.9096 46.6121 98.9264C47.8224 99.1961 50.7803 99.0781 51.6099 97.4796C52.4364 95.8839 50.9014 93.9539 49.6291 92.9875Z" fill="url(#paint20_linear_1102_39549)"/>
<path d="M16.9649 95.8896C16.9649 95.8896 18.3435 94.7265 19.9583 94.1646C21.576 93.6028 23.1908 94.3135 23.7812 95.7013C24.3716 97.0892 22.5974 97.0133 20.5487 96.8251C18.5 96.6369 16.2683 96.4065 16.962 95.8868L16.9649 95.8896Z" fill="#575757"/>
<path d="M19.8197 94.2798C20.4632 94.0382 21.3046 93.7123 22.0308 95.0187C22.388 95.6564 21.6234 96.2941 19.6426 95.3642C18.4795 94.8192 19.0374 94.5748 19.8197 94.2798Z" fill="#696969"/>
<path d="M22.1693 95.9458C22.5176 95.5497 24.0615 94.4147 25.3221 93.968C26.5826 93.5241 27.4889 93.4061 29.6173 93.3724C31.7457 93.3387 33.6763 92.8836 34.6623 93.3724C35.6483 93.864 33.1243 97.3027 30.4055 97.3842C27.6866 97.4628 20.528 97.8056 22.1693 95.9458Z" fill="#7A7A7A"/>
<path d="M35.9435 93.3724C36.652 93.0016 36.77 93.0016 37.3929 92.6616C38.0128 92.3245 38.6062 92.1279 41.0269 91.9593C43.4505 91.7907 44.0409 92.5858 44.4837 92.6673C44.9265 92.7487 42.5619 94.3529 41.5582 94.7153C40.5545 95.0805 35.9435 93.3724 35.9435 93.3724Z" fill="#7A7A7A"/>
<path d="M29.8153 93.4707C30.5976 93.5185 32.2123 93.1758 33.4197 93.2179C34.6271 93.26 33.2662 93.5606 32.0323 94.5242C30.7983 95.4907 31.1968 96.6481 30.4145 95.9851C29.6323 95.3221 26.9843 94.0214 25.7887 94.44C24.5931 94.8586 22.081 96.0553 22.5828 95.6592C23.0847 95.2659 23.9791 94.4821 25.7828 93.9202C27.5865 93.3584 28.8529 93.4145 29.8123 93.4707H29.8153Z" fill="#919191"/>
<path d="M12.7876 93.4511C14.5824 93.6983 16.4127 93.9034 18.3846 94.8754C20.3566 95.8503 21.6171 95.8503 22.6031 97.2016C23.589 98.5529 22.6828 99.376 21.4606 99.8649C20.2385 100.354 17.7972 100.727 16.4953 101.14C15.1935 101.553 12.3979 101.402 10.8983 101.14C9.4016 100.879 6.72116 100.916 5.06507 100.727C3.40899 100.539 0.294597 100.615 0.0584345 99.1878C-0.177728 97.7635 1.16249 97.1257 4.04072 95.7379C6.91895 94.3501 9.75289 93.0353 12.7905 93.4483L12.7876 93.4511Z" fill="#9C9C9C"/>
<path d="M7.5475 97.6595C6.963 98.0416 5.59621 98.7018 6.48477 99.0024C7.37038 99.303 7.84565 99.8621 8.82868 100.126C9.81465 100.39 15.5918 100.837 18.4877 98.9771C21.3836 97.1173 20.808 96.2633 19.0752 95.5694C17.3394 94.8755 16.2176 93.2994 12.9851 95.1367C9.75561 96.9769 8.38292 97.1117 7.5475 97.6595Z" fill="#C4C4C4"/>
<path d="M22.6358 97.2015C21.9805 96.3054 21.2012 96.0019 20.1739 95.6143C20.9443 96.2688 21.2041 97.0583 20.162 98.0837C18.0779 100.135 14.0809 100.483 11.244 100.474C8.40707 100.466 6.4056 99.376 5.88604 98.9995C5.36353 98.6259 4.00265 99.1709 4.00265 99.1709C2.77756 99.6176 2.12516 100.036 1.77977 100.365C2.8484 100.601 4.19158 100.623 5.09785 100.727C6.75394 100.916 9.43438 100.876 10.9311 101.14C12.4277 101.402 15.2263 101.553 16.5281 101.14C17.8299 100.727 20.2713 100.354 21.4934 99.8648C22.7155 99.376 23.6218 98.5528 22.6358 97.2015Z" fill="#848587"/>
<path d="M21.0149 97.3926C21.5079 96.6734 21.933 96.1284 23.4975 95.4513C25.0651 94.7743 25.7145 94.1759 27.5772 94.7686C29.437 95.3642 30.4732 96.0132 30.9455 97.0807C31.4178 98.1511 31.2112 99.7805 27.7544 100.345C24.2975 100.907 22.9986 100.205 22.0363 100.458C21.0739 100.71 18.6503 100.857 21.0149 97.3926Z" fill="#B3B3B3"/>
<path d="M30.9456 97.0751C30.8246 96.797 30.6622 96.5498 30.4615 96.325C30.1633 97.0583 29.2895 97.6763 28.4571 97.7409C27.4357 97.8224 26.1131 98.2831 25.4548 98.5332C25.3368 98.6568 25.2305 98.786 25.1331 98.9209C25.139 98.977 25.1331 99.0389 25.0976 99.1007C24.9973 99.2748 24.4541 100.149 24.2888 100.533C25.1301 100.587 26.2312 100.584 27.7545 100.337C31.2113 99.7749 31.4209 98.1427 30.9456 97.0751Z" fill="#848587"/>
<path d="M40.0789 93.732C41.0176 94.4007 42.0892 94.7462 42.473 96.0947C42.8568 97.446 43.5032 98.8816 40.2383 99.7525C36.9734 100.626 34.3549 100.045 33.2597 99.9323C32.1645 99.8199 31.704 98.8366 31.1697 97.8253C30.6383 96.8139 30.7062 96.2661 31.89 94.9429C33.0708 93.6197 37.3187 91.7655 40.0759 93.732H40.0789Z" fill="#B3B3B3"/>
<path d="M33.8444 97.3926C34.1012 97.0808 39.9905 93.8838 41.4547 94.5243C41.4547 94.5243 44.1706 97.4292 41.7853 99.1513C41.7853 99.1513 37.8739 101.168 32.5927 99.8705C32.5927 99.8705 31.9226 99.73 33.8444 97.3926Z" fill="#818183"/>
<path d="M41.3807 93.7601C41.8176 93.0634 43.2848 91.9116 45.1357 92.0998C46.9837 92.288 48.3564 92.6898 49.6287 93.5887C50.8981 94.4877 52.4361 96.2885 51.6095 97.7803C50.783 99.2721 47.8221 99.3844 46.6117 99.1316C45.4014 98.8788 42.8892 98.7861 42.3283 97.3842C41.7675 95.9823 40.2678 95.5356 41.3807 93.7601Z" fill="#B3B3B3"/>
<path d="M41.9451 98.7973C42.7539 97.7494 43.4801 96.4346 44.3362 96.8279C45.1952 97.2212 45.0476 97.6736 45.8447 98.1511C46.6447 98.6287 46.6447 99.6401 45.3428 99.6991C44.041 99.7553 40.8971 100.154 41.9451 98.8001V98.7973Z" fill="#919191"/>
<path d="M44.5368 99.5277C43.6305 99.3676 44.5722 98.7579 44.5161 98.2747C44.46 97.7915 44.2357 99.5839 42.7626 99.5277C42.1515 99.5052 41.877 99.317 41.7619 99.1091C41.4283 100.084 44.15 99.7468 45.3397 99.6963C45.4991 99.6907 45.6379 99.6682 45.7589 99.6373C45.3309 99.6373 44.8881 99.5923 44.5368 99.5305V99.5277Z" fill="#6A6C6E"/>
<path d="M44.5398 96.9319C44.6549 97.1875 44.7228 98.05 44.1737 98.8872C43.6276 99.7244 44.9914 99.7918 45.759 99.6345C45.759 99.6345 46.5737 99.4463 46.3494 98.7243C46.3494 98.7243 46.2431 98.3309 45.6822 98.05C45.6822 98.05 45.2542 97.6876 45.0416 97.3673C44.832 97.0443 44.5398 96.9319 44.5398 96.9319Z" fill="#78797B"/>
<path d="M45.682 98.241C45.5403 98.4714 45.2716 99.3086 44.5395 99.2384C43.8045 99.1681 44.324 99.7075 45.1477 99.6654C45.9742 99.6204 46.293 99.4125 46.3226 98.935C46.3521 98.4574 45.7823 98.0697 45.682 98.2382V98.241Z" fill="#6E6F72"/>
<path d="M39.4978 92.1588C39.9081 92.0942 41.6853 91.9762 42.4056 92.0801C43.1259 92.1869 43.0462 92.3723 42.0572 92.7824C41.0683 93.1954 41.0949 94.2265 40.1591 93.5354C39.0668 92.7291 35.6366 92.7656 39.4978 92.156V92.1588Z" fill="#919191"/>
</g>
<defs>
<linearGradient id="paint0_linear_1102_39549" x1="44.5009" y1="94.3388" x2="44.5009" y2="88.6976" gradientUnits="userSpaceOnUse">
<stop stop-color="white"/>
<stop offset="0.09" stop-color="#F8F8F8"/>
<stop offset="0.22" stop-color="#E7E7E7"/>
<stop offset="0.36" stop-color="#CBCBCB"/>
<stop offset="0.52" stop-color="#A4A4A4"/>
<stop offset="0.69" stop-color="#727272"/>
<stop offset="0.86" stop-color="#353535"/>
<stop offset="1"/>
</linearGradient>
<linearGradient id="paint1_linear_1102_39549" x1="11.7836" y1="94.3388" x2="11.7836" y2="88.6976" gradientUnits="userSpaceOnUse">
<stop stop-color="white"/>
<stop offset="0.09" stop-color="#F8F8F8"/>
<stop offset="0.22" stop-color="#E7E7E7"/>
<stop offset="0.36" stop-color="#CBCBCB"/>
<stop offset="0.52" stop-color="#A4A4A4"/>
<stop offset="0.69" stop-color="#727272"/>
<stop offset="0.86" stop-color="#353535"/>
<stop offset="1"/>
</linearGradient>
<linearGradient id="paint2_linear_1102_39549" x1="16.525" y1="12.859" x2="36.4777" y2="12.859" gradientUnits="userSpaceOnUse">
<stop stop-color="#C4C4C4"/>
<stop offset="0.28" stop-color="#DBDBDB"/>
<stop offset="1" stop-color="white"/>
</linearGradient>
<linearGradient id="paint3_linear_1102_39549" x1="26.7951" y1="18.8036" x2="26.7951" y2="11.9741" gradientUnits="userSpaceOnUse">
<stop stop-color="white"/>
<stop offset="0.09" stop-color="#F8F8F8"/>
<stop offset="0.22" stop-color="#E7E7E7"/>
<stop offset="0.36" stop-color="#CBCBCB"/>
<stop offset="0.52" stop-color="#A4A4A4"/>
<stop offset="0.69" stop-color="#727272"/>
<stop offset="0.86" stop-color="#353535"/>
<stop offset="1"/>
</linearGradient>
<linearGradient id="paint4_linear_1102_39549" x1="16.5639" y1="20.3207" x2="17.1042" y2="20.3207" gradientUnits="userSpaceOnUse">
<stop stop-color="#900F16"/>
<stop offset="0.24" stop-color="#BC1D26"/>
<stop offset="1" stop-color="#DC252F"/>
</linearGradient>
<linearGradient id="paint5_linear_1102_39549" x1="18.0698" y1="0.174795" x2="18.61" y2="0.174795" gradientUnits="userSpaceOnUse">
<stop stop-color="#900F16"/>
<stop offset="0.24" stop-color="#BC1D26"/>
<stop offset="1" stop-color="#DC252F"/>
</linearGradient>
<linearGradient id="paint6_linear_1102_39549" x1="19.5779" y1="0.174795" x2="20.1181" y2="0.174795" gradientUnits="userSpaceOnUse">
<stop stop-color="#900F16"/>
<stop offset="0.24" stop-color="#BC1D26"/>
<stop offset="1" stop-color="#DC252F"/>
</linearGradient>
<linearGradient id="paint7_linear_1102_39549" x1="21.0835" y1="0.174795" x2="21.6237" y2="0.174795" gradientUnits="userSpaceOnUse">
<stop stop-color="#900F16"/>
<stop offset="0.24" stop-color="#BC1D26"/>
<stop offset="1" stop-color="#DC252F"/>
</linearGradient>
<linearGradient id="paint8_linear_1102_39549" x1="22.5922" y1="0.174795" x2="23.1324" y2="0.174795" gradientUnits="userSpaceOnUse">
<stop stop-color="#900F16"/>
<stop offset="0.24" stop-color="#BC1D26"/>
<stop offset="1" stop-color="#DC252F"/>
</linearGradient>
<linearGradient id="paint9_linear_1102_39549" x1="24.0975" y1="0.174795" x2="24.6377" y2="0.174795" gradientUnits="userSpaceOnUse">
<stop stop-color="#900F16"/>
<stop offset="0.24" stop-color="#BC1D26"/>
<stop offset="1" stop-color="#DC252F"/>
</linearGradient>
<linearGradient id="paint10_linear_1102_39549" x1="25.6059" y1="0.174795" x2="26.1461" y2="0.174795" gradientUnits="userSpaceOnUse">
<stop stop-color="#900F16"/>
<stop offset="0.24" stop-color="#BC1D26"/>
<stop offset="1" stop-color="#DC252F"/>
</linearGradient>
<linearGradient id="paint11_linear_1102_39549" x1="27.1143" y1="0.174795" x2="27.6516" y2="0.174795" gradientUnits="userSpaceOnUse">
<stop stop-color="#900F16"/>
<stop offset="0.24" stop-color="#BC1D26"/>
<stop offset="1" stop-color="#DC252F"/>
</linearGradient>
<linearGradient id="paint12_linear_1102_39549" x1="28.6202" y1="0.174795" x2="29.1605" y2="0.174795" gradientUnits="userSpaceOnUse">
<stop stop-color="#900F16"/>
<stop offset="0.24" stop-color="#BC1D26"/>
<stop offset="1" stop-color="#DC252F"/>
</linearGradient>
<linearGradient id="paint13_linear_1102_39549" x1="30.1283" y1="0.174795" x2="30.6656" y2="0.174795" gradientUnits="userSpaceOnUse">
<stop stop-color="#900F16"/>
<stop offset="0.24" stop-color="#BC1D26"/>
<stop offset="1" stop-color="#DC252F"/>
</linearGradient>
<linearGradient id="paint14_linear_1102_39549" x1="31.6339" y1="0.174795" x2="32.1741" y2="0.174795" gradientUnits="userSpaceOnUse">
<stop stop-color="#900F16"/>
<stop offset="0.24" stop-color="#BC1D26"/>
<stop offset="1" stop-color="#DC252F"/>
</linearGradient>
<linearGradient id="paint15_linear_1102_39549" x1="33.1391" y1="0.174795" x2="33.6794" y2="0.174795" gradientUnits="userSpaceOnUse">
<stop stop-color="#900F16"/>
<stop offset="0.24" stop-color="#BC1D26"/>
<stop offset="1" stop-color="#DC252F"/>
</linearGradient>
<linearGradient id="paint16_linear_1102_39549" x1="34.6479" y1="0.174795" x2="35.1881" y2="0.174795" gradientUnits="userSpaceOnUse">
<stop stop-color="#900F16"/>
<stop offset="0.24" stop-color="#BC1D26"/>
<stop offset="1" stop-color="#DC252F"/>
</linearGradient>
<linearGradient id="paint17_linear_1102_39549" x1="36.1535" y1="0.174795" x2="36.6937" y2="0.174795" gradientUnits="userSpaceOnUse">
<stop stop-color="#900F16"/>
<stop offset="0.24" stop-color="#BC1D26"/>
<stop offset="1" stop-color="#DC252F"/>
</linearGradient>
<linearGradient id="paint18_linear_1102_39549" x1="16.7402" y1="22.667" x2="36.8611" y2="22.6006" gradientUnits="userSpaceOnUse">
<stop stop-color="#900F16"/>
<stop offset="0.24" stop-color="#BC1D26"/>
<stop offset="1" stop-color="#DC252F"/>
</linearGradient>
<linearGradient id="paint19_linear_1102_39549" x1="35.5144" y1="90.3301" x2="28.2194" y2="89.8398" gradientUnits="userSpaceOnUse">
<stop stop-color="#713409"/>
<stop offset="1" stop-color="#894626"/>
</linearGradient>
<linearGradient id="paint20_linear_1102_39549" x1="25.9361" y1="103.719" x2="25.9361" y2="89.0403" gradientUnits="userSpaceOnUse">
<stop stop-color="white"/>
<stop offset="0.09" stop-color="#F8F8F8"/>
<stop offset="0.22" stop-color="#E7E7E7"/>
<stop offset="0.36" stop-color="#CBCBCB"/>
<stop offset="0.52" stop-color="#A4A4A4"/>
<stop offset="0.69" stop-color="#727272"/>
<stop offset="0.86" stop-color="#353535"/>
<stop offset="1"/>
</linearGradient>
<clipPath id="clip0_1102_39549">
<rect width="51.811" height="101.221" fill="white" transform="translate(0.0318451 0.174805)"/>
</clipPath>
</defs>
</svg>
