<svg width="89" height="67" viewBox="0 0 89 67" fill="none" xmlns="http://www.w3.org/2000/svg">
<g filter="url(#filter0_d_1102_42299)">
<path d="M1.27872 42.8032L1.77289 42.3241L18.6008 59.6778C18.7304 59.8115 18.9087 59.887 19.095 59.887H70.7953C70.9816 59.887 71.1598 59.8115 71.2895 59.6778L88.1174 42.3241C88.2419 42.1956 88.3116 42.0237 88.3116 41.8449V18.7305C88.3116 18.5516 88.2419 18.3797 88.1174 18.2513L71.2895 0.897516M1.27872 42.8032L71.2895 0.897516M1.27872 42.8032L1.77289 42.324C1.64835 42.1956 1.57871 42.0238 1.57871 41.8449V18.7305C1.57871 18.5516 1.64835 18.3797 1.77289 18.2513L1.27986 17.7732L1.77289 18.2513L18.6008 0.897516C18.7304 0.763817 18.9087 0.688356 19.095 0.688356H70.7953C70.9816 0.688356 71.1598 0.763817 71.2895 0.897516M1.27872 42.8032L71.7837 0.41832L71.2895 0.897516" fill="url(#paint0_linear_1102_42299)" stroke="url(#paint1_linear_1102_42299)" stroke-width="1.37671"/>
<g filter="url(#filter1_d_1102_42299)">
<path d="M28.2776 26.8422L28.7157 16.0488L30.7657 16.224L32.3777 20.587L34.7782 16.0488H36.7407V27.0175H35.1462V18.4493L33.2714 22.3742L31.9222 22.4618L30.5029 19.0801L30.1525 26.4743L28.2776 26.8422ZM37.3769 18.9049L41.039 18.6245L40.9339 26.4743L39.5146 27.0175L39.427 20.3241L37.6398 20.587L37.3769 18.9049ZM41.1266 16.0488L41.3894 17.3805L39.3394 17.4681L39.7774 16.3116L41.1266 16.0488ZM43.7048 18.5369C43.7048 18.8523 43.7281 19.1093 43.7748 19.3079C43.8099 19.4714 43.8741 19.5941 43.9676 19.6758C44.061 19.7459 44.1895 19.6817 44.3531 19.4831C44.6101 19.1677 44.8846 18.9574 45.1766 18.8523C45.4686 18.7472 45.7606 18.7121 46.0527 18.7472C46.3447 18.7705 46.6192 18.8465 46.8762 18.975C47.1449 19.0918 47.3785 19.2261 47.5771 19.378C47.7873 19.5298 47.9509 19.67 48.0677 19.7985C48.1845 19.927 48.2429 20.0146 48.2429 20.0613L48.6985 26.667L47.542 26.7546L47.2617 21.3054H43.7924L43.4244 26.8422L42.0928 26.9298L42.5483 18.9925L43.7048 18.5369ZM51.8762 24.7922C51.9463 24.9557 52.0514 25.0842 52.1916 25.1777C52.3318 25.2594 52.4953 25.3178 52.6822 25.3529C52.8691 25.3762 53.0677 25.3821 53.278 25.3704C53.4999 25.347 53.716 25.312 53.9263 25.2653C54.4286 25.1601 54.9834 24.9849 55.5908 24.7396C55.7427 24.7279 55.8829 24.7455 56.0114 24.7922C56.1165 24.8506 56.2099 24.944 56.2917 25.0725C56.3852 25.201 56.4319 25.4055 56.4319 25.6858C56.4319 25.9661 56.3326 26.1939 56.134 26.3691C55.9354 26.5327 55.6551 26.6612 55.293 26.7546C54.9425 26.8364 54.5162 26.8948 54.0139 26.9298C53.5233 26.9532 52.9742 26.9649 52.3668 26.9649C51.9697 26.9649 51.6309 26.8831 51.3506 26.7196C51.0702 26.556 50.8424 26.3399 50.6672 26.0713C50.492 25.8026 50.3577 25.4931 50.2642 25.1426C50.1708 24.7922 50.1007 24.4359 50.0539 24.0738C50.0072 23.7 49.978 23.332 49.9663 22.9699C49.9663 22.6078 49.9663 22.2749 49.9663 21.9712C49.9663 21.0717 50.3168 20.3709 51.0176 19.8686C51.7185 19.3663 52.8224 19.1151 54.3293 19.1151C54.7031 19.1151 55.0185 19.1794 55.2754 19.3079C55.5324 19.4247 55.7427 19.5824 55.9062 19.781C56.0698 19.9679 56.1924 20.1898 56.2742 20.4468C56.3676 20.6921 56.4319 20.9432 56.4669 21.2002C56.537 21.8076 56.4961 22.4968 56.3443 23.2678L51.333 23.443L51.8762 24.7922ZM51.5258 22.199L55.4857 22.0237C55.3572 21.685 55.2054 21.3754 55.0301 21.0951C54.8783 20.8615 54.6855 20.6454 54.4519 20.4468C54.23 20.2482 53.9671 20.1489 53.6634 20.1489C53.3597 20.1489 53.0794 20.2132 52.8224 20.3417C52.5654 20.4585 52.3435 20.5986 52.1566 20.7622C51.9813 20.914 51.8353 21.0659 51.7185 21.2177C51.6134 21.3696 51.5608 21.4747 51.5608 21.5331L51.5258 22.199ZM62.3366 20.7797C62.3366 20.7563 62.3483 20.7447 62.3716 20.7447C62.4067 20.733 62.4008 20.7096 62.3541 20.6746C62.3191 20.6395 62.2198 20.587 62.0562 20.5169C61.9044 20.4351 61.6416 20.3124 61.2678 20.1489C60.894 19.9971 60.5377 19.9737 60.1989 20.0788C59.8719 20.1723 59.5973 20.3241 59.3754 20.5344C59.1535 20.733 58.9958 20.9374 58.9023 21.1477C58.8205 21.3579 58.8322 21.4981 58.9374 21.5682C59.0425 21.6383 59.282 21.7317 59.6558 21.8485C60.0295 21.9653 60.4384 22.1055 60.8823 22.269C61.3378 22.4326 61.7876 22.6136 62.2315 22.8122C62.687 23.0108 63.0491 23.2211 63.3178 23.443C63.5865 23.665 63.7208 23.9395 63.7208 24.2665C63.7325 24.5936 63.6624 24.9265 63.5105 25.2653C63.3587 25.5924 63.1543 25.9077 62.8973 26.2115C62.652 26.5152 62.4067 26.7546 62.1614 26.9298C61.9161 27.1051 61.5948 27.1985 61.1977 27.2102C60.8005 27.2336 60.3858 27.2102 59.9536 27.1401C59.5331 27.0817 59.1184 27.0116 58.7096 26.9298C58.3007 26.8364 57.962 26.778 57.6933 26.7546C57.4246 26.7313 57.2085 26.6145 57.045 26.4042C56.8931 26.1939 56.7705 25.972 56.677 25.7384C56.5719 25.458 56.496 25.1426 56.4493 24.7922C56.5661 24.5936 56.6887 24.4534 56.8172 24.3717C56.934 24.3016 57.0742 24.2957 57.2377 24.3541C57.4013 24.4009 57.5823 24.5761 57.7809 24.8798C57.9795 25.1952 58.2891 25.4055 58.7096 25.5106C59.1301 25.604 59.5681 25.6274 60.0237 25.5807C60.4793 25.5223 60.8998 25.3996 61.2853 25.2127C61.6708 25.0141 61.9336 24.7805 62.0738 24.5118C62.1672 24.3366 62.1146 24.1789 61.9161 24.0388C61.7175 23.8869 61.4371 23.7467 61.075 23.6182C60.7246 23.4781 60.3216 23.3437 59.866 23.2152C59.4104 23.0867 58.9666 22.9466 58.5344 22.7947C58.1138 22.6428 57.7342 22.4793 57.3954 22.3041C57.0567 22.1172 56.8289 21.9069 56.7121 21.6733C56.5369 21.3229 56.5486 20.9666 56.7471 20.6045C56.934 20.2424 57.2319 19.9153 57.6407 19.6233C58.0496 19.3312 58.5227 19.0918 59.06 18.9049C59.5973 18.718 60.123 18.6245 60.637 18.6245C61.1509 18.6245 61.5247 18.7413 61.7584 18.975C62.0037 19.2086 62.1672 19.4656 62.249 19.7459C62.3424 20.0146 62.3775 20.2599 62.3541 20.4818C62.3424 20.7038 62.3366 20.8031 62.3366 20.7797Z" fill="#1A1A1A"/>
</g>
<g filter="url(#filter2_d_1102_42299)">
<mask id="path-3-outside-1_1102_42299" maskUnits="userSpaceOnUse" x="36.4357" y="30.2877" width="16" height="15" fill="black">
<rect fill="white" x="36.4357" y="30.2877" width="16" height="15"/>
<path d="M38.1769 34.632C38.2003 34.6203 38.2003 34.5502 38.1769 34.4217C38.1652 34.2932 38.1477 34.1355 38.1243 33.9486C38.101 33.75 38.0835 33.5456 38.0718 33.3353C38.0718 33.1134 38.0835 32.909 38.1068 32.7221C38.1419 32.5235 38.2061 32.3541 38.2996 32.2139C38.393 32.0738 38.5273 31.9862 38.7026 31.9511C38.9712 31.9044 39.2925 31.8752 39.6663 31.8635C40.0401 31.8401 40.4431 31.8752 40.8753 31.9686C41.3191 32.0504 41.7747 32.2023 42.242 32.4242C42.7092 32.6462 43.1648 32.9674 43.6087 33.3879C43.8306 33.5982 43.9474 33.8785 43.9591 34.229C43.9825 34.5677 43.9299 34.9473 43.8014 35.3679C43.6729 35.7767 43.4918 36.2148 43.2582 36.682C43.0246 37.1376 42.7676 37.5873 42.4873 38.0312C41.8331 39.0825 41.0154 40.2097 40.0342 41.4129L43.7839 41.6757L43.6087 43.2001L37.8089 42.9373C38.4865 41.664 39.1172 40.4609 39.7013 39.3278C39.9466 38.8489 40.1978 38.3641 40.4547 37.8735C40.7117 37.3829 40.957 36.9156 41.1907 36.4717C41.4243 36.0279 41.6345 35.6249 41.8214 35.2627C42.0083 34.8889 42.1602 34.5911 42.277 34.3691C42.4289 34.0771 42.4289 33.8844 42.277 33.7909C42.1251 33.6858 41.8915 33.6449 41.5761 33.6683C41.2724 33.6916 40.922 33.7559 40.5248 33.861C40.1277 33.9661 39.748 34.0829 39.3859 34.2114C39.0355 34.3282 38.7376 34.4334 38.4923 34.5268C38.2587 34.6086 38.1535 34.6436 38.1769 34.632ZM48.6889 43.6382L48.6013 41.2377L43.152 40.3441L47.7077 32.3191L50.0205 32.0562L49.9329 39.6257L51.3697 39.7133L51.5449 41.1501H49.9329V43.1125L48.6889 43.6382ZM48.4261 39.2752L48.5137 34.1063L45.3948 39.0124L48.4261 39.2752Z"/>
</mask>
<path d="M38.1769 34.632C38.2003 34.6203 38.2003 34.5502 38.1769 34.4217C38.1652 34.2932 38.1477 34.1355 38.1243 33.9486C38.101 33.75 38.0835 33.5456 38.0718 33.3353C38.0718 33.1134 38.0835 32.909 38.1068 32.7221C38.1419 32.5235 38.2061 32.3541 38.2996 32.2139C38.393 32.0738 38.5273 31.9862 38.7026 31.9511C38.9712 31.9044 39.2925 31.8752 39.6663 31.8635C40.0401 31.8401 40.4431 31.8752 40.8753 31.9686C41.3191 32.0504 41.7747 32.2023 42.242 32.4242C42.7092 32.6462 43.1648 32.9674 43.6087 33.3879C43.8306 33.5982 43.9474 33.8785 43.9591 34.229C43.9825 34.5677 43.9299 34.9473 43.8014 35.3679C43.6729 35.7767 43.4918 36.2148 43.2582 36.682C43.0246 37.1376 42.7676 37.5873 42.4873 38.0312C41.8331 39.0825 41.0154 40.2097 40.0342 41.4129L43.7839 41.6757L43.6087 43.2001L37.8089 42.9373C38.4865 41.664 39.1172 40.4609 39.7013 39.3278C39.9466 38.8489 40.1978 38.3641 40.4547 37.8735C40.7117 37.3829 40.957 36.9156 41.1907 36.4717C41.4243 36.0279 41.6345 35.6249 41.8214 35.2627C42.0083 34.8889 42.1602 34.5911 42.277 34.3691C42.4289 34.0771 42.4289 33.8844 42.277 33.7909C42.1251 33.6858 41.8915 33.6449 41.5761 33.6683C41.2724 33.6916 40.922 33.7559 40.5248 33.861C40.1277 33.9661 39.748 34.0829 39.3859 34.2114C39.0355 34.3282 38.7376 34.4334 38.4923 34.5268C38.2587 34.6086 38.1535 34.6436 38.1769 34.632ZM48.6889 43.6382L48.6013 41.2377L43.152 40.3441L47.7077 32.3191L50.0205 32.0562L49.9329 39.6257L51.3697 39.7133L51.5449 41.1501H49.9329V43.1125L48.6889 43.6382ZM48.4261 39.2752L48.5137 34.1063L45.3948 39.0124L48.4261 39.2752Z" fill="#1A1A1A"/>
<path d="M38.1769 34.632L38.4568 35.1917L38.4568 35.1917L38.1769 34.632ZM38.1769 34.4217L37.5537 34.4783L37.5562 34.5062L37.5612 34.5336L38.1769 34.4217ZM38.1243 33.9486L37.5028 34.0217L37.5034 34.0262L38.1243 33.9486ZM38.0718 33.3353H37.446V33.3527L37.447 33.3701L38.0718 33.3353ZM38.1068 32.7221L37.4906 32.6133L37.4878 32.6288L37.4859 32.6445L38.1068 32.7221ZM38.2996 32.2139L37.7789 31.8668H37.7789L38.2996 32.2139ZM38.7026 31.9511L38.5953 31.3346L38.5876 31.3359L38.5798 31.3375L38.7026 31.9511ZM39.6663 31.8635L39.6858 32.489L39.6956 32.4887L39.7053 32.4881L39.6663 31.8635ZM40.8753 31.9686L40.743 32.5803L40.7524 32.5823L40.7619 32.5841L40.8753 31.9686ZM42.242 32.4242L41.9735 32.9895L41.9735 32.9895L42.242 32.4242ZM43.6087 33.3879L43.1783 33.8422L43.1783 33.8422L43.6087 33.3879ZM43.9591 34.229L43.3337 34.2498L43.334 34.2609L43.3348 34.272L43.9591 34.229ZM43.8014 35.3679L44.3984 35.5555L44.3999 35.5507L43.8014 35.3679ZM43.2582 36.682L43.8151 36.9676L43.8179 36.9619L43.2582 36.682ZM42.4873 38.0312L41.9582 37.697L41.9559 37.7006L42.4873 38.0312ZM40.0342 41.4129L39.5493 41.0174L38.7864 41.9527L39.9905 42.0371L40.0342 41.4129ZM43.7839 41.6757L44.4056 41.7472L44.4803 41.0972L43.8276 41.0515L43.7839 41.6757ZM43.6087 43.2001L43.5803 43.8252L44.1637 43.8517L44.2303 43.2716L43.6087 43.2001ZM37.8089 42.9373L37.2565 42.6433L36.7913 43.5176L37.7806 43.5624L37.8089 42.9373ZM39.7013 39.3278L40.2575 39.6145L40.2583 39.6131L39.7013 39.3278ZM41.1907 36.4717L40.6369 36.1803L40.6369 36.1803L41.1907 36.4717ZM41.8214 35.2627L42.3776 35.5498L42.3811 35.5426L41.8214 35.2627ZM42.277 34.3691L42.8308 34.6606L42.8322 34.6578L42.277 34.3691ZM42.277 33.7909L41.9208 34.3054L41.9347 34.315L41.949 34.3239L42.277 33.7909ZM41.5761 33.6683L41.5299 33.0442L41.5281 33.0443L41.5761 33.6683ZM40.5248 33.861L40.3647 33.2561L40.5248 33.861ZM39.3859 34.2114L39.5838 34.8052L39.5952 34.8012L39.3859 34.2114ZM38.4923 34.5268L38.699 35.1175L38.7071 35.1146L38.7151 35.1116L38.4923 34.5268ZM38.4568 35.1917C38.6946 35.0728 38.7699 34.8605 38.7917 34.7842C38.8176 34.6937 38.8202 34.6139 38.8202 34.5706C38.8202 34.4787 38.8063 34.3852 38.7926 34.3097L37.5612 34.5336C37.5709 34.5867 37.5686 34.5925 37.5686 34.5706C37.5686 34.5624 37.5683 34.5104 37.5883 34.4403C37.6043 34.3844 37.6709 34.1853 37.897 34.0722L38.4568 35.1917ZM38.8001 34.365C38.7876 34.2272 38.7692 34.062 38.7453 33.871L37.5034 34.0262C37.5262 34.209 37.5429 34.3592 37.5537 34.4783L38.8001 34.365ZM38.7458 33.8755C38.724 33.6903 38.7076 33.4987 38.6966 33.3006L37.447 33.3701C37.4593 33.5925 37.4779 33.8097 37.5028 34.0217L38.7458 33.8755ZM38.6976 33.3353C38.6976 33.1349 38.7081 32.9568 38.7278 32.7997L37.4859 32.6445C37.4588 32.8612 37.446 33.0919 37.446 33.3353H38.6976ZM38.7231 32.8308C38.746 32.701 38.7833 32.6165 38.8202 32.5611L37.7789 31.8668C37.6289 32.0917 37.5377 32.346 37.4906 32.6133L38.7231 32.8308ZM38.8202 32.5611C38.8218 32.5587 38.8218 32.5592 38.8198 32.5612C38.8178 32.5632 38.8151 32.5654 38.8122 32.5673C38.8094 32.5691 38.8081 32.5695 38.8093 32.569C38.8107 32.5685 38.8156 32.5667 38.8253 32.5647L38.5798 31.3375C38.2528 31.4029 37.9704 31.5795 37.7789 31.8668L38.8202 32.5611ZM38.8098 32.5676C39.0411 32.5274 39.3314 32.5001 39.6858 32.489L39.6467 31.238C39.2535 31.2503 38.9014 31.2814 38.5953 31.3346L38.8098 32.5676ZM39.7053 32.4881C40.0124 32.4689 40.3572 32.4969 40.743 32.5803L41.0075 31.357C40.5289 31.2535 40.0677 31.2114 39.6272 31.239L39.7053 32.4881ZM40.7619 32.5841C41.145 32.6546 41.5485 32.7876 41.9735 32.9895L42.5105 31.859C42.0009 31.6169 41.4933 31.4462 40.9886 31.3532L40.7619 32.5841ZM41.9735 32.9895C42.3716 33.1786 42.7737 33.4589 43.1783 33.8422L44.039 32.9336C43.5558 32.4758 43.0468 32.1137 42.5105 31.859L41.9735 32.9895ZM43.1783 33.8422C43.263 33.9224 43.3266 34.0377 43.3337 34.2498L44.5845 34.2081C44.5682 33.7193 44.3982 33.2739 44.039 32.9336L43.1783 33.8422ZM43.3348 34.272C43.3516 34.5157 43.3154 34.8171 43.2029 35.185L44.3999 35.5507C44.5444 35.0776 44.6133 34.6197 44.5834 34.1859L43.3348 34.272ZM43.2044 35.1802C43.0878 35.5514 42.9204 35.9584 42.6985 36.4021L43.8179 36.9619C44.0633 36.4711 44.2581 36.002 44.3984 35.5555L43.2044 35.1802ZM42.7014 36.3965C42.4765 36.835 42.2288 37.2685 41.9582 37.697L43.0164 38.3653C43.3064 37.9061 43.5727 37.4401 43.8151 36.9676L42.7014 36.3965ZM41.9559 37.7006C41.3189 38.7245 40.5177 39.8299 39.5493 41.0174L40.5192 41.8084C41.5132 40.5895 42.3474 39.4405 43.0186 38.3618L41.9559 37.7006ZM39.9905 42.0371L43.7401 42.3L43.8276 41.0515L40.078 40.7886L39.9905 42.0371ZM43.1622 41.6043L42.987 43.1287L44.2303 43.2716L44.4056 41.7472L43.1622 41.6043ZM43.637 42.575L37.8373 42.3121L37.7806 43.5624L43.5803 43.8252L43.637 42.575ZM38.3614 43.2312C39.04 41.9559 39.6721 40.7503 40.2575 39.6145L39.1451 39.0411C38.5624 40.1714 37.9329 41.3722 37.2565 42.6433L38.3614 43.2312ZM40.2583 39.6131C40.5027 39.1359 40.7529 38.6528 41.0091 38.1639L39.9004 37.5831C39.6426 38.0754 39.3905 38.5618 39.1443 39.0425L40.2583 39.6131ZM41.0091 38.1639C41.2659 37.6736 41.511 37.2067 41.7444 36.7632L40.6369 36.1803C40.4031 36.6246 40.1576 37.0922 39.9004 37.5831L41.0091 38.1639ZM41.7444 36.7632C41.9786 36.3182 42.1897 35.9136 42.3775 35.5497L41.2654 34.9757C41.0794 35.3361 40.8699 35.7376 40.6369 36.1803L41.7444 36.7632ZM42.3811 35.5426C42.5672 35.1705 42.7169 34.877 42.8308 34.6606L41.7232 34.0777C41.6035 34.3051 41.4495 34.6074 41.2617 34.9829L42.3811 35.5426ZM42.8322 34.6578C42.9259 34.4776 43.0167 34.25 43.0167 34.0055C43.0167 33.713 42.8833 33.4292 42.605 33.258L41.949 34.3239C41.9019 34.2948 41.8481 34.2454 41.8096 34.1729C41.7724 34.1027 41.7651 34.0403 41.7651 34.0055C41.7651 33.9738 41.7709 33.9636 41.7653 33.9817C41.7599 33.9987 41.7475 34.031 41.7218 34.0804L42.8322 34.6578ZM42.6332 33.2764C42.3052 33.0493 41.8958 33.0171 41.5299 33.0442L41.6224 34.2923C41.7445 34.2833 41.8277 34.2887 41.88 34.2978C41.9321 34.3069 41.9373 34.3168 41.9208 34.3054L42.6332 33.2764ZM41.5281 33.0443C41.1761 33.0714 40.7868 33.1443 40.3647 33.2561L40.685 34.4659C41.0572 34.3674 41.3688 34.3118 41.6241 34.2922L41.5281 33.0443ZM40.3647 33.2561C39.9521 33.3653 39.556 33.4871 39.1766 33.6217L39.5952 34.8012C39.9401 34.6788 40.3032 34.567 40.685 34.4659L40.3647 33.2561ZM39.188 33.6178C38.8323 33.7363 38.5256 33.8445 38.2695 33.942L38.7151 35.1116C38.9496 35.0223 39.2386 34.9201 39.5838 34.8051L39.188 33.6178ZM38.2856 33.9362C38.169 33.977 38.0881 34.0048 38.0403 34.0208C38.0133 34.0298 38.007 34.0315 38.0116 34.0303C38.0131 34.0298 38.0218 34.0273 38.034 34.0245C38.0399 34.0231 38.0522 34.0203 38.0681 34.0175C38.0765 34.016 38.119 34.0084 38.1742 34.0084C38.1965 34.0084 38.2694 34.0088 38.3579 34.036C38.4265 34.0571 38.6997 34.1579 38.7808 34.4822C38.8528 34.7701 38.7005 34.9745 38.6744 35.0093C38.6283 35.0708 38.5814 35.1091 38.5649 35.1223C38.5266 35.153 38.4932 35.1719 38.4856 35.1762C38.4725 35.1837 38.462 35.1891 38.4568 35.1917L37.897 34.0722C37.8904 34.0756 37.8787 34.0816 37.8646 34.0896C37.856 34.0945 37.822 34.1139 37.7831 34.1449C37.7664 34.1583 37.7194 34.1967 37.6732 34.2584C37.647 34.2933 37.4946 34.4979 37.5666 34.7858C37.6477 35.1102 37.921 35.2111 37.9898 35.2322C38.0784 35.2595 38.1516 35.2599 38.1742 35.2599C38.2299 35.2599 38.2732 35.2522 38.2826 35.2505C38.2996 35.2476 38.3131 35.2445 38.3206 35.2427C38.336 35.2391 38.3487 35.2356 38.3554 35.2337C38.3804 35.2265 38.4106 35.2166 38.4361 35.2081C38.4935 35.189 38.5819 35.1584 38.699 35.1175L38.2856 33.9362ZM48.6889 43.6382L48.0635 43.661L48.0966 44.5678L48.9324 44.2146L48.6889 43.6382ZM48.6013 41.2377L49.2266 41.2148L49.208 40.703L48.7025 40.6201L48.6013 41.2377ZM43.152 40.3441L42.6078 40.0351L42.1644 40.8162L43.0507 40.9616L43.152 40.3441ZM47.7077 32.3191L47.637 31.6973L47.3206 31.7332L47.1635 32.0101L47.7077 32.3191ZM50.0205 32.0562L50.6463 32.0635L50.6545 31.3544L49.9499 31.4345L50.0205 32.0562ZM49.9329 39.6257L49.3072 39.6184L49.3003 40.214L49.8948 40.2503L49.9329 39.6257ZM51.3697 39.7133L51.9909 39.6375L51.9278 39.1204L51.4078 39.0887L51.3697 39.7133ZM51.5449 41.1501V41.7758H52.2517L52.1661 41.0743L51.5449 41.1501ZM49.9329 41.1501V40.5243H49.3072V41.1501H49.9329ZM49.9329 43.1125L50.1765 43.6889L50.5587 43.5274V43.1125H49.9329ZM48.4261 39.2752L48.372 39.8987L49.0404 39.9566L49.0517 39.2858L48.4261 39.2752ZM48.5137 34.1063L49.1394 34.1169L49.177 31.8964L47.9856 33.7706L48.5137 34.1063ZM45.3948 39.0124L44.8667 38.6767L44.3136 39.5468L45.3407 39.6358L45.3948 39.0124ZM49.3142 43.6153L49.2266 41.2148L47.9759 41.2605L48.0635 43.661L49.3142 43.6153ZM48.7025 40.6201L43.2533 39.7265L43.0507 40.9616L48.5 41.8552L48.7025 40.6201ZM43.6962 40.653L48.2519 32.628L47.1635 32.0101L42.6078 40.0351L43.6962 40.653ZM47.7783 32.9409L50.0912 32.678L49.9499 31.4345L47.637 31.6973L47.7783 32.9409ZM49.3948 32.049L49.3072 39.6184L50.5587 39.6329L50.6463 32.0635L49.3948 32.049ZM49.8948 40.2503L51.3316 40.3379L51.4078 39.0887L49.971 39.001L49.8948 40.2503ZM50.7485 39.789L50.9238 41.2258L52.1661 41.0743L51.9909 39.6375L50.7485 39.789ZM51.5449 40.5243H49.9329V41.7758H51.5449V40.5243ZM49.3072 41.1501V43.1125H50.5587V41.1501H49.3072ZM49.6894 42.5361L48.4453 43.0617L48.9324 44.2146L50.1765 43.6889L49.6894 42.5361ZM49.0517 39.2858L49.1394 34.1169L47.888 34.0957L47.8004 39.2646L49.0517 39.2858ZM47.9856 33.7706L44.8667 38.6767L45.9229 39.3481L49.0418 34.442L47.9856 33.7706ZM45.3407 39.6358L48.372 39.8987L48.4801 38.6518L45.4488 38.389L45.3407 39.6358Z" fill="white" mask="url(#path-3-outside-1_1102_42299)"/>
</g>
<g filter="url(#filter3_d_1102_42299)">
<path d="M27.4233 14.518L18.0783 23.5293V37.0461L27.4233 46.0573V14.518Z" fill="#D6D6D6" shape-rendering="crispEdges"/>
<path d="M62.4669 46.0573L71.8118 37.0461V23.5293L62.4669 14.518L62.4669 46.0573Z" fill="#D6D6D6" shape-rendering="crispEdges"/>
<path d="M27.4233 14.518L62.4669 14.518L62.4669 46.0573H27.4233V14.518Z" fill="#D6D6D6" shape-rendering="crispEdges"/>
<path d="M6.39714 40.4253L18.0783 37.0461L27.4233 46.0573L21.5827 55.0685L6.39714 40.4253Z" fill="#B9B9B9" shape-rendering="crispEdges"/>
<path d="M6.39714 20.15L18.0783 23.5293L27.4233 14.518L21.5827 5.50684L6.39714 20.15Z" fill="#CDCDCD" shape-rendering="crispEdges"/>
<path d="M62.4669 14.518L68.3075 5.50684L83.493 20.15L71.8118 23.5293L62.4669 14.518Z" fill="#D3D2D2" shape-rendering="crispEdges"/>
<path d="M83.493 40.4253L71.8118 37.0461L62.4669 46.0573L68.3075 55.0685L83.493 40.4253Z" fill="#B9B9B9" shape-rendering="crispEdges"/>
<path d="M68.3075 55.0685L62.4669 46.0573H27.4233L21.5827 55.0685H68.3075Z" fill="#AFAEAE" shape-rendering="crispEdges"/>
<path d="M27.4233 14.518L21.5827 5.50684L68.3075 5.50684L62.4669 14.518L27.4233 14.518Z" fill="#DDDDDD" shape-rendering="crispEdges"/>
<path d="M6.39714 20.15L18.0783 23.5293V37.0461L6.39714 40.4253V20.15Z" fill="#C4C4C4" shape-rendering="crispEdges"/>
<path d="M83.493 20.15L71.8118 23.5293V37.0461L83.493 40.4253V20.15Z" fill="#CACACA" shape-rendering="crispEdges"/>
<path d="M28.0074 44.9309L50.7857 46.0573H28.0074L24.503 50.5629L26.8392 45.4941L18.0783 37.0461L28.0074 44.9309Z" fill="white" shape-rendering="crispEdges"/>
<path d="M61.8828 15.6444L39.1045 14.518L61.8828 14.518L65.3872 10.0124L63.0509 15.0812L71.8118 23.5293L61.8828 15.6444Z" fill="white" shape-rendering="crispEdges"/>
<path d="M66.7889 5.50684H56.4441L43.377 14.5219H58.0775L66.7889 5.50684Z" fill="white" fill-opacity="0.3" shape-rendering="crispEdges"/>
<path d="M41.1992 14.5219L49.3661 5.50684H36.299L34.6656 14.5219H41.1992Z" fill="white" fill-opacity="0.3" shape-rendering="crispEdges"/>
</g>
<g filter="url(#filter4_d_1102_42299)">
<path d="M28.2787 25.4653L28.7167 14.6719L30.7668 14.8471L32.3788 19.21L34.7792 14.6719H36.7417V25.6405H35.1472V17.0723L33.2724 20.9972L31.9232 21.0848L30.5039 17.7031L30.1535 25.0973L28.2787 25.4653ZM37.378 17.5279L41.04 17.2476L40.9349 25.0973L39.5156 25.6405L39.428 18.9472L37.6408 19.21L37.378 17.5279ZM41.1276 14.6719L41.3904 16.0035L39.3404 16.0911L39.7784 14.9347L41.1276 14.6719ZM43.7058 17.16C43.7058 17.4753 43.7291 17.7323 43.7759 17.9309C43.8109 18.0945 43.8752 18.2171 43.9686 18.2989C44.0621 18.369 44.1906 18.3047 44.3541 18.1061C44.6111 17.7907 44.8856 17.5805 45.1776 17.4753C45.4696 17.3702 45.7617 17.3352 46.0537 17.3702C46.3457 17.3936 46.6202 17.4695 46.8772 17.598C47.1459 17.7148 47.3795 17.8491 47.5781 18.001C47.7884 18.1529 47.9519 18.293 48.0687 18.4215C48.1855 18.55 48.2439 18.6376 48.2439 18.6844L48.6995 25.2901L47.5431 25.3777L47.2627 19.9284H43.7934L43.4254 25.4653L42.0938 25.5529L42.5493 17.6155L43.7058 17.16ZM51.8772 23.4152C51.9473 23.5788 52.0525 23.7073 52.1926 23.8007C52.3328 23.8825 52.4963 23.9409 52.6832 23.9759C52.8701 23.9993 53.0687 24.0051 53.279 23.9935C53.5009 23.9701 53.717 23.935 53.9273 23.8883C54.4296 23.7832 54.9844 23.608 55.5919 23.3627C55.7437 23.351 55.8839 23.3685 56.0124 23.4152C56.1175 23.4736 56.211 23.5671 56.2927 23.6956C56.3862 23.8241 56.4329 24.0285 56.4329 24.3088C56.4329 24.5892 56.3336 24.817 56.135 24.9922C55.9365 25.1557 55.6561 25.2842 55.294 25.3777C54.9435 25.4594 54.5172 25.5179 54.0149 25.5529C53.5243 25.5763 52.9753 25.5879 52.3678 25.5879C51.9707 25.5879 51.6319 25.5062 51.3516 25.3426C51.0712 25.1791 50.8434 24.963 50.6682 24.6943C50.493 24.4257 50.3587 24.1161 50.2652 23.7657C50.1718 23.4152 50.1017 23.059 50.055 22.6968C50.0082 22.323 49.979 21.9551 49.9674 21.593C49.9674 21.2309 49.9674 20.8979 49.9674 20.5942C49.9674 19.6948 50.3178 18.9939 51.0187 18.4916C51.7195 17.9893 52.8234 17.7382 54.3303 17.7382C54.7041 17.7382 55.0195 17.8024 55.2765 17.9309C55.5334 18.0477 55.7437 18.2054 55.9072 18.404C56.0708 18.5909 56.1934 18.8128 56.2752 19.0698C56.3687 19.3151 56.4329 19.5663 56.4679 19.8233C56.538 20.4307 56.4971 21.1199 56.3453 21.8908L51.3341 22.0661L51.8772 23.4152ZM51.5268 20.822L55.4867 20.6468C55.3582 20.308 55.2064 19.9985 55.0312 19.7181C54.8793 19.4845 54.6866 19.2684 54.4529 19.0698C54.231 18.8712 53.9682 18.772 53.6645 18.772C53.3607 18.772 53.0804 18.8362 52.8234 18.9647C52.5664 19.0815 52.3445 19.2217 52.1576 19.3852C51.9824 19.5371 51.8364 19.6889 51.7195 19.8408C51.6144 19.9926 51.5618 20.0978 51.5618 20.1562L51.5268 20.822ZM62.3376 19.4027C62.3376 19.3794 62.3493 19.3677 62.3727 19.3677C62.4077 19.356 62.4019 19.3327 62.3551 19.2976C62.3201 19.2626 62.2208 19.21 62.0573 19.1399C61.9054 19.0581 61.6426 18.9355 61.2688 18.772C60.895 18.6201 60.5387 18.5967 60.1999 18.7019C59.8729 18.7953 59.5984 18.9472 59.3764 19.1574C59.1545 19.356 58.9968 19.5604 58.9033 19.7707C58.8216 19.981 58.8332 20.1211 58.9384 20.1912C59.0435 20.2613 59.283 20.3548 59.6568 20.4716C60.0306 20.5884 60.4394 20.7286 60.8833 20.8921C61.3389 21.0556 61.7886 21.2367 62.2325 21.4353C62.688 21.6339 63.0502 21.8441 63.3188 22.0661C63.5875 22.288 63.7218 22.5625 63.7218 22.8896C63.7335 23.2167 63.6634 23.5496 63.5116 23.8883C63.3597 24.2154 63.1553 24.5308 62.8983 24.8345C62.653 25.1382 62.4077 25.3777 62.1624 25.5529C61.9171 25.7281 61.5959 25.8216 61.1987 25.8332C60.8015 25.8566 60.3868 25.8332 59.9546 25.7632C59.5341 25.7047 59.1194 25.6347 58.7106 25.5529C58.3018 25.4594 57.963 25.401 57.6943 25.3777C57.4257 25.3543 57.2096 25.2375 57.046 25.0272C56.8942 24.817 56.7715 24.595 56.6781 24.3614C56.5729 24.0811 56.497 23.7657 56.4503 23.4152C56.5671 23.2167 56.6897 23.0765 56.8182 22.9947C56.9351 22.9246 57.0752 22.9188 57.2388 22.9772C57.4023 23.0239 57.5834 23.1991 57.7819 23.5028C57.9805 23.8182 58.2901 24.0285 58.7106 24.1336C59.1311 24.2271 59.5692 24.2504 60.0247 24.2037C60.4803 24.1453 60.9008 24.0227 61.2863 23.8358C61.6718 23.6372 61.9346 23.4036 62.0748 23.1349C62.1682 22.9597 62.1157 22.802 61.9171 22.6618C61.7185 22.5099 61.4382 22.3698 61.076 22.2413C60.7256 22.1011 60.3226 21.9668 59.867 21.8383C59.4115 21.7098 58.9676 21.5696 58.5354 21.4178C58.1149 21.2659 57.7352 21.1024 57.3965 20.9271C57.0577 20.7402 56.8299 20.53 56.7131 20.2964C56.5379 19.9459 56.5496 19.5896 56.7482 19.2275C56.9351 18.8654 57.2329 18.5383 57.6418 18.2463C58.0506 17.9543 58.5237 17.7148 59.061 17.5279C59.5984 17.341 60.124 17.2476 60.638 17.2476C61.152 17.2476 61.5258 17.3644 61.7594 17.598C62.0047 17.8316 62.1682 18.0886 62.25 18.369C62.3434 18.6376 62.3785 18.8829 62.3551 19.1049C62.3434 19.3268 62.3376 19.4261 62.3376 19.4027Z" fill="#432A0C"/>
</g>
<g filter="url(#filter5_d_1102_42299)">
<mask id="path-7-outside-2_1102_42299" maskUnits="userSpaceOnUse" x="36.4378" y="28.9109" width="16" height="15" fill="black">
<rect fill="white" x="36.4378" y="28.9109" width="16" height="15"/>
<path d="M38.1789 33.2551C38.2023 33.2434 38.2023 33.1734 38.1789 33.0449C38.1673 32.9164 38.1497 32.7587 38.1264 32.5718C38.103 32.3732 38.0855 32.1688 38.0738 31.9585C38.0738 31.7366 38.0855 31.5321 38.1088 31.3452C38.1439 31.1467 38.2081 30.9773 38.3016 30.8371C38.395 30.6969 38.5294 30.6093 38.7046 30.5743C38.9733 30.5276 39.2945 30.4984 39.6683 30.4867C40.0421 30.4633 40.4451 30.4984 40.8773 30.5918C41.3212 30.6736 41.7767 30.8254 42.244 31.0474C42.7112 31.2693 43.1668 31.5906 43.6107 32.0111C43.8326 32.2213 43.9494 32.5017 43.9611 32.8521C43.9845 33.1909 43.9319 33.5705 43.8034 33.991C43.6749 34.3999 43.4939 34.8379 43.2603 35.3052C43.0266 35.7607 42.7696 36.2105 42.4893 36.6544C41.8351 37.7057 41.0175 38.8329 40.0362 40.0361L43.7859 40.2989L43.6107 41.8233L37.811 41.5605C38.4885 40.2872 39.1193 39.084 39.7033 37.951C39.9486 37.472 40.1998 36.9873 40.4568 36.4967C40.7138 36.006 40.9591 35.5388 41.1927 35.0949C41.4263 34.651 41.6366 34.248 41.8235 33.8859C42.0104 33.5121 42.1622 33.2142 42.279 32.9923C42.4309 32.7003 42.4309 32.5075 42.279 32.4141C42.1272 32.3089 41.8936 32.2681 41.5782 32.2914C41.2744 32.3148 40.924 32.379 40.5269 32.4842C40.1297 32.5893 39.7501 32.7061 39.3879 32.8346C39.0375 32.9514 38.7396 33.0565 38.4943 33.15C38.2607 33.2318 38.1556 33.2668 38.1789 33.2551ZM48.6909 42.2613L48.6033 39.8608L43.154 38.9672L47.7097 30.9422L50.0226 30.6794L49.935 38.2488L51.3717 38.3364L51.547 39.7732H49.935V41.7357L48.6909 42.2613ZM48.4281 37.8984L48.5157 32.7295L45.3968 37.6356L48.4281 37.8984Z"/>
</mask>
<path d="M38.1789 33.2551C38.2023 33.2434 38.2023 33.1734 38.1789 33.0449C38.1673 32.9164 38.1497 32.7587 38.1264 32.5718C38.103 32.3732 38.0855 32.1688 38.0738 31.9585C38.0738 31.7366 38.0855 31.5321 38.1088 31.3452C38.1439 31.1467 38.2081 30.9773 38.3016 30.8371C38.395 30.6969 38.5294 30.6093 38.7046 30.5743C38.9733 30.5276 39.2945 30.4984 39.6683 30.4867C40.0421 30.4633 40.4451 30.4984 40.8773 30.5918C41.3212 30.6736 41.7767 30.8254 42.244 31.0474C42.7112 31.2693 43.1668 31.5906 43.6107 32.0111C43.8326 32.2213 43.9494 32.5017 43.9611 32.8521C43.9845 33.1909 43.9319 33.5705 43.8034 33.991C43.6749 34.3999 43.4939 34.8379 43.2603 35.3052C43.0266 35.7607 42.7696 36.2105 42.4893 36.6544C41.8351 37.7057 41.0175 38.8329 40.0362 40.0361L43.7859 40.2989L43.6107 41.8233L37.811 41.5605C38.4885 40.2872 39.1193 39.084 39.7033 37.951C39.9486 37.472 40.1998 36.9873 40.4568 36.4967C40.7138 36.006 40.9591 35.5388 41.1927 35.0949C41.4263 34.651 41.6366 34.248 41.8235 33.8859C42.0104 33.5121 42.1622 33.2142 42.279 32.9923C42.4309 32.7003 42.4309 32.5075 42.279 32.4141C42.1272 32.3089 41.8936 32.2681 41.5782 32.2914C41.2744 32.3148 40.924 32.379 40.5269 32.4842C40.1297 32.5893 39.7501 32.7061 39.3879 32.8346C39.0375 32.9514 38.7396 33.0565 38.4943 33.15C38.2607 33.2318 38.1556 33.2668 38.1789 33.2551ZM48.6909 42.2613L48.6033 39.8608L43.154 38.9672L47.7097 30.9422L50.0226 30.6794L49.935 38.2488L51.3717 38.3364L51.547 39.7732H49.935V41.7357L48.6909 42.2613ZM48.4281 37.8984L48.5157 32.7295L45.3968 37.6356L48.4281 37.8984Z" fill="#432A0C"/>
<path d="M38.1789 33.2551L38.4588 33.8148L38.4588 33.8148L38.1789 33.2551ZM38.1789 33.0449L37.5557 33.1015L37.5583 33.1293L37.5632 33.1568L38.1789 33.0449ZM38.1264 32.5718L37.5049 32.6449L37.5054 32.6494L38.1264 32.5718ZM38.0738 31.9585H37.448V31.9759L37.449 31.9932L38.0738 31.9585ZM38.1088 31.3452L37.4926 31.2365L37.4899 31.252L37.4879 31.2676L38.1088 31.3452ZM38.3016 30.8371L37.7809 30.49H37.7809L38.3016 30.8371ZM38.7046 30.5743L38.5974 29.9578L38.5896 29.9591L38.5819 29.9607L38.7046 30.5743ZM39.6683 30.4867L39.6878 31.1122L39.6976 31.1118L39.7073 31.1112L39.6683 30.4867ZM40.8773 30.5918L40.745 31.2035L40.7545 31.2055L40.7639 31.2072L40.8773 30.5918ZM42.244 31.0474L41.9755 31.6126L41.9755 31.6126L42.244 31.0474ZM43.6107 32.0111L43.1803 32.4654L43.1803 32.4654L43.6107 32.0111ZM43.9611 32.8521L43.3357 32.873L43.3361 32.8841L43.3368 32.8952L43.9611 32.8521ZM43.8034 33.991L44.4004 34.1787L44.4019 34.1739L43.8034 33.991ZM43.2603 35.3052L43.8171 35.5907L43.82 35.585L43.2603 35.3052ZM42.4893 36.6544L41.9602 36.3202L41.958 36.3238L42.4893 36.6544ZM40.0362 40.0361L39.5513 39.6406L38.7885 40.5759L39.9925 40.6603L40.0362 40.0361ZM43.7859 40.2989L44.4076 40.3703L44.4823 39.7204L43.8297 39.6746L43.7859 40.2989ZM43.6107 41.8233L43.5824 42.4484L44.1657 42.4749L44.2324 41.8947L43.6107 41.8233ZM37.811 41.5605L37.2585 41.2665L36.7933 42.1408L37.7826 42.1856L37.811 41.5605ZM39.7033 37.951L40.2596 38.2377L40.2603 38.2362L39.7033 37.951ZM41.1927 35.0949L40.6389 34.8035L40.6389 34.8035L41.1927 35.0949ZM41.8235 33.8859L42.3796 34.1729L42.3832 34.1658L41.8235 33.8859ZM42.279 32.9923L42.8328 33.2838L42.8342 33.281L42.279 32.9923ZM42.279 32.4141L41.9228 32.9286L41.9367 32.9382L41.9511 32.947L42.279 32.4141ZM41.5782 32.2914L41.5319 31.6674L41.5302 31.6675L41.5782 32.2914ZM40.5269 32.4842L40.3667 31.8792L40.5269 32.4842ZM39.3879 32.8346L39.5859 33.4284L39.5972 33.4244L39.3879 32.8346ZM38.4943 33.15L38.7011 33.7406L38.7091 33.7378L38.7171 33.7348L38.4943 33.15ZM38.4588 33.8148C38.6966 33.6959 38.772 33.4837 38.7938 33.4073C38.8196 33.3168 38.8222 33.2371 38.8222 33.1938C38.8222 33.1019 38.8083 33.0083 38.7946 32.9329L37.5632 33.1568C37.5729 33.2099 37.5707 33.2156 37.5707 33.1938C37.5707 33.1856 37.5704 33.1335 37.5904 33.0635C37.6063 33.0076 37.673 32.8085 37.8991 32.6954L38.4588 33.8148ZM38.8021 32.9882C38.7896 32.8503 38.7712 32.6852 38.7473 32.4942L37.5054 32.6494C37.5283 32.8322 37.5449 32.9824 37.5557 33.1015L38.8021 32.9882ZM38.7479 32.4987C38.7261 32.3135 38.7096 32.1219 38.6986 31.9238L37.449 31.9932C37.4613 32.2156 37.4799 32.4329 37.5049 32.6449L38.7479 32.4987ZM38.6996 31.9585C38.6996 31.7581 38.7102 31.58 38.7298 31.4229L37.4879 31.2676C37.4608 31.4843 37.448 31.7151 37.448 31.9585H38.6996ZM38.7251 31.454C38.748 31.3241 38.7853 31.2397 38.8223 31.1842L37.7809 30.49C37.631 30.7149 37.5398 30.9692 37.4926 31.2365L38.7251 31.454ZM38.8223 31.1842C38.8238 31.1819 38.8238 31.1824 38.8218 31.1843C38.8198 31.1864 38.8171 31.1886 38.8143 31.1904C38.8115 31.1923 38.8101 31.1927 38.8114 31.1922C38.8127 31.1917 38.8177 31.1898 38.8273 31.1879L38.5819 29.9607C38.2549 30.0261 37.9724 30.2027 37.7809 30.49L38.8223 31.1842ZM38.8118 31.1908C39.0431 31.1506 39.3335 31.1232 39.6878 31.1122L39.6487 29.8612C39.2555 29.8735 38.9034 29.9045 38.5974 29.9578L38.8118 31.1908ZM39.7073 31.1112C40.0145 31.092 40.3592 31.12 40.745 31.2035L41.0095 29.9802C40.5309 29.8767 40.0697 29.8346 39.6292 29.8621L39.7073 31.1112ZM40.7639 31.2072C41.147 31.2778 41.5505 31.4108 41.9755 31.6126L42.5125 30.4821C42.003 30.2401 41.4954 30.0694 40.9907 29.9764L40.7639 31.2072ZM41.9755 31.6126C42.3736 31.8017 42.7758 32.0821 43.1803 32.4654L44.0411 31.5568C43.5579 31.099 43.0489 30.7369 42.5125 30.4821L41.9755 31.6126ZM43.1803 32.4654C43.265 32.5456 43.3286 32.6609 43.3357 32.873L44.5866 32.8313C44.5703 32.3425 44.4003 31.8971 44.0411 31.5568L43.1803 32.4654ZM43.3368 32.8952C43.3536 33.1389 43.3174 33.4402 43.205 33.8082L44.4019 34.1739C44.5465 33.7008 44.6153 33.2429 44.5854 32.8091L43.3368 32.8952ZM43.2064 33.8034C43.0898 34.1746 42.9224 34.5816 42.7005 35.0253L43.82 35.585C44.0654 35.0943 44.2601 34.6252 44.4004 34.1787L43.2064 33.8034ZM42.7034 35.0196C42.4785 35.4582 42.2308 35.8917 41.9602 36.3202L43.0184 36.9885C43.3084 36.5292 43.5747 36.0633 43.8171 35.5907L42.7034 35.0196ZM41.958 36.3238C41.3209 37.3476 40.5197 38.4531 39.5513 39.6406L40.5212 40.4316C41.5152 39.2127 42.3494 38.0637 43.0206 36.985L41.958 36.3238ZM39.9925 40.6603L43.7422 40.9231L43.8297 39.6746L40.08 39.4118L39.9925 40.6603ZM43.1642 40.2274L42.989 41.7518L44.2324 41.8947L44.4076 40.3703L43.1642 40.2274ZM43.639 41.1981L37.8393 40.9353L37.7826 42.1856L43.5824 42.4484L43.639 41.1981ZM38.3634 41.8544C39.042 40.5791 39.6741 39.3735 40.2596 38.2377L39.1471 37.6642C38.5644 38.7946 37.9349 39.9953 37.2585 41.2665L38.3634 41.8544ZM40.2603 38.2362C40.5047 37.7591 40.755 37.276 41.0111 36.787L39.9024 36.2063C39.6446 36.6985 39.3926 37.185 39.1464 37.6657L40.2603 38.2362ZM41.0111 36.787C41.2679 36.2967 41.513 35.8299 41.7464 35.3864L40.6389 34.8035C40.4051 35.2477 40.1596 35.7154 39.9024 36.2063L41.0111 36.787ZM41.7464 35.3864C41.9807 34.9413 42.1917 34.5368 42.3795 34.1729L41.2674 33.5989C41.0814 33.9592 40.8719 34.3607 40.6389 34.8035L41.7464 35.3864ZM42.3832 34.1658C42.5692 33.7937 42.7189 33.5002 42.8328 33.2838L41.7253 32.7008C41.6055 32.9283 41.4515 33.2306 41.2638 33.6061L42.3832 34.1658ZM42.8342 33.281C42.928 33.1008 43.0187 32.8732 43.0187 32.6287C43.0187 32.3362 42.8853 32.0524 42.607 31.8811L41.9511 32.947C41.9039 32.918 41.8501 32.8685 41.8117 32.7961C41.7744 32.7259 41.7671 32.6635 41.7671 32.6287C41.7671 32.597 41.773 32.5867 41.7673 32.6048C41.7619 32.6219 41.7495 32.6542 41.7238 32.7036L42.8342 33.281ZM42.6352 31.8996C42.3073 31.6725 41.8978 31.6403 41.5319 31.6674L41.6244 32.9155C41.7465 32.9064 41.8297 32.9118 41.8821 32.921C41.9341 32.9301 41.9393 32.94 41.9228 32.9286L42.6352 31.8996ZM41.5302 31.6675C41.1781 31.6946 40.7888 31.7675 40.3667 31.8792L40.687 33.0891C41.0592 32.9906 41.3708 32.935 41.6262 32.9154L41.5302 31.6675ZM40.3667 31.8792C39.9541 31.9884 39.558 32.1102 39.1787 32.2448L39.5972 33.4244C39.9421 33.302 40.3053 33.1901 40.687 33.0891L40.3667 31.8792ZM39.19 32.2409C38.8343 32.3595 38.5276 32.4677 38.2716 32.5652L38.7171 33.7348C38.9516 33.6454 39.2407 33.5433 39.5858 33.4283L39.19 32.2409ZM38.2876 32.5593C38.1711 32.6001 38.0902 32.628 38.0424 32.6439C38.0153 32.653 38.0091 32.6547 38.0136 32.6534C38.0152 32.653 38.0238 32.6505 38.036 32.6476C38.042 32.6462 38.0543 32.6434 38.0702 32.6407C38.0785 32.6392 38.1211 32.6315 38.1762 32.6315C38.1985 32.6315 38.2715 32.632 38.3599 32.6592C38.4285 32.6803 38.7018 32.7811 38.7828 33.1054C38.8548 33.3932 38.7025 33.5977 38.6764 33.6325C38.6303 33.694 38.5834 33.7323 38.567 33.7454C38.5286 33.7761 38.4952 33.7951 38.4876 33.7994C38.4745 33.8069 38.464 33.8122 38.4588 33.8148L37.8991 32.6954C37.8924 32.6988 37.8807 32.7047 37.8666 32.7128C37.8581 32.7176 37.824 32.737 37.7851 32.7681C37.7685 32.7815 37.7214 32.8199 37.6752 32.8815C37.649 32.9164 37.4967 33.121 37.5687 33.409C37.6498 33.7334 37.9231 33.8342 37.9919 33.8554C38.0804 33.8826 38.1536 33.8831 38.1762 33.8831C38.2319 33.8831 38.2752 33.8753 38.2846 33.8737C38.3016 33.8707 38.3152 33.8677 38.3227 33.8659C38.338 33.8623 38.3507 33.8587 38.3574 33.8568C38.3824 33.8497 38.4126 33.8398 38.4381 33.8313C38.4955 33.8122 38.584 33.7816 38.7011 33.7406L38.2876 32.5593ZM48.6909 42.2613L48.0656 42.2841L48.0986 43.1909L48.9345 42.8378L48.6909 42.2613ZM48.6033 39.8608L49.2287 39.838L49.21 39.3262L48.7046 39.2433L48.6033 39.8608ZM43.154 38.9672L42.6098 38.6583L42.1664 39.4394L43.0528 39.5848L43.154 38.9672ZM47.7097 30.9422L47.639 30.3205L47.3227 30.3564L47.1655 30.6333L47.7097 30.9422ZM50.0226 30.6794L50.6483 30.6867L50.6565 29.9776L49.9519 30.0576L50.0226 30.6794ZM49.935 38.2488L49.3092 38.2416L49.3023 38.8372L49.8969 38.8735L49.935 38.2488ZM51.3717 38.3364L51.9929 38.2607L51.9299 37.7435L51.4098 37.7118L51.3717 38.3364ZM51.547 39.7732V40.399H52.2537L52.1681 39.6975L51.547 39.7732ZM49.935 39.7732V39.1475H49.3092V39.7732H49.935ZM49.935 41.7357L50.1785 42.3121L50.5607 42.1506V41.7357H49.935ZM48.4281 37.8984L48.374 38.5218L49.0424 38.5798L49.0538 37.909L48.4281 37.8984ZM48.5157 32.7295L49.1414 32.7401L49.179 30.5196L47.9876 32.3937L48.5157 32.7295ZM45.3968 37.6356L44.8687 37.2998L44.3156 38.1699L45.3428 38.259L45.3968 37.6356ZM49.3163 42.2385L49.2287 39.838L47.9779 39.8837L48.0656 42.2841L49.3163 42.2385ZM48.7046 39.2433L43.2553 38.3497L43.0528 39.5848L48.502 40.4784L48.7046 39.2433ZM43.6982 39.2762L48.2539 31.2512L47.1655 30.6333L42.6098 38.6583L43.6982 39.2762ZM47.7803 31.564L50.0932 31.3012L49.9519 30.0576L47.639 30.3205L47.7803 31.564ZM49.3968 30.6722L49.3092 38.2416L50.5607 38.2561L50.6483 30.6867L49.3968 30.6722ZM49.8969 38.8735L51.3337 38.9611L51.4098 37.7118L49.973 37.6242L49.8969 38.8735ZM50.7506 38.4122L50.9258 39.849L52.1681 39.6975L51.9929 38.2607L50.7506 38.4122ZM51.547 39.1475H49.935V40.399H51.547V39.1475ZM49.3092 39.7732V41.7357H50.5607V39.7732H49.3092ZM49.6914 41.1592L48.4474 41.6849L48.9345 42.8378L50.1785 42.3121L49.6914 41.1592ZM49.0538 37.909L49.1414 32.7401L47.89 32.7189L47.8024 37.8878L49.0538 37.909ZM47.9876 32.3937L44.8687 37.2998L45.9249 37.9713L49.0438 33.0652L47.9876 32.3937ZM45.3428 38.259L48.374 38.5218L48.4821 37.275L45.4509 37.0121L45.3428 38.259Z" fill="white" mask="url(#path-7-outside-2_1102_42299)"/>
</g>
</g>
<defs>
<filter id="filter0_d_1102_42299" x="0.89035" y="0" width="88.1096" height="63.3287" filterUnits="userSpaceOnUse" color-interpolation-filters="sRGB">
<feFlood flood-opacity="0" result="BackgroundImageFix"/>
<feColorMatrix in="SourceAlpha" type="matrix" values="0 0 0 0 0 0 0 0 0 0 0 0 0 0 0 0 0 0 127 0" result="hardAlpha"/>
<feOffset dy="2.75342"/>
<feComposite in2="hardAlpha" operator="out"/>
<feColorMatrix type="matrix" values="0 0 0 0 0.278431 0 0 0 0 0.156863 0 0 0 0 0.0980392 0 0 0 1 0"/>
<feBlend mode="normal" in2="BackgroundImageFix" result="effect1_dropShadow_1102_42299"/>
<feBlend mode="normal" in="SourceGraphic" in2="effect1_dropShadow_1102_42299" result="shape"/>
</filter>
<filter id="filter1_d_1102_42299" x="28.2776" y="16.0488" width="35.4607" height="12.448" filterUnits="userSpaceOnUse" color-interpolation-filters="sRGB">
<feFlood flood-opacity="0" result="BackgroundImageFix"/>
<feColorMatrix in="SourceAlpha" type="matrix" values="0 0 0 0 0 0 0 0 0 0 0 0 0 0 0 0 0 0 127 0" result="hardAlpha"/>
<feOffset dy="1.25156"/>
<feComposite in2="hardAlpha" operator="out"/>
<feColorMatrix type="matrix" values="0 0 0 0 0 0 0 0 0 0 0 0 0 0 0 0 0 0 0.25 0"/>
<feBlend mode="normal" in2="BackgroundImageFix" result="effect1_dropShadow_1102_42299"/>
<feBlend mode="normal" in="SourceGraphic" in2="effect1_dropShadow_1102_42299" result="shape"/>
</filter>
<filter id="filter2_d_1102_42299" x="37.8089" y="31.8285" width="13.736" height="13.0612" filterUnits="userSpaceOnUse" color-interpolation-filters="sRGB">
<feFlood flood-opacity="0" result="BackgroundImageFix"/>
<feColorMatrix in="SourceAlpha" type="matrix" values="0 0 0 0 0 0 0 0 0 0 0 0 0 0 0 0 0 0 127 0" result="hardAlpha"/>
<feOffset dy="1.25156"/>
<feComposite in2="hardAlpha" operator="out"/>
<feColorMatrix type="matrix" values="0 0 0 0 0 0 0 0 0 0 0 0 0 0 0 0 0 0 0.25 0"/>
<feBlend mode="normal" in2="BackgroundImageFix" result="effect1_dropShadow_1102_42299"/>
<feBlend mode="normal" in="SourceGraphic" in2="effect1_dropShadow_1102_42299" result="shape"/>
</filter>
<filter id="filter3_d_1102_42299" x="0.890291" y="5.50684" width="88.1096" height="60.5753" filterUnits="userSpaceOnUse" color-interpolation-filters="sRGB">
<feFlood flood-opacity="0" result="BackgroundImageFix"/>
<feColorMatrix in="SourceAlpha" type="matrix" values="0 0 0 0 0 0 0 0 0 0 0 0 0 0 0 0 0 0 127 0" result="hardAlpha"/>
<feOffset dy="5.50685"/>
<feGaussianBlur stdDeviation="2.75342"/>
<feComposite in2="hardAlpha" operator="out"/>
<feColorMatrix type="matrix" values="0 0 0 0 0 0 0 0 0 0 0 0 0 0 0 0 0 0 0.25 0"/>
<feBlend mode="normal" in2="BackgroundImageFix" result="effect1_dropShadow_1102_42299"/>
<feBlend mode="normal" in="SourceGraphic" in2="effect1_dropShadow_1102_42299" result="shape"/>
</filter>
<filter id="filter4_d_1102_42299" x="28.2787" y="14.6719" width="35.4607" height="12.448" filterUnits="userSpaceOnUse" color-interpolation-filters="sRGB">
<feFlood flood-opacity="0" result="BackgroundImageFix"/>
<feColorMatrix in="SourceAlpha" type="matrix" values="0 0 0 0 0 0 0 0 0 0 0 0 0 0 0 0 0 0 127 0" result="hardAlpha"/>
<feOffset dy="1.25156"/>
<feComposite in2="hardAlpha" operator="out"/>
<feColorMatrix type="matrix" values="0 0 0 0 0 0 0 0 0 0 0 0 0 0 0 0 0 0 0.25 0"/>
<feBlend mode="normal" in2="BackgroundImageFix" result="effect1_dropShadow_1102_42299"/>
<feBlend mode="normal" in="SourceGraphic" in2="effect1_dropShadow_1102_42299" result="shape"/>
</filter>
<filter id="filter5_d_1102_42299" x="37.811" y="30.4517" width="13.736" height="13.0612" filterUnits="userSpaceOnUse" color-interpolation-filters="sRGB">
<feFlood flood-opacity="0" result="BackgroundImageFix"/>
<feColorMatrix in="SourceAlpha" type="matrix" values="0 0 0 0 0 0 0 0 0 0 0 0 0 0 0 0 0 0 127 0" result="hardAlpha"/>
<feOffset dy="1.25156"/>
<feComposite in2="hardAlpha" operator="out"/>
<feColorMatrix type="matrix" values="0 0 0 0 0 0 0 0 0 0 0 0 0 0 0 0 0 0 0.25 0"/>
<feBlend mode="normal" in2="BackgroundImageFix" result="effect1_dropShadow_1102_42299"/>
<feBlend mode="normal" in="SourceGraphic" in2="effect1_dropShadow_1102_42299" result="shape"/>
</filter>
<linearGradient id="paint0_linear_1102_42299" x1="44.9451" y1="0" x2="44.9451" y2="60.5753" gradientUnits="userSpaceOnUse">
<stop stop-color="#472819"/>
<stop offset="1" stop-color="#875B3B"/>
</linearGradient>
<linearGradient id="paint1_linear_1102_42299" x1="44.9451" y1="0" x2="44.9451" y2="60.5753" gradientUnits="userSpaceOnUse">
<stop stop-color="#885C3C"/>
<stop offset="1" stop-color="#472819"/>
</linearGradient>
</defs>
</svg>
