<svg width="30" height="32" viewBox="0 0 30 32" fill="none" xmlns="http://www.w3.org/2000/svg">
<path d="M6.01449 0L14.4088 12.6091L18.8114 7.24528L27.0621 0.603774L15.5528 13.9784L18.8114 19.1516L27.6812 32L14.4088 15.1111L1.68115 32L10.1621 18.6275L13.4431 13.8868L9.72877 8.82219L6.01449 0Z" fill="#942121"/>
<path d="M22.2479 7.57538C26.1532 11.4806 26.1532 17.8123 22.2479 21.7175C18.3427 25.6228 11.6575 25.9763 7.75222 22.0711C3.84698 18.1658 4.20053 11.4806 8.10577 7.57538C12.011 3.67014 18.3427 3.67014 22.2479 7.57538ZM8.74281 21.0805C12.2962 24.6339 18.0575 24.6339 21.6109 21.0805C25.1643 17.5271 25.7051 11.225 22.1517 7.67162C18.5983 4.1182 12.2962 4.65899 8.74281 8.21241C5.18939 11.7658 5.18939 17.5271 8.74281 21.0805Z" fill="#942121"/>
</svg>
