<svg width="228" height="39" viewBox="0 0 228 39" fill="none" xmlns="http://www.w3.org/2000/svg">
<g clip-path="url(#clip0_1842_19541)">
<rect y="-37" width="228" height="85.5" fill="#6A3F29"/>
<path d="M228 -37L28.5 -37L53.0813 24.6313L228 36.0313L228 -37Z" fill="#D9D9D9" fill-opacity="0.05"/>
<path d="M219.98 -5.33373L225.862 -3.01805L218.324 -4.18732L212.293 -5.10087L202.493 -6.27015L176.984 -0.694418L161.032 0.489779L190.432 -3.90874L204.769 -8.62734L209.278 -6.27015L219.98 -5.33373Z" fill="#885C3C"/>
<path d="M29.4276 -26.0839L25.5618 -27.6058L30.5161 -26.8373L34.4796 -25.3004L40.9202 -24.5319L57.6852 -30.5579L68.1691 -31.3362L48.8472 -26.0839L39.4243 -22.9828L36.4613 -24.5319L29.4276 -26.0839Z" fill="#885C3C"/>
<path d="M199.057 -25.9391L204.488 -27.5042L197.528 -26.7139L191.961 -25.1334L182.914 -24.3431L159.364 -30.4997L144.638 -31.3L171.779 -27.3641L185.015 -22.75L189.177 -24.3431L199.057 -25.9391Z" fill="#885C3C"/>
<path d="M166.176 25.9806L158.175 21.425L185.254 29.6652L203.094 31.9612L214.684 25.9991L222.3 31.6751L214.178 27.1195L201.278 34.25L178.484 27.1195L166.176 25.9806Z" fill="#885C3C"/>
<path d="M73.7352 -0.760544L83.5352 3.91655L50.3662 -1.6554L28.5131 -4.01265L14.3161 0.645435L4.98729 -5.18192L14.9358 -0.504826L30.7371 -6.36247L58.6585 -1.92982L73.7352 -0.760544Z" fill="#885C3C"/>
<path d="M192.984 45.1834L213.75 39.3814L201.177 44.0046L193.006 46.3625L176.629 41.4307L159.355 40.2668L148.445 35.6113L128.444 35.8725L105.715 36.7752L64.8022 42.5945L56.6197 41.4307L44.8876 39.3695L62.0747 40.2668L95.7137 36.7752L117.534 34.7086L138.474 32.1125L192.984 45.1834Z" fill="#885C3C"/>
<path d="M78.2341 25.0445L66.1726 29.7216L64.6649 30.8909L52.6035 28.5524L47.3266 28.8081L31.551 35.8329L22.4499 33.4852L10.3355 33.4824L2.8501 28.8081L12.65 32.3159L31.4424 33.4764L48.789 27.6272L62.4034 29.7216L78.2341 25.0445Z" fill="#885C3C"/>
<path d="M71.2501 -7.78752L83.6761 -12.4142L85.2294 -13.5709L97.6554 -11.2576L103.092 -10.1009L119.344 -15.625L128.72 -13.3026L141.201 -14.7248L148.913 -10.1009L138.816 -13.5709L119.456 -13.2939L101.585 -8.93267L87.5592 -12.4142L71.2501 -7.78752Z" fill="#885C3C"/>
<path d="M90.4876 13.5875L108.188 5.84625L136.156 1.36039L146.305 -0.168001L168.15 -7.78751L158.144 -3.22478L143.87 2.87968L115.859 5.84625L90.4876 13.5875Z" fill="#885C3C"/>
<path d="M172.34 -16.7987L216.063 -23.8093L196.526 -16.5418L169.287 -14.446L155.756 -20.3015L136.156 -26.1479L120.325 -28.2307L87.91 -23.8093L72.8332 -17.9629L48.7103 -14.1994L16.2563 -16.5394L4.9876 -21.215L27.6028 -16.5394L50.9718 -15.3687L116.562 -30.5875L128.617 -29.4L149.725 -22.64L172.34 -16.7987Z" fill="#885C3C"/>
<path d="M52.9856 11.6652L9.26286 20.1008L28.7994 14.2583L56.0384 9.31247L69.57 15.168L89.1698 21.0144L105 24.5222L137.416 18.6758L152.492 12.8294L176.615 10.4909L209.069 14.2559L220.338 17.5066L197.723 14.2559L174.354 11.6602L108.764 28.304L96.7083 25.6915L75.6007 17.5065L52.9856 11.6652Z" fill="#885C3C"/>
<path d="M219.98 -4.62121L225.862 -2.30552L218.324 -3.4748L212.293 -5.81335L202.493 -6.98262L176.984 0.0181046L161.032 1.2023L190.432 -4.62121L204.769 -9.33982L209.278 -6.98262L219.98 -4.62121Z" fill="#472819"/>
<path d="M29.4276 -26.7964L25.5618 -28.3183L30.5161 -27.5498L34.4796 -26.0129L40.9202 -25.2444L57.6852 -29.8454L68.1691 -30.6237L48.8472 -26.7964L39.4243 -23.6952L36.4613 -25.2444L29.4276 -26.7964Z" fill="#472819"/>
<path d="M199.057 -26.6516L204.488 -28.2167L197.528 -27.4264L191.961 -25.8459L182.914 -25.0556L159.364 -29.7871L144.638 -30.5875L171.779 -26.6516L185.015 -23.4625L189.177 -25.0556L199.057 -26.6516Z" fill="#472819"/>
<path d="M166.176 26.6931L158.175 22.1375L185.254 28.9527L203.094 31.2487L214.684 26.7116L222.3 32.3876L214.178 27.832L201.278 33.5375L178.484 27.832L166.176 26.6931Z" fill="#472819"/>
<path d="M73.7352 -0.0480213L83.5352 4.62907L50.3662 -2.36787L28.5131 -4.72513L14.3161 -0.0670414L4.98729 -5.8944L14.9358 -1.2173L30.7371 -7.07495L58.6585 -1.2173L73.7352 -0.0480213Z" fill="#472819"/>
<path d="M192.984 44.4709L213.75 38.669L201.177 43.2921L193.006 45.65L176.629 42.1432L159.355 40.9793L148.445 36.3239L128.444 35.16L105.715 37.4877L64.8022 43.307L56.6197 42.1432L44.8876 38.657L62.0747 40.9793L95.7137 37.4877L117.534 33.9961L138.474 32.825L192.984 44.4709Z" fill="#472819"/>
<path d="M78.2341 25.7571L66.1726 30.4342L64.6649 31.6034L52.6035 29.2649L47.3266 28.0956L31.551 35.1204L22.4499 32.7727L10.3355 32.7699L2.8501 28.0956L12.65 31.6034L31.4424 32.7639L48.789 26.9147L62.4034 30.4342L78.2341 25.7571Z" fill="#472819"/>
<path d="M71.2501 -7.07499L83.6761 -11.7017L85.2294 -12.8584L97.6554 -10.545L103.092 -9.38835L119.344 -16.3375L128.72 -14.0151L141.201 -14.0123L148.913 -9.38835L138.816 -12.8584L119.456 -14.0063L101.585 -8.22015L87.5592 -11.7017L71.2501 -7.07499Z" fill="#472819"/>
<path d="M90.4876 14.3L108.188 5.13377L136.156 2.07291L146.305 0.544521L168.15 -7.07499L158.144 -2.51225L143.87 3.5922L115.859 5.13377L90.4876 14.3Z" fill="#472819"/>
<path d="M172.34 -16.0862L216.063 -23.0968L196.526 -17.2543L169.287 -13.7334L155.756 -19.589L136.156 -25.4353L120.325 -28.9432L87.91 -23.0968L72.8332 -17.2504L48.7103 -14.9119L16.2563 -17.2519L4.9876 -21.9275L27.6028 -17.2519L50.9718 -16.0811L116.562 -31.3L128.617 -30.1124L149.725 -21.9275L172.34 -16.0862Z" fill="#472819"/>
<path d="M52.9856 12.3778L9.26286 19.3883L28.7994 13.5458L56.0384 10.025L69.57 15.8805L89.1698 21.7269L105 25.2347L137.416 19.3883L152.492 13.542L176.615 11.2034L209.069 13.5434L220.338 18.2191L197.723 13.5434L174.354 12.3727L108.764 27.5915L96.7083 26.404L75.6007 18.2191L52.9856 12.3778Z" fill="#472819"/>
</g>
<defs>
<clipPath id="clip0_1842_19541">
<rect width="228" height="39" fill="white"/>
</clipPath>
</defs>
</svg>
