<svg width="91" height="57" viewBox="0 0 91 57" fill="none" xmlns="http://www.w3.org/2000/svg">
<g filter="url(#filter0_d_5030_34215)">
<path d="M16.6443 1H4C10.2478 17.5447 6.60324 39.8936 4 49H12.5535L16.6443 46.9574H27.8011L30.7762 49H48.627L51.2303 42.1064L53.8335 49H64.6184L67.2216 45.1702L77.2627 49H86.56C77.3371 27.5532 82.7171 8.06383 86.56 1H53L40.8173 3.55319L27.8011 1L21.8508 3.55319L16.6443 1Z" fill="#00953A"/>
<path d="M7.3374 46.3576C11.6738 23.8359 9.14423 8.21887 7.3374 3.22559H15.8638L22.0625 6.1958L27.228 2.81695L30.5856 17.7725L45.6071 30.4933L81.1051 38.3149L82.9302 46.3576H71.5188L67.154 44.6132L65.8788 46.3576H53.4709L51.2639 41.4253L49.106 46.3576H46.3404H30.5856L27.228 43.5167H15.8638L11.8605 46.3576H7.3374Z" fill="black" fill-opacity="0.2"/>
</g>
<defs>
<filter id="filter0_d_5030_34215" x="-2" y="0" width="95" height="58" filterUnits="userSpaceOnUse" color-interpolation-filters="sRGB">
<feFlood flood-opacity="0" result="BackgroundImageFix"/>
<feColorMatrix in="SourceAlpha" type="matrix" values="0 0 0 0 0 0 0 0 0 0 0 0 0 0 0 0 0 0 127 0" result="hardAlpha"/>
<feOffset dy="4"/>
<feGaussianBlur stdDeviation="2"/>
<feComposite in2="hardAlpha" operator="out"/>
<feColorMatrix type="matrix" values="0 0 0 0 0 0 0 0 0 0 0 0 0 0 0 0 0 0 0.25 0"/>
<feBlend mode="normal" in2="BackgroundImageFix" result="effect1_dropShadow_5030_34215"/>
<feBlend mode="normal" in="SourceGraphic" in2="effect1_dropShadow_5030_34215" result="shape"/>
</filter>
</defs>
</svg>
