<svg width="93" height="58" viewBox="0 0 93 58" fill="none" xmlns="http://www.w3.org/2000/svg">
<g filter="url(#filter0_d_5030_34217)">
<path d="M17.8445 1H5.2002C11.448 17.5447 7.80344 39.8936 5.2002 49H13.7537L17.8445 46.9574H29.0013L31.9764 49H49.8272L52.4305 42.1064L55.0337 49H65.8186L68.4218 45.1702L78.4629 49H87.7602C78.5373 27.5532 83.9173 8.06383 87.7602 1H54.2002L42.0175 3.55319L29.0013 1L23.051 3.55319L17.8445 1Z" fill="#505050"/>
<path d="M17.9546 0.775537L17.9025 0.75H17.8445H5.2002H4.83856L4.96632 1.08832C8.07305 9.31523 8.72435 18.9998 8.26967 27.7764C7.8151 36.5508 6.25636 44.3959 4.95982 48.9313L4.86871 49.25H5.2002H13.7537H13.8127L13.8654 49.2237L17.9035 47.2074H28.9237L31.8349 49.2061L31.8989 49.25H31.9764H49.8272H50L50.0611 49.0883L52.4305 42.814L54.7998 49.0883L54.8609 49.25H55.0337H65.8186H65.9509L66.0253 49.1405L68.5174 45.4743L78.3738 49.2336L78.4168 49.25H78.4629H87.7602H88.1398L87.9899 48.9012C78.802 27.5359 84.1674 8.12722 87.9798 1.11947L88.1808 0.75H87.7602H54.2002H54.1743L54.1489 0.755316L42.0159 3.2981L29.0494 0.754675L28.9736 0.739815L28.9027 0.770257L23.058 3.27816L17.9546 0.775537Z" stroke="#4F4F4F" stroke-opacity="0.5" stroke-width="0.5"/>
<path d="M8.5376 46.3576C12.874 23.8359 10.3444 8.21887 8.5376 3.22559H17.064L23.2627 6.1958L28.4282 2.81695L31.7858 17.7725L46.8073 30.4933L82.3053 38.3149L84.1304 46.3576H72.719L68.3542 44.6132L67.079 46.3576H54.6711L52.4641 41.4253L50.3062 46.3576H47.5406H31.7858L28.4282 43.5167H17.064L13.0607 46.3576H8.5376Z" fill="#E4E4E4" fill-opacity="0.1"/>
</g>
<defs>
<filter id="filter0_d_5030_34217" x="-0.799805" y="0" width="95" height="58" filterUnits="userSpaceOnUse" color-interpolation-filters="sRGB">
<feFlood flood-opacity="0" result="BackgroundImageFix"/>
<feColorMatrix in="SourceAlpha" type="matrix" values="0 0 0 0 0 0 0 0 0 0 0 0 0 0 0 0 0 0 127 0" result="hardAlpha"/>
<feOffset dy="4"/>
<feGaussianBlur stdDeviation="2"/>
<feComposite in2="hardAlpha" operator="out"/>
<feColorMatrix type="matrix" values="0 0 0 0 0 0 0 0 0 0 0 0 0 0 0 0 0 0 0.25 0"/>
<feBlend mode="normal" in2="BackgroundImageFix" result="effect1_dropShadow_5030_34217"/>
<feBlend mode="normal" in="SourceGraphic" in2="effect1_dropShadow_5030_34217" result="shape"/>
</filter>
</defs>
</svg>
