<svg width="455" height="204" viewBox="0 0 455 204" fill="none" xmlns="http://www.w3.org/2000/svg">
<rect y="0.000854492" width="455" height="203.999" rx="8" fill="#6A3F29"/>
<path d="M447 7.53285e-05L67.5139 7.53113e-05C62.1889 7.46687e-05 58.3501 5.1051 59.8283 10.2208L104.411 164.514C105.327 167.683 108.094 169.965 111.38 170.261L446.283 200.389C450.966 200.81 455 197.122 455 192.421L455 8.00006C455 3.58179 451.418 7.58617e-05 447 7.53285e-05Z" fill="#D9D9D9" fill-opacity="0.05"/>
<path d="M437.324 70.6488C437.514 70.6692 437.7 70.7222 437.872 70.8054C439.632 71.6548 438.754 74.318 436.833 73.953L434.317 73.4746L422.32 71.2474L404.459 68.6355C403.382 68.478 402.283 68.5421 401.231 68.8238L352.744 81.8128C352.304 81.9309 351.853 82.011 351.399 82.0524L320.35 84.8773L378.035 74.3C378.566 74.2028 379.085 74.0522 379.585 73.8504L403.523 64.1951C405.926 63.2258 408.65 63.4805 410.832 64.8786L414.734 67.3791C415.778 68.0483 416.964 68.4656 418.197 68.5978L437.324 70.6488Z" fill="#885C3C"/>
<path d="M58.6563 20.1182C58.59 20.1003 58.5255 20.0762 58.4637 20.0464C57.2946 19.4823 57.8782 17.7138 59.1533 17.9562L60.5579 18.2232C60.6668 18.2439 60.7726 18.2785 60.8727 18.326L67.5199 21.4851C68.2401 21.8274 69.0074 22.06 69.7963 22.1754L79.1414 23.5419C80.6291 23.7595 82.148 23.5534 83.524 22.9472L114.411 9.34076C114.647 9.23672 114.899 9.17174 115.156 9.14835C117.974 8.89194 118.81 12.8875 116.125 13.782L97.1868 20.0912L82.2732 26.1066C79.87 27.0759 77.1462 26.8212 74.9644 25.4231L73.5863 24.54C72.8984 24.0992 72.1471 23.7663 71.3584 23.5531L58.6563 20.1182Z" fill="#885C3C"/>
<path d="M395.91 20.4603C395.964 20.4495 396.017 20.4349 396.069 20.4165C397.374 19.9555 396.9 18.0054 395.528 18.1963L393.086 18.5362C392.995 18.5488 392.906 18.5703 392.819 18.6004L382.74 22.1072C382.165 22.3074 381.569 22.4412 380.963 22.5061L365.559 24.1551C364.45 24.2738 363.329 24.1593 362.267 23.819L317.964 9.62441C317.345 9.42599 316.704 9.30382 316.055 9.2606L287.737 7.37443L340.826 16.8098C341.425 16.9163 342.01 17.0907 342.569 17.3297L364.762 26.811C366.859 27.7069 369.238 27.6654 371.303 26.6969L375.452 24.7504C376.04 24.4746 376.659 24.2714 377.296 24.1453L395.91 20.4603Z" fill="#885C3C"/>
<path d="M331.182 147.091C330.788 147.047 330.411 146.904 330.086 146.677C327.788 145.074 329.659 141.508 332.284 142.487L367.853 155.753C368.305 155.921 368.772 156.044 369.248 156.119L401.051 161.136C402.966 161.438 404.925 161.034 406.564 160.001L421.918 150.321C424.965 148.4 428.92 148.752 431.58 151.181L442.227 160.906L430.569 152.893C427.856 151.027 424.277 151.015 421.55 152.862L403.864 164.844C401.699 166.31 398.955 166.626 396.513 165.69L356.016 150.164C355.385 149.922 354.726 149.761 354.054 149.685L331.182 147.091Z" fill="#885C3C"/>
<path d="M145.907 81.7541C146.426 81.8035 146.928 81.9654 147.378 82.2287C150.882 84.2782 148.82 89.6557 144.845 88.8371L100.209 79.6474L58.8207 74.1759C57.4549 73.9953 56.0657 74.1705 54.7875 74.6845L32.7248 83.5563C30.1035 84.6104 27.1205 84.2036 24.8771 82.4861L9.9389 71.0498L26.1677 80.4006C28.4029 81.6885 31.122 81.8195 33.4707 80.7524L58.834 69.2291C60.348 68.5413 62.0387 68.3423 63.671 68.6599L116.704 78.9783L145.907 81.7541Z" fill="#885C3C"/>
<path d="M381.47 193.122C383.058 193.589 384.751 193.551 386.317 193.015L425.219 179.694L400.207 190.965L386.679 195.75C384.917 196.373 382.994 196.36 381.241 195.713L352.4 185.068C351.721 184.817 351.01 184.66 350.289 184.6L318.628 181.986C317.563 181.898 316.526 181.598 315.579 181.102L297.113 171.445C295.931 170.827 294.612 170.514 293.278 170.535L255.523 171.14L210.31 173.34L130.299 187.288C129.39 187.447 128.46 187.447 127.551 187.288L112.648 184.69C110.504 184.228 110.945 181.049 113.134 181.19L123.259 181.837C123.419 181.848 123.58 181.843 123.739 181.822L190.416 173.34L233.821 168.302L273.722 162.239C274.878 162.064 276.058 162.144 277.18 162.473L381.47 193.122Z" fill="#885C3C"/>
<path d="M155.644 144.741L132.501 155.74C131.938 156.008 131.421 156.363 130.969 156.792C129.524 158.166 127.482 158.717 125.542 158.256L105.806 153.566C105.045 153.385 104.263 153.317 103.482 153.363L95.9489 153.811C94.7722 153.88 93.6255 154.21 92.5908 154.774L65.7735 169.41C63.8614 170.453 61.6065 170.672 59.5295 170.015L45.8522 165.691C45.0729 165.445 44.2604 165.319 43.443 165.319L21.3127 165.313C20.836 165.313 20.3726 165.156 19.9941 164.866C17.956 163.306 19.8351 160.123 22.1854 161.154L24.7893 162.297C25.0492 162.41 25.3264 162.48 25.6093 162.501L60.6654 165.154C61.914 165.249 63.1674 165.049 64.3246 164.57L94.8719 151.947C96.307 151.353 97.8837 151.191 99.4096 151.479L122.004 155.739C123.411 156.004 124.864 155.887 126.21 155.399L155.644 144.741Z" fill="#885C3C"/>
<path d="M141.752 64.6974L165.591 53.8186C166.173 53.5529 166.711 53.1978 167.183 52.7663C168.672 51.4079 170.732 50.865 172.696 51.3133L194.278 56.2375L202.485 58.3775C204.176 58.8187 205.966 58.6935 207.58 58.0213L234.771 46.6943C236.485 45.9803 238.394 45.8847 240.171 46.4241L254.388 50.74C255.499 51.0771 256.669 51.1686 257.819 51.0081L280.037 47.9051C280.591 47.8277 281.153 47.9698 281.604 48.301C283.652 49.8062 281.844 52.9928 279.501 52.006L276.646 50.8034C276.324 50.6677 275.977 50.6008 275.627 50.6069L238.744 51.2538C238.015 51.2666 237.291 51.379 236.592 51.588L204.407 61.214C202.899 61.665 201.292 61.6612 199.787 61.2032L176.688 54.1762C175.068 53.6832 173.332 53.7173 171.732 54.2735L141.752 64.6974Z" fill="#885C3C"/>
<path d="M180.02 116.809L214.172 98.5034C214.873 98.1274 215.627 97.8582 216.408 97.7046L270.865 86.9998L290.178 83.4351C290.76 83.3278 291.327 83.1564 291.871 82.924L334.509 64.6974L314.605 75.8213L287.477 90.0401C286.64 90.4791 285.731 90.7661 284.793 90.8878L231.401 97.8179C230.795 97.8965 230.201 98.0442 229.628 98.2581L180.02 116.809Z" fill="#885C3C"/>
<path d="M340.894 42.1109C342.173 42.5159 343.534 42.5926 344.851 42.3338L388.722 33.7127C394.443 32.5883 397.015 40.5921 391.709 43.011C391.211 43.2385 390.677 43.3809 390.131 43.4323L339.155 48.2394C337.6 48.3861 336.036 48.0742 334.656 47.3423L309.853 34.1886L271.583 20.1978C271.105 20.0232 270.612 19.8945 270.109 19.8135L240.67 15.0665C239.812 14.928 238.936 14.9305 238.078 15.074L175.996 25.452C175.264 25.5745 174.552 25.7983 173.881 26.117L145.826 39.4502C145.212 39.7422 144.563 39.9546 143.895 40.0823L98.0101 48.8559C97.2832 48.9949 96.5406 49.0323 95.8034 48.9672L32.8852 43.4073C32.5354 43.3764 32.1948 43.2787 31.8818 43.1195C28.9609 41.6342 30.6253 37.2029 33.8018 38.0078L54.461 43.2425C54.7707 43.321 55.087 43.3703 55.4059 43.3899L100.049 46.131C100.952 46.1864 101.858 46.0883 102.728 45.8409L230.339 9.55189C231.361 9.26121 232.431 9.1771 233.486 9.30448L254.855 11.8843C255.528 11.9656 256.188 12.1321 256.819 12.3798L297.857 28.4873L340.894 42.1109Z" fill="#885C3C"/>
<path d="M107.525 112.789C106.147 112.353 104.676 112.298 103.27 112.631L18.444 132.689L57.3069 118.445L108.612 107.028C110.471 106.614 112.416 106.877 114.098 107.769L138.41 120.662L177.398 134.916L206.989 142.952C208.237 143.291 209.549 143.322 210.812 143.043L272.484 129.41C273.073 129.28 273.646 129.084 274.191 128.825L302.176 115.525C302.962 115.152 303.803 114.909 304.666 114.806L350.312 109.383C351 109.301 351.696 109.309 352.382 109.407L415.714 118.411C415.843 118.43 415.969 118.461 416.091 118.504C418.353 119.304 417.463 122.689 415.1 122.273L393.336 118.439L348.609 112.35C347.45 112.192 346.271 112.29 345.154 112.638L218.576 152.003C217.138 152.45 215.603 152.483 214.147 152.096L193.108 146.508C192.633 146.382 192.171 146.212 191.727 146.002L150.406 126.364L107.525 112.789Z" fill="#885C3C"/>
<path d="M437.462 73.4813C437.561 73.5079 437.658 73.5435 437.751 73.5878C439.518 74.4321 438.645 77.1038 436.72 76.7415L434.563 76.3354C434.399 76.3047 434.241 76.2533 434.091 76.1826L423.4 71.151C422.684 70.8142 421.922 70.5854 421.14 70.472L404.702 68.0917C403.468 67.913 402.21 68.0251 401.027 68.419L352.337 84.6372C352.168 84.6937 351.992 84.7303 351.814 84.7464C348.961 85.0034 348.281 80.8663 351.066 80.1966L378.526 73.5951C378.73 73.5459 378.931 73.4821 379.126 73.4041L403.554 63.6465C405.94 62.6934 408.639 62.9444 410.808 64.3211L415.288 67.1638C415.973 67.5987 416.721 67.9268 417.505 68.1368L437.462 73.4813Z" fill="#472819"/>
<path d="M58.6547 20.0087C58.5895 19.9913 58.526 19.9678 58.4651 19.9387C57.3038 19.3839 57.8777 17.628 59.1425 17.8661L60.5604 18.133C60.6677 18.1532 60.7719 18.1869 60.8706 18.2334L67.5268 21.3661C68.2425 21.7029 69.0041 21.9317 69.7869 22.0451L79.5421 23.4578C80.7757 23.6364 82.0341 23.5243 83.2168 23.1304L114.6 12.6769C114.712 12.6398 114.827 12.6157 114.944 12.6052C116.819 12.4362 117.266 15.1552 115.435 15.5953L97.3887 19.934C97.2543 19.9663 97.1224 20.0082 96.994 20.0595L82.2419 25.9521C79.8558 26.9051 77.1572 26.6542 74.9878 25.2775L73.5824 24.3857C72.897 23.9507 72.1495 23.6226 71.3654 23.4127L58.6547 20.0087Z" fill="#472819"/>
<path d="M395.911 20.3477C395.964 20.3372 396.017 20.323 396.068 20.3051C397.363 19.852 396.896 17.9173 395.537 18.1047L393.084 18.4428C392.994 18.4551 392.907 18.4761 392.821 18.5054L382.734 21.9813C382.163 22.178 381.571 22.3094 380.971 22.3731L365.263 24.0384C364.346 24.1356 363.42 24.0736 362.524 23.8552L317.707 12.9263C317.258 12.8168 316.8 12.7464 316.338 12.7159L287.737 10.8293L341.728 20.332L365.17 27.1873C367.032 27.7316 369.027 27.5812 370.786 26.7641L375.457 24.594C376.042 24.3225 376.657 24.1226 377.289 23.9987L395.911 20.3477Z" fill="#472819"/>
<path d="M331.304 149.206C330.83 149.153 330.376 148.983 329.983 148.712C327.265 146.833 329.313 142.6 332.472 143.566L368.532 154.581L401.583 159.743C403.171 159.991 404.798 159.755 406.25 159.065L422.245 151.466C425.169 150.076 428.643 150.587 431.044 152.759L442.227 162.874L430.081 154.605C427.616 152.927 424.423 152.76 421.795 154.17L403.338 164.078C401.463 165.084 399.265 165.302 397.229 164.684L355.768 152.088C355.301 151.946 354.821 151.848 354.336 151.793L331.304 149.206Z" fill="#472819"/>
<path d="M146.037 84.5006C146.471 84.5414 146.89 84.6756 147.267 84.894C150.303 86.6522 148.403 91.301 145.005 90.4309L100.209 78.9616L58.8015 73.5406C57.4479 73.3634 56.0715 73.5355 54.8033 74.0406L32.691 82.8462C30.0874 83.8829 27.1312 83.4818 24.898 81.7887L9.9389 70.4473L26.1935 79.7222C28.4149 80.9898 31.1084 81.1188 33.4408 80.0694L58.6131 68.7437C60.2632 68.0013 62.1162 67.8401 63.8696 68.2866L116.1 81.5858C116.502 81.6881 116.911 81.759 117.324 81.7979L146.037 84.5006Z" fill="#472819"/>
<path d="M381.597 191.447C383.106 191.839 384.697 191.78 386.174 191.28L425.219 178.039L400.207 189.201L386.252 194.089C384.753 194.614 383.132 194.681 381.595 194.281L352.046 186.601C351.6 186.486 351.145 186.408 350.686 186.371L318.615 183.748C317.558 183.662 316.529 183.366 315.588 182.879L296.779 173.137C295.811 172.636 294.75 172.338 293.663 172.261L256.301 169.622C255.784 169.586 255.264 169.6 254.75 169.663L210.31 175.187L130.286 189.002C129.385 189.158 128.465 189.158 127.564 189.002L112.844 186.461C112.714 186.439 112.586 186.405 112.461 186.36C109.869 185.425 110.877 181.547 113.596 181.993L123.049 183.543C123.348 183.592 123.652 183.598 123.952 183.56L190.416 175.187L233.821 166.757L274.183 164.018C275.04 163.96 275.901 164.04 276.733 164.255L381.597 191.447Z" fill="#472819"/>
<path d="M155.644 146.865L132.502 157.757C131.938 158.022 131.42 158.375 130.967 158.802C129.521 160.162 127.49 160.707 125.558 160.252L104.659 155.334L97.2397 153.339C95.2635 152.808 93.1587 153.054 91.3583 154.027L65.7516 167.866C63.8521 168.893 61.6182 169.108 59.5576 168.463L45.8424 164.169C45.0695 163.927 44.2643 163.803 43.4544 163.803L21.3014 163.797C20.8319 163.797 20.3752 163.643 20.001 163.36C17.9704 161.821 19.8233 158.653 22.1602 159.668L24.7944 160.812C25.0509 160.924 25.3243 160.991 25.6032 161.012L60.6828 163.641C61.9203 163.734 63.1624 163.538 64.3108 163.068L94.4 150.753C96.1263 150.047 98.0453 149.966 99.825 150.524L121.589 157.353C123.253 157.875 125.042 157.839 126.684 157.25L155.644 146.865Z" fill="#472819"/>
<path d="M141.752 67.5969L165.59 56.8239C166.173 56.5605 166.712 56.208 167.186 55.7792C168.674 54.434 170.724 53.8968 172.681 54.3389L194.278 59.219L202.126 61.2457C204.036 61.7389 206.061 61.5091 207.811 60.6006L234.542 46.7287C236.389 45.7702 238.537 45.5691 240.53 46.1682L254.948 50.5027C255.695 50.7271 256.47 50.8412 257.249 50.8414L280.203 50.8476C280.656 50.8478 281.098 50.9917 281.465 51.2587C283.524 52.7568 281.725 55.9563 279.375 54.9761L276.535 53.7913C276.285 53.6869 276.02 53.6238 275.749 53.6044L239.456 50.9925C238.264 50.9067 237.068 51.0891 235.955 51.5262L204.675 63.8184C203.004 64.4751 201.16 64.5505 199.441 64.0326L176.666 57.171C175.059 56.6869 173.341 56.7204 171.754 57.2667L141.752 67.5969Z" fill="#472819"/>
<path d="M217.502 102.768C214.064 104.276 211.492 99.4225 214.671 97.4248C215.039 97.1932 215.453 97.0436 215.885 96.9863L270.865 89.6833L290.185 86.1518C290.762 86.0464 291.325 85.8779 291.865 85.6493L334.509 67.597L314.606 78.613L287.695 92.5811C286.716 93.0891 285.643 93.3893 284.543 93.4628L231.193 97.0263C230.727 97.0574 230.271 97.1691 229.843 97.3565L217.502 102.768Z" fill="#472819"/>
<path d="M341.203 45.3263C342.28 45.6639 343.424 45.7277 344.531 45.5122L389.54 36.7531C393.422 35.9977 394.964 41.5656 391.247 42.9148C391.053 42.9851 390.853 43.0365 390.65 43.0684L339.387 51.1107C337.688 51.3772 335.949 51.0894 334.427 50.29L309.853 37.3837L270.865 23.2685L241.257 15.3058C240.019 14.973 238.72 14.9424 237.468 15.2164L175.773 28.7218C175.187 28.8499 174.619 29.0433 174.077 29.2984L146.079 42.4752C145.299 42.8425 144.464 43.0812 143.607 43.182L97.7294 48.58C97.1876 48.6438 96.6406 48.652 96.0971 48.6044L32.8762 43.0718C32.5323 43.0418 32.1973 42.9465 31.8889 42.7913C28.9861 41.3294 30.6237 36.928 33.7761 37.719L54.4686 42.9114C54.7733 42.9878 55.0843 43.0359 55.3978 43.055L100.062 45.7707C100.956 45.8251 101.854 45.7288 102.716 45.4859L230.353 9.54139C231.366 9.25602 232.426 9.17346 233.471 9.29844L254.583 11.8226C255.435 11.9244 256.264 12.1624 257.04 12.5276L297.857 31.7376L341.203 45.3263Z" fill="#472819"/>
<path d="M107.06 115.077C105.983 114.74 104.839 114.676 103.731 114.891L58.7223 123.65C54.8408 124.406 53.2987 118.838 57.0158 117.489C57.2094 117.418 57.4093 117.367 57.6128 117.335L108.876 109.293C110.575 109.026 112.314 109.314 113.836 110.114L138.41 123.02L177.398 137.135L207.006 145.098C208.243 145.43 209.543 145.461 210.794 145.187L272.49 131.682C273.075 131.554 273.644 131.36 274.186 131.105L302.184 117.928C302.964 117.561 303.799 117.322 304.656 117.221L350.533 111.823C351.075 111.76 351.622 111.752 352.166 111.799L415.387 117.332C415.731 117.362 416.066 117.457 416.374 117.612C419.277 119.074 417.639 123.476 414.487 122.685L393.794 117.492C393.49 117.416 393.178 117.368 392.865 117.349L348.201 114.633C347.306 114.578 346.409 114.675 345.547 114.918L217.91 150.862C216.896 151.147 215.837 151.23 214.792 151.105L193.68 148.581C192.828 148.479 191.999 148.241 191.223 147.876L150.406 128.666L107.06 115.077Z" fill="#472819"/>
</svg>
