<svg width="64" height="48" viewBox="0 0 64 48" fill="none" xmlns="http://www.w3.org/2000/svg">
<g filter="url(#filter0_d_1795_193674)">
<path d="M12.5054 0.303854L0.2821 12.9091C0.101178 13.0957 0 13.3453 0 13.6052V30.3948C0 30.6547 0.101179 30.9043 0.2821 31.0909L12.5054 43.6961C12.6937 43.8904 12.9527 44 13.2233 44H50.7767C51.0473 44 51.3063 43.8904 51.4947 43.6961L63.7179 31.0909C63.8988 30.9043 64 30.6547 64 30.3948V13.6052C64 13.3453 63.8988 13.0957 63.7179 12.9091L51.4947 0.303854C51.3063 0.109625 51.0473 0 50.7768 0H13.2233C12.9527 0 12.6937 0.109625 12.5054 0.303854Z" fill="url(#paint0_linear_1795_193674)"/>
<path d="M0.64105 13.2572L12.8643 0.651927C12.9585 0.554813 13.088 0.5 13.2233 0.5H50.7768C50.912 0.5 51.0415 0.554813 51.1357 0.651927L63.359 13.2572C63.4494 13.3504 63.5 13.4753 63.5 13.6052V30.3948C63.5 30.5247 63.4494 30.6496 63.359 30.7428L51.1357 43.3481C51.0415 43.4452 50.912 43.5 50.7767 43.5H13.2233C13.088 43.5 12.9585 43.4452 12.8643 43.3481L0.64105 30.7428L0.2821 31.0909L0.64105 30.7428C0.550589 30.6496 0.5 30.5247 0.5 30.3948V13.6052C0.5 13.4753 0.55059 13.3504 0.64105 13.2572Z" stroke="url(#paint1_linear_1795_193674)"/>
</g>
<g filter="url(#filter1_d_1795_193674)">
<g filter="url(#filter2_dii_1795_193674)">
<path d="M19.2727 10.5454L12.4848 17.0909V26.9091L19.2727 33.4545V10.5454Z" fill="#D6D6D6" shape-rendering="crispEdges"/>
<path d="M44.7273 33.4545L51.5151 26.9091V17.0909L44.7273 10.5454L44.7273 33.4545Z" fill="#D6D6D6" shape-rendering="crispEdges"/>
<path d="M19.2727 10.5454L44.7273 10.5454L44.7273 33.4545H19.2727V10.5454Z" fill="#D6D6D6" shape-rendering="crispEdges"/>
<path d="M4 29.3636L12.4848 26.9091L19.2727 33.4545L15.0303 40L4 29.3636Z" fill="#B9B9B9" shape-rendering="crispEdges"/>
<path d="M4 14.6363L12.4848 17.0909L19.2727 10.5454L15.0303 3.99997L4 14.6363Z" fill="#CDCDCD" shape-rendering="crispEdges"/>
<path d="M44.7273 10.5454L48.9697 3.99997L60 14.6363L51.5151 17.0909L44.7273 10.5454Z" fill="#D3D2D2" shape-rendering="crispEdges"/>
<path d="M60 29.3636L51.5151 26.9091L44.7273 33.4545L48.9697 40L60 29.3636Z" fill="#B9B9B9" shape-rendering="crispEdges"/>
<path d="M48.9697 40L44.7273 33.4545H19.2727L15.0303 40H48.9697Z" fill="#AFAEAE" shape-rendering="crispEdges"/>
<path d="M19.2727 10.5454L15.0303 3.99997L48.9697 3.99997L44.7273 10.5454L19.2727 10.5454Z" fill="#DDDDDD" shape-rendering="crispEdges"/>
<path d="M4 14.6363L12.4848 17.0909V26.9091L4 29.3636V14.6363Z" fill="#C4C4C4" shape-rendering="crispEdges"/>
<path d="M60 14.6363L51.5151 17.0909V26.9091L60 29.3636V14.6363Z" fill="#CACACA" shape-rendering="crispEdges"/>
<path d="M19.697 32.6363L36.2424 33.4545H19.697L17.1515 36.7272L18.8485 33.0454L12.4848 26.9091L19.697 32.6363Z" fill="white" shape-rendering="crispEdges"/>
<path d="M44.303 11.3636L27.7576 10.5454L44.303 10.5454L46.8485 7.2727L45.1515 10.9545L51.5151 17.0909L44.303 11.3636Z" fill="white" shape-rendering="crispEdges"/>
<path d="M47.8667 3.99997H40.3525L30.861 10.5483H41.539L47.8667 3.99997Z" fill="white" fill-opacity="0.3" shape-rendering="crispEdges"/>
<path d="M29.2791 10.5483L35.2113 3.99997H25.7198L24.5333 10.5483H29.2791Z" fill="white" fill-opacity="0.3" shape-rendering="crispEdges"/>
</g>
</g>
<defs>
<filter id="filter0_d_1795_193674" x="0" y="0" width="64" height="46" filterUnits="userSpaceOnUse" color-interpolation-filters="sRGB">
<feFlood flood-opacity="0" result="BackgroundImageFix"/>
<feColorMatrix in="SourceAlpha" type="matrix" values="0 0 0 0 0 0 0 0 0 0 0 0 0 0 0 0 0 0 127 0" result="hardAlpha"/>
<feOffset dy="2"/>
<feComposite in2="hardAlpha" operator="out"/>
<feColorMatrix type="matrix" values="0 0 0 0 0.278431 0 0 0 0 0.156863 0 0 0 0 0.0980392 0 0 0 1 0"/>
<feBlend mode="normal" in2="BackgroundImageFix" result="effect1_dropShadow_1795_193674"/>
<feBlend mode="normal" in="SourceGraphic" in2="effect1_dropShadow_1795_193674" result="shape"/>
</filter>
<filter id="filter1_d_1795_193674" x="0" y="0" width="64" height="45" filterUnits="userSpaceOnUse" color-interpolation-filters="sRGB">
<feFlood flood-opacity="0" result="BackgroundImageFix"/>
<feColorMatrix in="SourceAlpha" type="matrix" values="0 0 0 0 0 0 0 0 0 0 0 0 0 0 0 0 0 0 127 0" result="hardAlpha"/>
<feOffset dy="1"/>
<feComposite in2="hardAlpha" operator="out"/>
<feColorMatrix type="matrix" values="0 0 0 0 0 0 0 0 0 0 0 0 0 0 0 0 0 0 0.25 0"/>
<feBlend mode="normal" in2="BackgroundImageFix" result="effect1_dropShadow_1795_193674"/>
<feBlend mode="normal" in="SourceGraphic" in2="effect1_dropShadow_1795_193674" result="shape"/>
</filter>
<filter id="filter2_dii_1795_193674" x="0" y="-2.22225" width="64" height="54.6667" filterUnits="userSpaceOnUse" color-interpolation-filters="sRGB">
<feFlood flood-opacity="0" result="BackgroundImageFix"/>
<feColorMatrix in="SourceAlpha" type="matrix" values="0 0 0 0 0 0 0 0 0 0 0 0 0 0 0 0 0 0 127 0" result="hardAlpha"/>
<feOffset dy="4"/>
<feGaussianBlur stdDeviation="2"/>
<feComposite in2="hardAlpha" operator="out"/>
<feColorMatrix type="matrix" values="0 0 0 0 0 0 0 0 0 0 0 0 0 0 0 0 0 0 0.25 0"/>
<feBlend mode="normal" in2="BackgroundImageFix" result="effect1_dropShadow_1795_193674"/>
<feBlend mode="normal" in="SourceGraphic" in2="effect1_dropShadow_1795_193674" result="shape"/>
<feColorMatrix in="SourceAlpha" type="matrix" values="0 0 0 0 0 0 0 0 0 0 0 0 0 0 0 0 0 0 127 0" result="hardAlpha"/>
<feOffset dy="12.4444"/>
<feGaussianBlur stdDeviation="8.2963"/>
<feComposite in2="hardAlpha" operator="arithmetic" k2="-1" k3="1"/>
<feColorMatrix type="matrix" values="0 0 0 0 0 0 0 0 0 0 0 0 0 0 0 0 0 0 0.5 0"/>
<feBlend mode="normal" in2="shape" result="effect2_innerShadow_1795_193674"/>
<feColorMatrix in="SourceAlpha" type="matrix" values="0 0 0 0 0 0 0 0 0 0 0 0 0 0 0 0 0 0 127 0" result="hardAlpha"/>
<feOffset dy="-6.22222"/>
<feGaussianBlur stdDeviation="8.2963"/>
<feComposite in2="hardAlpha" operator="arithmetic" k2="-1" k3="1"/>
<feColorMatrix type="matrix" values="0 0 0 0 0 0 0 0 0 0 0 0 0 0 0 0 0 0 0.5 0"/>
<feBlend mode="normal" in2="effect2_innerShadow_1795_193674" result="effect3_innerShadow_1795_193674"/>
</filter>
<linearGradient id="paint0_linear_1795_193674" x1="32" y1="0" x2="32" y2="44" gradientUnits="userSpaceOnUse">
<stop stop-color="#472819"/>
<stop offset="1" stop-color="#875B3B"/>
</linearGradient>
<linearGradient id="paint1_linear_1795_193674" x1="32" y1="0" x2="32" y2="44" gradientUnits="userSpaceOnUse">
<stop stop-color="#885C3C"/>
<stop offset="1" stop-color="#472819"/>
</linearGradient>
</defs>
</svg>
