<svg width="402" height="48" viewBox="0 0 402 48" fill="none" xmlns="http://www.w3.org/2000/svg">
<rect y="-68.2981" width="402" height="150.75" fill="#6A3F29"/>
<path d="M402 -68.2981L50.25 -68.2981L93.5906 40.3676L402 60.4676L402 -68.2981Z" fill="#D9D9D9" fill-opacity="0.05"/>
<path d="M387.859 -12.4655L398.231 -8.38255L384.939 -10.4442L374.306 -12.0549L357.027 -14.1165L312.051 -4.28563L283.925 -2.1977L335.761 -9.95297L361.041 -18.2726L368.99 -14.1165L387.859 -12.4655Z" fill="#885C3C"/>
<path d="M51.8853 -49.0513L45.0692 -51.7346L53.8045 -50.3797L60.7927 -47.6699L72.1486 -46.3149L101.708 -56.9397L120.193 -58.3119L86.125 -49.0513L69.5109 -43.5835L64.2868 -46.3149L51.8853 -49.0513Z" fill="#885C3C"/>
<path d="M350.969 -48.796L360.544 -51.5555L348.273 -50.1622L338.457 -47.3754L322.506 -45.9821L280.984 -56.837L255.019 -58.2481L302.873 -51.3085L326.211 -43.1731L333.549 -45.9821L350.969 -48.796Z" fill="#885C3C"/>
<path d="M292.993 42.7466L278.887 34.7144L326.631 49.2431L358.087 53.2914L378.522 42.7793L391.95 52.7869L377.63 44.7547L354.885 57.3269L314.695 44.7547L292.993 42.7466Z" fill="#885C3C"/>
<path d="M130.007 -4.40221L147.285 3.84425L88.8033 -5.97998L50.2728 -10.1362L25.2412 -1.92325L8.79312 -12.1978L26.3338 -3.95134L54.1942 -14.2793L103.424 -6.46384L130.007 -4.40221Z" fill="#885C3C"/>
<path d="M340.262 76.6042L376.875 66.3744L354.706 74.5258L340.299 78.6831L311.425 69.9875L280.968 67.9355L261.732 59.7272L226.466 60.1876L186.391 61.7792L114.256 72.0396L99.8292 69.9875L79.1437 66.3533L109.447 67.9355L168.758 61.7792L207.23 58.1355L244.152 53.5581L340.262 76.6042Z" fill="#885C3C"/>
<path d="M137.939 41.0962L116.673 49.3427L114.014 51.4043L92.748 47.2811L83.4441 47.732L55.6292 60.1178L39.5825 55.9784L18.2228 55.9735L5.0249 47.732L22.3037 53.9168L55.4376 55.9628L86.0225 45.6498L110.027 49.3427L137.939 41.0962Z" fill="#885C3C"/>
<path d="M125.625 -16.7919L147.534 -24.9495L150.273 -26.9889L172.182 -22.9101L181.767 -20.8707L210.422 -30.6106L226.954 -26.5158L248.959 -29.0234L262.556 -20.8707L244.755 -26.9889L210.62 -26.5004L179.11 -18.811L154.38 -24.9495L125.625 -16.7919Z" fill="#885C3C"/>
<path d="M159.544 20.8956L190.752 7.2466L240.064 -0.662678L257.958 -3.35747L296.475 -16.7919L278.833 -8.74705L253.666 2.01607L204.277 7.2466L159.544 20.8956Z" fill="#885C3C"/>
<path d="M303.862 -32.6801L380.952 -45.0408L346.506 -32.2271L298.48 -28.5318L274.621 -38.856L240.064 -49.1641L212.152 -52.8364L154.999 -45.0408L128.416 -34.7328L85.8837 -28.097L28.6621 -32.2228L8.79365 -40.4667L48.6678 -32.2228L89.8711 -30.1586L205.517 -56.9919L226.772 -54.898L263.988 -42.9792L303.862 -32.6801Z" fill="#885C3C"/>
<path d="M93.4216 17.5064L16.3316 32.3796L50.7776 22.0784L98.8043 13.3581L122.663 23.6823L157.22 33.9904L185.132 40.1752L242.285 29.8672L268.868 19.5591L311.4 15.4359L368.622 22.0742L388.49 27.8056L348.616 22.0742L307.413 17.4975L191.767 46.8432L170.512 42.2368L133.296 27.8055L93.4216 17.5064Z" fill="#885C3C"/>
<path d="M387.859 -11.2092L398.231 -7.12623L384.939 -9.18785L374.306 -13.3111L357.027 -15.3727L312.051 -3.02931L283.925 -0.941383L335.761 -11.2092L361.041 -19.5288L368.99 -15.3727L387.859 -11.2092Z" fill="#472819"/>
<path d="M51.8853 -50.3074L45.0692 -52.9908L53.8045 -51.6359L60.7927 -48.926L72.1486 -47.5711L101.708 -55.6834L120.193 -57.0556L86.125 -50.3074L69.5109 -44.8397L64.2868 -47.5711L51.8853 -50.3074Z" fill="#472819"/>
<path d="M350.969 -50.0522L360.544 -52.8117L348.273 -51.4183L338.457 -48.6316L322.506 -47.2382L280.984 -55.5807L255.019 -56.9918L302.873 -50.0522L326.211 -44.4293L333.549 -47.2382L350.969 -50.0522Z" fill="#472819"/>
<path d="M292.993 44.0029L278.887 35.9707L326.631 47.987L358.087 52.0352L378.522 44.0356L391.95 54.0433L377.63 46.011L354.885 56.0707L314.695 46.011L292.993 44.0029Z" fill="#472819"/>
<path d="M130.007 -3.1459L147.285 5.10056L88.8033 -7.23616L50.2728 -11.3924L25.2412 -3.17943L8.79312 -13.454L26.3338 -5.20753L54.1942 -15.5355L103.424 -5.20752L130.007 -3.1459Z" fill="#472819"/>
<path d="M340.262 75.348L376.875 65.1182L354.706 73.2696L340.299 77.4269L311.425 71.2439L280.968 69.1918L261.732 60.9835L226.466 58.9314L186.391 63.0356L114.256 73.2959L99.8292 71.2439L79.1437 65.0972L109.447 69.1918L168.758 63.0356L207.23 56.8793L244.152 54.8144L340.262 75.348Z" fill="#472819"/>
<path d="M137.939 42.3525L116.673 50.599L114.014 52.6606L92.748 48.5374L83.4441 46.4758L55.6292 58.8616L39.5825 54.7222L18.2228 54.7173L5.0249 46.4758L22.3037 52.6606L55.4376 54.7067L86.0225 44.3936L110.027 50.599L137.939 42.3525Z" fill="#472819"/>
<path d="M125.625 -15.5356L147.534 -23.6932L150.273 -25.7326L172.182 -21.6538L181.767 -19.6144L210.422 -31.8668L226.954 -27.772L248.959 -27.7671L262.556 -19.6144L244.755 -25.7326L210.62 -27.7566L179.11 -17.5546L154.38 -23.6932L125.625 -15.5356Z" fill="#472819"/>
<path d="M159.544 22.1519L190.752 5.99042L240.064 0.593639L257.958 -2.10115L296.475 -15.5355L278.833 -7.49073L253.666 3.27238L204.277 5.99042L159.544 22.1519Z" fill="#472819"/>
<path d="M303.862 -31.4238L380.952 -43.7845L346.506 -33.4833L298.48 -27.2755L274.621 -37.5997L240.064 -47.9078L212.152 -54.0926L154.999 -43.7845L128.416 -33.4764L85.8837 -29.3532L28.6621 -33.479L8.79365 -41.7229L48.6678 -33.479L89.8711 -31.4148L205.517 -58.248L226.772 -56.1542L263.988 -41.7229L303.862 -31.4238Z" fill="#472819"/>
<path d="M93.4216 18.7627L16.3316 31.1235L50.7776 20.8222L98.8043 14.6144L122.663 24.9386L157.22 35.2467L185.132 41.4316L242.285 31.1235L268.868 20.8154L311.4 16.6922L368.622 20.818L388.49 29.0619L348.616 20.818L307.413 18.7538L191.767 45.587L170.512 43.4932L133.296 29.0619L93.4216 18.7627Z" fill="#472819"/>
</svg>
